<?xml version="1.0" encoding="UTF-8" standalone="no"?>
<svg width="2977.2px" height="540px" viewBox="0 0 2977.2 540"
 xmlns="http://www.w3.org/2000/svg" xmlns:xlink="http://www.w3.org/1999/xlink" version="1.2" baseProfile="tiny">
<title>budapest</title>
<desc>Generated by MuseScore Studio 4.4.4</desc>
<path class="" fill="#ffffff" fill-rule="evenodd" d="M0,0 L2977.2,0 L2977.2,540 L0,540 L0,0 "/>
<polyline class="StaffLines" fill="none" stroke="#000000" stroke-width="3.33" stroke-linejoin="bevel" points="0,211.68 2977.2,211.68"/>
<polyline class="StaffLines" fill="none" stroke="#000000" stroke-width="3.33" stroke-linejoin="bevel" points="0,241.92 2977.2,241.92"/>
<polyline class="StaffLines" fill="none" stroke="#000000" stroke-width="3.33" stroke-linejoin="bevel" points="0,272.16 2977.2,272.16"/>
<polyline class="StaffLines" fill="none" stroke="#000000" stroke-width="3.33" stroke-linejoin="bevel" points="0,302.4 2977.2,302.4"/>
<polyline class="StaffLines" fill="none" stroke="#000000" stroke-width="3.33" stroke-linejoin="bevel" points="0,332.64 2977.2,332.64"/>
<polyline class="BarLine" fill="none" stroke="#000000" stroke-width="16.63" stroke-linejoin="bevel" points="2195.13,210.017 2195.13,334.303"/>
<polyline class="BarLine" fill="none" stroke="#000000" stroke-width="16.63" stroke-linejoin="bevel" points="839.454,210.017 839.454,334.303"/>
<polyline class="BarLine" fill="none" stroke="#000000" stroke-width="16.63" stroke-linejoin="bevel" points="1517.29,210.017 1517.29,334.303"/>
<polyline class="BarLine" fill="none" stroke="#000000" stroke-width="16.63" stroke-linejoin="bevel" points="2968.88,210.017 2968.88,334.303"/>
<polyline class="Stem" fill="none" stroke="#000000" stroke-width="3.02" stroke-linejoin="bevel" points="2614.71,312.682 2614.71,173.88"/>
<polyline class="Stem" fill="none" stroke="#000000" stroke-width="3.02" stroke-linejoin="bevel" points="485.283,312.682 485.283,211.922"/>
<polyline class="Stem" fill="none" stroke="#000000" stroke-width="3.02" stroke-linejoin="bevel" points="1745.06,252.202 1745.06,174.111"/>
<polyline class="Stem" fill="none" stroke="#000000" stroke-width="3.02" stroke-linejoin="bevel" points="2902.44,312.682 2902.44,173.88"/>
<polyline class="Stem" fill="none" stroke="#000000" stroke-width="3.02" stroke-linejoin="bevel" points="2422.9,252.202 2422.9,174.111"/>
<polyline class="Stem" fill="none" stroke="#000000" stroke-width="3.02" stroke-linejoin="bevel" points="1601.19,312.682 1601.19,211.68"/>
<polyline class="Stem" fill="none" stroke="#000000" stroke-width="3.02" stroke-linejoin="bevel" points="725.056,252.202 725.056,173.88"/>
<polyline class="Stem" fill="none" stroke="#000000" stroke-width="3.02" stroke-linejoin="bevel" points="2279.03,312.682 2279.03,211.68"/>
<polyline class="Stem" fill="none" stroke="#000000" stroke-width="3.02" stroke-linejoin="bevel" points="2806.53,252.202 2806.53,173.88"/>
<polyline class="Stem" fill="none" stroke="#000000" stroke-width="3.02" stroke-linejoin="bevel" points="1840.96,312.682 1840.96,188.769"/>
<polyline class="Stem" fill="none" stroke="#000000" stroke-width="3.02" stroke-linejoin="bevel" points="245.511,312.682 245.511,211.68"/>
<polyline class="Stem" fill="none" stroke="#000000" stroke-width="3.02" stroke-linejoin="bevel" points="1936.87,312.682 1936.87,211.68"/>
<polyline class="Stem" fill="none" stroke="#000000" stroke-width="3.02" stroke-linejoin="bevel" points="923.351,312.682 923.351,211.68"/>
<polyline class="Stem" fill="none" stroke="#000000" stroke-width="3.02" stroke-linejoin="bevel" points="1402.9,252.202 1402.9,173.88"/>
<polyline class="Stem" fill="none" stroke="#000000" stroke-width="3.02" stroke-linejoin="bevel" points="2710.62,312.682 2710.62,173.88"/>
<polyline class="Stem" fill="none" stroke="#000000" stroke-width="3.02" stroke-linejoin="bevel" points="2518.8,312.682 2518.8,188.769"/>
<polyline class="Stem" fill="none" stroke="#000000" stroke-width="3.02" stroke-linejoin="bevel" points="1259.03,312.682 1259.03,211.68"/>
<polyline class="Stem" fill="none" stroke="#000000" stroke-width="3.02" stroke-linejoin="bevel" points="1163.12,312.682 1163.12,211.922"/>
<polyline class="Stem" fill="none" stroke="#000000" stroke-width="3.02" stroke-linejoin="bevel" points="2080.74,252.202 2080.74,173.88"/>
<path class="Hook" transform="matrix(1.2096,0,0,1.2096,483.771,211.68)" d="M0,22.7 C0,23 0.1,23.6 0.8,23.8 C5.1,25.2 13.7,30.6 20.2,41.7 C22,44.8 24.9,49.1 24.9,57.4 C24.9,64.6 23.1,72 20.4,79.2 C20.2,79.8 20.1,80.3 20.1,80.7 C20.1,81.4 20.5,81.7 21.2,81.7 C21.8,81.7 22.3,81.3 22.7,80.6 C27.2,72.6 28.9,63.3 28.9,54.2 C28.4,41.3 21,31.8 21,31.8 C21.3,31.8 11.8,19.5 9.1,15.3 C5.4,9.6 3.7,3.9 3.5,3.5 C3.4,3.2 2.5,-0.4 2.5,-0.4 C2.4,-0.8 1.9,-1.2 1.3,-1.2 C0.6,-1.2 0,-0.6 0,0.1 L0,22.7 "/>
<path class="Hook" transform="matrix(1.2096,0,0,1.2096,1161.61,211.68)" d="M0,22.7 C0,23 0.1,23.6 0.8,23.8 C5.1,25.2 13.7,30.6 20.2,41.7 C22,44.8 24.9,49.1 24.9,57.4 C24.9,64.6 23.1,72 20.4,79.2 C20.2,79.8 20.1,80.3 20.1,80.7 C20.1,81.4 20.5,81.7 21.2,81.7 C21.8,81.7 22.3,81.3 22.7,80.6 C27.2,72.6 28.9,63.3 28.9,54.2 C28.4,41.3 21,31.8 21,31.8 C21.3,31.8 11.8,19.5 9.1,15.3 C5.4,9.6 3.7,3.9 3.5,3.5 C3.4,3.2 2.5,-0.4 2.5,-0.4 C2.4,-0.8 1.9,-1.2 1.3,-1.2 C0.6,-1.2 0,-0.6 0,0.1 L0,22.7 "/>
<path class="Note" transform="matrix(1.2096,0,0,1.2096,1125.34,317.52)" d="M0,4.2 C0,8.5 3.1,13.3 11.2,13.3 C21.6,13.3 32.5,4.8 32.5,-4 C32.5,-9.9 27.5,-13.2 21.3,-13.2 C11.6,-13.2 0,-5 0,4.2"/>
<path class="Note" transform="matrix(1.2096,0,0,1.2096,2864.66,317.52)" d="M0,4.2 C0,8.5 3.1,13.3 11.2,13.3 C21.6,13.3 32.5,4.8 32.5,-4 C32.5,-9.9 27.5,-13.2 21.3,-13.2 C11.6,-13.2 0,-5 0,4.2"/>
<path class="Note" transform="matrix(1.2096,0,0,1.2096,2042.96,257.04)" d="M0,4.2 C0,8.5 3.1,13.3 11.2,13.3 C21.6,13.3 32.5,4.8 32.5,-4 C32.5,-9.9 27.5,-13.2 21.3,-13.2 C11.6,-13.2 0,-5 0,4.2"/>
<path class="Note" transform="matrix(1.2096,0,0,1.2096,1221.25,317.52)" d="M0,4.2 C0,8.5 3.1,13.3 11.2,13.3 C21.6,13.3 32.5,4.8 32.5,-4 C32.5,-9.9 27.5,-13.2 21.3,-13.2 C11.6,-13.2 0,-5 0,4.2"/>
<path class="Note" transform="matrix(1.2096,0,0,1.2096,2481.02,317.52)" d="M0,4.2 C0,8.5 3.1,13.3 11.2,13.3 C21.6,13.3 32.5,4.8 32.5,-4 C32.5,-9.9 27.5,-13.2 21.3,-13.2 C11.6,-13.2 0,-5 0,4.2"/>
<path class="Note" transform="matrix(1.2096,0,0,1.2096,1899.09,317.52)" d="M0,4.2 C0,8.5 3.1,13.3 11.2,13.3 C21.6,13.3 32.5,4.8 32.5,-4 C32.5,-9.9 27.5,-13.2 21.3,-13.2 C11.6,-13.2 0,-5 0,4.2"/>
<path class="Note" transform="matrix(1.2096,0,0,1.2096,885.57,317.52)" d="M0,4.2 C0,8.5 3.1,13.3 11.2,13.3 C21.6,13.3 32.5,4.8 32.5,-4 C32.5,-9.9 27.5,-13.2 21.3,-13.2 C11.6,-13.2 0,-5 0,4.2"/>
<path class="Note" transform="matrix(1.2096,0,0,1.2096,1365.12,257.04)" d="M0,4.2 C0,8.5 3.1,13.3 11.2,13.3 C21.6,13.3 32.5,4.8 32.5,-4 C32.5,-9.9 27.5,-13.2 21.3,-13.2 C11.6,-13.2 0,-5 0,4.2"/>
<path class="Note" transform="matrix(1.2096,0,0,1.2096,1803.18,317.52)" d="M0,4.2 C0,8.5 3.1,13.3 11.2,13.3 C21.6,13.3 32.5,4.8 32.5,-4 C32.5,-9.9 27.5,-13.2 21.3,-13.2 C11.6,-13.2 0,-5 0,4.2"/>
<path class="Note" transform="matrix(1.2096,0,0,1.2096,2385.11,257.04)" d="M0,4.2 C0,8.5 3.1,13.3 11.2,13.3 C21.6,13.3 32.5,4.8 32.5,-4 C32.5,-9.9 27.5,-13.2 21.3,-13.2 C11.6,-13.2 0,-5 0,4.2"/>
<path class="Note" transform="matrix(1.2096,0,0,1.2096,2672.84,317.52)" d="M0,4.2 C0,8.5 3.1,13.3 11.2,13.3 C21.6,13.3 32.5,4.8 32.5,-4 C32.5,-9.9 27.5,-13.2 21.3,-13.2 C11.6,-13.2 0,-5 0,4.2"/>
<path class="Note" transform="matrix(1.2096,0,0,1.2096,687.275,257.04)" d="M0,4.2 C0,8.5 3.1,13.3 11.2,13.3 C21.6,13.3 32.5,4.8 32.5,-4 C32.5,-9.9 27.5,-13.2 21.3,-13.2 C11.6,-13.2 0,-5 0,4.2"/>
<path class="Note" transform="matrix(1.2096,0,0,1.2096,207.73,317.52)" d="M0,4.2 C0,8.5 3.1,13.3 11.2,13.3 C21.6,13.3 32.5,4.8 32.5,-4 C32.5,-9.9 27.5,-13.2 21.3,-13.2 C11.6,-13.2 0,-5 0,4.2"/>
<path class="Note" transform="matrix(1.2096,0,0,1.2096,1563.41,317.52)" d="M0,4.2 C0,8.5 3.1,13.3 11.2,13.3 C21.6,13.3 32.5,4.8 32.5,-4 C32.5,-9.9 27.5,-13.2 21.3,-13.2 C11.6,-13.2 0,-5 0,4.2"/>
<path class="Note" transform="matrix(1.2096,0,0,1.2096,2768.75,257.04)" d="M0,4.2 C0,8.5 3.1,13.3 11.2,13.3 C21.6,13.3 32.5,4.8 32.5,-4 C32.5,-9.9 27.5,-13.2 21.3,-13.2 C11.6,-13.2 0,-5 0,4.2"/>
<path class="Note" transform="matrix(1.2096,0,0,1.2096,2241.25,317.52)" d="M0,4.2 C0,8.5 3.1,13.3 11.2,13.3 C21.6,13.3 32.5,4.8 32.5,-4 C32.5,-9.9 27.5,-13.2 21.3,-13.2 C11.6,-13.2 0,-5 0,4.2"/>
<path class="Note" transform="matrix(1.2096,0,0,1.2096,447.502,317.52)" d="M0,4.2 C0,8.5 3.1,13.3 11.2,13.3 C21.6,13.3 32.5,4.8 32.5,-4 C32.5,-9.9 27.5,-13.2 21.3,-13.2 C11.6,-13.2 0,-5 0,4.2"/>
<path class="Note" transform="matrix(1.2096,0,0,1.2096,1707.27,257.04)" d="M0,4.2 C0,8.5 3.1,13.3 11.2,13.3 C21.6,13.3 32.5,4.8 32.5,-4 C32.5,-9.9 27.5,-13.2 21.3,-13.2 C11.6,-13.2 0,-5 0,4.2"/>
<path class="Note" transform="matrix(1.2096,0,0,1.2096,2576.93,317.52)" d="M0,4.2 C0,8.5 3.1,13.3 11.2,13.3 C21.6,13.3 32.5,4.8 32.5,-4 C32.5,-9.9 27.5,-13.2 21.3,-13.2 C11.6,-13.2 0,-5 0,4.2"/>
<path class="Clef" transform="matrix(1.2096,0,0,1.2096,22.68,272.16)" d="M1.3,-25.2 C0.6,-25.2 0,-24.6 0,-23.9 L0,23.9 C0,24.6 0.6,25.2 1.3,25.2 L12.3,25.2 C13,25.2 13.6,24.6 13.6,23.9 L13.6,-23.9 C13.6,-24.6 13,-25.2 12.3,-25.2 L1.3,-25.2 M22.9,-25.2 C22.2,-25.2 21.6,-24.6 21.6,-23.9 L21.6,23.9 C21.6,24.6 22.2,25.2 22.9,25.2 L33.9,25.2 C34.6,25.2 35.2,24.6 35.2,23.9 L35.2,-23.9 C35.2,-24.6 34.6,-25.2 33.9,-25.2 L22.9,-25.2 "/>
<path class="TimeSig" transform="matrix(1.2096,0,0,1.2096,93.8007,241.92)" d="M20.8,12.7 L20.8,20.1 L12.5,20.1 C11.8,20.1 11.1,20.7 11.1,21.5 L11.1,23.4 C11.1,24.2 11.8,24.8 12.5,24.8 L42.8,24.8 C43.6,24.8 44.2,24.2 44.2,23.4 L44.2,21.5 C44.2,20.7 43.6,20.1 42.8,20.1 L33.9,20.1 L33.9,12.7 L42.8,12.7 C43.6,12.7 44.2,12 44.2,11.2 L44.2,9.3 C44.2,8.6 43.6,7.9 42.8,7.9 L33.9,7.9 L33.9,-8 C33.9,-8.6 33.6,-9.1 33.1,-9.3 L31.9,-9.9 C31.7,-10 31.4,-10.1 31.2,-10.1 C30.9,-10 30.5,-9.9 30.3,-9.7 L21.2,-1.4 C20.9,-1.1 20.8,-0.7 20.8,-0.3 L20.8,7.9 L9.3,7.9 C9.3,7.9 20.4,-4.1 32.2,-19.9 C32.6,-20.4 32.7,-20.9 32.7,-21.3 C32.7,-21.8 32.5,-22.2 32.4,-22.3 L30.2,-24.5 C30,-24.7 29.6,-24.9 29.2,-24.9 C28.6,-24.9 15.1,-24.9 14.4,-24.9 C13.6,-24.9 13.1,-24.3 13,-23.7 C13,-23.7 12.5,-16.3 9.9,-8.2 C7.3,-0.1 4.3,4.9 1.7,8.6 C1.7,8.6 1.4,9.1 1.4,9.7 C1.4,9.9 1.4,10.1 1.5,10.3 C1.9,11 2.5,12.1 2.5,12.1 C2.5,12.1 2.7,12.7 3.6,12.7 L20.8,12.7 "/>
<path class="TimeSig" transform="matrix(1.2096,0,0,1.2096,93.8007,302.4)" d="M20.8,12.7 L20.8,20.1 L12.5,20.1 C11.8,20.1 11.1,20.7 11.1,21.5 L11.1,23.4 C11.1,24.2 11.8,24.8 12.5,24.8 L42.8,24.8 C43.6,24.8 44.2,24.2 44.2,23.4 L44.2,21.5 C44.2,20.7 43.6,20.1 42.8,20.1 L33.9,20.1 L33.9,12.7 L42.8,12.7 C43.6,12.7 44.2,12 44.2,11.2 L44.2,9.3 C44.2,8.6 43.6,7.9 42.8,7.9 L33.9,7.9 L33.9,-8 C33.9,-8.6 33.6,-9.1 33.1,-9.3 L31.9,-9.9 C31.7,-10 31.4,-10.1 31.2,-10.1 C30.9,-10 30.5,-9.9 30.3,-9.7 L21.2,-1.4 C20.9,-1.1 20.8,-0.7 20.8,-0.3 L20.8,7.9 L9.3,7.9 C9.3,7.9 20.4,-4.1 32.2,-19.9 C32.6,-20.4 32.7,-20.9 32.7,-21.3 C32.7,-21.8 32.5,-22.2 32.4,-22.3 L30.2,-24.5 C30,-24.7 29.6,-24.9 29.2,-24.9 C28.6,-24.9 15.1,-24.9 14.4,-24.9 C13.6,-24.9 13.1,-24.3 13,-23.7 C13,-23.7 12.5,-16.3 9.9,-8.2 C7.3,-0.1 4.3,4.9 1.7,8.6 C1.7,8.6 1.4,9.1 1.4,9.7 C1.4,9.9 1.4,10.1 1.5,10.3 C1.9,11 2.5,12.1 2.5,12.1 C2.5,12.1 2.7,12.7 3.6,12.7 L20.8,12.7 "/>
<path class="Rest" transform="matrix(1.2096,0,0,1.2096,351.593,272.16)" d="M26.7,-20.3 C26.6,-20.3 26.4,-20.4 26.3,-20.4 C25.7,-20.4 25.2,-20.1 25,-19.6 C22.7,-15 17.9,-8.8 12.5,-7.8 C13.6,-9.1 14.3,-10.7 14.3,-12.6 C14.3,-16.5 11.1,-19.7 7.2,-19.7 C3.2,-19.7 0,-16.5 0,-12.6 C0,-7.2 5.3,-4.7 10,-4.7 C15.3,-4.7 18.8,-7.2 22.2,-10.9 L10.8,24.7 L13.5,25.5 L27.5,-18.6 C27.6,-18.7 27.6,-18.9 27.6,-19.1 C27.6,-19.6 27.3,-20 26.7,-20.3"/>
<path class="Rest" transform="matrix(1.2096,0,0,1.2096,543.411,272.16)" d="M23,16.6 C22.9,16.5 22.7,16.3 22.4,15.9 L10.9,1.7 C10.8,1.6 10.7,1.3 10.7,1.1 C10.7,0.8 10.8,0.4 10.9,0.2 L21.1,-15.2 C21.2,-15.4 21.3,-15.7 21.3,-15.9 L21.3,-16.8 C21.3,-17.1 21.2,-17.4 21,-17.6 L4.8,-39.5 C4.8,-39.5 4.4,-40.1 3.8,-40.1 C3.5,-40.1 3.3,-40.1 3,-39.8 C2.6,-39.5 2.5,-39.1 2.5,-38.8 C2.5,-38.2 2.8,-37.7 2.8,-37.7 L10.4,-27.3 C10.6,-27 10.7,-26.6 10.7,-26.1 C10.7,-25.7 10.6,-25.2 10.4,-24.9 L0.3,-9.5 C0.2,-9.3 0.1,-8.9 0.1,-8.7 L0.1,-7.8 C0.1,-7.5 0.2,-7.2 0.4,-7 L11.6,6.9 C11.2,6.8 10.3,6.6 9.1,6.6 C4,6.6 0,10.8 0,15.9 C0,17.3 0.3,18.7 1.1,19.8 C3.2,23 10.7,32.5 10.7,32.5 C10.7,32.5 11.2,33.1 11.9,33.1 C12.1,33.1 12.3,33.1 12.5,32.9 C13,32.5 13.2,32.1 13.2,31.7 C13.2,31.3 13,31 12.9,30.8 C12.6,30.3 9.4,24.5 9.4,24.5 C9.4,24.5 8.7,23.1 8.7,21.3 C8.7,18.1 11.1,15.5 14.3,15.5 C15.6,15.5 16.7,15.9 17.5,16.4 L21.4,18.9 C21.4,18.9 21.8,19.1 22.2,19.1 C22.6,19.1 22.9,19 23.2,18.6 C23.4,18.3 23.5,18 23.5,17.7 C23.5,17.4 23.4,17.2 23.2,16.9 L23,16.6 "/>
<path class="Rest" transform="matrix(1.2096,0,0,1.2096,1029.43,272.16)" d="M26.7,-20.3 C26.6,-20.3 26.4,-20.4 26.3,-20.4 C25.7,-20.4 25.2,-20.1 25,-19.6 C22.7,-15 17.9,-8.8 12.5,-7.8 C13.6,-9.1 14.3,-10.7 14.3,-12.6 C14.3,-16.5 11.1,-19.7 7.2,-19.7 C3.2,-19.7 0,-16.5 0,-12.6 C0,-7.2 5.3,-4.7 10,-4.7 C15.3,-4.7 18.8,-7.2 22.2,-10.9 L10.8,24.7 L13.5,25.5 L27.5,-18.6 C27.6,-18.7 27.6,-18.9 27.6,-19.1 C27.6,-19.6 27.3,-20 26.7,-20.3"/>
<path class="Beam" fill-rule="evenodd" d="M1743.54,166.232 L1842.48,181.352 L1842.48,196.648 L1743.54,181.528 L1743.54,166.232 "/>
<path class="Beam" fill-rule="evenodd" d="M2421.38,166.232 L2520.32,181.352 L2520.32,196.648 L2421.38,181.528 L2421.38,166.232 "/>
<path class="Beam" fill-rule="evenodd" d="M2613.2,166.32 L2903.95,166.32 L2903.95,181.44 L2613.2,181.44 L2613.2,166.32 "/>
<path class="Lyrics" d="M1744.11,404.574 L1743.17,408.824 C1742.41,412.224 1741.9,413.329 1741.22,413.754 C1740.37,414.349 1740.2,414.349 1734.84,414.434 L1718.44,414.434 C1721.41,411.884 1723.62,410.269 1726.94,408.059 C1738.92,400.324 1741.39,398.454 1743.85,395.309 C1746.74,391.484 1748.44,386.979 1748.44,382.984 C1748.44,373.889 1739.52,367.004 1727.53,367.004 C1715.97,367.004 1707.05,374.484 1707.05,384.174 C1707.05,390.124 1710.36,393.949 1715.46,393.949 C1719.88,393.949 1722.69,391.144 1722.69,386.724 C1722.69,383.069 1721.07,380.944 1717.16,379.074 C1716.23,378.649 1715.8,378.139 1715.8,377.459 C1715.8,374.739 1720.39,371.849 1724.64,371.849 C1730.59,371.849 1733.99,375.504 1733.99,381.794 C1733.99,388.849 1731.27,393.864 1722.26,403.469 C1712.74,413.584 1709.43,417.409 1705.18,423.529 L1705.18,427.524 C1707.39,427.269 1708.32,427.184 1709.6,427.184 L1741.56,427.184 C1743.17,427.184 1744.19,427.269 1746.74,427.524 L1748.7,404.574 L1744.11,404.574 "/>
<path class="Lyrics" d="M2527.71,412.819 C2526.69,418.174 2523.89,421.404 2520.15,421.404 C2516.92,421.404 2514.11,419.874 2510.8,416.219 C2514.2,412.054 2514.62,411.459 2516.41,408.059 C2521.59,397.944 2522.61,396.924 2528.65,396.499 L2529.58,396.499 L2529.58,392.844 L2505.61,392.844 L2505.61,396.499 L2506.46,396.499 C2511.48,396.499 2514.11,397.859 2514.11,400.494 C2514.11,404.149 2511.82,409.164 2508.16,413.329 C2504.08,408.484 2499.24,401.174 2494.48,392.249 C2499.07,390.209 2500.51,389.444 2502.72,387.914 C2506.63,385.194 2509.18,380.519 2509.18,376.014 C2509.18,369.129 2503.83,364.539 2495.92,364.539 C2487,364.539 2481.05,370.574 2481.05,379.584 C2481.05,383.324 2481.98,386.639 2484.62,392.249 C2475.1,396.754 2469.91,403.469 2469.91,411.119 C2469.91,415.369 2471.78,420.044 2474.76,423.274 C2477.9,426.674 2482.41,428.459 2488.19,428.459 C2494.31,428.459 2498.98,426.759 2504.51,422.424 C2508.59,426.589 2511.9,428.119 2516.58,428.119 C2525.59,428.119 2530.43,421.574 2531.45,413.329 L2527.71,412.819 M2492.69,388.679 C2490.23,383.579 2489.04,379.754 2489.04,376.609 C2489.04,371.679 2491.76,368.194 2495.67,368.194 C2499.58,368.194 2502.38,371.509 2502.38,376.184 C2502.38,379.414 2500.94,382.814 2498.73,384.939 C2497.37,386.214 2496.09,386.979 2492.69,388.679 M2486.23,395.734 C2491.76,406.699 2494.65,411.119 2501.87,419.534 C2498.13,421.914 2496.18,422.679 2493.29,422.679 C2485.72,422.679 2479.01,415.029 2479.01,406.529 C2479.01,401.854 2481.13,398.709 2486.23,395.734"/>
<path class="Lyrics" d="M1925.04,395.904 C1932.27,394.034 1938.73,390.804 1938.73,382.049 C1938.73,373.039 1930.74,367.004 1918.67,367.004 C1912.46,367.004 1907.45,368.619 1903.88,371.764 C1901.07,374.229 1899.37,377.799 1899.37,381.029 C1899.37,385.449 1902.69,388.764 1907.02,388.764 C1911.1,388.764 1913.91,386.044 1913.91,382.049 C1913.91,379.754 1912.97,377.969 1910.59,375.674 C1910.17,375.249 1910,374.994 1910,374.654 C1910,373.039 1913.14,371.424 1916.46,371.424 C1921.81,371.424 1924.96,375.334 1924.96,381.964 C1924.96,389.359 1922.49,393.864 1918.33,393.864 C1917.65,393.864 1916.8,393.779 1915.44,393.439 C1913.57,393.014 1912.97,392.929 1912.04,392.929 C1909.91,392.929 1908.89,393.864 1908.89,395.734 C1908.89,397.689 1910.17,398.964 1911.95,398.964 C1912.55,398.964 1913.06,398.879 1914.5,398.709 C1916.46,398.539 1916.97,398.454 1917.56,398.454 C1922.83,398.454 1925.47,402.534 1925.47,410.524 C1925.47,419.109 1921.9,423.954 1915.61,423.954 C1912.04,423.954 1908.3,422.169 1908.3,420.384 C1908.3,419.874 1908.55,419.364 1909.06,418.854 C1911.61,416.474 1912.21,415.369 1912.21,412.904 C1912.21,408.909 1909.06,405.849 1904.9,405.849 C1900.31,405.849 1897.25,409.164 1897.25,413.924 C1897.25,422.509 1905.58,428.374 1917.82,428.374 C1929.04,428.374 1940.26,423.699 1940.26,410.779 C1940.26,405.424 1937.88,400.749 1933.97,398.454 C1931.5,397.094 1929.55,396.499 1925.04,395.904"/>
<path class="Lyrics" d="M2076.51,406.104 L2076.51,379.924 C2076.51,378.649 2076.68,373.124 2077.02,367.004 L2071.16,367.004 L2040.22,405.509 L2040.22,411.799 L2063.17,411.799 L2063.17,414.944 C2063.17,420.214 2063.17,420.554 2062.57,421.404 C2061.89,422.254 2060.11,422.594 2056.11,422.594 L2055.18,422.594 L2055.18,427.184 L2084.16,427.184 L2084.16,422.594 L2083.23,422.594 C2079.49,422.509 2077.7,422.169 2077.11,421.404 C2076.51,420.469 2076.51,420.214 2076.51,414.944 L2076.51,411.799 L2085.01,411.799 L2085.01,406.104 L2076.51,406.104 M2063.17,406.104 L2046.42,406.104 L2063.17,384.854 L2063.17,406.104 "/>
<path class="Lyrics" d="M234.536,367.004 L231.561,367.004 C226.206,370.999 220.171,372.699 210.056,372.869 L210.056,377.629 L213.626,377.629 C221.191,377.629 221.276,377.799 221.191,384.769 L221.191,414.944 C221.191,420.214 221.191,420.469 220.596,421.319 C219.831,422.254 218.131,422.594 213.541,422.594 L210.821,422.594 L210.821,427.184 L244.736,427.184 L244.736,422.594 L242.016,422.594 C237.511,422.594 235.896,422.254 235.131,421.319 C234.536,420.469 234.536,420.129 234.536,414.944 L234.536,367.004 "/>
<path class="Lyrics" d="M2911.35,412.819 C2910.33,418.174 2907.52,421.404 2903.78,421.404 C2900.55,421.404 2897.75,419.874 2894.43,416.219 C2897.83,412.054 2898.26,411.459 2900.04,408.059 C2905.23,397.944 2906.25,396.924 2912.28,396.499 L2913.22,396.499 L2913.22,392.844 L2889.25,392.844 L2889.25,396.499 L2890.1,396.499 C2895.11,396.499 2897.75,397.859 2897.75,400.494 C2897.75,404.149 2895.45,409.164 2891.8,413.329 C2887.72,408.484 2882.87,401.174 2878.11,392.249 C2882.7,390.209 2884.15,389.444 2886.36,387.914 C2890.27,385.194 2892.82,380.519 2892.82,376.014 C2892.82,369.129 2887.46,364.539 2879.56,364.539 C2870.63,364.539 2864.68,370.574 2864.68,379.584 C2864.68,383.324 2865.62,386.639 2868.25,392.249 C2858.73,396.754 2853.55,403.469 2853.55,411.119 C2853.55,415.369 2855.42,420.044 2858.39,423.274 C2861.54,426.674 2866.04,428.459 2871.82,428.459 C2877.94,428.459 2882.62,426.759 2888.14,422.424 C2892.22,426.589 2895.54,428.119 2900.21,428.119 C2909.22,428.119 2914.07,421.574 2915.09,413.329 L2911.35,412.819 M2876.33,388.679 C2873.86,383.579 2872.67,379.754 2872.67,376.609 C2872.67,371.679 2875.39,368.194 2879.3,368.194 C2883.21,368.194 2886.02,371.509 2886.02,376.184 C2886.02,379.414 2884.57,382.814 2882.36,384.939 C2881,386.214 2879.73,386.979 2876.33,388.679 M2869.87,395.734 C2875.39,406.699 2878.28,411.119 2885.51,419.534 C2881.77,421.914 2879.81,422.679 2876.92,422.679 C2869.36,422.679 2862.64,415.029 2862.64,406.529 C2862.64,401.854 2864.77,398.709 2869.87,395.734"/>
<path class="Lyrics" d="M494.19,412.819 C493.17,418.174 490.365,421.404 486.625,421.404 C483.395,421.404 480.59,419.874 477.275,416.219 C480.675,412.054 481.1,411.459 482.885,408.059 C488.07,397.944 489.09,396.924 495.125,396.499 L496.06,396.499 L496.06,392.844 L472.09,392.844 L472.09,396.499 L472.94,396.499 C477.955,396.499 480.59,397.859 480.59,400.494 C480.59,404.149 478.295,409.164 474.64,413.329 C470.56,408.484 465.715,401.174 460.955,392.249 C465.545,390.209 466.99,389.444 469.2,387.914 C473.11,385.194 475.66,380.519 475.66,376.014 C475.66,369.129 470.305,364.539 462.4,364.539 C453.475,364.539 447.525,370.574 447.525,379.584 C447.525,383.324 448.46,386.639 451.095,392.249 C441.575,396.754 436.39,403.469 436.39,411.119 C436.39,415.369 438.26,420.044 441.235,423.274 C444.38,426.674 448.885,428.459 454.665,428.459 C460.785,428.459 465.46,426.759 470.985,422.424 C475.065,426.589 478.38,428.119 483.055,428.119 C492.065,428.119 496.91,421.574 497.93,413.329 L494.19,412.819 M459.17,388.679 C456.705,383.579 455.515,379.754 455.515,376.609 C455.515,371.679 458.235,368.194 462.145,368.194 C466.055,368.194 468.86,371.509 468.86,376.184 C468.86,379.414 467.415,382.814 465.205,384.939 C463.845,386.214 462.57,386.979 459.17,388.679 M452.71,395.734 C458.235,406.699 461.125,411.119 468.35,419.534 C464.61,421.914 462.655,422.679 459.765,422.679 C452.2,422.679 445.485,415.029 445.485,406.529 C445.485,401.854 447.61,398.709 452.71,395.734"/>
<path class="Lyrics" d="M1849.87,412.819 C1848.85,418.174 1846.05,421.404 1842.31,421.404 C1839.08,421.404 1836.27,419.874 1832.96,416.219 C1836.36,412.054 1836.78,411.459 1838.57,408.059 C1843.75,397.944 1844.77,396.924 1850.81,396.499 L1851.74,396.499 L1851.74,392.844 L1827.77,392.844 L1827.77,396.499 L1828.62,396.499 C1833.64,396.499 1836.27,397.859 1836.27,400.494 C1836.27,404.149 1833.98,409.164 1830.32,413.329 C1826.24,408.484 1821.4,401.174 1816.64,392.249 C1821.23,390.209 1822.67,389.444 1824.88,387.914 C1828.79,385.194 1831.34,380.519 1831.34,376.014 C1831.34,369.129 1825.99,364.539 1818.08,364.539 C1809.16,364.539 1803.21,370.574 1803.21,379.584 C1803.21,383.324 1804.14,386.639 1806.78,392.249 C1797.26,396.754 1792.07,403.469 1792.07,411.119 C1792.07,415.369 1793.94,420.044 1796.92,423.274 C1800.06,426.674 1804.57,428.459 1810.35,428.459 C1816.47,428.459 1821.14,426.759 1826.67,422.424 C1830.75,426.589 1834.06,428.119 1838.74,428.119 C1847.75,428.119 1852.59,421.574 1853.61,413.329 L1849.87,412.819 M1814.85,388.679 C1812.39,383.579 1811.2,379.754 1811.2,376.609 C1811.2,371.679 1813.92,368.194 1817.83,368.194 C1821.74,368.194 1824.54,371.509 1824.54,376.184 C1824.54,379.414 1823.1,382.814 1820.89,384.939 C1819.53,386.214 1818.25,386.979 1814.85,388.679 M1808.39,395.734 C1813.92,406.699 1816.81,411.119 1824.03,419.534 C1820.29,421.914 1818.34,422.679 1815.45,422.679 C1807.88,422.679 1801.17,415.029 1801.17,406.529 C1801.17,401.854 1803.29,398.709 1808.39,395.734"/>
<path class="Lyrics" d="M2802.31,406.104 L2802.31,379.924 C2802.31,378.649 2802.48,373.124 2802.82,367.004 L2796.95,367.004 L2766.01,405.509 L2766.01,411.799 L2788.96,411.799 L2788.96,414.944 C2788.96,420.214 2788.96,420.554 2788.37,421.404 C2787.69,422.254 2785.9,422.594 2781.91,422.594 L2780.97,422.594 L2780.97,427.184 L2809.96,427.184 L2809.96,422.594 L2809.02,422.594 C2805.28,422.509 2803.5,422.169 2802.9,421.404 C2802.31,420.469 2802.31,420.214 2802.31,414.944 L2802.31,411.799 L2810.81,411.799 L2810.81,406.104 L2802.31,406.104 M2788.96,406.104 L2772.22,406.104 L2788.96,384.854 L2788.96,406.104 "/>
<path class="Lyrics" d="M720.831,406.104 L720.831,379.924 C720.831,378.649 721.001,373.124 721.341,367.004 L715.476,367.004 L684.536,405.509 L684.536,411.799 L707.486,411.799 L707.486,414.944 C707.486,420.214 707.486,420.554 706.891,421.404 C706.211,422.254 704.426,422.594 700.431,422.594 L699.496,422.594 L699.496,427.184 L728.481,427.184 L728.481,422.594 L727.546,422.594 C723.806,422.509 722.021,422.169 721.426,421.404 C720.831,420.469 720.831,420.214 720.831,414.944 L720.831,411.799 L729.331,411.799 L729.331,406.104 L720.831,406.104 M707.486,406.104 L690.741,406.104 L707.486,384.854 L707.486,406.104 "/>
<path class="Lyrics" d="M2268.06,367.004 L2265.08,367.004 C2259.73,370.999 2253.69,372.699 2243.58,372.869 L2243.58,377.629 L2247.15,377.629 C2254.71,377.629 2254.8,377.799 2254.71,384.769 L2254.71,414.944 C2254.71,420.214 2254.71,420.469 2254.12,421.319 C2253.35,422.254 2251.65,422.594 2247.06,422.594 L2244.34,422.594 L2244.34,427.184 L2278.26,427.184 L2278.26,422.594 L2275.54,422.594 C2271.03,422.594 2269.42,422.254 2268.65,421.319 C2268.06,420.469 2268.06,420.129 2268.06,414.944 L2268.06,367.004 "/>
<path class="Lyrics" d="M2719.53,412.819 C2718.51,418.174 2715.7,421.404 2711.96,421.404 C2708.73,421.404 2705.93,419.874 2702.61,416.219 C2706.01,412.054 2706.44,411.459 2708.22,408.059 C2713.41,397.944 2714.43,396.924 2720.46,396.499 L2721.4,396.499 L2721.4,392.844 L2697.43,392.844 L2697.43,396.499 L2698.28,396.499 C2703.29,396.499 2705.93,397.859 2705.93,400.494 C2705.93,404.149 2703.63,409.164 2699.98,413.329 C2695.9,408.484 2691.05,401.174 2686.29,392.249 C2690.88,390.209 2692.33,389.444 2694.54,387.914 C2698.45,385.194 2701,380.519 2701,376.014 C2701,369.129 2695.64,364.539 2687.74,364.539 C2678.81,364.539 2672.86,370.574 2672.86,379.584 C2672.86,383.324 2673.8,386.639 2676.43,392.249 C2666.91,396.754 2661.73,403.469 2661.73,411.119 C2661.73,415.369 2663.6,420.044 2666.57,423.274 C2669.72,426.674 2674.22,428.459 2680,428.459 C2686.12,428.459 2690.8,426.759 2696.32,422.424 C2700.4,426.589 2703.72,428.119 2708.39,428.119 C2717.4,428.119 2722.25,421.574 2723.27,413.329 L2719.53,412.819 M2684.51,388.679 C2682.04,383.579 2680.85,379.754 2680.85,376.609 C2680.85,371.679 2683.57,368.194 2687.48,368.194 C2691.39,368.194 2694.2,371.509 2694.2,376.184 C2694.2,379.414 2692.75,382.814 2690.54,384.939 C2689.18,386.214 2687.91,386.979 2684.51,388.679 M2678.05,395.734 C2683.57,406.699 2686.46,411.119 2693.69,419.534 C2689.95,421.914 2687.99,422.679 2685.1,422.679 C2677.54,422.679 2670.82,415.029 2670.82,406.529 C2670.82,401.854 2672.95,398.709 2678.05,395.734"/>
<path class="Lyrics" d="M1590.22,367.004 L1587.24,367.004 C1581.89,370.999 1575.85,372.699 1565.74,372.869 L1565.74,377.629 L1569.31,377.629 C1576.87,377.629 1576.96,377.799 1576.87,384.769 L1576.87,414.944 C1576.87,420.214 1576.87,420.469 1576.28,421.319 C1575.51,422.254 1573.81,422.594 1569.22,422.594 L1566.5,422.594 L1566.5,427.184 L1600.42,427.184 L1600.42,422.594 L1597.7,422.594 C1593.19,422.594 1591.58,422.254 1590.81,421.319 C1590.22,420.469 1590.22,420.129 1590.22,414.944 L1590.22,367.004 "/>
<path class="Lyrics" d="M912.377,367.004 L909.402,367.004 C904.047,370.999 898.012,372.699 887.897,372.869 L887.897,377.629 L891.467,377.629 C899.032,377.629 899.117,377.799 899.032,384.769 L899.032,414.944 C899.032,420.214 899.032,420.469 898.437,421.319 C897.672,422.254 895.972,422.594 891.382,422.594 L888.662,422.594 L888.662,427.184 L922.577,427.184 L922.577,422.594 L919.857,422.594 C915.352,422.594 913.737,422.254 912.972,421.319 C912.377,420.469 912.377,420.129 912.377,414.944 L912.377,367.004 "/>
<path class="Lyrics" d="M1398.67,406.104 L1398.67,379.924 C1398.67,378.649 1398.84,373.124 1399.18,367.004 L1393.32,367.004 L1362.38,405.509 L1362.38,411.799 L1385.33,411.799 L1385.33,414.944 C1385.33,420.214 1385.33,420.554 1384.73,421.404 C1384.05,422.254 1382.27,422.594 1378.27,422.594 L1377.34,422.594 L1377.34,427.184 L1406.32,427.184 L1406.32,422.594 L1405.39,422.594 C1401.65,422.509 1399.86,422.169 1399.27,421.404 C1398.67,420.469 1398.67,420.214 1398.67,414.944 L1398.67,411.799 L1407.17,411.799 L1407.17,406.104 L1398.67,406.104 M1385.33,406.104 L1368.58,406.104 L1385.33,384.854 L1385.33,406.104 "/>
<path class="Lyrics" d="M2421.95,404.574 L2421.01,408.824 C2420.25,412.224 2419.74,413.329 2419.06,413.754 C2418.21,414.349 2418.04,414.349 2412.68,414.434 L2396.28,414.434 C2399.25,411.884 2401.46,410.269 2404.78,408.059 C2416.76,400.324 2419.23,398.454 2421.69,395.309 C2424.58,391.484 2426.28,386.979 2426.28,382.984 C2426.28,373.889 2417.36,367.004 2405.37,367.004 C2393.81,367.004 2384.89,374.484 2384.89,384.174 C2384.89,390.124 2388.2,393.949 2393.3,393.949 C2397.72,393.949 2400.53,391.144 2400.53,386.724 C2400.53,383.069 2398.91,380.944 2395,379.074 C2394.07,378.649 2393.64,378.139 2393.64,377.459 C2393.64,374.739 2398.23,371.849 2402.48,371.849 C2408.43,371.849 2411.83,375.504 2411.83,381.794 C2411.83,388.849 2409.11,393.864 2400.1,403.469 C2390.58,413.584 2387.27,417.409 2383.02,423.529 L2383.02,427.524 C2385.23,427.269 2386.16,427.184 2387.44,427.184 L2419.4,427.184 C2421.01,427.184 2422.03,427.269 2424.58,427.524 L2426.54,404.574 L2421.95,404.574 "/>
<path class="Lyrics" d="M2602.88,395.904 C2610.11,394.034 2616.57,390.804 2616.57,382.049 C2616.57,373.039 2608.58,367.004 2596.51,367.004 C2590.3,367.004 2585.29,368.619 2581.72,371.764 C2578.91,374.229 2577.21,377.799 2577.21,381.029 C2577.21,385.449 2580.53,388.764 2584.86,388.764 C2588.94,388.764 2591.75,386.044 2591.75,382.049 C2591.75,379.754 2590.81,377.969 2588.43,375.674 C2588.01,375.249 2587.84,374.994 2587.84,374.654 C2587.84,373.039 2590.98,371.424 2594.3,371.424 C2599.65,371.424 2602.8,375.334 2602.8,381.964 C2602.8,389.359 2600.33,393.864 2596.17,393.864 C2595.49,393.864 2594.64,393.779 2593.28,393.439 C2591.41,393.014 2590.81,392.929 2589.88,392.929 C2587.75,392.929 2586.73,393.864 2586.73,395.734 C2586.73,397.689 2588.01,398.964 2589.79,398.964 C2590.39,398.964 2590.9,398.879 2592.34,398.709 C2594.3,398.539 2594.81,398.454 2595.4,398.454 C2600.67,398.454 2603.31,402.534 2603.31,410.524 C2603.31,419.109 2599.74,423.954 2593.45,423.954 C2589.88,423.954 2586.14,422.169 2586.14,420.384 C2586.14,419.874 2586.39,419.364 2586.9,418.854 C2589.45,416.474 2590.05,415.369 2590.05,412.904 C2590.05,408.909 2586.9,405.849 2582.74,405.849 C2578.15,405.849 2575.09,409.164 2575.09,413.924 C2575.09,422.509 2583.42,428.374 2595.66,428.374 C2606.88,428.374 2618.1,423.699 2618.1,410.779 C2618.1,405.424 2615.72,400.749 2611.81,398.454 C2609.34,397.094 2607.39,396.499 2602.88,395.904"/>
<path class="Lyrics" d="M1172.03,412.819 C1171.01,418.174 1168.21,421.404 1164.47,421.404 C1161.24,421.404 1158.43,419.874 1155.12,416.219 C1158.52,412.054 1158.94,411.459 1160.73,408.059 C1165.91,397.944 1166.93,396.924 1172.97,396.499 L1173.9,396.499 L1173.9,392.844 L1149.93,392.844 L1149.93,396.499 L1150.78,396.499 C1155.8,396.499 1158.43,397.859 1158.43,400.494 C1158.43,404.149 1156.14,409.164 1152.48,413.329 C1148.4,408.484 1143.56,401.174 1138.8,392.249 C1143.39,390.209 1144.83,389.444 1147.04,387.914 C1150.95,385.194 1153.5,380.519 1153.5,376.014 C1153.5,369.129 1148.15,364.539 1140.24,364.539 C1131.32,364.539 1125.37,370.574 1125.37,379.584 C1125.37,383.324 1126.3,386.639 1128.94,392.249 C1119.42,396.754 1114.23,403.469 1114.23,411.119 C1114.23,415.369 1116.1,420.044 1119.08,423.274 C1122.22,426.674 1126.73,428.459 1132.51,428.459 C1138.63,428.459 1143.3,426.759 1148.83,422.424 C1152.91,426.589 1156.22,428.119 1160.9,428.119 C1169.91,428.119 1174.75,421.574 1175.77,413.329 L1172.03,412.819 M1137.01,388.679 C1134.55,383.579 1133.36,379.754 1133.36,376.609 C1133.36,371.679 1136.08,368.194 1139.99,368.194 C1143.9,368.194 1146.7,371.509 1146.7,376.184 C1146.7,379.414 1145.26,382.814 1143.05,384.939 C1141.69,386.214 1140.41,386.979 1137.01,388.679 M1130.55,395.734 C1136.08,406.699 1138.97,411.119 1146.19,419.534 C1142.45,421.914 1140.5,422.679 1137.61,422.679 C1130.04,422.679 1123.33,415.029 1123.33,406.529 C1123.33,401.854 1125.45,398.709 1130.55,395.734"/>
<path class="Lyrics" d="M1247.2,395.904 C1254.43,394.034 1260.89,390.804 1260.89,382.049 C1260.89,373.039 1252.9,367.004 1240.83,367.004 C1234.62,367.004 1229.61,368.619 1226.04,371.764 C1223.23,374.229 1221.53,377.799 1221.53,381.029 C1221.53,385.449 1224.85,388.764 1229.18,388.764 C1233.26,388.764 1236.07,386.044 1236.07,382.049 C1236.07,379.754 1235.13,377.969 1232.75,375.674 C1232.33,375.249 1232.16,374.994 1232.16,374.654 C1232.16,373.039 1235.3,371.424 1238.62,371.424 C1243.97,371.424 1247.12,375.334 1247.12,381.964 C1247.12,389.359 1244.65,393.864 1240.49,393.864 C1239.81,393.864 1238.96,393.779 1237.6,393.439 C1235.73,393.014 1235.13,392.929 1234.2,392.929 C1232.07,392.929 1231.05,393.864 1231.05,395.734 C1231.05,397.689 1232.33,398.964 1234.11,398.964 C1234.71,398.964 1235.22,398.879 1236.66,398.709 C1238.62,398.539 1239.13,398.454 1239.72,398.454 C1244.99,398.454 1247.63,402.534 1247.63,410.524 C1247.63,419.109 1244.06,423.954 1237.77,423.954 C1234.2,423.954 1230.46,422.169 1230.46,420.384 C1230.46,419.874 1230.71,419.364 1231.22,418.854 C1233.77,416.474 1234.37,415.369 1234.37,412.904 C1234.37,408.909 1231.22,405.849 1227.06,405.849 C1222.47,405.849 1219.41,409.164 1219.41,413.924 C1219.41,422.509 1227.74,428.374 1239.98,428.374 C1251.2,428.374 1262.42,423.699 1262.42,410.779 C1262.42,405.424 1260.04,400.749 1256.13,398.454 C1253.66,397.094 1251.71,396.499 1247.2,395.904"/>
<path class="StaffText" d="M1912.3,160.44 L1915.78,160.44 C1921.84,160.68 1924.24,163.14 1924.9,169.74 L1925.2,172.8 C1925.92,179.58 1928.14,182.34 1932.88,182.34 C1937.8,182.34 1940.14,179.04 1940.32,171.84 L1937.8,171.84 C1937.56,175.98 1936.84,177.78 1935.22,177.78 C1933.84,177.78 1933.24,176.76 1932.22,172.62 L1931.26,168.84 C1929.94,163.32 1927.6,160.8 1922.92,159.6 C1931.56,158.4 1935.7,154.92 1935.7,148.86 C1935.7,142.02 1929.94,138.12 1919.86,138.12 L1899.1,138.12 L1899.1,140.94 L1900.18,140.94 C1903.6,141 1904.74,141.18 1905.22,141.78 C1905.58,142.32 1905.58,142.44 1905.58,145.5 L1905.58,174.12 C1905.58,177.12 1905.58,177.24 1905.22,177.84 C1904.74,178.44 1903.6,178.62 1900.18,178.62 L1899.1,178.62 L1899.1,181.44 L1918.78,181.44 L1918.78,178.62 L1917.7,178.62 C1914.28,178.62 1913.14,178.44 1912.66,177.84 C1912.3,177.24 1912.3,177.12 1912.3,174.12 L1912.3,160.44 M1912.3,157.62 L1912.3,144.42 C1912.18,141.12 1912.48,140.88 1916.44,140.94 L1919.68,140.94 C1925.62,140.94 1928.32,143.46 1928.32,148.92 C1928.32,155.22 1924.96,157.62 1918.9,157.62 L1912.3,157.62 "/>
<path class="StaffText" d="M2517.69,139.8 L2515.05,139.8 C2513.07,150.6 2510.37,153.24 2501.07,153.42 L2498.55,153.42 C2494.95,153.3 2494.05,152.7 2494.23,150.54 L2494.23,120.3 C2494.23,117.3 2494.23,117.12 2494.59,116.58 C2495.07,115.98 2496.21,115.8 2499.63,115.74 L2500.71,115.74 L2500.71,112.92 L2481.03,112.92 L2481.03,115.74 L2482.11,115.74 C2485.53,115.8 2486.67,115.98 2487.15,116.58 C2487.51,117.12 2487.51,117.24 2487.51,120.3 L2487.51,148.86 C2487.51,151.92 2487.51,152.04 2487.15,152.58 C2486.67,153.18 2485.53,153.42 2482.11,153.42 L2481.03,153.42 L2481.03,156.24 L2516.43,156.24 L2517.69,139.8 "/>
<path class="StaffText" d="M1162.01,165 L1159.37,165 C1157.39,175.8 1154.69,178.44 1145.39,178.62 L1142.87,178.62 C1139.27,178.5 1138.37,177.9 1138.55,175.74 L1138.55,145.5 C1138.55,142.5 1138.55,142.32 1138.91,141.78 C1139.39,141.18 1140.53,141 1143.95,140.94 L1145.03,140.94 L1145.03,138.12 L1125.35,138.12 L1125.35,140.94 L1126.43,140.94 C1129.85,141 1130.99,141.18 1131.47,141.78 C1131.83,142.32 1131.83,142.44 1131.83,145.5 L1131.83,174.06 C1131.83,177.12 1131.83,177.24 1131.47,177.78 C1130.99,178.38 1129.85,178.62 1126.43,178.62 L1125.35,178.62 L1125.35,181.44 L1160.75,181.44 L1162.01,165 "/>
<path class="StaffText" d="M1234.46,160.44 L1237.94,160.44 C1244,160.68 1246.4,163.14 1247.06,169.74 L1247.36,172.8 C1248.08,179.58 1250.3,182.34 1255.04,182.34 C1259.96,182.34 1262.3,179.04 1262.48,171.84 L1259.96,171.84 C1259.72,175.98 1259,177.78 1257.38,177.78 C1256,177.78 1255.4,176.76 1254.38,172.62 L1253.42,168.84 C1252.1,163.32 1249.76,160.8 1245.08,159.6 C1253.72,158.4 1257.86,154.92 1257.86,148.86 C1257.86,142.02 1252.1,138.12 1242.02,138.12 L1221.26,138.12 L1221.26,140.94 L1222.34,140.94 C1225.76,141 1226.9,141.18 1227.38,141.78 C1227.74,142.32 1227.74,142.44 1227.74,145.5 L1227.74,174.12 C1227.74,177.12 1227.74,177.24 1227.38,177.84 C1226.9,178.44 1225.76,178.62 1222.34,178.62 L1221.26,178.62 L1221.26,181.44 L1240.94,181.44 L1240.94,178.62 L1239.86,178.62 C1236.44,178.62 1235.3,178.44 1234.82,177.84 C1234.46,177.24 1234.46,177.12 1234.46,174.12 L1234.46,160.44 M1234.46,157.62 L1234.46,144.42 C1234.34,141.12 1234.64,140.88 1238.6,140.94 L1241.84,140.94 C1247.78,140.94 1250.48,143.46 1250.48,148.92 C1250.48,155.22 1247.12,157.62 1241.06,157.62 L1234.46,157.62 "/>
<path class="StaffText" d="M898.783,160.44 L902.263,160.44 C908.323,160.68 910.723,163.14 911.383,169.74 L911.683,172.8 C912.403,179.58 914.623,182.34 919.363,182.34 C924.283,182.34 926.623,179.04 926.803,171.84 L924.283,171.84 C924.043,175.98 923.323,177.78 921.703,177.78 C920.323,177.78 919.723,176.76 918.703,172.62 L917.743,168.84 C916.423,163.32 914.083,160.8 909.403,159.6 C918.043,158.4 922.183,154.92 922.183,148.86 C922.183,142.02 916.423,138.12 906.343,138.12 L885.583,138.12 L885.583,140.94 L886.663,140.94 C890.083,141 891.223,141.18 891.703,141.78 C892.063,142.32 892.063,142.44 892.063,145.5 L892.063,174.12 C892.063,177.12 892.063,177.24 891.703,177.84 C891.223,178.44 890.083,178.62 886.663,178.62 L885.583,178.62 L885.583,181.44 L905.263,181.44 L905.263,178.62 L904.183,178.62 C900.763,178.62 899.623,178.44 899.143,177.84 C898.783,177.24 898.783,177.12 898.783,174.12 L898.783,160.44 M898.783,157.62 L898.783,144.42 C898.663,141.12 898.963,140.88 902.923,140.94 L906.163,140.94 C912.103,140.94 914.803,143.46 914.803,148.92 C914.803,155.22 911.443,157.62 905.383,157.62 L898.783,157.62 "/>
<path class="StaffText" d="M2398.33,129.309 L2401.81,129.309 C2407.87,129.549 2410.27,132.009 2410.93,138.609 L2411.23,141.669 C2411.95,148.449 2414.17,151.209 2418.91,151.209 C2423.83,151.209 2426.17,147.909 2426.35,140.709 L2423.83,140.709 C2423.59,144.849 2422.87,146.649 2421.25,146.649 C2419.87,146.649 2419.27,145.629 2418.25,141.489 L2417.29,137.709 C2415.97,132.189 2413.63,129.669 2408.95,128.469 C2417.59,127.269 2421.73,123.789 2421.73,117.729 C2421.73,110.889 2415.97,106.989 2405.89,106.989 L2385.13,106.989 L2385.13,109.809 L2386.21,109.809 C2389.63,109.869 2390.77,110.049 2391.25,110.649 C2391.61,111.189 2391.61,111.309 2391.61,114.369 L2391.61,142.989 C2391.61,145.989 2391.61,146.109 2391.25,146.709 C2390.77,147.309 2389.63,147.489 2386.21,147.489 L2385.13,147.489 L2385.13,150.309 L2404.81,150.309 L2404.81,147.489 L2403.73,147.489 C2400.31,147.489 2399.17,147.309 2398.69,146.709 C2398.33,146.109 2398.33,145.989 2398.33,142.989 L2398.33,129.309 M2398.33,126.489 L2398.33,113.289 C2398.21,109.989 2398.51,109.749 2402.47,109.809 L2405.71,109.809 C2411.65,109.809 2414.35,112.329 2414.35,117.789 C2414.35,124.089 2410.99,126.489 2404.93,126.489 L2398.33,126.489 "/>
<path class="StaffText" d="M2590.15,129.309 L2593.63,129.309 C2599.69,129.549 2602.09,132.009 2602.75,138.609 L2603.05,141.669 C2603.77,148.449 2605.99,151.209 2610.73,151.209 C2615.65,151.209 2617.99,147.909 2618.17,140.709 L2615.65,140.709 C2615.41,144.849 2614.69,146.649 2613.07,146.649 C2611.69,146.649 2611.09,145.629 2610.07,141.489 L2609.11,137.709 C2607.79,132.189 2605.45,129.669 2600.77,128.469 C2609.41,127.269 2613.55,123.789 2613.55,117.729 C2613.55,110.889 2607.79,106.989 2597.71,106.989 L2576.95,106.989 L2576.95,109.809 L2578.03,109.809 C2581.45,109.869 2582.59,110.049 2583.07,110.649 C2583.43,111.189 2583.43,111.309 2583.43,114.369 L2583.43,142.989 C2583.43,145.989 2583.43,146.109 2583.07,146.709 C2582.59,147.309 2581.45,147.489 2578.03,147.489 L2576.95,147.489 L2576.95,150.309 L2596.63,150.309 L2596.63,147.489 L2595.55,147.489 C2592.13,147.489 2590.99,147.309 2590.51,146.709 C2590.15,146.109 2590.15,145.989 2590.15,142.989 L2590.15,129.309 M2590.15,126.489 L2590.15,113.289 C2590.03,109.989 2590.33,109.749 2594.29,109.809 L2597.53,109.809 C2603.47,109.809 2606.17,112.329 2606.17,117.789 C2606.17,124.089 2602.81,126.489 2596.75,126.489 L2590.15,126.489 "/>
<path class="StaffText" d="M1378.33,136.869 L1381.81,136.869 C1387.87,137.109 1390.27,139.569 1390.93,146.169 L1391.23,149.229 C1391.95,156.009 1394.17,158.769 1398.91,158.769 C1403.83,158.769 1406.17,155.469 1406.35,148.269 L1403.83,148.269 C1403.59,152.409 1402.87,154.209 1401.25,154.209 C1399.87,154.209 1399.27,153.189 1398.25,149.049 L1397.29,145.269 C1395.97,139.749 1393.63,137.229 1388.95,136.029 C1397.59,134.829 1401.73,131.349 1401.73,125.289 C1401.73,118.449 1395.97,114.549 1385.89,114.549 L1365.13,114.549 L1365.13,117.369 L1366.21,117.369 C1369.63,117.429 1370.77,117.609 1371.25,118.209 C1371.61,118.749 1371.61,118.869 1371.61,121.929 L1371.61,150.549 C1371.61,153.549 1371.61,153.669 1371.25,154.269 C1370.77,154.869 1369.63,155.049 1366.21,155.049 L1365.13,155.049 L1365.13,157.869 L1384.81,157.869 L1384.81,155.049 L1383.73,155.049 C1380.31,155.049 1379.17,154.869 1378.69,154.269 C1378.33,153.669 1378.33,153.549 1378.33,150.549 L1378.33,136.869 M1378.33,134.049 L1378.33,120.849 C1378.21,117.549 1378.51,117.309 1382.47,117.369 L1385.71,117.369 C1391.65,117.369 1394.35,119.889 1394.35,125.349 C1394.35,131.649 1390.99,134.049 1384.93,134.049 L1378.33,134.049 "/>
<path class="StaffText" d="M700.488,136.869 L703.968,136.869 C710.028,137.109 712.428,139.569 713.088,146.169 L713.388,149.229 C714.108,156.009 716.328,158.769 721.068,158.769 C725.988,158.769 728.328,155.469 728.508,148.269 L725.988,148.269 C725.748,152.409 725.028,154.209 723.408,154.209 C722.028,154.209 721.428,153.189 720.408,149.049 L719.448,145.269 C718.128,139.749 715.788,137.229 711.108,136.029 C719.748,134.829 723.888,131.349 723.888,125.289 C723.888,118.449 718.128,114.549 708.048,114.549 L687.288,114.549 L687.288,117.369 L688.368,117.369 C691.788,117.429 692.928,117.609 693.408,118.209 C693.768,118.749 693.768,118.869 693.768,121.929 L693.768,150.549 C693.768,153.549 693.768,153.669 693.408,154.269 C692.928,154.869 691.788,155.049 688.368,155.049 L687.288,155.049 L687.288,157.869 L706.968,157.869 L706.968,155.049 L705.888,155.049 C702.468,155.049 701.328,154.869 700.848,154.269 C700.488,153.669 700.488,153.549 700.488,150.549 L700.488,136.869 M700.488,134.049 L700.488,120.849 C700.368,117.549 700.668,117.309 704.628,117.369 L707.868,117.369 C713.808,117.369 716.508,119.889 716.508,125.349 C716.508,131.649 713.148,134.049 707.088,134.049 L700.488,134.049 "/>
<path class="StaffText" d="M2254.46,160.44 L2257.94,160.44 C2264,160.68 2266.4,163.14 2267.06,169.74 L2267.36,172.8 C2268.08,179.58 2270.3,182.34 2275.04,182.34 C2279.96,182.34 2282.3,179.04 2282.48,171.84 L2279.96,171.84 C2279.72,175.98 2279,177.78 2277.38,177.78 C2276,177.78 2275.4,176.76 2274.38,172.62 L2273.42,168.84 C2272.1,163.32 2269.76,160.8 2265.08,159.6 C2273.72,158.4 2277.86,154.92 2277.86,148.86 C2277.86,142.02 2272.1,138.12 2262.02,138.12 L2241.26,138.12 L2241.26,140.94 L2242.34,140.94 C2245.76,141 2246.9,141.18 2247.38,141.78 C2247.74,142.32 2247.74,142.44 2247.74,145.5 L2247.74,174.12 C2247.74,177.12 2247.74,177.24 2247.38,177.84 C2246.9,178.44 2245.76,178.62 2242.34,178.62 L2241.26,178.62 L2241.26,181.44 L2260.94,181.44 L2260.94,178.62 L2259.86,178.62 C2256.44,178.62 2255.3,178.44 2254.82,177.84 C2254.46,177.24 2254.46,177.12 2254.46,174.12 L2254.46,160.44 M2254.46,157.62 L2254.46,144.42 C2254.34,141.12 2254.64,140.88 2258.6,140.94 L2261.84,140.94 C2267.78,140.94 2270.48,143.46 2270.48,148.92 C2270.48,155.22 2267.12,157.62 2261.06,157.62 L2254.46,157.62 "/>
<path class="StaffText" d="M2709.51,134.76 L2706.87,134.76 C2704.89,145.56 2702.19,148.2 2692.89,148.38 L2690.37,148.38 C2686.77,148.26 2685.87,147.66 2686.05,145.5 L2686.05,115.26 C2686.05,112.26 2686.05,112.08 2686.41,111.54 C2686.89,110.94 2688.03,110.76 2691.45,110.7 L2692.53,110.7 L2692.53,107.88 L2672.85,107.88 L2672.85,110.7 L2673.93,110.7 C2677.35,110.76 2678.49,110.94 2678.97,111.54 C2679.33,112.08 2679.33,112.2 2679.33,115.26 L2679.33,143.82 C2679.33,146.88 2679.33,147 2678.97,147.54 C2678.49,148.14 2677.35,148.38 2673.93,148.38 L2672.85,148.38 L2672.85,151.2 L2708.25,151.2 L2709.51,134.76 "/>
<path class="StaffText" d="M1576.62,160.44 L1580.1,160.44 C1586.16,160.68 1588.56,163.14 1589.22,169.74 L1589.52,172.8 C1590.24,179.58 1592.46,182.34 1597.2,182.34 C1602.12,182.34 1604.46,179.04 1604.64,171.84 L1602.12,171.84 C1601.88,175.98 1601.16,177.78 1599.54,177.78 C1598.16,177.78 1597.56,176.76 1596.54,172.62 L1595.58,168.84 C1594.26,163.32 1591.92,160.8 1587.24,159.6 C1595.88,158.4 1600.02,154.92 1600.02,148.86 C1600.02,142.02 1594.26,138.12 1584.18,138.12 L1563.42,138.12 L1563.42,140.94 L1564.5,140.94 C1567.92,141 1569.06,141.18 1569.54,141.78 C1569.9,142.32 1569.9,142.44 1569.9,145.5 L1569.9,174.12 C1569.9,177.12 1569.9,177.24 1569.54,177.84 C1569.06,178.44 1567.92,178.62 1564.5,178.62 L1563.42,178.62 L1563.42,181.44 L1583.1,181.44 L1583.1,178.62 L1582.02,178.62 C1578.6,178.62 1577.46,178.44 1576.98,177.84 C1576.62,177.24 1576.62,177.12 1576.62,174.12 L1576.62,160.44 M1576.62,157.62 L1576.62,144.42 C1576.5,141.12 1576.8,140.88 1580.76,140.94 L1584,140.94 C1589.94,140.94 1592.64,143.46 1592.64,148.92 C1592.64,155.22 1589.28,157.62 1583.22,157.62 L1576.62,157.62 "/>
<path class="StaffText" d="M484.169,165 L481.529,165 C479.549,175.8 476.849,178.44 467.549,178.62 L465.029,178.62 C461.429,178.5 460.529,177.9 460.709,175.74 L460.709,145.5 C460.709,142.5 460.709,142.32 461.069,141.78 C461.549,141.18 462.689,141 466.109,140.94 L467.189,140.94 L467.189,138.12 L447.509,138.12 L447.509,140.94 L448.589,140.94 C452.009,141 453.149,141.18 453.629,141.78 C453.989,142.32 453.989,142.44 453.989,145.5 L453.989,174.06 C453.989,177.12 453.989,177.24 453.629,177.78 C453.149,178.38 452.009,178.62 448.589,178.62 L447.509,178.62 L447.509,181.44 L482.909,181.44 L484.169,165 "/>
<path class="StaffText" d="M1720.49,129.309 L1723.97,129.309 C1730.03,129.549 1732.43,132.009 1733.09,138.609 L1733.39,141.669 C1734.11,148.449 1736.33,151.209 1741.07,151.209 C1745.99,151.209 1748.33,147.909 1748.51,140.709 L1745.99,140.709 C1745.75,144.849 1745.03,146.649 1743.41,146.649 C1742.03,146.649 1741.43,145.629 1740.41,141.489 L1739.45,137.709 C1738.13,132.189 1735.79,129.669 1731.11,128.469 C1739.75,127.269 1743.89,123.789 1743.89,117.729 C1743.89,110.889 1738.13,106.989 1728.05,106.989 L1707.29,106.989 L1707.29,109.809 L1708.37,109.809 C1711.79,109.869 1712.93,110.049 1713.41,110.649 C1713.77,111.189 1713.77,111.309 1713.77,114.369 L1713.77,142.989 C1713.77,145.989 1713.77,146.109 1713.41,146.709 C1712.93,147.309 1711.79,147.489 1708.37,147.489 L1707.29,147.489 L1707.29,150.309 L1726.97,150.309 L1726.97,147.489 L1725.89,147.489 C1722.47,147.489 1721.33,147.309 1720.85,146.709 C1720.49,146.109 1720.49,145.989 1720.49,142.989 L1720.49,129.309 M1720.49,126.489 L1720.49,113.289 C1720.37,109.989 1720.67,109.749 1724.63,109.809 L1727.87,109.809 C1733.81,109.809 1736.51,112.329 1736.51,117.789 C1736.51,124.089 1733.15,126.489 1727.09,126.489 L1720.49,126.489 "/>
<path class="StaffText" d="M2781.96,129.309 L2785.44,129.309 C2791.5,129.549 2793.9,132.009 2794.56,138.609 L2794.86,141.669 C2795.58,148.449 2797.8,151.209 2802.54,151.209 C2807.46,151.209 2809.8,147.909 2809.98,140.709 L2807.46,140.709 C2807.22,144.849 2806.5,146.649 2804.88,146.649 C2803.5,146.649 2802.9,145.629 2801.88,141.489 L2800.92,137.709 C2799.6,132.189 2797.26,129.669 2792.58,128.469 C2801.22,127.269 2805.36,123.789 2805.36,117.729 C2805.36,110.889 2799.6,106.989 2789.52,106.989 L2768.76,106.989 L2768.76,109.809 L2769.84,109.809 C2773.26,109.869 2774.4,110.049 2774.88,110.649 C2775.24,111.189 2775.24,111.309 2775.24,114.369 L2775.24,142.989 C2775.24,145.989 2775.24,146.109 2774.88,146.709 C2774.4,147.309 2773.26,147.489 2769.84,147.489 L2768.76,147.489 L2768.76,150.309 L2788.44,150.309 L2788.44,147.489 L2787.36,147.489 C2783.94,147.489 2782.8,147.309 2782.32,146.709 C2781.96,146.109 2781.96,145.989 2781.96,142.989 L2781.96,129.309 M2781.96,126.489 L2781.96,113.289 C2781.84,109.989 2782.14,109.749 2786.1,109.809 L2789.34,109.809 C2795.28,109.809 2797.98,112.329 2797.98,117.789 C2797.98,124.089 2794.62,126.489 2788.56,126.489 L2781.96,126.489 "/>
<path class="StaffText" d="M220.943,160.44 L224.423,160.44 C230.483,160.68 232.883,163.14 233.543,169.74 L233.843,172.8 C234.563,179.58 236.783,182.34 241.523,182.34 C246.443,182.34 248.783,179.04 248.963,171.84 L246.443,171.84 C246.203,175.98 245.483,177.78 243.863,177.78 C242.483,177.78 241.883,176.76 240.863,172.62 L239.903,168.84 C238.583,163.32 236.243,160.8 231.563,159.6 C240.203,158.4 244.343,154.92 244.343,148.86 C244.343,142.02 238.583,138.12 228.503,138.12 L207.743,138.12 L207.743,140.94 L208.823,140.94 C212.243,141 213.383,141.18 213.863,141.78 C214.223,142.32 214.223,142.44 214.223,145.5 L214.223,174.12 C214.223,177.12 214.223,177.24 213.863,177.84 C213.383,178.44 212.243,178.62 208.823,178.62 L207.743,178.62 L207.743,181.44 L227.423,181.44 L227.423,178.62 L226.343,178.62 C222.923,178.62 221.783,178.44 221.303,177.84 C220.943,177.24 220.943,177.12 220.943,174.12 L220.943,160.44 M220.943,157.62 L220.943,144.42 C220.823,141.12 221.123,140.88 225.083,140.94 L228.323,140.94 C234.263,140.94 236.963,143.46 236.963,148.92 C236.963,155.22 233.603,157.62 227.543,157.62 L220.943,157.62 "/>
<path class="StaffText" d="M1839.85,139.8 L1837.21,139.8 C1835.23,150.6 1832.53,153.24 1823.23,153.42 L1820.71,153.42 C1817.11,153.3 1816.21,152.7 1816.39,150.54 L1816.39,120.3 C1816.39,117.3 1816.39,117.12 1816.75,116.58 C1817.23,115.98 1818.37,115.8 1821.79,115.74 L1822.87,115.74 L1822.87,112.92 L1803.19,112.92 L1803.19,115.74 L1804.27,115.74 C1807.69,115.8 1808.83,115.98 1809.31,116.58 C1809.67,117.12 1809.67,117.24 1809.67,120.3 L1809.67,148.86 C1809.67,151.92 1809.67,152.04 1809.31,152.58 C1808.83,153.18 1807.69,153.42 1804.27,153.42 L1803.19,153.42 L1803.19,156.24 L1838.59,156.24 L1839.85,139.8 "/>
<path class="StaffText" d="M2901.33,134.76 L2898.69,134.76 C2896.71,145.56 2894.01,148.2 2884.71,148.38 L2882.19,148.38 C2878.59,148.26 2877.69,147.66 2877.87,145.5 L2877.87,115.26 C2877.87,112.26 2877.87,112.08 2878.23,111.54 C2878.71,110.94 2879.85,110.76 2883.27,110.7 L2884.35,110.7 L2884.35,107.88 L2864.67,107.88 L2864.67,110.7 L2865.75,110.7 C2869.17,110.76 2870.31,110.94 2870.79,111.54 C2871.15,112.08 2871.15,112.2 2871.15,115.26 L2871.15,143.82 C2871.15,146.88 2871.15,147 2870.79,147.54 C2870.31,148.14 2869.17,148.38 2865.75,148.38 L2864.67,148.38 L2864.67,151.2 L2900.07,151.2 L2901.33,134.76 "/>
<path class="StaffText" d="M2056.17,136.869 L2059.65,136.869 C2065.71,137.109 2068.11,139.569 2068.77,146.169 L2069.07,149.229 C2069.79,156.009 2072.01,158.769 2076.75,158.769 C2081.67,158.769 2084.01,155.469 2084.19,148.269 L2081.67,148.269 C2081.43,152.409 2080.71,154.209 2079.09,154.209 C2077.71,154.209 2077.11,153.189 2076.09,149.049 L2075.13,145.269 C2073.81,139.749 2071.47,137.229 2066.79,136.029 C2075.43,134.829 2079.57,131.349 2079.57,125.289 C2079.57,118.449 2073.81,114.549 2063.73,114.549 L2042.97,114.549 L2042.97,117.369 L2044.05,117.369 C2047.47,117.429 2048.61,117.609 2049.09,118.209 C2049.45,118.749 2049.45,118.869 2049.45,121.929 L2049.45,150.549 C2049.45,153.549 2049.45,153.669 2049.09,154.269 C2048.61,154.869 2047.47,155.049 2044.05,155.049 L2042.97,155.049 L2042.97,157.869 L2062.65,157.869 L2062.65,155.049 L2061.57,155.049 C2058.15,155.049 2057.01,154.869 2056.53,154.269 C2056.17,153.669 2056.17,153.549 2056.17,150.549 L2056.17,136.869 M2056.17,134.049 L2056.17,120.849 C2056.05,117.549 2056.35,117.309 2060.31,117.369 L2063.55,117.369 C2069.49,117.369 2072.19,119.889 2072.19,125.349 C2072.19,131.649 2068.83,134.049 2062.77,134.049 L2056.17,134.049 "/>
</svg>
