<?xml version="1.0" encoding="UTF-8" standalone="no"?>
<svg width="2977.2px" height="540px" viewBox="0 0 2977.2 540"
 xmlns="http://www.w3.org/2000/svg" xmlns:xlink="http://www.w3.org/1999/xlink" version="1.2" baseProfile="tiny">
<title>du_bist_gut</title>
<desc>Generated by MuseScore Studio 4.4.4</desc>
<path class="" fill="#ffffff" fill-rule="evenodd" d="M0,0 L2977.2,0 L2977.2,540 L0,540 L0,0 "/>
<polyline class="StaffLines" fill="none" stroke="#000000" stroke-width="3.33" stroke-linejoin="bevel" points="0,211.68 2977.2,211.68"/>
<polyline class="StaffLines" fill="none" stroke="#000000" stroke-width="3.33" stroke-linejoin="bevel" points="0,241.92 2977.2,241.92"/>
<polyline class="StaffLines" fill="none" stroke="#000000" stroke-width="3.33" stroke-linejoin="bevel" points="0,272.16 2977.2,272.16"/>
<polyline class="StaffLines" fill="none" stroke="#000000" stroke-width="3.33" stroke-linejoin="bevel" points="0,302.4 2977.2,302.4"/>
<polyline class="StaffLines" fill="none" stroke="#000000" stroke-width="3.33" stroke-linejoin="bevel" points="0,332.64 2977.2,332.64"/>
<polyline class="BarLine" fill="none" stroke="#000000" stroke-width="16.63" stroke-linejoin="bevel" points="825.35,210.017 825.35,334.303"/>
<polyline class="BarLine" fill="none" stroke="#000000" stroke-width="16.63" stroke-linejoin="bevel" points="1489.09,210.017 1489.09,334.303"/>
<polyline class="BarLine" fill="none" stroke="#000000" stroke-width="16.63" stroke-linejoin="bevel" points="2203.6,210.017 2203.6,334.303"/>
<polyline class="BarLine" fill="none" stroke="#000000" stroke-width="16.63" stroke-linejoin="bevel" points="2968.88,210.017 2968.88,334.303"/>
<polyline class="Stem" fill="none" stroke="#000000" stroke-width="3.02" stroke-linejoin="bevel" points="1826.86,252.202 1826.86,173.88"/>
<polyline class="Stem" fill="none" stroke="#000000" stroke-width="3.02" stroke-linejoin="bevel" points="2439.82,252.202 2439.82,173.88"/>
<polyline class="Stem" fill="none" stroke="#000000" stroke-width="3.02" stroke-linejoin="bevel" points="2896.8,312.682 2896.8,188.781"/>
<polyline class="Stem" fill="none" stroke="#000000" stroke-width="3.02" stroke-linejoin="bevel" points="1928.41,312.682 1928.41,211.68"/>
<polyline class="Stem" fill="none" stroke="#000000" stroke-width="3.02" stroke-linejoin="bevel" points="550.163,312.682 550.163,211.68"/>
<polyline class="Stem" fill="none" stroke="#000000" stroke-width="3.02" stroke-linejoin="bevel" points="1725.31,252.202 1725.31,173.88"/>
<polyline class="Stem" fill="none" stroke="#000000" stroke-width="3.02" stroke-linejoin="bevel" points="2795.25,252.202 2795.25,174.099"/>
<polyline class="Stem" fill="none" stroke="#000000" stroke-width="3.02" stroke-linejoin="bevel" points="2080.74,252.202 2080.74,173.88"/>
<polyline class="Stem" fill="none" stroke="#000000" stroke-width="3.02" stroke-linejoin="bevel" points="702.489,312.682 702.489,211.68"/>
<polyline class="Stem" fill="none" stroke="#000000" stroke-width="3.02" stroke-linejoin="bevel" points="1572.98,312.682 1572.98,211.68"/>
<polyline class="Stem" fill="none" stroke="#000000" stroke-width="3.02" stroke-linejoin="bevel" points="2642.92,312.682 2642.92,211.68"/>
<polyline class="Stem" fill="none" stroke="#000000" stroke-width="3.02" stroke-linejoin="bevel" points="245.511,312.682 245.511,211.68"/>
<polyline class="Stem" fill="none" stroke="#000000" stroke-width="3.02" stroke-linejoin="bevel" points="397.837,312.682 397.837,211.68"/>
<polyline class="Stem" fill="none" stroke="#000000" stroke-width="3.02" stroke-linejoin="bevel" points="1366.23,252.202 1366.23,173.88"/>
<polyline class="Stem" fill="none" stroke="#000000" stroke-width="3.02" stroke-linejoin="bevel" points="909.247,312.682 909.247,211.68"/>
<polyline class="Stem" fill="none" stroke="#000000" stroke-width="3.02" stroke-linejoin="bevel" points="2287.49,312.682 2287.49,211.68"/>
<polyline class="Stem" fill="none" stroke="#000000" stroke-width="3.02" stroke-linejoin="bevel" points="2541.37,252.202 2541.37,173.88"/>
<polyline class="Stem" fill="none" stroke="#000000" stroke-width="3.02" stroke-linejoin="bevel" points="1213.9,312.682 1213.9,211.68"/>
<polyline class="Stem" fill="none" stroke="#000000" stroke-width="3.02" stroke-linejoin="bevel" points="1061.57,252.202 1061.57,173.88"/>
<path class="Note" transform="matrix(1.2096,0,0,1.2096,360.056,317.52)" d="M0,4.2 C0,8.5 3.1,13.3 11.2,13.3 C21.6,13.3 32.5,4.8 32.5,-4 C32.5,-9.9 27.5,-13.2 21.3,-13.2 C11.6,-13.2 0,-5 0,4.2"/>
<path class="Note" transform="matrix(1.2096,0,0,1.2096,1023.79,257.04)" d="M0,4.2 C0,8.5 3.1,13.3 11.2,13.3 C21.6,13.3 32.5,4.8 32.5,-4 C32.5,-9.9 27.5,-13.2 21.3,-13.2 C11.6,-13.2 0,-5 0,4.2"/>
<path class="Note" transform="matrix(1.2096,0,0,1.2096,2249.71,317.52)" d="M0,4.2 C0,8.5 3.1,13.3 11.2,13.3 C21.6,13.3 32.5,4.8 32.5,-4 C32.5,-9.9 27.5,-13.2 21.3,-13.2 C11.6,-13.2 0,-5 0,4.2"/>
<path class="Note" transform="matrix(1.2096,0,0,1.2096,2402.04,257.04)" d="M0,4.2 C0,8.5 3.1,13.3 11.2,13.3 C21.6,13.3 32.5,4.8 32.5,-4 C32.5,-9.9 27.5,-13.2 21.3,-13.2 C11.6,-13.2 0,-5 0,4.2"/>
<path class="Note" transform="matrix(1.2096,0,0,1.2096,1176.12,317.52)" d="M0,4.2 C0,8.5 3.1,13.3 11.2,13.3 C21.6,13.3 32.5,4.8 32.5,-4 C32.5,-9.9 27.5,-13.2 21.3,-13.2 C11.6,-13.2 0,-5 0,4.2"/>
<path class="Note" transform="matrix(1.2096,0,0,1.2096,871.466,317.52)" d="M0,4.2 C0,8.5 3.1,13.3 11.2,13.3 C21.6,13.3 32.5,4.8 32.5,-4 C32.5,-9.9 27.5,-13.2 21.3,-13.2 C11.6,-13.2 0,-5 0,4.2"/>
<path class="Note" transform="matrix(1.2096,0,0,1.2096,207.73,317.52)" d="M0,4.2 C0,8.5 3.1,13.3 11.2,13.3 C21.6,13.3 32.5,4.8 32.5,-4 C32.5,-9.9 27.5,-13.2 21.3,-13.2 C11.6,-13.2 0,-5 0,4.2"/>
<path class="Note" transform="matrix(1.2096,0,0,1.2096,2859.02,317.52)" d="M0,4.2 C0,8.5 3.1,13.3 11.2,13.3 C21.6,13.3 32.5,4.8 32.5,-4 C32.5,-9.9 27.5,-13.2 21.3,-13.2 C11.6,-13.2 0,-5 0,4.2"/>
<path class="Note" transform="matrix(1.2096,0,0,1.2096,1328.44,257.04)" d="M0,4.2 C0,8.5 3.1,13.3 11.2,13.3 C21.6,13.3 32.5,4.8 32.5,-4 C32.5,-9.9 27.5,-13.2 21.3,-13.2 C11.6,-13.2 0,-5 0,4.2"/>
<path class="Note" transform="matrix(1.2096,0,0,1.2096,2503.59,257.04)" d="M0,4.2 C0,8.5 3.1,13.3 11.2,13.3 C21.6,13.3 32.5,4.8 32.5,-4 C32.5,-9.9 27.5,-13.2 21.3,-13.2 C11.6,-13.2 0,-5 0,4.2"/>
<path class="Note" transform="matrix(1.2096,0,0,1.2096,2042.96,257.04)" d="M0,4.2 C0,8.5 3.1,13.3 11.2,13.3 C21.6,13.3 32.5,4.8 32.5,-4 C32.5,-9.9 27.5,-13.2 21.3,-13.2 C11.6,-13.2 0,-5 0,4.2"/>
<path class="Note" transform="matrix(1.2096,0,0,1.2096,664.708,317.52)" d="M0,4.2 C0,8.5 3.1,13.3 11.2,13.3 C21.6,13.3 32.5,4.8 32.5,-4 C32.5,-9.9 27.5,-13.2 21.3,-13.2 C11.6,-13.2 0,-5 0,4.2"/>
<path class="Note" transform="matrix(1.2096,0,0,1.2096,1535.2,317.52)" d="M0,4.2 C0,8.5 3.1,13.3 11.2,13.3 C21.6,13.3 32.5,4.8 32.5,-4 C32.5,-9.9 27.5,-13.2 21.3,-13.2 C11.6,-13.2 0,-5 0,4.2"/>
<path class="Note" transform="matrix(1.2096,0,0,1.2096,2605.14,317.52)" d="M0,4.2 C0,8.5 3.1,13.3 11.2,13.3 C21.6,13.3 32.5,4.8 32.5,-4 C32.5,-9.9 27.5,-13.2 21.3,-13.2 C11.6,-13.2 0,-5 0,4.2"/>
<path class="Note" transform="matrix(1.2096,0,0,1.2096,1890.63,317.52)" d="M0,4.2 C0,8.5 3.1,13.3 11.2,13.3 C21.6,13.3 32.5,4.8 32.5,-4 C32.5,-9.9 27.5,-13.2 21.3,-13.2 C11.6,-13.2 0,-5 0,4.2"/>
<path class="Note" transform="matrix(1.2096,0,0,1.2096,512.382,317.52)" d="M0,4.2 C0,8.5 3.1,13.3 11.2,13.3 C21.6,13.3 32.5,4.8 32.5,-4 C32.5,-9.9 27.5,-13.2 21.3,-13.2 C11.6,-13.2 0,-5 0,4.2"/>
<path class="Note" transform="matrix(1.2096,0,0,1.2096,1687.53,257.04)" d="M0,4.2 C0,8.5 3.1,13.3 11.2,13.3 C21.6,13.3 32.5,4.8 32.5,-4 C32.5,-9.9 27.5,-13.2 21.3,-13.2 C11.6,-13.2 0,-5 0,4.2"/>
<path class="Note" transform="matrix(1.2096,0,0,1.2096,2757.47,257.04)" d="M0,4.2 C0,8.5 3.1,13.3 11.2,13.3 C21.6,13.3 32.5,4.8 32.5,-4 C32.5,-9.9 27.5,-13.2 21.3,-13.2 C11.6,-13.2 0,-5 0,4.2"/>
<path class="Note" transform="matrix(1.2096,0,0,1.2096,1789.08,257.04)" d="M0,4.2 C0,8.5 3.1,13.3 11.2,13.3 C21.6,13.3 32.5,4.8 32.5,-4 C32.5,-9.9 27.5,-13.2 21.3,-13.2 C11.6,-13.2 0,-5 0,4.2"/>
<path class="Clef" transform="matrix(1.2096,0,0,1.2096,22.68,272.16)" d="M1.3,-25.2 C0.6,-25.2 0,-24.6 0,-23.9 L0,23.9 C0,24.6 0.6,25.2 1.3,25.2 L12.3,25.2 C13,25.2 13.6,24.6 13.6,23.9 L13.6,-23.9 C13.6,-24.6 13,-25.2 12.3,-25.2 L1.3,-25.2 M22.9,-25.2 C22.2,-25.2 21.6,-24.6 21.6,-23.9 L21.6,23.9 C21.6,24.6 22.2,25.2 22.9,25.2 L33.9,25.2 C34.6,25.2 35.2,24.6 35.2,23.9 L35.2,-23.9 C35.2,-24.6 34.6,-25.2 33.9,-25.2 L22.9,-25.2 "/>
<path class="TimeSig" transform="matrix(1.2096,0,0,1.2096,93.8007,241.92)" d="M20.8,12.7 L20.8,20.1 L12.5,20.1 C11.8,20.1 11.1,20.7 11.1,21.5 L11.1,23.4 C11.1,24.2 11.8,24.8 12.5,24.8 L42.8,24.8 C43.6,24.8 44.2,24.2 44.2,23.4 L44.2,21.5 C44.2,20.7 43.6,20.1 42.8,20.1 L33.9,20.1 L33.9,12.7 L42.8,12.7 C43.6,12.7 44.2,12 44.2,11.2 L44.2,9.3 C44.2,8.6 43.6,7.9 42.8,7.9 L33.9,7.9 L33.9,-8 C33.9,-8.6 33.6,-9.1 33.1,-9.3 L31.9,-9.9 C31.7,-10 31.4,-10.1 31.2,-10.1 C30.9,-10 30.5,-9.9 30.3,-9.7 L21.2,-1.4 C20.9,-1.1 20.8,-0.7 20.8,-0.3 L20.8,7.9 L9.3,7.9 C9.3,7.9 20.4,-4.1 32.2,-19.9 C32.6,-20.4 32.7,-20.9 32.7,-21.3 C32.7,-21.8 32.5,-22.2 32.4,-22.3 L30.2,-24.5 C30,-24.7 29.6,-24.9 29.2,-24.9 C28.6,-24.9 15.1,-24.9 14.4,-24.9 C13.6,-24.9 13.1,-24.3 13,-23.7 C13,-23.7 12.5,-16.3 9.9,-8.2 C7.3,-0.1 4.3,4.9 1.7,8.6 C1.7,8.6 1.4,9.1 1.4,9.7 C1.4,9.9 1.4,10.1 1.5,10.3 C1.9,11 2.5,12.1 2.5,12.1 C2.5,12.1 2.7,12.7 3.6,12.7 L20.8,12.7 "/>
<path class="TimeSig" transform="matrix(1.2096,0,0,1.2096,93.8007,302.4)" d="M20.8,12.7 L20.8,20.1 L12.5,20.1 C11.8,20.1 11.1,20.7 11.1,21.5 L11.1,23.4 C11.1,24.2 11.8,24.8 12.5,24.8 L42.8,24.8 C43.6,24.8 44.2,24.2 44.2,23.4 L44.2,21.5 C44.2,20.7 43.6,20.1 42.8,20.1 L33.9,20.1 L33.9,12.7 L42.8,12.7 C43.6,12.7 44.2,12 44.2,11.2 L44.2,9.3 C44.2,8.6 43.6,7.9 42.8,7.9 L33.9,7.9 L33.9,-8 C33.9,-8.6 33.6,-9.1 33.1,-9.3 L31.9,-9.9 C31.7,-10 31.4,-10.1 31.2,-10.1 C30.9,-10 30.5,-9.9 30.3,-9.7 L21.2,-1.4 C20.9,-1.1 20.8,-0.7 20.8,-0.3 L20.8,7.9 L9.3,7.9 C9.3,7.9 20.4,-4.1 32.2,-19.9 C32.6,-20.4 32.7,-20.9 32.7,-21.3 C32.7,-21.8 32.5,-22.2 32.4,-22.3 L30.2,-24.5 C30,-24.7 29.6,-24.9 29.2,-24.9 C28.6,-24.9 15.1,-24.9 14.4,-24.9 C13.6,-24.9 13.1,-24.3 13,-23.7 C13,-23.7 12.5,-16.3 9.9,-8.2 C7.3,-0.1 4.3,4.9 1.7,8.6 C1.7,8.6 1.4,9.1 1.4,9.7 C1.4,9.9 1.4,10.1 1.5,10.3 C1.9,11 2.5,12.1 2.5,12.1 C2.5,12.1 2.7,12.7 3.6,12.7 L20.8,12.7 "/>
<path class="Beam" fill-rule="evenodd" d="M1723.8,166.32 L1828.37,166.32 L1828.37,181.44 L1723.8,181.44 L1723.8,166.32 "/>
<path class="Beam" fill-rule="evenodd" d="M2793.74,166.241 L2898.31,181.361 L2898.31,196.639 L2793.74,181.519 L2793.74,166.241 "/>
<path class="Beam" fill-rule="evenodd" d="M2438.31,166.32 L2542.88,166.32 L2542.88,181.44 L2438.31,181.44 L2438.31,166.32 "/>
<path class="Lyrics" d="M2438.87,404.574 L2437.94,408.824 C2437.17,412.224 2436.66,413.329 2435.98,413.754 C2435.13,414.349 2434.96,414.349 2429.61,414.434 L2413.2,414.434 C2416.18,411.884 2418.39,410.269 2421.7,408.059 C2433.69,400.324 2436.15,398.454 2438.62,395.309 C2441.51,391.484 2443.21,386.979 2443.21,382.984 C2443.21,373.889 2434.28,367.004 2422.3,367.004 C2410.74,367.004 2401.81,374.484 2401.81,384.174 C2401.81,390.124 2405.13,393.949 2410.23,393.949 C2414.65,393.949 2417.45,391.144 2417.45,386.724 C2417.45,383.069 2415.84,380.944 2411.93,379.074 C2410.99,378.649 2410.57,378.139 2410.57,377.459 C2410.57,374.739 2415.16,371.849 2419.41,371.849 C2425.36,371.849 2428.76,375.504 2428.76,381.794 C2428.76,388.849 2426.04,393.864 2417.03,403.469 C2407.51,413.584 2404.19,417.409 2399.94,423.529 L2399.94,427.524 C2402.15,427.269 2403.09,427.184 2404.36,427.184 L2436.32,427.184 C2437.94,427.184 2438.96,427.269 2441.51,427.524 L2443.46,404.574 L2438.87,404.574 "/>
<path class="Lyrics" d="M1835.77,412.819 C1834.75,418.174 1831.94,421.404 1828.2,421.404 C1824.97,421.404 1822.17,419.874 1818.85,416.219 C1822.25,412.054 1822.68,411.459 1824.46,408.059 C1829.65,397.944 1830.67,396.924 1836.7,396.499 L1837.64,396.499 L1837.64,392.844 L1813.67,392.844 L1813.67,396.499 L1814.52,396.499 C1819.53,396.499 1822.17,397.859 1822.17,400.494 C1822.17,404.149 1819.87,409.164 1816.22,413.329 C1812.14,408.484 1807.29,401.174 1802.53,392.249 C1807.12,390.209 1808.57,389.444 1810.78,387.914 C1814.69,385.194 1817.24,380.519 1817.24,376.014 C1817.24,369.129 1811.88,364.539 1803.98,364.539 C1795.05,364.539 1789.1,370.574 1789.1,379.584 C1789.1,383.324 1790.04,386.639 1792.67,392.249 C1783.15,396.754 1777.97,403.469 1777.97,411.119 C1777.97,415.369 1779.84,420.044 1782.81,423.274 C1785.96,426.674 1790.46,428.459 1796.24,428.459 C1802.36,428.459 1807.04,426.759 1812.56,422.424 C1816.64,426.589 1819.96,428.119 1824.63,428.119 C1833.64,428.119 1838.49,421.574 1839.51,413.329 L1835.77,412.819 M1800.75,388.679 C1798.28,383.579 1797.09,379.754 1797.09,376.609 C1797.09,371.679 1799.81,368.194 1803.72,368.194 C1807.63,368.194 1810.44,371.509 1810.44,376.184 C1810.44,379.414 1808.99,382.814 1806.78,384.939 C1805.42,386.214 1804.15,386.979 1800.75,388.679 M1794.29,395.734 C1799.81,406.699 1802.7,411.119 1809.93,419.534 C1806.19,421.914 1804.23,422.679 1801.34,422.679 C1793.78,422.679 1787.06,415.029 1787.06,406.529 C1787.06,401.854 1789.19,398.709 1794.29,395.734"/>
<path class="Lyrics" d="M234.536,367.004 L231.561,367.004 C226.206,370.999 220.171,372.699 210.056,372.869 L210.056,377.629 L213.626,377.629 C221.191,377.629 221.276,377.799 221.191,384.769 L221.191,414.944 C221.191,420.214 221.191,420.469 220.596,421.319 C219.831,422.254 218.131,422.594 213.541,422.594 L210.821,422.594 L210.821,427.184 L244.736,427.184 L244.736,422.594 L242.016,422.594 C237.511,422.594 235.896,422.254 235.131,421.319 C234.536,420.469 234.536,420.129 234.536,414.944 L234.536,367.004 "/>
<path class="Lyrics" d="M1724.36,404.574 L1723.43,408.824 C1722.66,412.224 1722.15,413.329 1721.47,413.754 C1720.62,414.349 1720.45,414.349 1715.1,414.434 L1698.69,414.434 C1701.67,411.884 1703.88,410.269 1707.19,408.059 C1719.18,400.324 1721.64,398.454 1724.11,395.309 C1727,391.484 1728.7,386.979 1728.7,382.984 C1728.7,373.889 1719.77,367.004 1707.79,367.004 C1696.23,367.004 1687.3,374.484 1687.3,384.174 C1687.3,390.124 1690.62,393.949 1695.72,393.949 C1700.14,393.949 1702.94,391.144 1702.94,386.724 C1702.94,383.069 1701.33,380.944 1697.42,379.074 C1696.48,378.649 1696.06,378.139 1696.06,377.459 C1696.06,374.739 1700.65,371.849 1704.9,371.849 C1710.85,371.849 1714.25,375.504 1714.25,381.794 C1714.25,388.849 1711.53,393.864 1702.52,403.469 C1693,413.584 1689.68,417.409 1685.43,423.529 L1685.43,427.524 C1687.64,427.269 1688.58,427.184 1689.85,427.184 L1721.81,427.184 C1723.43,427.184 1724.45,427.269 1727,427.524 L1728.95,404.574 L1724.36,404.574 "/>
<path class="Lyrics" d="M2905.71,412.819 C2904.69,418.174 2901.88,421.404 2898.14,421.404 C2894.91,421.404 2892.11,419.874 2888.79,416.219 C2892.19,412.054 2892.62,411.459 2894.4,408.059 C2899.59,397.944 2900.61,396.924 2906.64,396.499 L2907.58,396.499 L2907.58,392.844 L2883.61,392.844 L2883.61,396.499 L2884.46,396.499 C2889.47,396.499 2892.11,397.859 2892.11,400.494 C2892.11,404.149 2889.81,409.164 2886.16,413.329 C2882.08,408.484 2877.23,401.174 2872.47,392.249 C2877.06,390.209 2878.51,389.444 2880.72,387.914 C2884.63,385.194 2887.18,380.519 2887.18,376.014 C2887.18,369.129 2881.82,364.539 2873.92,364.539 C2864.99,364.539 2859.04,370.574 2859.04,379.584 C2859.04,383.324 2859.98,386.639 2862.61,392.249 C2853.09,396.754 2847.91,403.469 2847.91,411.119 C2847.91,415.369 2849.78,420.044 2852.75,423.274 C2855.9,426.674 2860.4,428.459 2866.18,428.459 C2872.3,428.459 2876.98,426.759 2882.5,422.424 C2886.58,426.589 2889.9,428.119 2894.57,428.119 C2903.58,428.119 2908.43,421.574 2909.45,413.329 L2905.71,412.819 M2870.69,388.679 C2868.22,383.579 2867.03,379.754 2867.03,376.609 C2867.03,371.679 2869.75,368.194 2873.66,368.194 C2877.57,368.194 2880.38,371.509 2880.38,376.184 C2880.38,379.414 2878.93,382.814 2876.72,384.939 C2875.36,386.214 2874.09,386.979 2870.69,388.679 M2864.23,395.734 C2869.75,406.699 2872.64,411.119 2879.87,419.534 C2876.13,421.914 2874.17,422.679 2871.28,422.679 C2863.72,422.679 2857,415.029 2857,406.529 C2857,401.854 2859.13,398.709 2864.23,395.734"/>
<path class="Lyrics" d="M1916.58,395.904 C1923.8,394.034 1930.26,390.804 1930.26,382.049 C1930.26,373.039 1922.27,367.004 1910.2,367.004 C1904,367.004 1898.98,368.619 1895.41,371.764 C1892.61,374.229 1890.91,377.799 1890.91,381.029 C1890.91,385.449 1894.22,388.764 1898.56,388.764 C1902.64,388.764 1905.44,386.044 1905.44,382.049 C1905.44,379.754 1904.51,377.969 1902.13,375.674 C1901.7,375.249 1901.53,374.994 1901.53,374.654 C1901.53,373.039 1904.68,371.424 1907.99,371.424 C1913.35,371.424 1916.49,375.334 1916.49,381.964 C1916.49,389.359 1914.03,393.864 1909.86,393.864 C1909.18,393.864 1908.33,393.779 1906.97,393.439 C1905.1,393.014 1904.51,392.929 1903.57,392.929 C1901.45,392.929 1900.43,393.864 1900.43,395.734 C1900.43,397.689 1901.7,398.964 1903.49,398.964 C1904.08,398.964 1904.59,398.879 1906.04,398.709 C1907.99,398.539 1908.5,398.454 1909.1,398.454 C1914.37,398.454 1917,402.534 1917,410.524 C1917,419.109 1913.43,423.954 1907.14,423.954 C1903.57,423.954 1899.83,422.169 1899.83,420.384 C1899.83,419.874 1900.09,419.364 1900.6,418.854 C1903.15,416.474 1903.74,415.369 1903.74,412.904 C1903.74,408.909 1900.6,405.849 1896.43,405.849 C1891.84,405.849 1888.78,409.164 1888.78,413.924 C1888.78,422.509 1897.11,428.374 1909.35,428.374 C1920.57,428.374 1931.79,423.699 1931.79,410.779 C1931.79,405.424 1929.41,400.749 1925.5,398.454 C1923.04,397.094 1921.08,396.499 1916.58,395.904"/>
<path class="Lyrics" d="M396.888,404.574 L395.953,408.824 C395.188,412.224 394.678,413.329 393.998,413.754 C393.148,414.349 392.978,414.349 387.623,414.434 L371.218,414.434 C374.193,411.884 376.403,410.269 379.718,408.059 C391.703,400.324 394.168,398.454 396.633,395.309 C399.523,391.484 401.223,386.979 401.223,382.984 C401.223,373.889 392.298,367.004 380.313,367.004 C368.753,367.004 359.828,374.484 359.828,384.174 C359.828,390.124 363.143,393.949 368.243,393.949 C372.663,393.949 375.468,391.144 375.468,386.724 C375.468,383.069 373.853,380.944 369.943,379.074 C369.008,378.649 368.583,378.139 368.583,377.459 C368.583,374.739 373.173,371.849 377.423,371.849 C383.373,371.849 386.773,375.504 386.773,381.794 C386.773,388.849 384.053,393.864 375.043,403.469 C365.523,413.584 362.208,417.409 357.958,423.529 L357.958,427.524 C360.168,427.269 361.103,427.184 362.378,427.184 L394.338,427.184 C395.953,427.184 396.973,427.269 399.523,427.524 L401.478,404.574 L396.888,404.574 "/>
<path class="Lyrics" d="M1562.01,367.004 L1559.03,367.004 C1553.68,370.999 1547.64,372.699 1537.53,372.869 L1537.53,377.629 L1541.1,377.629 C1548.66,377.629 1548.75,377.799 1548.66,384.769 L1548.66,414.944 C1548.66,420.214 1548.66,420.469 1548.07,421.319 C1547.3,422.254 1545.6,422.594 1541.01,422.594 L1538.29,422.594 L1538.29,427.184 L1572.21,427.184 L1572.21,422.594 L1569.49,422.594 C1564.98,422.594 1563.37,422.254 1562.6,421.319 C1562.01,420.469 1562.01,420.129 1562.01,414.944 L1562.01,367.004 "/>
<path class="Lyrics" d="M2791.02,406.104 L2791.02,379.924 C2791.02,378.649 2791.19,373.124 2791.53,367.004 L2785.67,367.004 L2754.73,405.509 L2754.73,411.799 L2777.68,411.799 L2777.68,414.944 C2777.68,420.214 2777.68,420.554 2777.08,421.404 C2776.4,422.254 2774.62,422.594 2770.62,422.594 L2769.69,422.594 L2769.69,427.184 L2798.67,427.184 L2798.67,422.594 L2797.74,422.594 C2794,422.509 2792.21,422.169 2791.62,421.404 C2791.02,420.469 2791.02,420.214 2791.02,414.944 L2791.02,411.799 L2799.52,411.799 L2799.52,406.104 L2791.02,406.104 M2777.68,406.104 L2760.93,406.104 L2777.68,384.854 L2777.68,406.104 "/>
<path class="Lyrics" d="M2076.51,406.104 L2076.51,379.924 C2076.51,378.649 2076.68,373.124 2077.02,367.004 L2071.16,367.004 L2040.22,405.509 L2040.22,411.799 L2063.17,411.799 L2063.17,414.944 C2063.17,420.214 2063.17,420.554 2062.57,421.404 C2061.89,422.254 2060.11,422.594 2056.11,422.594 L2055.18,422.594 L2055.18,427.184 L2084.16,427.184 L2084.16,422.594 L2083.23,422.594 C2079.49,422.509 2077.7,422.169 2077.11,421.404 C2076.51,420.469 2076.51,420.214 2076.51,414.944 L2076.51,411.799 L2085.01,411.799 L2085.01,406.104 L2076.51,406.104 M2063.17,406.104 L2046.42,406.104 L2063.17,384.854 L2063.17,406.104 "/>
<path class="Lyrics" d="M1362,406.104 L1362,379.924 C1362,378.649 1362.17,373.124 1362.51,367.004 L1356.65,367.004 L1325.71,405.509 L1325.71,411.799 L1348.66,411.799 L1348.66,414.944 C1348.66,420.214 1348.66,420.554 1348.06,421.404 C1347.38,422.254 1345.6,422.594 1341.6,422.594 L1340.67,422.594 L1340.67,427.184 L1369.65,427.184 L1369.65,422.594 L1368.72,422.594 C1364.98,422.509 1363.19,422.169 1362.6,421.404 C1362,420.469 1362,420.214 1362,414.944 L1362,411.799 L1370.5,411.799 L1370.5,406.104 L1362,406.104 M1348.66,406.104 L1331.91,406.104 L1348.66,384.854 L1348.66,406.104 "/>
<path class="Lyrics" d="M538.332,395.904 C545.557,394.034 552.017,390.804 552.017,382.049 C552.017,373.039 544.027,367.004 531.957,367.004 C525.752,367.004 520.737,368.619 517.167,371.764 C514.362,374.229 512.662,377.799 512.662,381.029 C512.662,385.449 515.977,388.764 520.312,388.764 C524.392,388.764 527.197,386.044 527.197,382.049 C527.197,379.754 526.262,377.969 523.882,375.674 C523.457,375.249 523.287,374.994 523.287,374.654 C523.287,373.039 526.432,371.424 529.747,371.424 C535.102,371.424 538.247,375.334 538.247,381.964 C538.247,389.359 535.782,393.864 531.617,393.864 C530.937,393.864 530.087,393.779 528.727,393.439 C526.857,393.014 526.262,392.929 525.327,392.929 C523.202,392.929 522.182,393.864 522.182,395.734 C522.182,397.689 523.457,398.964 525.242,398.964 C525.837,398.964 526.347,398.879 527.792,398.709 C529.747,398.539 530.257,398.454 530.852,398.454 C536.122,398.454 538.757,402.534 538.757,410.524 C538.757,419.109 535.187,423.954 528.897,423.954 C525.327,423.954 521.587,422.169 521.587,420.384 C521.587,419.874 521.842,419.364 522.352,418.854 C524.902,416.474 525.497,415.369 525.497,412.904 C525.497,408.909 522.352,405.849 518.187,405.849 C513.597,405.849 510.537,409.164 510.537,413.924 C510.537,422.509 518.867,428.374 531.107,428.374 C542.327,428.374 553.547,423.699 553.547,410.779 C553.547,405.424 551.167,400.749 547.257,398.454 C544.792,397.094 542.837,396.499 538.332,395.904"/>
<path class="Lyrics" d="M2631.09,395.904 C2638.32,394.034 2644.78,390.804 2644.78,382.049 C2644.78,373.039 2636.79,367.004 2624.72,367.004 C2618.51,367.004 2613.5,368.619 2609.93,371.764 C2607.12,374.229 2605.42,377.799 2605.42,381.029 C2605.42,385.449 2608.74,388.764 2613.07,388.764 C2617.15,388.764 2619.96,386.044 2619.96,382.049 C2619.96,379.754 2619.02,377.969 2616.64,375.674 C2616.22,375.249 2616.05,374.994 2616.05,374.654 C2616.05,373.039 2619.19,371.424 2622.51,371.424 C2627.86,371.424 2631.01,375.334 2631.01,381.964 C2631.01,389.359 2628.54,393.864 2624.38,393.864 C2623.7,393.864 2622.85,393.779 2621.49,393.439 C2619.62,393.014 2619.02,392.929 2618.09,392.929 C2615.96,392.929 2614.94,393.864 2614.94,395.734 C2614.94,397.689 2616.22,398.964 2618,398.964 C2618.6,398.964 2619.11,398.879 2620.55,398.709 C2622.51,398.539 2623.02,398.454 2623.61,398.454 C2628.88,398.454 2631.52,402.534 2631.52,410.524 C2631.52,419.109 2627.95,423.954 2621.66,423.954 C2618.09,423.954 2614.35,422.169 2614.35,420.384 C2614.35,419.874 2614.6,419.364 2615.11,418.854 C2617.66,416.474 2618.26,415.369 2618.26,412.904 C2618.26,408.909 2615.11,405.849 2610.95,405.849 C2606.36,405.849 2603.3,409.164 2603.3,413.924 C2603.3,422.509 2611.63,428.374 2623.87,428.374 C2635.09,428.374 2646.31,423.699 2646.31,410.779 C2646.31,405.424 2643.93,400.749 2640.02,398.454 C2637.55,397.094 2635.6,396.499 2631.09,395.904"/>
<path class="Lyrics" d="M1202.07,395.904 C1209.29,394.034 1215.75,390.804 1215.75,382.049 C1215.75,373.039 1207.76,367.004 1195.69,367.004 C1189.49,367.004 1184.47,368.619 1180.9,371.764 C1178.1,374.229 1176.4,377.799 1176.4,381.029 C1176.4,385.449 1179.71,388.764 1184.05,388.764 C1188.13,388.764 1190.93,386.044 1190.93,382.049 C1190.93,379.754 1190,377.969 1187.62,375.674 C1187.19,375.249 1187.02,374.994 1187.02,374.654 C1187.02,373.039 1190.17,371.424 1193.48,371.424 C1198.84,371.424 1201.98,375.334 1201.98,381.964 C1201.98,389.359 1199.52,393.864 1195.35,393.864 C1194.67,393.864 1193.82,393.779 1192.46,393.439 C1190.59,393.014 1190,392.929 1189.06,392.929 C1186.94,392.929 1185.92,393.864 1185.92,395.734 C1185.92,397.689 1187.19,398.964 1188.98,398.964 C1189.57,398.964 1190.08,398.879 1191.53,398.709 C1193.48,398.539 1193.99,398.454 1194.59,398.454 C1199.86,398.454 1202.49,402.534 1202.49,410.524 C1202.49,419.109 1198.92,423.954 1192.63,423.954 C1189.06,423.954 1185.32,422.169 1185.32,420.384 C1185.32,419.874 1185.58,419.364 1186.09,418.854 C1188.64,416.474 1189.23,415.369 1189.23,412.904 C1189.23,408.909 1186.09,405.849 1181.92,405.849 C1177.33,405.849 1174.27,409.164 1174.27,413.924 C1174.27,422.509 1182.6,428.374 1194.84,428.374 C1206.06,428.374 1217.28,423.699 1217.28,410.779 C1217.28,405.424 1214.9,400.749 1210.99,398.454 C1208.53,397.094 1206.57,396.499 1202.07,395.904"/>
<path class="Lyrics" d="M698.264,406.104 L698.264,379.924 C698.264,378.649 698.434,373.124 698.774,367.004 L692.909,367.004 L661.969,405.509 L661.969,411.799 L684.919,411.799 L684.919,414.944 C684.919,420.214 684.919,420.554 684.324,421.404 C683.644,422.254 681.859,422.594 677.864,422.594 L676.929,422.594 L676.929,427.184 L705.914,427.184 L705.914,422.594 L704.979,422.594 C701.239,422.509 699.454,422.169 698.859,421.404 C698.264,420.469 698.264,420.214 698.264,414.944 L698.264,411.799 L706.764,411.799 L706.764,406.104 L698.264,406.104 M684.919,406.104 L668.174,406.104 L684.919,384.854 L684.919,406.104 "/>
<path class="Lyrics" d="M2276.52,367.004 L2273.54,367.004 C2268.19,370.999 2262.15,372.699 2252.04,372.869 L2252.04,377.629 L2255.61,377.629 C2263.17,377.629 2263.26,377.799 2263.17,384.769 L2263.17,414.944 C2263.17,420.214 2263.17,420.469 2262.58,421.319 C2261.81,422.254 2260.11,422.594 2255.52,422.594 L2252.8,422.594 L2252.8,427.184 L2286.72,427.184 L2286.72,422.594 L2284,422.594 C2279.49,422.594 2277.88,422.254 2277.11,421.319 C2276.52,420.469 2276.52,420.129 2276.52,414.944 L2276.52,367.004 "/>
<path class="Lyrics" d="M2550.28,412.819 C2549.26,418.174 2546.45,421.404 2542.71,421.404 C2539.48,421.404 2536.68,419.874 2533.36,416.219 C2536.76,412.054 2537.19,411.459 2538.97,408.059 C2544.16,397.944 2545.18,396.924 2551.21,396.499 L2552.15,396.499 L2552.15,392.844 L2528.18,392.844 L2528.18,396.499 L2529.03,396.499 C2534.04,396.499 2536.68,397.859 2536.68,400.494 C2536.68,404.149 2534.38,409.164 2530.73,413.329 C2526.65,408.484 2521.8,401.174 2517.04,392.249 C2521.63,390.209 2523.08,389.444 2525.29,387.914 C2529.2,385.194 2531.75,380.519 2531.75,376.014 C2531.75,369.129 2526.39,364.539 2518.49,364.539 C2509.56,364.539 2503.61,370.574 2503.61,379.584 C2503.61,383.324 2504.55,386.639 2507.18,392.249 C2497.66,396.754 2492.48,403.469 2492.48,411.119 C2492.48,415.369 2494.35,420.044 2497.32,423.274 C2500.47,426.674 2504.97,428.459 2510.75,428.459 C2516.87,428.459 2521.55,426.759 2527.07,422.424 C2531.15,426.589 2534.47,428.119 2539.14,428.119 C2548.15,428.119 2553,421.574 2554.02,413.329 L2550.28,412.819 M2515.26,388.679 C2512.79,383.579 2511.6,379.754 2511.6,376.609 C2511.6,371.679 2514.32,368.194 2518.23,368.194 C2522.14,368.194 2524.95,371.509 2524.95,376.184 C2524.95,379.414 2523.5,382.814 2521.29,384.939 C2519.93,386.214 2518.66,386.979 2515.26,388.679 M2508.8,395.734 C2514.32,406.699 2517.21,411.119 2524.44,419.534 C2520.7,421.914 2518.74,422.679 2515.85,422.679 C2508.29,422.679 2501.57,415.029 2501.57,406.529 C2501.57,401.854 2503.7,398.709 2508.8,395.734"/>
<path class="Lyrics" d="M1060.62,404.574 L1059.69,408.824 C1058.92,412.224 1058.41,413.329 1057.73,413.754 C1056.88,414.349 1056.71,414.349 1051.36,414.434 L1034.95,414.434 C1037.93,411.884 1040.14,410.269 1043.45,408.059 C1055.44,400.324 1057.9,398.454 1060.37,395.309 C1063.26,391.484 1064.96,386.979 1064.96,382.984 C1064.96,373.889 1056.03,367.004 1044.05,367.004 C1032.49,367.004 1023.56,374.484 1023.56,384.174 C1023.56,390.124 1026.88,393.949 1031.98,393.949 C1036.4,393.949 1039.2,391.144 1039.2,386.724 C1039.2,383.069 1037.59,380.944 1033.68,379.074 C1032.74,378.649 1032.32,378.139 1032.32,377.459 C1032.32,374.739 1036.91,371.849 1041.16,371.849 C1047.11,371.849 1050.51,375.504 1050.51,381.794 C1050.51,388.849 1047.79,393.864 1038.78,403.469 C1029.26,413.584 1025.94,417.409 1021.69,423.529 L1021.69,427.524 C1023.9,427.269 1024.84,427.184 1026.11,427.184 L1058.07,427.184 C1059.69,427.184 1060.71,427.269 1063.26,427.524 L1065.21,404.574 L1060.62,404.574 "/>
<path class="Lyrics" d="M898.272,367.004 L895.297,367.004 C889.942,370.999 883.907,372.699 873.792,372.869 L873.792,377.629 L877.362,377.629 C884.927,377.629 885.012,377.799 884.927,384.769 L884.927,414.944 C884.927,420.214 884.927,420.469 884.332,421.319 C883.567,422.254 881.867,422.594 877.277,422.594 L874.557,422.594 L874.557,427.184 L908.472,427.184 L908.472,422.594 L905.752,422.594 C901.247,422.594 899.632,422.254 898.867,421.319 C898.272,420.469 898.272,420.129 898.272,414.944 L898.272,367.004 "/>
<path class="StaffText" d="M1700.74,129.309 L1704.22,129.309 C1710.28,129.549 1712.68,132.009 1713.34,138.609 L1713.64,141.669 C1714.36,148.449 1716.58,151.209 1721.32,151.209 C1726.24,151.209 1728.58,147.909 1728.76,140.709 L1726.24,140.709 C1726,144.849 1725.28,146.649 1723.66,146.649 C1722.28,146.649 1721.68,145.629 1720.66,141.489 L1719.7,137.709 C1718.38,132.189 1716.04,129.669 1711.36,128.469 C1720,127.269 1724.14,123.789 1724.14,117.729 C1724.14,110.889 1718.38,106.989 1708.3,106.989 L1687.54,106.989 L1687.54,109.809 L1688.62,109.809 C1692.04,109.869 1693.18,110.049 1693.66,110.649 C1694.02,111.189 1694.02,111.309 1694.02,114.369 L1694.02,142.989 C1694.02,145.989 1694.02,146.109 1693.66,146.709 C1693.18,147.309 1692.04,147.489 1688.62,147.489 L1687.54,147.489 L1687.54,150.309 L1707.22,150.309 L1707.22,147.489 L1706.14,147.489 C1702.72,147.489 1701.58,147.309 1701.1,146.709 C1700.74,146.109 1700.74,145.989 1700.74,142.989 L1700.74,129.309 M1700.74,126.489 L1700.74,113.289 C1700.62,109.989 1700.92,109.749 1704.88,109.809 L1708.12,109.809 C1714.06,109.809 1716.76,112.329 1716.76,117.789 C1716.76,124.089 1713.4,126.489 1707.34,126.489 L1700.74,126.489 "/>
<path class="StaffText" d="M2415.25,129.309 L2418.73,129.309 C2424.79,129.549 2427.19,132.009 2427.85,138.609 L2428.15,141.669 C2428.87,148.449 2431.09,151.209 2435.83,151.209 C2440.75,151.209 2443.09,147.909 2443.27,140.709 L2440.75,140.709 C2440.51,144.849 2439.79,146.649 2438.17,146.649 C2436.79,146.649 2436.19,145.629 2435.17,141.489 L2434.21,137.709 C2432.89,132.189 2430.55,129.669 2425.87,128.469 C2434.51,127.269 2438.65,123.789 2438.65,117.729 C2438.65,110.889 2432.89,106.989 2422.81,106.989 L2402.05,106.989 L2402.05,109.809 L2403.13,109.809 C2406.55,109.869 2407.69,110.049 2408.17,110.649 C2408.53,111.189 2408.53,111.309 2408.53,114.369 L2408.53,142.989 C2408.53,145.989 2408.53,146.109 2408.17,146.709 C2407.69,147.309 2406.55,147.489 2403.13,147.489 L2402.05,147.489 L2402.05,150.309 L2421.73,150.309 L2421.73,147.489 L2420.65,147.489 C2417.23,147.489 2416.09,147.309 2415.61,146.709 C2415.25,146.109 2415.25,145.989 2415.25,142.989 L2415.25,129.309 M2415.25,126.489 L2415.25,113.289 C2415.13,109.989 2415.43,109.749 2419.39,109.809 L2422.63,109.809 C2428.57,109.809 2431.27,112.329 2431.27,117.789 C2431.27,124.089 2427.91,126.489 2421.85,126.489 L2415.25,126.489 "/>
<path class="StaffText" d="M884.679,160.44 L888.159,160.44 C894.219,160.68 896.619,163.14 897.279,169.74 L897.579,172.8 C898.299,179.58 900.519,182.34 905.259,182.34 C910.179,182.34 912.519,179.04 912.699,171.84 L910.179,171.84 C909.939,175.98 909.219,177.78 907.599,177.78 C906.219,177.78 905.619,176.76 904.599,172.62 L903.639,168.84 C902.319,163.32 899.979,160.8 895.299,159.6 C903.939,158.4 908.079,154.92 908.079,148.86 C908.079,142.02 902.319,138.12 892.239,138.12 L871.479,138.12 L871.479,140.94 L872.559,140.94 C875.979,141 877.119,141.18 877.599,141.78 C877.959,142.32 877.959,142.44 877.959,145.5 L877.959,174.12 C877.959,177.12 877.959,177.24 877.599,177.84 C877.119,178.44 875.979,178.62 872.559,178.62 L871.479,178.62 L871.479,181.44 L891.159,181.44 L891.159,178.62 L890.079,178.62 C886.659,178.62 885.519,178.44 885.039,177.84 C884.679,177.24 884.679,177.12 884.679,174.12 L884.679,160.44 M884.679,157.62 L884.679,144.42 C884.559,141.12 884.859,140.88 888.819,140.94 L892.059,140.94 C897.999,140.94 900.699,143.46 900.699,148.92 C900.699,155.22 897.339,157.62 891.279,157.62 L884.679,157.62 "/>
<path class="StaffText" d="M677.921,160.44 L681.401,160.44 C687.461,160.68 689.861,163.14 690.521,169.74 L690.821,172.8 C691.541,179.58 693.761,182.34 698.501,182.34 C703.421,182.34 705.761,179.04 705.941,171.84 L703.421,171.84 C703.181,175.98 702.461,177.78 700.841,177.78 C699.461,177.78 698.861,176.76 697.841,172.62 L696.881,168.84 C695.561,163.32 693.221,160.8 688.541,159.6 C697.181,158.4 701.321,154.92 701.321,148.86 C701.321,142.02 695.561,138.12 685.481,138.12 L664.721,138.12 L664.721,140.94 L665.801,140.94 C669.221,141 670.361,141.18 670.841,141.78 C671.201,142.32 671.201,142.44 671.201,145.5 L671.201,174.12 C671.201,177.12 671.201,177.24 670.841,177.84 C670.361,178.44 669.221,178.62 665.801,178.62 L664.721,178.62 L664.721,181.44 L684.401,181.44 L684.401,178.62 L683.321,178.62 C679.901,178.62 678.761,178.44 678.281,177.84 C677.921,177.24 677.921,177.12 677.921,174.12 L677.921,160.44 M677.921,157.62 L677.921,144.42 C677.801,141.12 678.101,140.88 682.061,140.94 L685.301,140.94 C691.241,140.94 693.941,143.46 693.941,148.92 C693.941,155.22 690.581,157.62 684.521,157.62 L677.921,157.62 "/>
<path class="StaffText" d="M2262.93,160.44 L2266.41,160.44 C2272.47,160.68 2274.87,163.14 2275.53,169.74 L2275.83,172.8 C2276.55,179.58 2278.77,182.34 2283.51,182.34 C2288.43,182.34 2290.77,179.04 2290.95,171.84 L2288.43,171.84 C2288.19,175.98 2287.47,177.78 2285.85,177.78 C2284.47,177.78 2283.87,176.76 2282.85,172.62 L2281.89,168.84 C2280.57,163.32 2278.23,160.8 2273.55,159.6 C2282.19,158.4 2286.33,154.92 2286.33,148.86 C2286.33,142.02 2280.57,138.12 2270.49,138.12 L2249.73,138.12 L2249.73,140.94 L2250.81,140.94 C2254.23,141 2255.37,141.18 2255.85,141.78 C2256.21,142.32 2256.21,142.44 2256.21,145.5 L2256.21,174.12 C2256.21,177.12 2256.21,177.24 2255.85,177.84 C2255.37,178.44 2254.23,178.62 2250.81,178.62 L2249.73,178.62 L2249.73,181.44 L2269.41,181.44 L2269.41,178.62 L2268.33,178.62 C2264.91,178.62 2263.77,178.44 2263.29,177.84 C2262.93,177.24 2262.93,177.12 2262.93,174.12 L2262.93,160.44 M2262.93,157.62 L2262.93,144.42 C2262.81,141.12 2263.11,140.88 2267.07,140.94 L2270.31,140.94 C2276.25,140.94 2278.95,143.46 2278.95,148.92 C2278.95,155.22 2275.59,157.62 2269.53,157.62 L2262.93,157.62 "/>
<path class="StaffText" d="M2540.26,134.76 L2537.62,134.76 C2535.64,145.56 2532.94,148.2 2523.64,148.38 L2521.12,148.38 C2517.52,148.26 2516.62,147.66 2516.8,145.5 L2516.8,115.26 C2516.8,112.26 2516.8,112.08 2517.16,111.54 C2517.64,110.94 2518.78,110.76 2522.2,110.7 L2523.28,110.7 L2523.28,107.88 L2503.6,107.88 L2503.6,110.7 L2504.68,110.7 C2508.1,110.76 2509.24,110.94 2509.72,111.54 C2510.08,112.08 2510.08,112.2 2510.08,115.26 L2510.08,143.82 C2510.08,146.88 2510.08,147 2509.72,147.54 C2509.24,148.14 2508.1,148.38 2504.68,148.38 L2503.6,148.38 L2503.6,151.2 L2539,151.2 L2540.26,134.76 "/>
<path class="StaffText" d="M1060.46,142.32 L1057.82,142.32 C1055.84,153.12 1053.14,155.76 1043.84,155.94 L1041.32,155.94 C1037.72,155.82 1036.82,155.22 1037,153.06 L1037,122.82 C1037,119.82 1037,119.64 1037.36,119.1 C1037.84,118.5 1038.98,118.32 1042.4,118.26 L1043.48,118.26 L1043.48,115.44 L1023.8,115.44 L1023.8,118.26 L1024.88,118.26 C1028.3,118.32 1029.44,118.5 1029.92,119.1 C1030.28,119.64 1030.28,119.76 1030.28,122.82 L1030.28,151.38 C1030.28,154.44 1030.28,154.56 1029.92,155.1 C1029.44,155.7 1028.3,155.94 1024.88,155.94 L1023.8,155.94 L1023.8,158.76 L1059.2,158.76 L1060.46,142.32 "/>
<path class="StaffText" d="M525.595,160.44 L529.075,160.44 C535.135,160.68 537.535,163.14 538.195,169.74 L538.495,172.8 C539.215,179.58 541.435,182.34 546.175,182.34 C551.095,182.34 553.435,179.04 553.615,171.84 L551.095,171.84 C550.855,175.98 550.135,177.78 548.515,177.78 C547.135,177.78 546.535,176.76 545.515,172.62 L544.555,168.84 C543.235,163.32 540.895,160.8 536.215,159.6 C544.855,158.4 548.995,154.92 548.995,148.86 C548.995,142.02 543.235,138.12 533.155,138.12 L512.395,138.12 L512.395,140.94 L513.475,140.94 C516.895,141 518.035,141.18 518.515,141.78 C518.875,142.32 518.875,142.44 518.875,145.5 L518.875,174.12 C518.875,177.12 518.875,177.24 518.515,177.84 C518.035,178.44 516.895,178.62 513.475,178.62 L512.395,178.62 L512.395,181.44 L532.075,181.44 L532.075,178.62 L530.995,178.62 C527.575,178.62 526.435,178.44 525.955,177.84 C525.595,177.24 525.595,177.12 525.595,174.12 L525.595,160.44 M525.595,157.62 L525.595,144.42 C525.475,141.12 525.775,140.88 529.735,140.94 L532.975,140.94 C538.915,140.94 541.615,143.46 541.615,148.92 C541.615,155.22 538.255,157.62 532.195,157.62 L525.595,157.62 "/>
<path class="StaffText" d="M1189.33,160.44 L1192.81,160.44 C1198.87,160.68 1201.27,163.14 1201.93,169.74 L1202.23,172.8 C1202.95,179.58 1205.17,182.34 1209.91,182.34 C1214.83,182.34 1217.17,179.04 1217.35,171.84 L1214.83,171.84 C1214.59,175.98 1213.87,177.78 1212.25,177.78 C1210.87,177.78 1210.27,176.76 1209.25,172.62 L1208.29,168.84 C1206.97,163.32 1204.63,160.8 1199.95,159.6 C1208.59,158.4 1212.73,154.92 1212.73,148.86 C1212.73,142.02 1206.97,138.12 1196.89,138.12 L1176.13,138.12 L1176.13,140.94 L1177.21,140.94 C1180.63,141 1181.77,141.18 1182.25,141.78 C1182.61,142.32 1182.61,142.44 1182.61,145.5 L1182.61,174.12 C1182.61,177.12 1182.61,177.24 1182.25,177.84 C1181.77,178.44 1180.63,178.62 1177.21,178.62 L1176.13,178.62 L1176.13,181.44 L1195.81,181.44 L1195.81,178.62 L1194.73,178.62 C1191.31,178.62 1190.17,178.44 1189.69,177.84 C1189.33,177.24 1189.33,177.12 1189.33,174.12 L1189.33,160.44 M1189.33,157.62 L1189.33,144.42 C1189.21,141.12 1189.51,140.88 1193.47,140.94 L1196.71,140.94 C1202.65,140.94 1205.35,143.46 1205.35,148.92 C1205.35,155.22 1201.99,157.62 1195.93,157.62 L1189.33,157.62 "/>
<path class="StaffText" d="M2618.35,160.44 L2621.83,160.44 C2627.89,160.68 2630.29,163.14 2630.95,169.74 L2631.25,172.8 C2631.97,179.58 2634.19,182.34 2638.93,182.34 C2643.85,182.34 2646.19,179.04 2646.37,171.84 L2643.85,171.84 C2643.61,175.98 2642.89,177.78 2641.27,177.78 C2639.89,177.78 2639.29,176.76 2638.27,172.62 L2637.31,168.84 C2635.99,163.32 2633.65,160.8 2628.97,159.6 C2637.61,158.4 2641.75,154.92 2641.75,148.86 C2641.75,142.02 2635.99,138.12 2625.91,138.12 L2605.15,138.12 L2605.15,140.94 L2606.23,140.94 C2609.65,141 2610.79,141.18 2611.27,141.78 C2611.63,142.32 2611.63,142.44 2611.63,145.5 L2611.63,174.12 C2611.63,177.12 2611.63,177.24 2611.27,177.84 C2610.79,178.44 2609.65,178.62 2606.23,178.62 L2605.15,178.62 L2605.15,181.44 L2624.83,181.44 L2624.83,178.62 L2623.75,178.62 C2620.33,178.62 2619.19,178.44 2618.71,177.84 C2618.35,177.24 2618.35,177.12 2618.35,174.12 L2618.35,160.44 M2618.35,157.62 L2618.35,144.42 C2618.23,141.12 2618.53,140.88 2622.49,140.94 L2625.73,140.94 C2631.67,140.94 2634.37,143.46 2634.37,148.92 C2634.37,155.22 2631.01,157.62 2624.95,157.62 L2618.35,157.62 "/>
<path class="StaffText" d="M373.269,160.44 L376.749,160.44 C382.809,160.68 385.209,163.14 385.869,169.74 L386.169,172.8 C386.889,179.58 389.109,182.34 393.849,182.34 C398.769,182.34 401.109,179.04 401.289,171.84 L398.769,171.84 C398.529,175.98 397.809,177.78 396.189,177.78 C394.809,177.78 394.209,176.76 393.189,172.62 L392.229,168.84 C390.909,163.32 388.569,160.8 383.889,159.6 C392.529,158.4 396.669,154.92 396.669,148.86 C396.669,142.02 390.909,138.12 380.829,138.12 L360.069,138.12 L360.069,140.94 L361.149,140.94 C364.569,141 365.709,141.18 366.189,141.78 C366.549,142.32 366.549,142.44 366.549,145.5 L366.549,174.12 C366.549,177.12 366.549,177.24 366.189,177.84 C365.709,178.44 364.569,178.62 361.149,178.62 L360.069,178.62 L360.069,181.44 L379.749,181.44 L379.749,178.62 L378.669,178.62 C375.249,178.62 374.109,178.44 373.629,177.84 C373.269,177.24 373.269,177.12 373.269,174.12 L373.269,160.44 M373.269,157.62 L373.269,144.42 C373.149,141.12 373.449,140.88 377.409,140.94 L380.649,140.94 C386.589,140.94 389.289,143.46 389.289,148.92 C389.289,155.22 385.929,157.62 379.869,157.62 L373.269,157.62 "/>
<path class="StaffText" d="M2056.17,136.869 L2059.65,136.869 C2065.71,137.109 2068.11,139.569 2068.77,146.169 L2069.07,149.229 C2069.79,156.009 2072.01,158.769 2076.75,158.769 C2081.67,158.769 2084.01,155.469 2084.19,148.269 L2081.67,148.269 C2081.43,152.409 2080.71,154.209 2079.09,154.209 C2077.71,154.209 2077.11,153.189 2076.09,149.049 L2075.13,145.269 C2073.81,139.749 2071.47,137.229 2066.79,136.029 C2075.43,134.829 2079.57,131.349 2079.57,125.289 C2079.57,118.449 2073.81,114.549 2063.73,114.549 L2042.97,114.549 L2042.97,117.369 L2044.05,117.369 C2047.47,117.429 2048.61,117.609 2049.09,118.209 C2049.45,118.749 2049.45,118.869 2049.45,121.929 L2049.45,150.549 C2049.45,153.549 2049.45,153.669 2049.09,154.269 C2048.61,154.869 2047.47,155.049 2044.05,155.049 L2042.97,155.049 L2042.97,157.869 L2062.65,157.869 L2062.65,155.049 L2061.57,155.049 C2058.15,155.049 2057.01,154.869 2056.53,154.269 C2056.17,153.669 2056.17,153.549 2056.17,150.549 L2056.17,136.869 M2056.17,134.049 L2056.17,120.849 C2056.05,117.549 2056.35,117.309 2060.31,117.369 L2063.55,117.369 C2069.49,117.369 2072.19,119.889 2072.19,125.349 C2072.19,131.649 2068.83,134.049 2062.77,134.049 L2056.17,134.049 "/>
<path class="StaffText" d="M1365.11,142.32 L1362.47,142.32 C1360.49,153.12 1357.79,155.76 1348.49,155.94 L1345.97,155.94 C1342.37,155.82 1341.47,155.22 1341.65,153.06 L1341.65,122.82 C1341.65,119.82 1341.65,119.64 1342.01,119.1 C1342.49,118.5 1343.63,118.32 1347.05,118.26 L1348.13,118.26 L1348.13,115.44 L1328.45,115.44 L1328.45,118.26 L1329.53,118.26 C1332.95,118.32 1334.09,118.5 1334.57,119.1 C1334.93,119.64 1334.93,119.76 1334.93,122.82 L1334.93,151.38 C1334.93,154.44 1334.93,154.56 1334.57,155.1 C1334.09,155.7 1332.95,155.94 1329.53,155.94 L1328.45,155.94 L1328.45,158.76 L1363.85,158.76 L1365.11,142.32 "/>
<path class="StaffText" d="M2770.68,129.309 L2774.16,129.309 C2780.22,129.549 2782.62,132.009 2783.28,138.609 L2783.58,141.669 C2784.3,148.449 2786.52,151.209 2791.26,151.209 C2796.18,151.209 2798.52,147.909 2798.7,140.709 L2796.18,140.709 C2795.94,144.849 2795.22,146.649 2793.6,146.649 C2792.22,146.649 2791.62,145.629 2790.6,141.489 L2789.64,137.709 C2788.32,132.189 2785.98,129.669 2781.3,128.469 C2789.94,127.269 2794.08,123.789 2794.08,117.729 C2794.08,110.889 2788.32,106.989 2778.24,106.989 L2757.48,106.989 L2757.48,109.809 L2758.56,109.809 C2761.98,109.869 2763.12,110.049 2763.6,110.649 C2763.96,111.189 2763.96,111.309 2763.96,114.369 L2763.96,142.989 C2763.96,145.989 2763.96,146.109 2763.6,146.709 C2763.12,147.309 2761.98,147.489 2758.56,147.489 L2757.48,147.489 L2757.48,150.309 L2777.16,150.309 L2777.16,147.489 L2776.08,147.489 C2772.66,147.489 2771.52,147.309 2771.04,146.709 C2770.68,146.109 2770.68,145.989 2770.68,142.989 L2770.68,129.309 M2770.68,126.489 L2770.68,113.289 C2770.56,109.989 2770.86,109.749 2774.82,109.809 L2778.06,109.809 C2784,109.809 2786.7,112.329 2786.7,117.789 C2786.7,124.089 2783.34,126.489 2777.28,126.489 L2770.68,126.489 "/>
<path class="StaffText" d="M1903.84,160.44 L1907.32,160.44 C1913.38,160.68 1915.78,163.14 1916.44,169.74 L1916.74,172.8 C1917.46,179.58 1919.68,182.34 1924.42,182.34 C1929.34,182.34 1931.68,179.04 1931.86,171.84 L1929.34,171.84 C1929.1,175.98 1928.38,177.78 1926.76,177.78 C1925.38,177.78 1924.78,176.76 1923.76,172.62 L1922.8,168.84 C1921.48,163.32 1919.14,160.8 1914.46,159.6 C1923.1,158.4 1927.24,154.92 1927.24,148.86 C1927.24,142.02 1921.48,138.12 1911.4,138.12 L1890.64,138.12 L1890.64,140.94 L1891.72,140.94 C1895.14,141 1896.28,141.18 1896.76,141.78 C1897.12,142.32 1897.12,142.44 1897.12,145.5 L1897.12,174.12 C1897.12,177.12 1897.12,177.24 1896.76,177.84 C1896.28,178.44 1895.14,178.62 1891.72,178.62 L1890.64,178.62 L1890.64,181.44 L1910.32,181.44 L1910.32,178.62 L1909.24,178.62 C1905.82,178.62 1904.68,178.44 1904.2,177.84 C1903.84,177.24 1903.84,177.12 1903.84,174.12 L1903.84,160.44 M1903.84,157.62 L1903.84,144.42 C1903.72,141.12 1904.02,140.88 1907.98,140.94 L1911.22,140.94 C1917.16,140.94 1919.86,143.46 1919.86,148.92 C1919.86,155.22 1916.5,157.62 1910.44,157.62 L1903.84,157.62 "/>
<path class="StaffText" d="M220.943,160.44 L224.423,160.44 C230.483,160.68 232.883,163.14 233.543,169.74 L233.843,172.8 C234.563,179.58 236.783,182.34 241.523,182.34 C246.443,182.34 248.783,179.04 248.963,171.84 L246.443,171.84 C246.203,175.98 245.483,177.78 243.863,177.78 C242.483,177.78 241.883,176.76 240.863,172.62 L239.903,168.84 C238.583,163.32 236.243,160.8 231.563,159.6 C240.203,158.4 244.343,154.92 244.343,148.86 C244.343,142.02 238.583,138.12 228.503,138.12 L207.743,138.12 L207.743,140.94 L208.823,140.94 C212.243,141 213.383,141.18 213.863,141.78 C214.223,142.32 214.223,142.44 214.223,145.5 L214.223,174.12 C214.223,177.12 214.223,177.24 213.863,177.84 C213.383,178.44 212.243,178.62 208.823,178.62 L207.743,178.62 L207.743,181.44 L227.423,181.44 L227.423,178.62 L226.343,178.62 C222.923,178.62 221.783,178.44 221.303,177.84 C220.943,177.24 220.943,177.12 220.943,174.12 L220.943,160.44 M220.943,157.62 L220.943,144.42 C220.823,141.12 221.123,140.88 225.083,140.94 L228.323,140.94 C234.263,140.94 236.963,143.46 236.963,148.92 C236.963,155.22 233.603,157.62 227.543,157.62 L220.943,157.62 "/>
<path class="StaffText" d="M1548.42,160.44 L1551.9,160.44 C1557.96,160.68 1560.36,163.14 1561.02,169.74 L1561.32,172.8 C1562.04,179.58 1564.26,182.34 1569,182.34 C1573.92,182.34 1576.26,179.04 1576.44,171.84 L1573.92,171.84 C1573.68,175.98 1572.96,177.78 1571.34,177.78 C1569.96,177.78 1569.36,176.76 1568.34,172.62 L1567.38,168.84 C1566.06,163.32 1563.72,160.8 1559.04,159.6 C1567.68,158.4 1571.82,154.92 1571.82,148.86 C1571.82,142.02 1566.06,138.12 1555.98,138.12 L1535.22,138.12 L1535.22,140.94 L1536.3,140.94 C1539.72,141 1540.86,141.18 1541.34,141.78 C1541.7,142.32 1541.7,142.44 1541.7,145.5 L1541.7,174.12 C1541.7,177.12 1541.7,177.24 1541.34,177.84 C1540.86,178.44 1539.72,178.62 1536.3,178.62 L1535.22,178.62 L1535.22,181.44 L1554.9,181.44 L1554.9,178.62 L1553.82,178.62 C1550.4,178.62 1549.26,178.44 1548.78,177.84 C1548.42,177.24 1548.42,177.12 1548.42,174.12 L1548.42,160.44 M1548.42,157.62 L1548.42,144.42 C1548.3,141.12 1548.6,140.88 1552.56,140.94 L1555.8,140.94 C1561.74,140.94 1564.44,143.46 1564.44,148.92 C1564.44,155.22 1561.08,157.62 1555.02,157.62 L1548.42,157.62 "/>
<path class="StaffText" d="M2895.68,139.8 L2893.04,139.8 C2891.06,150.6 2888.36,153.24 2879.06,153.42 L2876.54,153.42 C2872.94,153.3 2872.04,152.7 2872.22,150.54 L2872.22,120.3 C2872.22,117.3 2872.22,117.12 2872.58,116.58 C2873.06,115.98 2874.2,115.8 2877.62,115.74 L2878.7,115.74 L2878.7,112.92 L2859.02,112.92 L2859.02,115.74 L2860.1,115.74 C2863.52,115.8 2864.66,115.98 2865.14,116.58 C2865.5,117.12 2865.5,117.24 2865.5,120.3 L2865.5,148.86 C2865.5,151.92 2865.5,152.04 2865.14,152.58 C2864.66,153.18 2863.52,153.42 2860.1,153.42 L2859.02,153.42 L2859.02,156.24 L2894.42,156.24 L2895.68,139.8 "/>
<path class="StaffText" d="M1825.74,134.76 L1823.1,134.76 C1821.12,145.56 1818.42,148.2 1809.12,148.38 L1806.6,148.38 C1803,148.26 1802.1,147.66 1802.28,145.5 L1802.28,115.26 C1802.28,112.26 1802.28,112.08 1802.64,111.54 C1803.12,110.94 1804.26,110.76 1807.68,110.7 L1808.76,110.7 L1808.76,107.88 L1789.08,107.88 L1789.08,110.7 L1790.16,110.7 C1793.58,110.76 1794.72,110.94 1795.2,111.54 C1795.56,112.08 1795.56,112.2 1795.56,115.26 L1795.56,143.82 C1795.56,146.88 1795.56,147 1795.2,147.54 C1794.72,148.14 1793.58,148.38 1790.16,148.38 L1789.08,148.38 L1789.08,151.2 L1824.48,151.2 L1825.74,134.76 "/>
</svg>
