<?xml version="1.0" encoding="UTF-8" standalone="no"?>
<svg width="2977.2px" height="612px" viewBox="0 0 2977.2 612"
 xmlns="http://www.w3.org/2000/svg" xmlns:xlink="http://www.w3.org/1999/xlink" version="1.2" baseProfile="tiny">
<title>fills_3_4_selection</title>
<desc>Generated by MuseScore Studio 4.4.4</desc>
<path class="" fill="#ffffff" fill-rule="evenodd" d="M0,0 L2977.2,0 L2977.2,612 L0,612 L0,0 "/>
<polyline class="StaffLines" fill="none" stroke="#000000" stroke-width="3.33" stroke-linejoin="bevel" points="0,211.68 2977.2,211.68"/>
<polyline class="StaffLines" fill="none" stroke="#000000" stroke-width="3.33" stroke-linejoin="bevel" points="0,241.92 2977.2,241.92"/>
<polyline class="StaffLines" fill="none" stroke="#000000" stroke-width="3.33" stroke-linejoin="bevel" points="0,272.16 2977.2,272.16"/>
<polyline class="StaffLines" fill="none" stroke="#000000" stroke-width="3.33" stroke-linejoin="bevel" points="0,302.4 2977.2,302.4"/>
<polyline class="StaffLines" fill="none" stroke="#000000" stroke-width="3.33" stroke-linejoin="bevel" points="0,332.64 2977.2,332.64"/>
<polyline class="BarLine" fill="none" stroke="#000000" stroke-width="5.44" stroke-linejoin="bevel" points="2946.66,210.017 2946.66,334.303"/>
<polyline class="BarLine" fill="none" stroke="#000000" stroke-width="16.63" stroke-linejoin="bevel" points="2968.88,210.017 2968.88,334.303"/>
<polyline class="BarLine" fill="none" stroke="#000000" stroke-width="16.63" stroke-linejoin="bevel" points="871.749,210.017 871.749,334.303"/>
<polyline class="BarLine" fill="none" stroke="#000000" stroke-width="16.63" stroke-linejoin="bevel" points="2242.12,210.017 2242.12,334.303"/>
<polyline class="BarLine" fill="none" stroke="#000000" stroke-width="16.63" stroke-linejoin="bevel" points="1581.89,210.017 1581.89,334.303"/>
<polyline class="Stem" fill="none" stroke="#000000" stroke-width="3.02" stroke-linejoin="bevel" points="245.511,252.202 245.511,166.32"/>
<polyline class="Stem" fill="none" stroke="#000000" stroke-width="3.02" stroke-linejoin="bevel" points="1447.42,252.202 1447.42,166.32"/>
<polyline class="Stem" fill="none" stroke="#000000" stroke-width="3.02" stroke-linejoin="bevel" points="2817.79,252.202 2817.79,158.881"/>
<polyline class="Stem" fill="none" stroke="#000000" stroke-width="3.02" stroke-linejoin="bevel" points="409.437,252.202 409.437,166.32"/>
<polyline class="Stem" fill="none" stroke="#000000" stroke-width="3.02" stroke-linejoin="bevel" points="1697.84,252.202 1697.84,166.32"/>
<polyline class="Stem" fill="none" stroke="#000000" stroke-width="3.02" stroke-linejoin="bevel" points="1283.5,252.202 1283.5,166.32"/>
<polyline class="Stem" fill="none" stroke="#000000" stroke-width="3.02" stroke-linejoin="bevel" points="2489.94,252.202 2489.94,166.32"/>
<polyline class="Stem" fill="none" stroke="#000000" stroke-width="3.02" stroke-linejoin="bevel" points="573.363,252.202 573.363,166.32"/>
<polyline class="Stem" fill="none" stroke="#000000" stroke-width="3.02" stroke-linejoin="bevel" points="1943.73,252.202 1943.73,166.32"/>
<polyline class="Stem" fill="none" stroke="#000000" stroke-width="3.02" stroke-linejoin="bevel" points="2326.01,252.202 2326.01,166.32"/>
<polyline class="Stem" fill="none" stroke="#000000" stroke-width="3.02" stroke-linejoin="bevel" points="2107.66,252.202 2107.66,166.32"/>
<polyline class="Stem" fill="none" stroke="#000000" stroke-width="3.02" stroke-linejoin="bevel" points="1119.57,252.202 1119.57,166.32"/>
<path class="Hook" transform="matrix(1.2096,0,0,1.2096,2816.28,158.76)" d="M0,38.1 C0,38.4 0.8,38.8 1.5,39.1 C4.1,40 11.9,45 17.9,53.9 C21.3,59 22.1,62.6 22.1,66 C22.1,66.6 22.1,67.1 22,67.7 C22,70.1 21.3,75.2 19.8,79.2 C19.7,79.7 19.4,80.3 19.4,80.8 C19.4,81.2 19.6,81.6 20.1,81.9 C20.3,82 20.5,82 20.6,82 C21.3,82 21.7,81.2 22.1,80.6 C23.9,77.8 26.5,72.4 26.5,66.8 C26.5,63.9 26.3,61.5 26,59.4 C27.1,55.7 27.9,52 27.9,47.1 C27.9,41.9 26.5,37.2 23.1,32.7 C18.4,26.5 13.3,21.4 9.5,15.8 C5.7,10.3 2.9,0 2.9,0 C2.7,-0.7 2.6,-1.2 1.5,-1.2 C0.3,-1.2 0,-0.7 0,0 L0,38.1 M20.9,47.3 C18.2,43.8 15.2,40.6 10.3,35.7 C6.4,31.8 4.6,28.4 4,25.8 C3.8,25.3 3.7,24.6 3.6,23.8 C8.7,23.9 15.2,30.7 18.8,35.4 C22.7,40.5 23.6,44.6 23.6,48.3 C23.6,49.3 23.5,50.3 23.4,51.3 C22.6,49.7 21.7,48.4 20.9,47.3"/>
<path class="Note" transform="matrix(1.2096,0,0,1.2096,1409.64,257.04)" d="M0,4.2 C0,8.5 3.1,13.3 11.2,13.3 C21.6,13.3 32.5,4.8 32.5,-4 C32.5,-9.9 27.5,-13.2 21.3,-13.2 C11.6,-13.2 0,-5 0,4.2"/>
<path class="Note" transform="matrix(1.2096,0,0,1.2096,207.73,257.04)" d="M0,4.2 C0,8.5 3.1,13.3 11.2,13.3 C21.6,13.3 32.5,4.8 32.5,-4 C32.5,-9.9 27.5,-13.2 21.3,-13.2 C11.6,-13.2 0,-5 0,4.2"/>
<path class="Note" transform="matrix(1.2096,0,0,1.2096,2069.87,257.04)" d="M0,4.2 C0,8.5 3.1,13.3 11.2,13.3 C21.6,13.3 32.5,4.8 32.5,-4 C32.5,-9.9 27.5,-13.2 21.3,-13.2 C11.6,-13.2 0,-5 0,4.2"/>
<path class="Note" transform="matrix(1.2096,0,0,1.2096,1081.79,257.04)" d="M0,4.2 C0,8.5 3.1,13.3 11.2,13.3 C21.6,13.3 32.5,4.8 32.5,-4 C32.5,-9.9 27.5,-13.2 21.3,-13.2 C11.6,-13.2 0,-5 0,4.2"/>
<path class="Note" transform="matrix(1.2096,0,0,1.2096,1905.95,257.04)" d="M0,4.2 C0,8.5 3.1,13.3 11.2,13.3 C21.6,13.3 32.5,4.8 32.5,-4 C32.5,-9.9 27.5,-13.2 21.3,-13.2 C11.6,-13.2 0,-5 0,4.2"/>
<path class="Note" transform="matrix(1.2096,0,0,1.2096,2288.23,257.04)" d="M0,4.2 C0,8.5 3.1,13.3 11.2,13.3 C21.6,13.3 32.5,4.8 32.5,-4 C32.5,-9.9 27.5,-13.2 21.3,-13.2 C11.6,-13.2 0,-5 0,4.2"/>
<path class="Note" transform="matrix(1.2096,0,0,1.2096,535.582,257.04)" d="M0,4.2 C0,8.5 3.1,13.3 11.2,13.3 C21.6,13.3 32.5,4.8 32.5,-4 C32.5,-9.9 27.5,-13.2 21.3,-13.2 C11.6,-13.2 0,-5 0,4.2"/>
<path class="Note" transform="matrix(1.2096,0,0,1.2096,2452.16,257.04)" d="M0,4.2 C0,8.5 3.1,13.3 11.2,13.3 C21.6,13.3 32.5,4.8 32.5,-4 C32.5,-9.9 27.5,-13.2 21.3,-13.2 C11.6,-13.2 0,-5 0,4.2"/>
<path class="Note" transform="matrix(1.2096,0,0,1.2096,1245.72,257.04)" d="M0,4.2 C0,8.5 3.1,13.3 11.2,13.3 C21.6,13.3 32.5,4.8 32.5,-4 C32.5,-9.9 27.5,-13.2 21.3,-13.2 C11.6,-13.2 0,-5 0,4.2"/>
<path class="Note" transform="matrix(1.2096,0,0,1.2096,1660.06,257.04)" d="M0,4.2 C0,8.5 3.1,13.3 11.2,13.3 C21.6,13.3 32.5,4.8 32.5,-4 C32.5,-9.9 27.5,-13.2 21.3,-13.2 C11.6,-13.2 0,-5 0,4.2"/>
<path class="Note" transform="matrix(1.2096,0,0,1.2096,371.656,257.04)" d="M0,4.2 C0,8.5 3.1,13.3 11.2,13.3 C21.6,13.3 32.5,4.8 32.5,-4 C32.5,-9.9 27.5,-13.2 21.3,-13.2 C11.6,-13.2 0,-5 0,4.2"/>
<path class="Note" transform="matrix(1.2096,0,0,1.2096,2780.01,257.04)" d="M0,4.2 C0,8.5 3.1,13.3 11.2,13.3 C21.6,13.3 32.5,4.8 32.5,-4 C32.5,-9.9 27.5,-13.2 21.3,-13.2 C11.6,-13.2 0,-5 0,4.2"/>
<path class="Clef" transform="matrix(1.2096,0,0,1.2096,22.68,272.16)" d="M1.3,-25.2 C0.6,-25.2 0,-24.6 0,-23.9 L0,23.9 C0,24.6 0.6,25.2 1.3,25.2 L12.3,25.2 C13,25.2 13.6,24.6 13.6,23.9 L13.6,-23.9 C13.6,-24.6 13,-25.2 12.3,-25.2 L1.3,-25.2 M22.9,-25.2 C22.2,-25.2 21.6,-24.6 21.6,-23.9 L21.6,23.9 C21.6,24.6 22.2,25.2 22.9,25.2 L33.9,25.2 C34.6,25.2 35.2,24.6 35.2,23.9 L35.2,-23.9 C35.2,-24.6 34.6,-25.2 33.9,-25.2 L22.9,-25.2 "/>
<path class="TimeSig" transform="matrix(1.2096,0,0,1.2096,100.246,242.525)" d="M24.9,19.7 L24.9,-23.3 C24.9,-24 24.4,-24.5 23.7,-24.5 L13.8,-24.5 C13.6,-24.5 13.4,-24.4 13.2,-24.3 C13.1,-24.2 12.9,-24 12.8,-23.9 L1.6,-4.5 C1.5,-4.3 1.5,-4.1 1.5,-3.9 C1.5,-3.5 1.8,-3.1 2.1,-2.9 L4,-1.8 C4.2,-1.7 4.4,-1.6 4.6,-1.6 C5,-1.6 5.4,-1.9 5.6,-2.2 L12.7,-14.4 L12.7,19.7 L5.1,19.7 C4.4,19.7 3.9,20.2 3.9,20.9 L3.9,23.1 C3.9,23.8 4.4,24.3 5.1,24.3 L32.5,24.3 C33.2,24.3 33.6,23.8 33.6,23.1 L33.6,20.9 C33.6,20.2 33.2,19.7 32.5,19.7 L24.9,19.7 "/>
<path class="TimeSig" transform="matrix(1.2096,0,0,1.2096,93.8007,302.4)" d="M20.8,12.7 L20.8,20.1 L12.5,20.1 C11.8,20.1 11.1,20.7 11.1,21.5 L11.1,23.4 C11.1,24.2 11.8,24.8 12.5,24.8 L42.8,24.8 C43.6,24.8 44.2,24.2 44.2,23.4 L44.2,21.5 C44.2,20.7 43.6,20.1 42.8,20.1 L33.9,20.1 L33.9,12.7 L42.8,12.7 C43.6,12.7 44.2,12 44.2,11.2 L44.2,9.3 C44.2,8.6 43.6,7.9 42.8,7.9 L33.9,7.9 L33.9,-8 C33.9,-8.6 33.6,-9.1 33.1,-9.3 L31.9,-9.9 C31.7,-10 31.4,-10.1 31.2,-10.1 C30.9,-10 30.5,-9.9 30.3,-9.7 L21.2,-1.4 C20.9,-1.1 20.8,-0.7 20.8,-0.3 L20.8,7.9 L9.3,7.9 C9.3,7.9 20.4,-4.1 32.2,-19.9 C32.6,-20.4 32.7,-20.9 32.7,-21.3 C32.7,-21.8 32.5,-22.2 32.4,-22.3 L30.2,-24.5 C30,-24.7 29.6,-24.9 29.2,-24.9 C28.6,-24.9 15.1,-24.9 14.4,-24.9 C13.6,-24.9 13.1,-24.3 13,-23.7 C13,-23.7 12.5,-16.3 9.9,-8.2 C7.3,-0.1 4.3,4.9 1.7,8.6 C1.7,8.6 1.4,9.1 1.4,9.7 C1.4,9.9 1.4,10.1 1.5,10.3 C1.9,11 2.5,12.1 2.5,12.1 C2.5,12.1 2.7,12.7 3.6,12.7 L20.8,12.7 "/>
<path class="Rest" transform="matrix(1.2096,0,0,1.2096,699.508,272.16)" d="M34.3,-18.6 C34.4,-18.8 34.4,-18.9 34.4,-19.1 C34.4,-19.6 34.1,-20.1 33.5,-20.3 C33.3,-20.4 33.1,-20.4 33,-20.4 C32.4,-20.4 32,-20.1 31.7,-19.6 C29.3,-14.8 25.3,-9.4 19.8,-8 C21,-9.4 21.5,-11 21.5,-12.8 C21.5,-16.7 18,-19.7 14.1,-19.7 C10.2,-19.5 7.2,-16.2 7.2,-12.3 C7.4,-6.7 12.8,-4.8 17.5,-4.8 C22.5,-5 26.4,-7.5 29.4,-11.4 L24.9,4.5 C23.5,9.3 17.8,15.7 12.7,17 C13.8,15.6 14.4,13.9 14.4,12.2 C14.4,8.2 11,5.3 7.1,5.3 C3.1,5.3 0.1,8.7 0.1,12.7 C0.1,15.7 2.2,18.2 4.8,19.1 C6.7,19.9 8.4,20.1 10.4,20.1 C15.4,20 19.3,17.4 22.3,13.5 L12.1,50 L14.8,50.7 L34.3,-18.6 "/>
<path class="Rest" transform="matrix(1.2096,0,0,1.2096,917.865,272.16)" d="M34.3,-18.6 C34.4,-18.8 34.4,-18.9 34.4,-19.1 C34.4,-19.6 34.1,-20.1 33.5,-20.3 C33.3,-20.4 33.1,-20.4 33,-20.4 C32.4,-20.4 32,-20.1 31.7,-19.6 C29.3,-14.8 25.3,-9.4 19.8,-8 C21,-9.4 21.5,-11 21.5,-12.8 C21.5,-16.7 18,-19.7 14.1,-19.7 C10.2,-19.5 7.2,-16.2 7.2,-12.3 C7.4,-6.7 12.8,-4.8 17.5,-4.8 C22.5,-5 26.4,-7.5 29.4,-11.4 L24.9,4.5 C23.5,9.3 17.8,15.7 12.7,17 C13.8,15.6 14.4,13.9 14.4,12.2 C14.4,8.2 11,5.3 7.1,5.3 C3.1,5.3 0.1,8.7 0.1,12.7 C0.1,15.7 2.2,18.2 4.8,19.1 C6.7,19.9 8.4,20.1 10.4,20.1 C15.4,20 19.3,17.4 22.3,13.5 L12.1,50 L14.8,50.7 L34.3,-18.6 "/>
<path class="Rest" transform="matrix(1.2096,0,0,1.2096,2616.08,272.16)" d="M34.3,-18.6 C34.4,-18.8 34.4,-18.9 34.4,-19.1 C34.4,-19.6 34.1,-20.1 33.5,-20.3 C33.3,-20.4 33.1,-20.4 33,-20.4 C32.4,-20.4 32,-20.1 31.7,-19.6 C29.3,-14.8 25.3,-9.4 19.8,-8 C21,-9.4 21.5,-11 21.5,-12.8 C21.5,-16.7 18,-19.7 14.1,-19.7 C10.2,-19.5 7.2,-16.2 7.2,-12.3 C7.4,-6.7 12.8,-4.8 17.5,-4.8 C22.5,-5 26.4,-7.5 29.4,-11.4 L24.9,4.5 C23.5,9.3 17.8,15.7 12.7,17 C13.8,15.6 14.4,13.9 14.4,12.2 C14.4,8.2 11,5.3 7.1,5.3 C3.1,5.3 0.1,8.7 0.1,12.7 C0.1,15.7 2.2,18.2 4.8,19.1 C6.7,19.9 8.4,20.1 10.4,20.1 C15.4,20 19.3,17.4 22.3,13.5 L12.1,50 L14.8,50.7 L34.3,-18.6 "/>
<path class="Beam" fill-rule="evenodd" d="M1696.33,158.76 L2109.17,158.76 L2109.17,173.88 L1696.33,173.88 L1696.33,158.76 "/>
<path class="Beam" fill-rule="evenodd" d="M1942.22,181.44 L2109.17,181.44 L2109.17,196.56 L1942.22,196.56 L1942.22,181.44 "/>
<path class="Beam" fill-rule="evenodd" d="M1118.06,158.76 L1448.94,158.76 L1448.94,173.88 L1118.06,173.88 L1118.06,158.76 "/>
<path class="Beam" fill-rule="evenodd" d="M1118.06,181.44 L1448.94,181.44 L1448.94,196.56 L1118.06,196.56 L1118.06,181.44 "/>
<path class="Beam" fill-rule="evenodd" d="M243.999,158.76 L574.875,158.76 L574.875,173.88 L243.999,173.88 L243.999,158.76 "/>
<path class="Beam" fill-rule="evenodd" d="M243.999,181.44 L574.875,181.44 L574.875,196.56 L243.999,196.56 L243.999,181.44 "/>
<path class="Beam" fill-rule="evenodd" d="M2324.5,158.76 L2491.45,158.76 L2491.45,173.88 L2324.5,173.88 L2324.5,158.76 "/>
<path class="Beam" fill-rule="evenodd" d="M2324.5,181.44 L2491.45,181.44 L2491.45,196.56 L2324.5,196.56 L2324.5,181.44 "/>
<path class="Lyrics" d="M1403.7,499.604 L1414.62,499.184 L1414.62,496.604 L1413.12,496.604 C1409.64,496.484 1409.34,496.124 1409.34,492.224 L1409.34,471.224 L1398.06,471.884 L1398.06,474.464 L1401.12,474.464 C1403.4,474.524 1403.7,474.884 1403.7,477.464 L1403.7,484.844 C1403.7,490.064 1402.44,496.424 1395.84,496.424 C1393.98,496.424 1392.42,495.764 1391.64,494.564 C1390.86,493.424 1390.74,492.824 1390.74,489.524 L1390.74,471.224 L1380.24,471.884 L1380.24,474.464 L1382.52,474.464 C1384.8,474.524 1385.1,474.884 1385.1,477.464 L1385.1,490.424 C1385.1,493.484 1385.34,494.864 1386.24,496.244 C1387.86,498.704 1390.74,500.084 1394.34,500.084 C1398.3,500.084 1401.06,498.464 1403.7,494.624 L1403.7,499.604 M1427.63,454.964 L1416.53,455.624 L1416.53,458.204 L1419.41,458.204 C1421.69,458.264 1421.99,458.624 1421.99,461.204 L1421.99,494.684 C1421.93,495.524 1421.87,495.884 1421.63,496.184 C1421.21,496.724 1420.07,496.964 1417.49,497.024 L1417.25,497.024 L1417.25,499.184 L1432.43,499.184 L1432.43,497.024 L1432.19,497.024 C1428.17,496.904 1427.63,496.604 1427.63,494.444 L1427.63,485.564 C1427.63,482.624 1428.05,479.924 1428.71,478.544 C1430.03,475.844 1432.67,473.984 1435.25,473.984 C1436.81,473.984 1438.61,474.884 1439.45,476.084 C1440.41,477.404 1440.83,479.204 1440.83,482.144 L1440.83,494.684 C1440.77,495.524 1440.71,495.884 1440.47,496.184 C1440.05,496.724 1438.85,496.964 1436.27,497.024 L1436.03,497.024 L1436.03,499.184 L1451.21,499.184 L1451.21,497.024 L1450.97,497.024 C1447.01,496.904 1446.47,496.604 1446.47,494.444 L1446.47,482.384 C1446.47,478.064 1446.29,476.984 1445.21,474.944 C1443.71,472.004 1440.71,470.324 1437.11,470.324 C1433.21,470.324 1430.33,472.064 1427.63,476.084 L1427.63,454.964 M1464.17,471.224 L1453.55,471.884 L1453.55,474.464 L1456.01,474.464 C1458.29,474.524 1458.59,474.884 1458.59,477.464 L1458.59,494.624 C1458.53,495.524 1458.47,495.884 1458.23,496.184 C1457.81,496.724 1456.61,496.964 1454.03,497.024 L1453.79,497.024 L1453.79,499.184 L1469.81,499.184 L1469.81,497.024 L1468.73,497.024 C1464.71,496.904 1464.17,496.604 1464.17,494.444 L1464.17,491.204 C1464.23,481.124 1467.83,473.444 1472.51,473.204 C1471.67,474.164 1471.43,474.764 1471.43,475.904 C1471.43,477.824 1472.81,479.204 1474.73,479.204 C1476.95,479.204 1478.39,477.584 1478.39,475.184 C1478.39,472.244 1476.35,470.324 1473.17,470.324 C1469.39,470.324 1466.15,473.324 1464.17,478.664 L1464.17,471.224 "/>
<path class="Lyrics" d="M2490.05,408.059 C2490.13,395.309 2482.91,386.299 2472.54,386.299 C2461.66,386.299 2453.5,395.734 2453.5,408.484 C2453.5,420.469 2461.23,428.459 2472.71,428.459 C2480.87,428.459 2486.56,424.464 2490.05,416.389 L2487.07,414.774 C2483.59,421.319 2480.02,423.869 2474.32,423.869 C2469.99,423.869 2466.84,422.084 2464.63,418.259 C2463.1,415.709 2462.42,412.734 2462.51,408.059 L2490.05,408.059 M2462.59,404.404 C2462.59,398.454 2465.31,389.954 2472.45,389.954 C2477.55,389.954 2480.95,394.459 2480.95,401.344 C2480.95,403.724 2480.19,404.404 2477.47,404.404 L2462.59,404.404 "/>
<path class="Lyrics" d="M1292.41,412.819 C1291.39,418.174 1288.58,421.404 1284.84,421.404 C1281.61,421.404 1278.81,419.874 1275.49,416.219 C1278.89,412.054 1279.32,411.459 1281.1,408.059 C1286.29,397.944 1287.31,396.924 1293.34,396.499 L1294.28,396.499 L1294.28,392.844 L1270.31,392.844 L1270.31,396.499 L1271.16,396.499 C1276.17,396.499 1278.81,397.859 1278.81,400.494 C1278.81,404.149 1276.51,409.164 1272.86,413.329 C1268.78,408.484 1263.93,401.174 1259.17,392.249 C1263.76,390.209 1265.21,389.444 1267.42,387.914 C1271.33,385.194 1273.88,380.519 1273.88,376.014 C1273.88,369.129 1268.52,364.539 1260.62,364.539 C1251.69,364.539 1245.74,370.574 1245.74,379.584 C1245.74,383.324 1246.68,386.639 1249.31,392.249 C1239.79,396.754 1234.61,403.469 1234.61,411.119 C1234.61,415.369 1236.48,420.044 1239.45,423.274 C1242.6,426.674 1247.1,428.459 1252.88,428.459 C1259,428.459 1263.68,426.759 1269.2,422.424 C1273.28,426.589 1276.6,428.119 1281.27,428.119 C1290.28,428.119 1295.13,421.574 1296.15,413.329 L1292.41,412.819 M1257.39,388.679 C1254.92,383.579 1253.73,379.754 1253.73,376.609 C1253.73,371.679 1256.45,368.194 1260.36,368.194 C1264.27,368.194 1267.08,371.509 1267.08,376.184 C1267.08,379.414 1265.63,382.814 1263.42,384.939 C1262.06,386.214 1260.79,386.979 1257.39,388.679 M1250.93,395.734 C1256.45,406.699 1259.34,411.119 1266.57,419.534 C1262.83,421.914 1260.87,422.679 1257.98,422.679 C1250.42,422.679 1243.7,415.029 1243.7,406.529 C1243.7,401.854 1245.83,398.709 1250.93,395.734"/>
<path class="Lyrics" d="M2738,454.964 L2727.68,455.624 L2727.68,458.204 L2729.78,458.204 C2732.06,458.264 2732.36,458.624 2732.36,461.204 L2732.36,484.544 C2732.36,492.884 2732,497.444 2731.28,500.024 L2733.56,500.024 L2736.5,495.344 C2738.96,498.584 2741.78,500.084 2745.5,500.084 C2752.94,500.084 2758.4,493.724 2758.4,485.024 C2758.4,476.384 2753.36,470.324 2746.16,470.324 C2742.5,470.324 2740.28,471.584 2738,475.004 L2738,454.964 M2745.08,473.384 C2749.58,473.384 2752.1,477.764 2752.1,485.624 C2752.1,493.244 2749.64,497.504 2745.26,497.504 C2740.52,497.504 2737.7,493.124 2737.7,485.744 C2737.7,477.704 2740.28,473.384 2745.08,473.384 M2772.8,454.964 L2761.7,455.624 L2761.7,458.204 L2764.64,458.204 C2766.86,458.264 2767.16,458.624 2767.16,461.204 L2767.16,494.624 C2767.1,495.524 2767.04,495.884 2766.8,496.184 C2766.38,496.724 2765.24,496.964 2762.66,497.024 L2762.24,497.024 L2762.24,499.184 L2777.78,499.184 L2777.78,497.024 L2777.36,497.024 C2773.34,496.904 2772.8,496.604 2772.8,494.444 L2772.8,454.964 M2807.35,485.684 C2807.41,476.684 2802.31,470.324 2794.99,470.324 C2787.31,470.324 2781.55,476.984 2781.55,485.984 C2781.55,494.444 2787.01,500.084 2795.11,500.084 C2800.87,500.084 2804.89,497.264 2807.35,491.564 L2805.25,490.424 C2802.79,495.044 2800.27,496.844 2796.25,496.844 C2793.19,496.844 2790.97,495.584 2789.41,492.884 C2788.33,491.084 2787.85,488.984 2787.91,485.684 L2807.35,485.684 M2787.97,483.104 C2787.97,478.904 2789.89,472.904 2794.93,472.904 C2798.53,472.904 2800.93,476.084 2800.93,480.944 C2800.93,482.624 2800.39,483.104 2798.47,483.104 L2787.97,483.104 M2832.67,490.364 C2830.75,494.684 2828.71,496.424 2825.59,496.424 C2820.79,496.424 2817.79,492.044 2817.79,485.024 C2817.79,477.704 2820.73,472.904 2825.17,472.904 C2826.97,472.904 2828.53,473.744 2828.53,474.704 C2828.53,474.884 2828.47,475.064 2828.17,475.424 C2827.21,476.564 2826.97,477.164 2826.97,478.184 C2826.97,480.164 2828.47,481.544 2830.57,481.544 C2832.73,481.544 2834.23,479.864 2834.23,477.464 C2834.23,473.384 2830.21,470.324 2824.87,470.324 C2817.07,470.324 2811.49,476.684 2811.49,485.684 C2811.49,494.204 2816.59,500.084 2824.03,500.084 C2829.37,500.084 2832.43,497.624 2835.01,491.264 L2832.67,490.364 M2847.41,454.964 L2836.31,455.624 L2836.31,458.204 L2839.19,458.204 C2841.47,458.264 2841.77,458.624 2841.77,461.204 L2841.77,494.684 C2841.71,495.524 2841.65,495.884 2841.41,496.184 C2840.99,496.724 2839.85,496.964 2837.27,497.024 L2837.03,497.024 L2837.03,499.184 L2852.21,499.184 L2852.21,497.024 L2851.97,497.024 C2847.95,496.904 2847.41,496.604 2847.41,494.444 L2847.41,485.564 C2847.41,482.624 2847.83,479.924 2848.49,478.544 C2849.81,475.844 2852.45,473.984 2855.03,473.984 C2856.59,473.984 2858.39,474.884 2859.23,476.084 C2860.19,477.404 2860.61,479.204 2860.61,482.144 L2860.61,494.684 C2860.55,495.524 2860.49,495.884 2860.25,496.184 C2859.83,496.724 2858.63,496.964 2856.05,497.024 L2855.81,497.024 L2855.81,499.184 L2870.99,499.184 L2870.99,497.024 L2870.75,497.024 C2866.79,496.904 2866.25,496.604 2866.25,494.444 L2866.25,482.384 C2866.25,478.064 2866.07,476.984 2864.99,474.944 C2863.49,472.004 2860.49,470.324 2856.89,470.324 C2852.99,470.324 2850.11,472.064 2847.41,476.084 L2847.41,454.964 "/>
<path class="Lyrics" d="M1686.87,367.004 L1683.89,367.004 C1678.54,370.999 1672.5,372.699 1662.39,372.869 L1662.39,377.629 L1665.96,377.629 C1673.52,377.629 1673.61,377.799 1673.52,384.769 L1673.52,414.944 C1673.52,420.214 1673.52,420.469 1672.93,421.319 C1672.16,422.254 1670.46,422.594 1665.87,422.594 L1663.15,422.594 L1663.15,427.184 L1697.07,427.184 L1697.07,422.594 L1694.35,422.594 C1689.84,422.594 1688.23,422.254 1687.46,421.319 C1686.87,420.469 1686.87,420.129 1686.87,414.944 L1686.87,367.004 "/>
<path class="Lyrics" d="M1610.98,479.924 L1617.76,479.924 C1623.16,479.924 1625.98,479.504 1628.44,478.364 C1632.64,476.324 1635.04,472.484 1635.04,467.744 C1635.04,458.204 1626.64,455.864 1618.78,455.864 L1597.78,455.864 L1597.78,458.684 L1598.86,458.684 C1602.28,458.744 1603.42,458.924 1603.9,459.524 C1604.26,460.064 1604.26,460.184 1604.26,463.244 L1604.26,491.804 C1604.26,494.864 1604.26,494.984 1603.9,495.524 C1603.42,496.124 1602.28,496.364 1598.86,496.364 L1597.78,496.364 L1597.78,499.184 L1617.94,499.184 L1617.94,496.364 L1616.38,496.364 C1612.96,496.364 1611.82,496.124 1611.34,495.524 C1610.98,494.984 1610.98,494.864 1610.98,491.804 L1610.98,479.924 M1610.98,477.104 L1610.98,461.744 C1610.98,458.984 1611.28,458.684 1614.64,458.684 L1618.48,458.684 C1624.72,458.684 1627.66,461.624 1627.66,467.984 C1627.66,474.164 1624.6,477.104 1618.24,477.104 L1610.98,477.104 M1649.25,471.224 L1649.25,467.804 C1649.25,464.804 1649.43,462.824 1649.91,461.624 C1650.87,458.984 1652.97,457.364 1655.37,457.364 C1656.63,457.364 1657.41,457.724 1657.41,458.384 C1657.41,458.624 1657.41,458.684 1657.05,459.164 C1656.69,459.704 1656.51,460.424 1656.51,461.084 C1656.51,462.884 1657.95,464.264 1659.81,464.264 C1661.79,464.264 1663.17,462.764 1663.17,460.604 C1663.17,457.124 1660.17,454.964 1655.31,454.964 C1651.17,454.964 1648.11,456.404 1646.01,459.404 C1644.21,461.924 1643.61,464.504 1643.61,469.364 L1643.61,471.224 L1638.33,471.224 L1638.33,473.804 L1643.61,473.804 L1643.61,494.624 C1643.55,495.464 1643.49,495.824 1643.25,496.184 C1642.83,496.724 1641.69,496.964 1639.11,497.024 L1638.87,497.024 L1638.87,499.184 L1654.89,499.184 L1654.89,497.024 L1653.81,497.024 C1649.79,496.904 1649.25,496.604 1649.25,494.444 L1649.25,473.804 L1655.85,473.804 L1655.85,471.224 L1649.25,471.224 M1683.5,479.864 C1683.5,476.084 1682.84,474.164 1681.1,472.724 C1679.12,471.104 1676.18,470.324 1672.34,470.324 C1665.56,470.324 1660.64,473.504 1660.64,477.884 C1660.64,480.104 1662.02,481.544 1664.12,481.544 C1666.04,481.544 1667.36,480.284 1667.36,478.484 C1667.36,477.704 1667.06,476.864 1666.46,476.024 C1666.1,475.604 1666.04,475.484 1666.04,475.184 C1666.04,473.984 1668.44,472.904 1671.32,472.904 C1673.24,472.904 1675.34,473.504 1676.3,474.404 C1677.44,475.364 1677.86,476.804 1677.86,479.504 L1677.86,481.844 C1671.62,482.924 1669.64,483.404 1666.7,484.544 C1661.48,486.464 1659.02,489.224 1659.02,493.064 C1659.02,497.384 1662.38,500.084 1667.72,500.084 C1671.86,500.084 1675.58,498.404 1678.16,495.344 C1679.12,498.404 1680.62,499.604 1683.44,499.604 C1686.14,499.604 1688.96,497.864 1688.96,496.124 C1688.96,495.704 1688.72,495.404 1688.36,495.404 C1688.12,495.404 1687.88,495.464 1687.46,495.644 C1686.62,496.004 1686.26,496.064 1685.78,496.064 C1684.1,496.064 1683.5,494.984 1683.5,491.924 L1683.5,479.864 M1677.86,487.184 C1677.86,490.784 1677.68,491.624 1676.66,493.184 C1675.16,495.404 1672.46,496.904 1669.82,496.904 C1667.06,496.904 1665.08,494.924 1665.08,492.224 C1665.08,489.704 1666.34,487.904 1668.98,486.644 C1670.84,485.804 1673.18,485.204 1677.86,484.424 L1677.86,487.184 M1701.74,471.224 L1691.36,471.884 L1691.36,474.464 L1693.52,474.464 C1695.8,474.524 1696.1,474.884 1696.1,477.464 L1696.1,494.624 C1696.04,495.524 1695.98,495.884 1695.74,496.184 C1695.32,496.724 1694.18,496.964 1691.6,497.024 L1691.36,497.024 L1691.36,499.184 L1706.54,499.184 L1706.54,497.024 L1706.3,497.024 C1702.28,496.904 1701.74,496.604 1701.74,494.444 L1701.74,485.564 C1701.74,482.624 1702.16,479.924 1702.82,478.544 C1704.08,475.844 1706.78,473.984 1709.36,473.984 C1710.92,473.984 1712.72,474.824 1713.62,476.084 C1714.52,477.404 1714.94,479.204 1714.94,482.084 L1714.94,494.624 C1714.88,495.524 1714.82,495.884 1714.58,496.184 C1714.16,496.724 1712.96,496.964 1710.38,497.024 L1710.14,497.024 L1710.14,499.184 L1725.32,499.184 L1725.32,497.024 L1725.08,497.024 C1721.12,496.904 1720.58,496.604 1720.58,494.444 L1720.58,482.384 C1720.58,478.064 1720.4,476.984 1719.32,474.944 C1717.82,472.064 1714.82,470.324 1711.22,470.324 C1707.32,470.324 1704.38,472.124 1701.74,476.084 L1701.74,471.224 M1738.39,471.224 L1728.01,471.884 L1728.01,474.464 L1730.17,474.464 C1732.45,474.524 1732.75,474.884 1732.75,477.464 L1732.75,494.624 C1732.69,495.524 1732.63,495.884 1732.39,496.184 C1731.97,496.724 1730.83,496.964 1728.25,497.024 L1728.01,497.024 L1728.01,499.184 L1743.19,499.184 L1743.19,497.024 L1742.95,497.024 C1738.93,496.904 1738.39,496.604 1738.39,494.444 L1738.39,485.564 C1738.39,482.624 1738.81,479.924 1739.47,478.544 C1740.73,475.844 1743.43,473.984 1746.01,473.984 C1747.57,473.984 1749.37,474.824 1750.27,476.084 C1751.17,477.404 1751.59,479.204 1751.59,482.084 L1751.59,494.624 C1751.53,495.524 1751.47,495.884 1751.23,496.184 C1750.81,496.724 1749.61,496.964 1747.03,497.024 L1746.79,497.024 L1746.79,499.184 L1761.97,499.184 L1761.97,497.024 L1761.73,497.024 C1757.77,496.904 1757.23,496.604 1757.23,494.444 L1757.23,482.384 C1757.23,478.064 1757.05,476.984 1755.97,474.944 C1754.47,472.064 1751.47,470.324 1747.87,470.324 C1743.97,470.324 1741.03,472.124 1738.39,476.084 L1738.39,471.224 "/>
<path class="Lyrics" d="M2813.14,399.814 C2813.14,394.459 2812.2,391.739 2809.74,389.699 C2806.93,387.404 2802.77,386.299 2797.33,386.299 C2787.72,386.299 2780.75,390.804 2780.75,397.009 C2780.75,400.154 2782.71,402.194 2785.68,402.194 C2788.4,402.194 2790.27,400.409 2790.27,397.859 C2790.27,396.754 2789.85,395.564 2789,394.374 C2788.49,393.779 2788.4,393.609 2788.4,393.184 C2788.4,391.484 2791.8,389.954 2795.88,389.954 C2798.6,389.954 2801.58,390.804 2802.94,392.079 C2804.55,393.439 2805.15,395.479 2805.15,399.304 L2805.15,402.619 C2796.31,404.149 2793.5,404.829 2789.34,406.444 C2781.94,409.164 2778.46,413.074 2778.46,418.514 C2778.46,424.634 2783.22,428.459 2790.78,428.459 C2796.65,428.459 2801.92,426.079 2805.57,421.744 C2806.93,426.079 2809.06,427.779 2813.05,427.779 C2816.88,427.779 2820.87,425.314 2820.87,422.849 C2820.87,422.254 2820.53,421.829 2820.02,421.829 C2819.68,421.829 2819.34,421.914 2818.75,422.169 C2817.56,422.679 2817.05,422.764 2816.37,422.764 C2813.99,422.764 2813.14,421.234 2813.14,416.899 L2813.14,399.814 M2805.15,410.184 C2805.15,415.284 2804.89,416.474 2803.45,418.684 C2801.32,421.829 2797.5,423.954 2793.76,423.954 C2789.85,423.954 2787.04,421.149 2787.04,417.324 C2787.04,413.754 2788.83,411.204 2792.57,409.419 C2795.2,408.229 2798.52,407.379 2805.15,406.274 L2805.15,410.184 "/>
<path class="Lyrics" d="M1108.05,455.864 L1071.99,455.864 L1071.99,458.684 L1073.07,458.684 C1076.49,458.744 1077.63,458.924 1078.11,459.524 C1078.47,460.064 1078.47,460.184 1078.47,463.244 L1078.47,491.804 C1078.47,494.864 1078.47,494.984 1078.11,495.524 C1077.63,496.124 1076.49,496.364 1073.07,496.364 L1071.99,496.364 L1071.99,499.184 L1108.83,499.184 L1110.03,483.164 L1107.39,483.164 C1105.11,493.844 1102.65,496.124 1093.47,496.364 L1089.51,496.364 C1085.91,496.244 1085.01,495.644 1085.19,493.484 L1085.19,478.184 L1086.39,478.184 C1092.57,477.944 1094.79,480.164 1095.03,486.824 L1097.85,486.824 L1097.85,467.144 L1095.03,467.144 C1094.67,473.024 1092.33,475.364 1086.63,475.364 L1085.19,475.364 L1085.19,461.684 C1085.13,459.164 1085.73,458.744 1088.97,458.684 L1092.09,458.684 C1101.93,458.624 1104.39,460.784 1106.31,471.164 L1108.89,471.164 L1108.05,455.864 M1122.37,456.284 C1120.45,456.284 1118.89,457.844 1118.89,459.764 C1118.89,461.684 1120.45,463.244 1122.31,463.244 C1124.29,463.244 1125.85,461.684 1125.85,459.764 C1125.85,457.844 1124.29,456.284 1122.37,456.284 M1125.19,471.224 L1113.91,471.884 L1113.91,474.464 L1116.97,474.464 C1119.25,474.524 1119.55,474.884 1119.55,477.464 L1119.55,494.624 C1119.49,495.524 1119.43,495.884 1119.19,496.184 C1118.77,496.724 1117.63,496.964 1115.05,497.024 L1114.63,497.024 L1114.63,499.184 L1130.17,499.184 L1130.17,497.024 L1129.75,497.024 C1125.73,496.904 1125.19,496.604 1125.19,494.444 L1125.19,471.224 "/>
<path class="Lyrics" d="M1119.68,408.059 C1119.77,395.309 1112.54,386.299 1102.17,386.299 C1091.29,386.299 1083.13,395.734 1083.13,408.484 C1083.13,420.469 1090.87,428.459 1102.34,428.459 C1110.5,428.459 1116.2,424.464 1119.68,416.389 L1116.71,414.774 C1113.22,421.319 1109.65,423.869 1103.96,423.869 C1099.62,423.869 1096.48,422.084 1094.27,418.259 C1092.74,415.709 1092.06,412.734 1092.14,408.059 L1119.68,408.059 M1092.23,404.404 C1092.23,398.454 1094.95,389.954 1102.09,389.954 C1107.19,389.954 1110.59,394.459 1110.59,401.344 C1110.59,403.724 1109.82,404.404 1107.1,404.404 L1092.23,404.404 "/>
<path class="Lyrics" d="M1952.64,412.819 C1951.62,418.174 1948.81,421.404 1945.07,421.404 C1941.84,421.404 1939.04,419.874 1935.72,416.219 C1939.12,412.054 1939.55,411.459 1941.33,408.059 C1946.52,397.944 1947.54,396.924 1953.57,396.499 L1954.51,396.499 L1954.51,392.844 L1930.54,392.844 L1930.54,396.499 L1931.39,396.499 C1936.4,396.499 1939.04,397.859 1939.04,400.494 C1939.04,404.149 1936.74,409.164 1933.09,413.329 C1929.01,408.484 1924.16,401.174 1919.4,392.249 C1923.99,390.209 1925.44,389.444 1927.65,387.914 C1931.56,385.194 1934.11,380.519 1934.11,376.014 C1934.11,369.129 1928.75,364.539 1920.85,364.539 C1911.92,364.539 1905.97,370.574 1905.97,379.584 C1905.97,383.324 1906.91,386.639 1909.54,392.249 C1900.02,396.754 1894.84,403.469 1894.84,411.119 C1894.84,415.369 1896.71,420.044 1899.68,423.274 C1902.83,426.674 1907.33,428.459 1913.11,428.459 C1919.23,428.459 1923.91,426.759 1929.43,422.424 C1933.51,426.589 1936.83,428.119 1941.5,428.119 C1950.51,428.119 1955.36,421.574 1956.38,413.329 L1952.64,412.819 M1917.62,388.679 C1915.15,383.579 1913.96,379.754 1913.96,376.609 C1913.96,371.679 1916.68,368.194 1920.59,368.194 C1924.5,368.194 1927.31,371.509 1927.31,376.184 C1927.31,379.414 1925.86,382.814 1923.65,384.939 C1922.29,386.214 1921.02,386.979 1917.62,388.679 M1911.16,395.734 C1916.68,406.699 1919.57,411.119 1926.8,419.534 C1923.06,421.914 1921.1,422.679 1918.21,422.679 C1910.65,422.679 1903.93,415.029 1903.93,406.529 C1903.93,401.854 1906.06,398.709 1911.16,395.734"/>
<path class="Lyrics" d="M1901.52,484.664 L1901.52,454.964 L1890.42,455.624 L1890.42,458.204 L1893.3,458.204 C1895.58,458.264 1895.88,458.624 1895.88,461.204 L1895.88,494.684 C1895.82,495.524 1895.76,495.884 1895.52,496.184 C1895.1,496.724 1893.96,496.964 1891.38,497.024 L1891.14,497.024 L1891.14,499.184 L1906.32,499.184 L1906.32,497.024 L1906.08,497.024 C1902.06,496.904 1901.52,496.604 1901.52,494.444 L1901.52,488.384 L1905.18,484.904 L1912.32,494.924 C1912.62,495.404 1912.74,495.704 1912.74,495.944 C1912.74,496.784 1912.08,497.024 1910.1,497.024 L1908.96,497.024 L1908.96,499.184 L1924.8,499.184 L1924.8,497.024 C1921.44,496.724 1920.24,496.004 1917.78,492.884 L1909.26,481.244 L1911.96,478.604 C1915.5,475.184 1918.02,473.864 1922.1,473.384 L1922.1,471.224 L1906.32,471.224 L1906.32,473.384 L1908.18,473.384 C1910.1,473.384 1911,473.744 1911,474.524 C1911,475.184 1910.58,475.904 1909.62,476.864 L1901.52,484.664 M1949.75,499.604 L1960.67,499.184 L1960.67,496.604 L1959.17,496.604 C1955.69,496.484 1955.39,496.124 1955.39,492.224 L1955.39,471.224 L1944.11,471.884 L1944.11,474.464 L1947.17,474.464 C1949.45,474.524 1949.75,474.884 1949.75,477.464 L1949.75,484.844 C1949.75,490.064 1948.49,496.424 1941.89,496.424 C1940.03,496.424 1938.47,495.764 1937.69,494.564 C1936.91,493.424 1936.79,492.824 1936.79,489.524 L1936.79,471.224 L1926.29,471.884 L1926.29,474.464 L1928.57,474.464 C1930.85,474.524 1931.15,474.884 1931.15,477.464 L1931.15,490.424 C1931.15,493.484 1931.39,494.864 1932.29,496.244 C1933.91,498.704 1936.79,500.084 1940.39,500.084 C1944.35,500.084 1947.11,498.464 1949.75,494.624 L1949.75,499.604 "/>
<path class="Lyrics" d="M234.536,367.004 L231.561,367.004 C226.206,370.999 220.171,372.699 210.056,372.869 L210.056,377.629 L213.626,377.629 C221.191,377.629 221.276,377.799 221.191,384.769 L221.191,414.944 C221.191,420.214 221.191,420.469 220.596,421.319 C219.831,422.254 218.131,422.594 213.541,422.594 L210.821,422.594 L210.821,427.184 L244.736,427.184 L244.736,422.594 L242.016,422.594 C237.511,422.594 235.896,422.254 235.131,421.319 C234.536,420.469 234.536,420.129 234.536,414.944 L234.536,367.004 "/>
<path class="Lyrics" d="M233.989,455.864 L197.929,455.864 L197.929,458.684 L199.009,458.684 C202.429,458.744 203.569,458.924 204.049,459.524 C204.409,460.064 204.409,460.184 204.409,463.244 L204.409,491.804 C204.409,494.864 204.409,494.984 204.049,495.524 C203.569,496.124 202.429,496.364 199.009,496.364 L197.929,496.364 L197.929,499.184 L234.769,499.184 L235.969,483.164 L233.329,483.164 C231.049,493.844 228.589,496.124 219.409,496.364 L215.449,496.364 C211.849,496.244 210.949,495.644 211.129,493.484 L211.129,478.184 L212.329,478.184 C218.509,477.944 220.729,480.164 220.969,486.824 L223.789,486.824 L223.789,467.144 L220.969,467.144 C220.609,473.024 218.269,475.364 212.569,475.364 L211.129,475.364 L211.129,461.684 C211.069,459.164 211.669,458.744 214.909,458.684 L218.029,458.684 C227.869,458.624 230.329,460.784 232.249,471.164 L234.829,471.164 L233.989,455.864 M248.307,456.284 C246.387,456.284 244.827,457.844 244.827,459.764 C244.827,461.684 246.387,463.244 248.247,463.244 C250.227,463.244 251.787,461.684 251.787,459.764 C251.787,457.844 250.227,456.284 248.307,456.284 M251.127,471.224 L239.847,471.884 L239.847,474.464 L242.907,474.464 C245.187,474.524 245.487,474.884 245.487,477.464 L245.487,494.624 C245.427,495.524 245.367,495.884 245.127,496.184 C244.707,496.724 243.567,496.964 240.987,497.024 L240.567,497.024 L240.567,499.184 L256.107,499.184 L256.107,497.024 L255.687,497.024 C251.667,496.904 251.127,496.604 251.127,494.444 L251.127,471.224 "/>
<path class="Lyrics" d="M944.672,367.004 L941.697,367.004 C936.342,370.999 930.307,372.699 920.192,372.869 L920.192,377.629 L923.762,377.629 C931.327,377.629 931.412,377.799 931.327,384.769 L931.327,414.944 C931.327,420.214 931.327,420.469 930.732,421.319 C929.967,422.254 928.267,422.594 923.677,422.594 L920.957,422.594 L920.957,427.184 L954.872,427.184 L954.872,422.594 L952.152,422.594 C947.647,422.594 946.032,422.254 945.267,421.319 C944.672,420.469 944.672,420.129 944.672,414.944 L944.672,367.004 "/>
<path class="Lyrics" d="M2103,399.814 C2103,394.459 2102.07,391.739 2099.6,389.699 C2096.8,387.404 2092.63,386.299 2087.19,386.299 C2077.59,386.299 2070.62,390.804 2070.62,397.009 C2070.62,400.154 2072.57,402.194 2075.55,402.194 C2078.27,402.194 2080.14,400.409 2080.14,397.859 C2080.14,396.754 2079.71,395.564 2078.86,394.374 C2078.35,393.779 2078.27,393.609 2078.27,393.184 C2078.27,391.484 2081.67,389.954 2085.75,389.954 C2088.47,389.954 2091.44,390.804 2092.8,392.079 C2094.42,393.439 2095.01,395.479 2095.01,399.304 L2095.01,402.619 C2086.17,404.149 2083.37,404.829 2079.2,406.444 C2071.81,409.164 2068.32,413.074 2068.32,418.514 C2068.32,424.634 2073.08,428.459 2080.65,428.459 C2086.51,428.459 2091.78,426.079 2095.44,421.744 C2096.8,426.079 2098.92,427.779 2102.92,427.779 C2106.74,427.779 2110.74,425.314 2110.74,422.849 C2110.74,422.254 2110.4,421.829 2109.89,421.829 C2109.55,421.829 2109.21,421.914 2108.61,422.169 C2107.42,422.679 2106.91,422.764 2106.23,422.764 C2103.85,422.764 2103,421.234 2103,416.899 L2103,399.814 M2095.01,410.184 C2095.01,415.284 2094.76,416.474 2093.31,418.684 C2091.19,421.829 2087.36,423.954 2083.62,423.954 C2079.71,423.954 2076.91,421.149 2076.91,417.324 C2076.91,413.754 2078.69,411.204 2082.43,409.419 C2085.07,408.229 2088.38,407.379 2095.01,406.274 L2095.01,410.184 "/>
<path class="Lyrics" d="M2047.3,490.364 C2045.38,494.684 2043.34,496.424 2040.22,496.424 C2035.42,496.424 2032.42,492.044 2032.42,485.024 C2032.42,477.704 2035.36,472.904 2039.8,472.904 C2041.6,472.904 2043.16,473.744 2043.16,474.704 C2043.16,474.884 2043.1,475.064 2042.8,475.424 C2041.84,476.564 2041.6,477.164 2041.6,478.184 C2041.6,480.164 2043.1,481.544 2045.2,481.544 C2047.36,481.544 2048.86,479.864 2048.86,477.464 C2048.86,473.384 2044.84,470.324 2039.5,470.324 C2031.7,470.324 2026.12,476.684 2026.12,485.684 C2026.12,494.204 2031.22,500.084 2038.66,500.084 C2044,500.084 2047.06,497.624 2049.64,491.264 L2047.3,490.364 M2062.04,454.964 L2050.94,455.624 L2050.94,458.204 L2053.82,458.204 C2056.1,458.264 2056.4,458.624 2056.4,461.204 L2056.4,494.684 C2056.34,495.524 2056.28,495.884 2056.04,496.184 C2055.62,496.724 2054.48,496.964 2051.9,497.024 L2051.66,497.024 L2051.66,499.184 L2066.84,499.184 L2066.84,497.024 L2066.6,497.024 C2062.58,496.904 2062.04,496.604 2062.04,494.444 L2062.04,485.564 C2062.04,482.624 2062.46,479.924 2063.12,478.544 C2064.44,475.844 2067.08,473.984 2069.66,473.984 C2071.22,473.984 2073.02,474.884 2073.86,476.084 C2074.82,477.404 2075.24,479.204 2075.24,482.144 L2075.24,494.684 C2075.18,495.524 2075.12,495.884 2074.88,496.184 C2074.46,496.724 2073.26,496.964 2070.68,497.024 L2070.44,497.024 L2070.44,499.184 L2085.62,499.184 L2085.62,497.024 L2085.38,497.024 C2081.42,496.904 2080.88,496.604 2080.88,494.444 L2080.88,482.384 C2080.88,478.064 2080.7,476.984 2079.62,474.944 C2078.12,472.004 2075.12,470.324 2071.52,470.324 C2067.62,470.324 2064.74,472.064 2062.04,476.084 L2062.04,454.964 M2114.59,485.684 C2114.65,476.684 2109.55,470.324 2102.23,470.324 C2094.55,470.324 2088.79,476.984 2088.79,485.984 C2088.79,494.444 2094.25,500.084 2102.35,500.084 C2108.11,500.084 2112.13,497.264 2114.59,491.564 L2112.49,490.424 C2110.03,495.044 2107.51,496.844 2103.49,496.844 C2100.43,496.844 2098.21,495.584 2096.65,492.884 C2095.57,491.084 2095.09,488.984 2095.15,485.684 L2114.59,485.684 M2095.21,483.104 C2095.21,478.904 2097.13,472.904 2102.17,472.904 C2105.77,472.904 2108.17,476.084 2108.17,480.944 C2108.17,482.624 2107.63,483.104 2105.71,483.104 L2095.21,483.104 M2128.69,471.224 L2118.31,471.884 L2118.31,474.464 L2120.47,474.464 C2122.75,474.524 2123.05,474.884 2123.05,477.464 L2123.05,494.624 C2122.99,495.524 2122.93,495.884 2122.69,496.184 C2122.27,496.724 2121.13,496.964 2118.55,497.024 L2118.31,497.024 L2118.31,499.184 L2133.49,499.184 L2133.49,497.024 L2133.25,497.024 C2129.23,496.904 2128.69,496.604 2128.69,494.444 L2128.69,485.564 C2128.69,482.624 2129.11,479.924 2129.77,478.544 C2131.03,475.844 2133.73,473.984 2136.31,473.984 C2137.87,473.984 2139.67,474.824 2140.57,476.084 C2141.47,477.404 2141.89,479.204 2141.89,482.084 L2141.89,494.624 C2141.83,495.524 2141.77,495.884 2141.53,496.184 C2141.11,496.724 2139.91,496.964 2137.33,497.024 L2137.09,497.024 L2137.09,499.184 L2152.27,499.184 L2152.27,497.024 L2152.03,497.024 C2148.07,496.904 2147.53,496.604 2147.53,494.444 L2147.53,482.384 C2147.53,478.064 2147.35,476.984 2146.27,474.944 C2144.77,472.064 2141.77,470.324 2138.17,470.324 C2134.27,470.324 2131.33,472.124 2128.69,476.084 L2128.69,471.224 "/>
<path class="Lyrics" d="M409.546,408.059 C409.631,395.309 402.406,386.299 392.036,386.299 C381.156,386.299 372.996,395.734 372.996,408.484 C372.996,420.469 380.731,428.459 392.206,428.459 C400.366,428.459 406.061,424.464 409.546,416.389 L406.571,414.774 C403.086,421.319 399.516,423.869 393.821,423.869 C389.486,423.869 386.341,422.084 384.131,418.259 C382.601,415.709 381.921,412.734 382.006,408.059 L409.546,408.059 M382.091,404.404 C382.091,398.454 384.811,389.954 391.951,389.954 C397.051,389.954 400.451,394.459 400.451,401.344 C400.451,403.724 399.686,404.404 396.966,404.404 L382.091,404.404 "/>
<path class="Lyrics" d="M732.637,399.814 C732.637,394.459 731.702,391.739 729.237,389.699 C726.432,387.404 722.267,386.299 716.827,386.299 C707.222,386.299 700.252,390.804 700.252,397.009 C700.252,400.154 702.207,402.194 705.182,402.194 C707.902,402.194 709.772,400.409 709.772,397.859 C709.772,396.754 709.347,395.564 708.497,394.374 C707.987,393.779 707.902,393.609 707.902,393.184 C707.902,391.484 711.302,389.954 715.382,389.954 C718.102,389.954 721.077,390.804 722.437,392.079 C724.052,393.439 724.647,395.479 724.647,399.304 L724.647,402.619 C715.807,404.149 713.002,404.829 708.837,406.444 C701.442,409.164 697.957,413.074 697.957,418.514 C697.957,424.634 702.717,428.459 710.282,428.459 C716.147,428.459 721.417,426.079 725.072,421.744 C726.432,426.079 728.557,427.779 732.552,427.779 C736.377,427.779 740.372,425.314 740.372,422.849 C740.372,422.254 740.032,421.829 739.522,421.829 C739.182,421.829 738.842,421.914 738.247,422.169 C737.057,422.679 736.547,422.764 735.867,422.764 C733.487,422.764 732.637,421.234 732.637,416.899 L732.637,399.814 M724.647,410.184 C724.647,415.284 724.392,416.474 722.947,418.684 C720.822,421.829 716.997,423.954 713.257,423.954 C709.347,423.954 706.542,421.149 706.542,417.324 C706.542,413.754 708.327,411.204 712.067,409.419 C714.702,408.229 718.017,407.379 724.647,406.274 L724.647,410.184 "/>
<path class="Lyrics" d="M2662.77,412.819 C2661.75,418.174 2658.95,421.404 2655.21,421.404 C2651.98,421.404 2649.17,419.874 2645.86,416.219 C2649.26,412.054 2649.68,411.459 2651.47,408.059 C2656.65,397.944 2657.67,396.924 2663.71,396.499 L2664.64,396.499 L2664.64,392.844 L2640.67,392.844 L2640.67,396.499 L2641.52,396.499 C2646.54,396.499 2649.17,397.859 2649.17,400.494 C2649.17,404.149 2646.88,409.164 2643.22,413.329 C2639.14,408.484 2634.3,401.174 2629.54,392.249 C2634.13,390.209 2635.57,389.444 2637.78,387.914 C2641.69,385.194 2644.24,380.519 2644.24,376.014 C2644.24,369.129 2638.89,364.539 2630.98,364.539 C2622.06,364.539 2616.11,370.574 2616.11,379.584 C2616.11,383.324 2617.04,386.639 2619.68,392.249 C2610.16,396.754 2604.97,403.469 2604.97,411.119 C2604.97,415.369 2606.84,420.044 2609.82,423.274 C2612.96,426.674 2617.47,428.459 2623.25,428.459 C2629.37,428.459 2634.04,426.759 2639.57,422.424 C2643.65,426.589 2646.96,428.119 2651.64,428.119 C2660.65,428.119 2665.49,421.574 2666.51,413.329 L2662.77,412.819 M2627.75,388.679 C2625.29,383.579 2624.1,379.754 2624.1,376.609 C2624.1,371.679 2626.82,368.194 2630.73,368.194 C2634.64,368.194 2637.44,371.509 2637.44,376.184 C2637.44,379.414 2636,382.814 2633.79,384.939 C2632.43,386.214 2631.15,386.979 2627.75,388.679 M2621.29,395.734 C2626.82,406.699 2629.71,411.119 2636.93,419.534 C2633.19,421.914 2631.24,422.679 2628.35,422.679 C2620.78,422.679 2614.07,415.029 2614.07,406.529 C2614.07,401.854 2616.19,398.709 2621.29,395.734"/>
<path class="Lyrics" d="M2473.35,490.364 C2471.43,494.684 2469.39,496.424 2466.27,496.424 C2461.47,496.424 2458.47,492.044 2458.47,485.024 C2458.47,477.704 2461.41,472.904 2465.85,472.904 C2467.65,472.904 2469.21,473.744 2469.21,474.704 C2469.21,474.884 2469.15,475.064 2468.85,475.424 C2467.89,476.564 2467.65,477.164 2467.65,478.184 C2467.65,480.164 2469.15,481.544 2471.25,481.544 C2473.41,481.544 2474.91,479.864 2474.91,477.464 C2474.91,473.384 2470.89,470.324 2465.55,470.324 C2457.75,470.324 2452.17,476.684 2452.17,485.684 C2452.17,494.204 2457.27,500.084 2464.71,500.084 C2470.05,500.084 2473.11,497.624 2475.69,491.264 L2473.35,490.364 M2488.08,454.964 L2476.98,455.624 L2476.98,458.204 L2479.86,458.204 C2482.14,458.264 2482.44,458.624 2482.44,461.204 L2482.44,494.684 C2482.38,495.524 2482.32,495.884 2482.08,496.184 C2481.66,496.724 2480.52,496.964 2477.94,497.024 L2477.7,497.024 L2477.7,499.184 L2492.88,499.184 L2492.88,497.024 L2492.64,497.024 C2488.62,496.904 2488.08,496.604 2488.08,494.444 L2488.08,485.564 C2488.08,482.624 2488.5,479.924 2489.16,478.544 C2490.48,475.844 2493.12,473.984 2495.7,473.984 C2497.26,473.984 2499.06,474.884 2499.9,476.084 C2500.86,477.404 2501.28,479.204 2501.28,482.144 L2501.28,494.684 C2501.22,495.524 2501.16,495.884 2500.92,496.184 C2500.5,496.724 2499.3,496.964 2496.72,497.024 L2496.48,497.024 L2496.48,499.184 L2511.66,499.184 L2511.66,497.024 L2511.42,497.024 C2507.46,496.904 2506.92,496.604 2506.92,494.444 L2506.92,482.384 C2506.92,478.064 2506.74,476.984 2505.66,474.944 C2504.16,472.004 2501.16,470.324 2497.56,470.324 C2493.66,470.324 2490.78,472.064 2488.08,476.084 L2488.08,454.964 M2540.64,485.684 C2540.7,476.684 2535.6,470.324 2528.28,470.324 C2520.6,470.324 2514.84,476.984 2514.84,485.984 C2514.84,494.444 2520.3,500.084 2528.4,500.084 C2534.16,500.084 2538.18,497.264 2540.64,491.564 L2538.54,490.424 C2536.08,495.044 2533.56,496.844 2529.54,496.844 C2526.48,496.844 2524.26,495.584 2522.7,492.884 C2521.62,491.084 2521.14,488.984 2521.2,485.684 L2540.64,485.684 M2521.26,483.104 C2521.26,478.904 2523.18,472.904 2528.22,472.904 C2531.82,472.904 2534.22,476.084 2534.22,480.944 C2534.22,482.624 2533.68,483.104 2531.76,483.104 L2521.26,483.104 M2554.74,471.224 L2544.36,471.884 L2544.36,474.464 L2546.52,474.464 C2548.8,474.524 2549.1,474.884 2549.1,477.464 L2549.1,494.624 C2549.04,495.524 2548.98,495.884 2548.74,496.184 C2548.32,496.724 2547.18,496.964 2544.6,497.024 L2544.36,497.024 L2544.36,499.184 L2559.54,499.184 L2559.54,497.024 L2559.3,497.024 C2555.28,496.904 2554.74,496.604 2554.74,494.444 L2554.74,485.564 C2554.74,482.624 2555.16,479.924 2555.82,478.544 C2557.08,475.844 2559.78,473.984 2562.36,473.984 C2563.92,473.984 2565.72,474.824 2566.62,476.084 C2567.52,477.404 2567.94,479.204 2567.94,482.084 L2567.94,494.624 C2567.88,495.524 2567.82,495.884 2567.58,496.184 C2567.16,496.724 2565.96,496.964 2563.38,497.024 L2563.14,497.024 L2563.14,499.184 L2578.32,499.184 L2578.32,497.024 L2578.08,497.024 C2574.12,496.904 2573.58,496.604 2573.58,494.444 L2573.58,482.384 C2573.58,478.064 2573.4,476.984 2572.32,474.944 C2570.82,472.064 2567.82,470.324 2564.22,470.324 C2560.32,470.324 2557.38,472.124 2554.74,476.084 L2554.74,471.224 "/>
<path class="Lyrics" d="M529.636,499.604 L540.556,499.184 L540.556,496.604 L539.056,496.604 C535.576,496.484 535.276,496.124 535.276,492.224 L535.276,471.224 L523.996,471.884 L523.996,474.464 L527.056,474.464 C529.336,474.524 529.636,474.884 529.636,477.464 L529.636,484.844 C529.636,490.064 528.376,496.424 521.776,496.424 C519.916,496.424 518.356,495.764 517.576,494.564 C516.796,493.424 516.676,492.824 516.676,489.524 L516.676,471.224 L506.176,471.884 L506.176,474.464 L508.456,474.464 C510.736,474.524 511.036,474.884 511.036,477.464 L511.036,490.424 C511.036,493.484 511.276,494.864 512.176,496.244 C513.796,498.704 516.676,500.084 520.276,500.084 C524.236,500.084 526.996,498.464 529.636,494.624 L529.636,499.604 M553.572,454.964 L542.472,455.624 L542.472,458.204 L545.352,458.204 C547.632,458.264 547.932,458.624 547.932,461.204 L547.932,494.684 C547.872,495.524 547.812,495.884 547.572,496.184 C547.152,496.724 546.012,496.964 543.432,497.024 L543.192,497.024 L543.192,499.184 L558.372,499.184 L558.372,497.024 L558.132,497.024 C554.112,496.904 553.572,496.604 553.572,494.444 L553.572,485.564 C553.572,482.624 553.992,479.924 554.652,478.544 C555.972,475.844 558.612,473.984 561.192,473.984 C562.752,473.984 564.552,474.884 565.392,476.084 C566.352,477.404 566.772,479.204 566.772,482.144 L566.772,494.684 C566.712,495.524 566.652,495.884 566.412,496.184 C565.992,496.724 564.792,496.964 562.212,497.024 L561.972,497.024 L561.972,499.184 L577.152,499.184 L577.152,497.024 L576.912,497.024 C572.952,496.904 572.412,496.604 572.412,494.444 L572.412,482.384 C572.412,478.064 572.232,476.984 571.152,474.944 C569.652,472.004 566.652,470.324 563.052,470.324 C559.152,470.324 556.272,472.064 553.572,476.084 L553.572,454.964 M590.108,471.224 L579.488,471.884 L579.488,474.464 L581.948,474.464 C584.228,474.524 584.528,474.884 584.528,477.464 L584.528,494.624 C584.468,495.524 584.408,495.884 584.168,496.184 C583.748,496.724 582.548,496.964 579.968,497.024 L579.728,497.024 L579.728,499.184 L595.748,499.184 L595.748,497.024 L594.668,497.024 C590.648,496.904 590.108,496.604 590.108,494.444 L590.108,491.204 C590.168,481.124 593.768,473.444 598.448,473.204 C597.608,474.164 597.368,474.764 597.368,475.904 C597.368,477.824 598.748,479.204 600.668,479.204 C602.888,479.204 604.328,477.584 604.328,475.184 C604.328,472.244 602.288,470.324 599.108,470.324 C595.328,470.324 592.088,473.324 590.108,478.664 L590.108,471.224 "/>
<path class="Lyrics" d="M582.269,412.819 C581.249,418.174 578.444,421.404 574.704,421.404 C571.474,421.404 568.669,419.874 565.354,416.219 C568.754,412.054 569.179,411.459 570.964,408.059 C576.149,397.944 577.169,396.924 583.204,396.499 L584.139,396.499 L584.139,392.844 L560.169,392.844 L560.169,396.499 L561.019,396.499 C566.034,396.499 568.669,397.859 568.669,400.494 C568.669,404.149 566.374,409.164 562.719,413.329 C558.639,408.484 553.794,401.174 549.034,392.249 C553.624,390.209 555.069,389.444 557.279,387.914 C561.189,385.194 563.739,380.519 563.739,376.014 C563.739,369.129 558.384,364.539 550.479,364.539 C541.554,364.539 535.604,370.574 535.604,379.584 C535.604,383.324 536.539,386.639 539.174,392.249 C529.654,396.754 524.469,403.469 524.469,411.119 C524.469,415.369 526.339,420.044 529.314,423.274 C532.459,426.674 536.964,428.459 542.744,428.459 C548.864,428.459 553.539,426.759 559.064,422.424 C563.144,426.589 566.459,428.119 571.134,428.119 C580.144,428.119 584.989,421.574 586.009,413.329 L582.269,412.819 M547.249,388.679 C544.784,383.579 543.594,379.754 543.594,376.609 C543.594,371.679 546.314,368.194 550.224,368.194 C554.134,368.194 556.939,371.509 556.939,376.184 C556.939,379.414 555.494,382.814 553.284,384.939 C551.924,386.214 550.649,386.979 547.249,388.679 M540.789,395.734 C546.314,406.699 549.204,411.119 556.429,419.534 C552.689,421.914 550.734,422.679 547.844,422.679 C540.279,422.679 533.564,415.029 533.564,406.529 C533.564,401.854 535.689,398.709 540.789,395.734"/>
<path class="Lyrics" d="M1442.77,399.814 C1442.77,394.459 1441.84,391.739 1439.37,389.699 C1436.57,387.404 1432.4,386.299 1426.96,386.299 C1417.36,386.299 1410.39,390.804 1410.39,397.009 C1410.39,400.154 1412.34,402.194 1415.32,402.194 C1418.04,402.194 1419.91,400.409 1419.91,397.859 C1419.91,396.754 1419.48,395.564 1418.63,394.374 C1418.12,393.779 1418.04,393.609 1418.04,393.184 C1418.04,391.484 1421.44,389.954 1425.52,389.954 C1428.24,389.954 1431.21,390.804 1432.57,392.079 C1434.19,393.439 1434.78,395.479 1434.78,399.304 L1434.78,402.619 C1425.94,404.149 1423.14,404.829 1418.97,406.444 C1411.58,409.164 1408.09,413.074 1408.09,418.514 C1408.09,424.634 1412.85,428.459 1420.42,428.459 C1426.28,428.459 1431.55,426.079 1435.21,421.744 C1436.57,426.079 1438.69,427.779 1442.69,427.779 C1446.51,427.779 1450.51,425.314 1450.51,422.849 C1450.51,422.254 1450.17,421.829 1449.66,421.829 C1449.32,421.829 1448.98,421.914 1448.38,422.169 C1447.19,422.679 1446.68,422.764 1446,422.764 C1443.62,422.764 1442.77,421.234 1442.77,416.899 L1442.77,399.814 M1434.78,410.184 C1434.78,415.284 1434.53,416.474 1433.08,418.684 C1430.96,421.829 1427.13,423.954 1423.39,423.954 C1419.48,423.954 1416.68,421.149 1416.68,417.324 C1416.68,413.754 1418.46,411.204 1422.2,409.419 C1424.84,408.229 1428.15,407.379 1434.78,406.274 L1434.78,410.184 "/>
<path class="Lyrics" d="M2315.04,367.004 L2312.06,367.004 C2306.71,370.999 2300.67,372.699 2290.56,372.869 L2290.56,377.629 L2294.13,377.629 C2301.69,377.629 2301.78,377.799 2301.69,384.769 L2301.69,414.944 C2301.69,420.214 2301.69,420.469 2301.1,421.319 C2300.33,422.254 2298.63,422.594 2294.04,422.594 L2291.32,422.594 L2291.32,427.184 L2325.24,427.184 L2325.24,422.594 L2322.52,422.594 C2318.01,422.594 2316.4,422.254 2315.63,421.319 C2315.04,420.469 2315.04,420.129 2315.04,414.944 L2315.04,367.004 "/>
<path class="Lyrics" d="M2280.83,479.564 L2280.83,463.244 C2280.83,460.184 2280.83,460.064 2281.25,459.524 C2281.67,458.924 2282.81,458.744 2286.23,458.684 L2287.37,458.684 L2287.37,455.864 L2267.63,455.864 L2267.63,458.684 L2268.71,458.684 C2272.13,458.744 2273.27,458.924 2273.75,459.524 C2274.11,460.064 2274.11,460.244 2274.11,463.244 L2274.11,491.804 C2274.11,494.804 2274.11,494.984 2273.75,495.524 C2273.27,496.124 2272.13,496.364 2268.71,496.364 L2267.63,496.364 L2267.63,499.184 L2287.37,499.184 L2287.37,496.364 L2286.23,496.364 C2282.81,496.304 2281.73,496.124 2281.25,495.524 C2280.83,494.984 2280.83,494.864 2280.83,491.804 L2280.83,484.184 L2287.79,477.164 L2298.23,492.464 C2299.19,493.904 2299.43,494.384 2299.43,494.984 C2299.43,496.004 2298.29,496.364 2295.35,496.364 L2293.49,496.364 L2293.49,499.184 L2314.01,499.184 L2314.01,496.364 L2312.87,496.364 C2309.45,496.304 2308.79,496.004 2306.99,493.364 L2292.47,472.424 L2301.41,463.484 C2304.29,460.424 2307.95,458.684 2311.55,458.684 L2311.55,455.864 L2293.07,455.864 L2293.07,458.684 L2294.57,458.684 C2297.33,458.684 2298.47,459.224 2298.47,460.484 C2298.47,461.324 2297.27,463.004 2295.53,464.804 L2280.83,479.564 M2336.91,499.604 L2347.83,499.184 L2347.83,496.604 L2346.33,496.604 C2342.85,496.484 2342.55,496.124 2342.55,492.224 L2342.55,471.224 L2331.27,471.884 L2331.27,474.464 L2334.33,474.464 C2336.61,474.524 2336.91,474.884 2336.91,477.464 L2336.91,484.844 C2336.91,490.064 2335.65,496.424 2329.05,496.424 C2327.19,496.424 2325.63,495.764 2324.85,494.564 C2324.07,493.424 2323.95,492.824 2323.95,489.524 L2323.95,471.224 L2313.45,471.884 L2313.45,474.464 L2315.73,474.464 C2318.01,474.524 2318.31,474.884 2318.31,477.464 L2318.31,490.424 C2318.31,493.484 2318.55,494.864 2319.45,496.244 C2321.07,498.704 2323.95,500.084 2327.55,500.084 C2331.51,500.084 2334.27,498.464 2336.91,494.624 L2336.91,499.604 "/>
<path class="Lyrics" d="M1264.19,485.684 C1264.25,476.684 1259.15,470.324 1251.83,470.324 C1244.15,470.324 1238.39,476.984 1238.39,485.984 C1238.39,494.444 1243.85,500.084 1251.95,500.084 C1257.71,500.084 1261.73,497.264 1264.19,491.564 L1262.09,490.424 C1259.63,495.044 1257.11,496.844 1253.09,496.844 C1250.03,496.844 1247.81,495.584 1246.25,492.884 C1245.17,491.084 1244.69,488.984 1244.75,485.684 L1264.19,485.684 M1244.81,483.104 C1244.81,478.904 1246.73,472.904 1251.77,472.904 C1255.37,472.904 1257.77,476.084 1257.77,480.944 C1257.77,482.624 1257.23,483.104 1255.31,483.104 L1244.81,483.104 M1278.17,471.224 L1267.55,471.884 L1267.55,474.464 L1270.01,474.464 C1272.29,474.524 1272.59,474.884 1272.59,477.464 L1272.59,494.624 C1272.53,495.524 1272.47,495.884 1272.23,496.184 C1271.81,496.724 1270.61,496.964 1268.03,497.024 L1267.79,497.024 L1267.79,499.184 L1283.81,499.184 L1283.81,497.024 L1282.73,497.024 C1278.71,496.904 1278.17,496.604 1278.17,494.444 L1278.17,491.204 C1278.23,481.124 1281.83,473.444 1286.51,473.204 C1285.67,474.164 1285.43,474.764 1285.43,475.904 C1285.43,477.824 1286.81,479.204 1288.73,479.204 C1290.95,479.204 1292.39,477.584 1292.39,475.184 C1292.39,472.244 1290.35,470.324 1287.17,470.324 C1283.39,470.324 1280.15,473.324 1278.17,478.664 L1278.17,471.224 "/>
<path class="Lyrics" d="M390.124,485.684 C390.184,476.684 385.084,470.324 377.764,470.324 C370.084,470.324 364.324,476.984 364.324,485.984 C364.324,494.444 369.784,500.084 377.884,500.084 C383.644,500.084 387.664,497.264 390.124,491.564 L388.024,490.424 C385.564,495.044 383.044,496.844 379.024,496.844 C375.964,496.844 373.744,495.584 372.184,492.884 C371.104,491.084 370.624,488.984 370.684,485.684 L390.124,485.684 M370.744,483.104 C370.744,478.904 372.664,472.904 377.704,472.904 C381.304,472.904 383.704,476.084 383.704,480.944 C383.704,482.624 383.164,483.104 381.244,483.104 L370.744,483.104 M404.104,471.224 L393.484,471.884 L393.484,474.464 L395.944,474.464 C398.224,474.524 398.524,474.884 398.524,477.464 L398.524,494.624 C398.464,495.524 398.404,495.884 398.164,496.184 C397.744,496.724 396.544,496.964 393.964,497.024 L393.724,497.024 L393.724,499.184 L409.744,499.184 L409.744,497.024 L408.664,497.024 C404.644,496.904 404.104,496.604 404.104,494.444 L404.104,491.204 C404.164,481.124 407.764,473.444 412.444,473.204 C411.604,474.164 411.364,474.764 411.364,475.904 C411.364,477.824 412.744,479.204 414.664,479.204 C416.884,479.204 418.324,477.584 418.324,475.184 C418.324,472.244 416.284,470.324 413.104,470.324 C409.324,470.324 406.084,473.324 404.104,478.664 L404.104,471.224 "/>
<path class="StaffText" d="M2301.45,121.749 L2304.93,121.749 C2310.99,121.989 2313.39,124.449 2314.05,131.049 L2314.35,134.109 C2315.07,140.889 2317.29,143.649 2322.03,143.649 C2326.95,143.649 2329.29,140.349 2329.47,133.149 L2326.95,133.149 C2326.71,137.289 2325.99,139.089 2324.37,139.089 C2322.99,139.089 2322.39,138.069 2321.37,133.929 L2320.41,130.149 C2319.09,124.629 2316.75,122.109 2312.07,120.909 C2320.71,119.709 2324.85,116.229 2324.85,110.169 C2324.85,103.329 2319.09,99.4294 2309.01,99.4294 L2288.25,99.4294 L2288.25,102.249 L2289.33,102.249 C2292.75,102.309 2293.89,102.489 2294.37,103.089 C2294.73,103.629 2294.73,103.749 2294.73,106.809 L2294.73,135.429 C2294.73,138.429 2294.73,138.549 2294.37,139.149 C2293.89,139.749 2292.75,139.929 2289.33,139.929 L2288.25,139.929 L2288.25,142.749 L2307.93,142.749 L2307.93,139.929 L2306.85,139.929 C2303.43,139.929 2302.29,139.749 2301.81,139.149 C2301.45,138.549 2301.45,138.429 2301.45,135.429 L2301.45,121.749 M2301.45,118.929 L2301.45,105.729 C2301.33,102.429 2301.63,102.189 2305.59,102.249 L2308.83,102.249 C2314.77,102.249 2317.47,104.769 2317.47,110.229 C2317.47,116.529 2314.11,118.929 2308.05,118.929 L2301.45,118.929 "/>
<path class="StaffText" d="M408.322,127.2 L405.682,127.2 C403.702,138 401.002,140.64 391.702,140.82 L389.182,140.82 C385.582,140.7 384.682,140.1 384.862,137.94 L384.862,107.7 C384.862,104.7 384.862,104.52 385.222,103.98 C385.702,103.38 386.842,103.2 390.262,103.14 L391.342,103.14 L391.342,100.32 L371.662,100.32 L371.662,103.14 L372.742,103.14 C376.162,103.2 377.302,103.38 377.782,103.98 C378.142,104.52 378.142,104.64 378.142,107.7 L378.142,136.26 C378.142,139.32 378.142,139.44 377.782,139.98 C377.302,140.58 376.162,140.82 372.742,140.82 L371.662,140.82 L371.662,143.64 L407.062,143.64 L408.322,127.2 "/>
<path class="StaffText" d="M548.795,121.749 L552.275,121.749 C558.335,121.989 560.735,124.449 561.395,131.049 L561.695,134.109 C562.415,140.889 564.635,143.649 569.375,143.649 C574.295,143.649 576.635,140.349 576.815,133.149 L574.295,133.149 C574.055,137.289 573.335,139.089 571.715,139.089 C570.335,139.089 569.735,138.069 568.715,133.929 L567.755,130.149 C566.435,124.629 564.095,122.109 559.415,120.909 C568.055,119.709 572.195,116.229 572.195,110.169 C572.195,103.329 566.435,99.4294 556.355,99.4294 L535.595,99.4294 L535.595,102.249 L536.675,102.249 C540.095,102.309 541.235,102.489 541.715,103.089 C542.075,103.629 542.075,103.749 542.075,106.809 L542.075,135.429 C542.075,138.429 542.075,138.549 541.715,139.149 C541.235,139.749 540.095,139.929 536.675,139.929 L535.595,139.929 L535.595,142.749 L555.275,142.749 L555.275,139.929 L554.195,139.929 C550.775,139.929 549.635,139.749 549.155,139.149 C548.795,138.549 548.795,138.429 548.795,135.429 L548.795,121.749 M548.795,118.929 L548.795,105.729 C548.675,102.429 548.975,102.189 552.935,102.249 L556.175,102.249 C562.115,102.249 564.815,104.769 564.815,110.229 C564.815,116.529 561.455,118.929 555.395,118.929 L548.795,118.929 "/>
<path class="StaffText" d="M2488.82,127.2 L2486.18,127.2 C2484.2,138 2481.5,140.64 2472.2,140.82 L2469.68,140.82 C2466.08,140.7 2465.18,140.1 2465.36,137.94 L2465.36,107.7 C2465.36,104.7 2465.36,104.52 2465.72,103.98 C2466.2,103.38 2467.34,103.2 2470.76,103.14 L2471.84,103.14 L2471.84,100.32 L2452.16,100.32 L2452.16,103.14 L2453.24,103.14 C2456.66,103.2 2457.8,103.38 2458.28,103.98 C2458.64,104.52 2458.64,104.64 2458.64,107.7 L2458.64,136.26 C2458.64,139.32 2458.64,139.44 2458.28,139.98 C2457.8,140.58 2456.66,140.82 2453.24,140.82 L2452.16,140.82 L2452.16,143.64 L2487.56,143.64 L2488.82,127.2 "/>
<path class="StaffText" d="M2106.54,127.2 L2103.9,127.2 C2101.92,138 2099.22,140.64 2089.92,140.82 L2087.4,140.82 C2083.8,140.7 2082.9,140.1 2083.08,137.94 L2083.08,107.7 C2083.08,104.7 2083.08,104.52 2083.44,103.98 C2083.92,103.38 2085.06,103.2 2088.48,103.14 L2089.56,103.14 L2089.56,100.32 L2069.88,100.32 L2069.88,103.14 L2070.96,103.14 C2074.38,103.2 2075.52,103.38 2076,103.98 C2076.36,104.52 2076.36,104.64 2076.36,107.7 L2076.36,136.26 C2076.36,139.32 2076.36,139.44 2076,139.98 C2075.52,140.58 2074.38,140.82 2070.96,140.82 L2069.88,140.82 L2069.88,143.64 L2105.28,143.64 L2106.54,127.2 "/>
<path class="StaffText" d="M220.943,121.749 L224.423,121.749 C230.483,121.989 232.883,124.449 233.543,131.049 L233.843,134.109 C234.563,140.889 236.783,143.649 241.523,143.649 C246.443,143.649 248.783,140.349 248.963,133.149 L246.443,133.149 C246.203,137.289 245.483,139.089 243.863,139.089 C242.483,139.089 241.883,138.069 240.863,133.929 L239.903,130.149 C238.583,124.629 236.243,122.109 231.563,120.909 C240.203,119.709 244.343,116.229 244.343,110.169 C244.343,103.329 238.583,99.4294 228.503,99.4294 L207.743,99.4294 L207.743,102.249 L208.823,102.249 C212.243,102.309 213.383,102.489 213.863,103.089 C214.223,103.629 214.223,103.749 214.223,106.809 L214.223,135.429 C214.223,138.429 214.223,138.549 213.863,139.149 C213.383,139.749 212.243,139.929 208.823,139.929 L207.743,139.929 L207.743,142.749 L227.423,142.749 L227.423,139.929 L226.343,139.929 C222.923,139.929 221.783,139.749 221.303,139.149 C220.943,138.549 220.943,138.429 220.943,135.429 L220.943,121.749 M220.943,118.929 L220.943,105.729 C220.823,102.429 221.123,102.189 225.083,102.249 L228.323,102.249 C234.263,102.249 236.963,104.769 236.963,110.229 C236.963,116.529 233.603,118.929 227.543,118.929 L220.943,118.929 "/>
<path class="StaffText" d="M1258.93,121.749 L1262.41,121.749 C1268.47,121.989 1270.87,124.449 1271.53,131.049 L1271.83,134.109 C1272.55,140.889 1274.77,143.649 1279.51,143.649 C1284.43,143.649 1286.77,140.349 1286.95,133.149 L1284.43,133.149 C1284.19,137.289 1283.47,139.089 1281.85,139.089 C1280.47,139.089 1279.87,138.069 1278.85,133.929 L1277.89,130.149 C1276.57,124.629 1274.23,122.109 1269.55,120.909 C1278.19,119.709 1282.33,116.229 1282.33,110.169 C1282.33,103.329 1276.57,99.4294 1266.49,99.4294 L1245.73,99.4294 L1245.73,102.249 L1246.81,102.249 C1250.23,102.309 1251.37,102.489 1251.85,103.089 C1252.21,103.629 1252.21,103.749 1252.21,106.809 L1252.21,135.429 C1252.21,138.429 1252.21,138.549 1251.85,139.149 C1251.37,139.749 1250.23,139.929 1246.81,139.929 L1245.73,139.929 L1245.73,142.749 L1265.41,142.749 L1265.41,139.929 L1264.33,139.929 C1260.91,139.929 1259.77,139.749 1259.29,139.149 C1258.93,138.549 1258.93,138.429 1258.93,135.429 L1258.93,121.749 M1258.93,118.929 L1258.93,105.729 C1258.81,102.429 1259.11,102.189 1263.07,102.249 L1266.31,102.249 C1272.25,102.249 1274.95,104.769 1274.95,110.229 C1274.95,116.529 1271.59,118.929 1265.53,118.929 L1258.93,118.929 "/>
<path class="StaffText" d="M1919.16,121.749 L1922.64,121.749 C1928.7,121.989 1931.1,124.449 1931.76,131.049 L1932.06,134.109 C1932.78,140.889 1935,143.649 1939.74,143.649 C1944.66,143.649 1947,140.349 1947.18,133.149 L1944.66,133.149 C1944.42,137.289 1943.7,139.089 1942.08,139.089 C1940.7,139.089 1940.1,138.069 1939.08,133.929 L1938.12,130.149 C1936.8,124.629 1934.46,122.109 1929.78,120.909 C1938.42,119.709 1942.56,116.229 1942.56,110.169 C1942.56,103.329 1936.8,99.4294 1926.72,99.4294 L1905.96,99.4294 L1905.96,102.249 L1907.04,102.249 C1910.46,102.309 1911.6,102.489 1912.08,103.089 C1912.44,103.629 1912.44,103.749 1912.44,106.809 L1912.44,135.429 C1912.44,138.429 1912.44,138.549 1912.08,139.149 C1911.6,139.749 1910.46,139.929 1907.04,139.929 L1905.96,139.929 L1905.96,142.749 L1925.64,142.749 L1925.64,139.929 L1924.56,139.929 C1921.14,139.929 1920,139.749 1919.52,139.149 C1919.16,138.549 1919.16,138.429 1919.16,135.429 L1919.16,121.749 M1919.16,118.929 L1919.16,105.729 C1919.04,102.429 1919.34,102.189 1923.3,102.249 L1926.54,102.249 C1932.48,102.249 1935.18,104.769 1935.18,110.229 C1935.18,116.529 1931.82,118.929 1925.76,118.929 L1919.16,118.929 "/>
<path class="StaffText" d="M1673.27,121.749 L1676.75,121.749 C1682.81,121.989 1685.21,124.449 1685.87,131.049 L1686.17,134.109 C1686.89,140.889 1689.11,143.649 1693.85,143.649 C1698.77,143.649 1701.11,140.349 1701.29,133.149 L1698.77,133.149 C1698.53,137.289 1697.81,139.089 1696.19,139.089 C1694.81,139.089 1694.21,138.069 1693.19,133.929 L1692.23,130.149 C1690.91,124.629 1688.57,122.109 1683.89,120.909 C1692.53,119.709 1696.67,116.229 1696.67,110.169 C1696.67,103.329 1690.91,99.4294 1680.83,99.4294 L1660.07,99.4294 L1660.07,102.249 L1661.15,102.249 C1664.57,102.309 1665.71,102.489 1666.19,103.089 C1666.55,103.629 1666.55,103.749 1666.55,106.809 L1666.55,135.429 C1666.55,138.429 1666.55,138.549 1666.19,139.149 C1665.71,139.749 1664.57,139.929 1661.15,139.929 L1660.07,139.929 L1660.07,142.749 L1679.75,142.749 L1679.75,139.929 L1678.67,139.929 C1675.25,139.929 1674.11,139.749 1673.63,139.149 C1673.27,138.549 1673.27,138.429 1673.27,135.429 L1673.27,121.749 M1673.27,118.929 L1673.27,105.729 C1673.15,102.429 1673.45,102.189 1677.41,102.249 L1680.65,102.249 C1686.59,102.249 1689.29,104.769 1689.29,110.229 C1689.29,116.529 1685.93,118.929 1679.87,118.929 L1673.27,118.929 "/>
<path class="StaffText" d="M1118.46,127.2 L1115.82,127.2 C1113.84,138 1111.14,140.64 1101.84,140.82 L1099.32,140.82 C1095.72,140.7 1094.82,140.1 1095,137.94 L1095,107.7 C1095,104.7 1095,104.52 1095.36,103.98 C1095.84,103.38 1096.98,103.2 1100.4,103.14 L1101.48,103.14 L1101.48,100.32 L1081.8,100.32 L1081.8,103.14 L1082.88,103.14 C1086.3,103.2 1087.44,103.38 1087.92,103.98 C1088.28,104.52 1088.28,104.64 1088.28,107.7 L1088.28,136.26 C1088.28,139.32 1088.28,139.44 1087.92,139.98 C1087.44,140.58 1086.3,140.82 1082.88,140.82 L1081.8,140.82 L1081.8,143.64 L1117.2,143.64 L1118.46,127.2 "/>
<path class="StaffText" d="M2816.68,125.764 L2814.04,125.764 C2812.06,136.564 2809.36,139.204 2800.06,139.384 L2797.54,139.384 C2793.94,139.264 2793.04,138.664 2793.22,136.504 L2793.22,106.264 C2793.22,103.264 2793.22,103.084 2793.58,102.544 C2794.06,101.944 2795.2,101.764 2798.62,101.704 L2799.7,101.704 L2799.7,98.8836 L2780.02,98.8836 L2780.02,101.704 L2781.1,101.704 C2784.52,101.764 2785.66,101.944 2786.14,102.544 C2786.5,103.084 2786.5,103.204 2786.5,106.264 L2786.5,134.824 C2786.5,137.884 2786.5,138.004 2786.14,138.544 C2785.66,139.144 2784.52,139.384 2781.1,139.384 L2780.02,139.384 L2780.02,142.204 L2815.42,142.204 L2816.68,125.764 "/>
<path class="StaffText" d="M1446.31,127.2 L1443.67,127.2 C1441.69,138 1438.99,140.64 1429.69,140.82 L1427.17,140.82 C1423.57,140.7 1422.67,140.1 1422.85,137.94 L1422.85,107.7 C1422.85,104.7 1422.85,104.52 1423.21,103.98 C1423.69,103.38 1424.83,103.2 1428.25,103.14 L1429.33,103.14 L1429.33,100.32 L1409.65,100.32 L1409.65,103.14 L1410.73,103.14 C1414.15,103.2 1415.29,103.38 1415.77,103.98 C1416.13,104.52 1416.13,104.64 1416.13,107.7 L1416.13,136.26 C1416.13,139.32 1416.13,139.44 1415.77,139.98 C1415.29,140.58 1414.15,140.82 1410.73,140.82 L1409.65,140.82 L1409.65,143.64 L1445.05,143.64 L1446.31,127.2 "/>
<polyline class="LyricsLineSegment" fill="none" stroke="#000000" stroke-width="3.02" stroke-linejoin="bevel" points="301.498,485.203 319.642,485.203"/>
<polyline class="LyricsLineSegment" fill="none" stroke="#000000" stroke-width="3.02" stroke-linejoin="bevel" points="453.154,485.203 471.298,485.203"/>
<polyline class="LyricsLineSegment" fill="none" stroke="#000000" stroke-width="3.02" stroke-linejoin="bevel" points="1175.56,485.203 1193.7,485.203"/>
<polyline class="LyricsLineSegment" fill="none" stroke="#000000" stroke-width="3.02" stroke-linejoin="bevel" points="1327.22,485.203 1345.36,485.203"/>
<polyline class="LyricsLineSegment" fill="none" stroke="#000000" stroke-width="3.02" stroke-linejoin="bevel" points="1816.96,485.203 1835.1,485.203"/>
<polyline class="LyricsLineSegment" fill="none" stroke="#000000" stroke-width="3.02" stroke-linejoin="bevel" points="1984.38,485.203 2002.52,485.203"/>
<polyline class="LyricsLineSegment" fill="none" stroke="#000000" stroke-width="3.02" stroke-linejoin="bevel" points="2391.07,485.203 2409.22,485.203"/>
<polyline class="LyricsLineSegment" fill="none" stroke="#000000" stroke-width="3.02" stroke-linejoin="bevel" points="2644.25,485.203 2662.39,485.203"/>
</svg>
