<?xml version="1.0" encoding="UTF-8" standalone="no"?>
<svg width="2977.2px" height="612px" viewBox="0 0 2977.2 612"
 xmlns="http://www.w3.org/2000/svg" xmlns:xlink="http://www.w3.org/1999/xlink" version="1.2" baseProfile="tiny">
<title>fill_example</title>
<desc>Generated by MuseScore Studio 4.4.4</desc>
<path class="" fill="#ffffff" fill-rule="evenodd" d="M0,0 L2977.2,0 L2977.2,612 L0,612 L0,0 "/>
<polyline class="StaffLines" fill="none" stroke="#000000" stroke-width="3.33" stroke-linejoin="bevel" points="0,211.68 2977.2,211.68"/>
<polyline class="StaffLines" fill="none" stroke="#000000" stroke-width="3.33" stroke-linejoin="bevel" points="0,241.92 2977.2,241.92"/>
<polyline class="StaffLines" fill="none" stroke="#000000" stroke-width="3.33" stroke-linejoin="bevel" points="0,272.16 2977.2,272.16"/>
<polyline class="StaffLines" fill="none" stroke="#000000" stroke-width="3.33" stroke-linejoin="bevel" points="0,302.4 2977.2,302.4"/>
<polyline class="StaffLines" fill="none" stroke="#000000" stroke-width="3.33" stroke-linejoin="bevel" points="0,332.64 2977.2,332.64"/>
<polyline class="BarLine" fill="none" stroke="#000000" stroke-width="5.44" stroke-linejoin="bevel" points="2946.66,210.017 2946.66,334.303"/>
<polyline class="BarLine" fill="none" stroke="#000000" stroke-width="16.63" stroke-linejoin="bevel" points="2968.88,210.017 2968.88,334.303"/>
<polyline class="BarLine" fill="none" stroke="#000000" stroke-width="5.44" stroke-linejoin="bevel" points="1475.82,210.017 1475.82,334.303"/>
<polyline class="Stem" fill="none" stroke="#000000" stroke-width="3.02" stroke-linejoin="bevel" points="2138.14,312.682 2138.14,219.24"/>
<polyline class="Stem" fill="none" stroke="#000000" stroke-width="3.02" stroke-linejoin="bevel" points="1024.2,312.682 1024.2,219.24"/>
<polyline class="Stem" fill="none" stroke="#000000" stroke-width="3.02" stroke-linejoin="bevel" points="245.511,312.682 245.511,211.68"/>
<polyline class="Stem" fill="none" stroke="#000000" stroke-width="3.02" stroke-linejoin="bevel" points="1846.13,252.202 1846.13,173.88"/>
<polyline class="Stem" fill="none" stroke="#000000" stroke-width="3.02" stroke-linejoin="bevel" points="537.519,252.202 537.519,173.88"/>
<polyline class="Stem" fill="none" stroke="#000000" stroke-width="3.02" stroke-linejoin="bevel" points="1554.12,312.682 1554.12,211.68"/>
<polyline class="Stem" fill="none" stroke="#000000" stroke-width="3.02" stroke-linejoin="bevel" points="2851.94,252.202 2851.94,166.32"/>
<polyline class="Stem" fill="none" stroke="#000000" stroke-width="3.02" stroke-linejoin="bevel" points="2332.81,312.682 2332.81,219.24"/>
<polyline class="Stem" fill="none" stroke="#000000" stroke-width="3.02" stroke-linejoin="bevel" points="829.527,312.682 829.527,219.24"/>
<polyline class="Stem" fill="none" stroke="#000000" stroke-width="3.02" stroke-linejoin="bevel" points="1218.87,252.202 1218.87,173.88"/>
<polyline class="Stem" fill="none" stroke="#000000" stroke-width="3.02" stroke-linejoin="bevel" points="2527.48,252.202 2527.48,166.32"/>
<polyline class="Stem" fill="none" stroke="#000000" stroke-width="3.02" stroke-linejoin="bevel" points="2722.15,252.202 2722.15,166.32"/>
<path class="Note" transform="matrix(1.2096,0,0,1.2096,207.73,317.52)" d="M0,4.2 C0,8.5 3.1,13.3 11.2,13.3 C21.6,13.3 32.5,4.8 32.5,-4 C32.5,-9.9 27.5,-13.2 21.3,-13.2 C11.6,-13.2 0,-5 0,4.2"/>
<path class="Note" transform="matrix(1.2096,0,0,1.2096,986.418,317.52)" d="M0,4.2 C0,8.5 3.1,13.3 11.2,13.3 C21.6,13.3 32.5,4.8 32.5,-4 C32.5,-9.9 27.5,-13.2 21.3,-13.2 C11.6,-13.2 0,-5 0,4.2"/>
<path class="Note" transform="matrix(1.2096,0,0,1.2096,2489.7,257.04)" d="M0,4.2 C0,8.5 3.1,13.3 11.2,13.3 C21.6,13.3 32.5,4.8 32.5,-4 C32.5,-9.9 27.5,-13.2 21.3,-13.2 C11.6,-13.2 0,-5 0,4.2"/>
<path class="Note" transform="matrix(1.2096,0,0,1.2096,791.746,317.52)" d="M0,4.2 C0,8.5 3.1,13.3 11.2,13.3 C21.6,13.3 32.5,4.8 32.5,-4 C32.5,-9.9 27.5,-13.2 21.3,-13.2 C11.6,-13.2 0,-5 0,4.2"/>
<path class="Note" transform="matrix(1.2096,0,0,1.2096,1181.09,257.04)" d="M0,4.2 C0,8.5 3.1,13.3 11.2,13.3 C21.6,13.3 32.5,4.8 32.5,-4 C32.5,-9.9 27.5,-13.2 21.3,-13.2 C11.6,-13.2 0,-5 0,4.2"/>
<path class="Note" transform="matrix(1.2096,0,0,1.2096,2295.03,317.52)" d="M0,4.2 C0,8.5 3.1,13.3 11.2,13.3 C21.6,13.3 32.5,4.8 32.5,-4 C32.5,-9.9 27.5,-13.2 21.3,-13.2 C11.6,-13.2 0,-5 0,4.2"/>
<path class="Note" transform="matrix(1.2096,0,0,1.2096,2684.37,257.04)" d="M0,4.2 C0,8.5 3.1,13.3 11.2,13.3 C21.6,13.3 32.5,4.8 32.5,-4 C32.5,-9.9 27.5,-13.2 21.3,-13.2 C11.6,-13.2 0,-5 0,4.2"/>
<path class="Note" transform="matrix(1.2096,0,0,1.2096,499.738,257.04)" d="M0,4.2 C0,8.5 3.1,13.3 11.2,13.3 C21.6,13.3 32.5,4.8 32.5,-4 C32.5,-9.9 27.5,-13.2 21.3,-13.2 C11.6,-13.2 0,-5 0,4.2"/>
<path class="Note" transform="matrix(1.2096,0,0,1.2096,1516.34,317.52)" d="M0,4.2 C0,8.5 3.1,13.3 11.2,13.3 C21.6,13.3 32.5,4.8 32.5,-4 C32.5,-9.9 27.5,-13.2 21.3,-13.2 C11.6,-13.2 0,-5 0,4.2"/>
<path class="Note" transform="matrix(1.2096,0,0,1.2096,2814.15,257.04)" d="M0,4.2 C0,8.5 3.1,13.3 11.2,13.3 C21.6,13.3 32.5,4.8 32.5,-4 C32.5,-9.9 27.5,-13.2 21.3,-13.2 C11.6,-13.2 0,-5 0,4.2"/>
<path class="Note" transform="matrix(1.2096,0,0,1.2096,1808.35,257.04)" d="M0,4.2 C0,8.5 3.1,13.3 11.2,13.3 C21.6,13.3 32.5,4.8 32.5,-4 C32.5,-9.9 27.5,-13.2 21.3,-13.2 C11.6,-13.2 0,-5 0,4.2"/>
<path class="Note" transform="matrix(1.2096,0,0,1.2096,2100.36,317.52)" d="M0,4.2 C0,8.5 3.1,13.3 11.2,13.3 C21.6,13.3 32.5,4.8 32.5,-4 C32.5,-9.9 27.5,-13.2 21.3,-13.2 C11.6,-13.2 0,-5 0,4.2"/>
<path class="Clef" transform="matrix(1.2096,0,0,1.2096,22.68,272.16)" d="M1.3,-25.2 C0.6,-25.2 0,-24.6 0,-23.9 L0,23.9 C0,24.6 0.6,25.2 1.3,25.2 L12.3,25.2 C13,25.2 13.6,24.6 13.6,23.9 L13.6,-23.9 C13.6,-24.6 13,-25.2 12.3,-25.2 L1.3,-25.2 M22.9,-25.2 C22.2,-25.2 21.6,-24.6 21.6,-23.9 L21.6,23.9 C21.6,24.6 22.2,25.2 22.9,25.2 L33.9,25.2 C34.6,25.2 35.2,24.6 35.2,23.9 L35.2,-23.9 C35.2,-24.6 34.6,-25.2 33.9,-25.2 L22.9,-25.2 "/>
<path class="TimeSig" transform="matrix(1.2096,0,0,1.2096,93.8007,241.92)" d="M20.8,12.7 L20.8,20.1 L12.5,20.1 C11.8,20.1 11.1,20.7 11.1,21.5 L11.1,23.4 C11.1,24.2 11.8,24.8 12.5,24.8 L42.8,24.8 C43.6,24.8 44.2,24.2 44.2,23.4 L44.2,21.5 C44.2,20.7 43.6,20.1 42.8,20.1 L33.9,20.1 L33.9,12.7 L42.8,12.7 C43.6,12.7 44.2,12 44.2,11.2 L44.2,9.3 C44.2,8.6 43.6,7.9 42.8,7.9 L33.9,7.9 L33.9,-8 C33.9,-8.6 33.6,-9.1 33.1,-9.3 L31.9,-9.9 C31.7,-10 31.4,-10.1 31.2,-10.1 C30.9,-10 30.5,-9.9 30.3,-9.7 L21.2,-1.4 C20.9,-1.1 20.8,-0.7 20.8,-0.3 L20.8,7.9 L9.3,7.9 C9.3,7.9 20.4,-4.1 32.2,-19.9 C32.6,-20.4 32.7,-20.9 32.7,-21.3 C32.7,-21.8 32.5,-22.2 32.4,-22.3 L30.2,-24.5 C30,-24.7 29.6,-24.9 29.2,-24.9 C28.6,-24.9 15.1,-24.9 14.4,-24.9 C13.6,-24.9 13.1,-24.3 13,-23.7 C13,-23.7 12.5,-16.3 9.9,-8.2 C7.3,-0.1 4.3,4.9 1.7,8.6 C1.7,8.6 1.4,9.1 1.4,9.7 C1.4,9.9 1.4,10.1 1.5,10.3 C1.9,11 2.5,12.1 2.5,12.1 C2.5,12.1 2.7,12.7 3.6,12.7 L20.8,12.7 "/>
<path class="TimeSig" transform="matrix(1.2096,0,0,1.2096,93.8007,302.4)" d="M20.8,12.7 L20.8,20.1 L12.5,20.1 C11.8,20.1 11.1,20.7 11.1,21.5 L11.1,23.4 C11.1,24.2 11.8,24.8 12.5,24.8 L42.8,24.8 C43.6,24.8 44.2,24.2 44.2,23.4 L44.2,21.5 C44.2,20.7 43.6,20.1 42.8,20.1 L33.9,20.1 L33.9,12.7 L42.8,12.7 C43.6,12.7 44.2,12 44.2,11.2 L44.2,9.3 C44.2,8.6 43.6,7.9 42.8,7.9 L33.9,7.9 L33.9,-8 C33.9,-8.6 33.6,-9.1 33.1,-9.3 L31.9,-9.9 C31.7,-10 31.4,-10.1 31.2,-10.1 C30.9,-10 30.5,-9.9 30.3,-9.7 L21.2,-1.4 C20.9,-1.1 20.8,-0.7 20.8,-0.3 L20.8,7.9 L9.3,7.9 C9.3,7.9 20.4,-4.1 32.2,-19.9 C32.6,-20.4 32.7,-20.9 32.7,-21.3 C32.7,-21.8 32.5,-22.2 32.4,-22.3 L30.2,-24.5 C30,-24.7 29.6,-24.9 29.2,-24.9 C28.6,-24.9 15.1,-24.9 14.4,-24.9 C13.6,-24.9 13.1,-24.3 13,-23.7 C13,-23.7 12.5,-16.3 9.9,-8.2 C7.3,-0.1 4.3,4.9 1.7,8.6 C1.7,8.6 1.4,9.1 1.4,9.7 C1.4,9.9 1.4,10.1 1.5,10.3 C1.9,11 2.5,12.1 2.5,12.1 C2.5,12.1 2.7,12.7 3.6,12.7 L20.8,12.7 "/>
<path class="Beam" fill-rule="evenodd" d="M2525.97,158.76 L2853.45,158.76 L2853.45,173.88 L2525.97,173.88 L2525.97,158.76 "/>
<path class="Beam" fill-rule="evenodd" d="M2720.64,181.44 L2853.45,181.44 L2853.45,196.56 L2720.64,196.56 L2720.64,181.44 "/>
<path class="Beam" fill-rule="evenodd" d="M828.015,211.68 L1025.71,211.68 L1025.71,226.8 L828.015,226.8 L828.015,211.68 "/>
<path class="Beam" fill-rule="evenodd" d="M2136.63,211.68 L2334.32,211.68 L2334.32,226.8 L2136.63,226.8 L2136.63,211.68 "/>
<path class="Lyrics" d="M1543.15,367.004 L1540.17,367.004 C1534.82,370.999 1528.78,372.699 1518.67,372.869 L1518.67,377.629 L1522.24,377.629 C1529.8,377.629 1529.89,377.799 1529.8,384.769 L1529.8,414.944 C1529.8,420.214 1529.8,420.469 1529.21,421.319 C1528.44,422.254 1526.74,422.594 1522.15,422.594 L1519.43,422.594 L1519.43,427.184 L1553.35,427.184 L1553.35,422.594 L1550.63,422.594 C1546.12,422.594 1544.51,422.254 1543.74,421.319 C1543.15,420.469 1543.15,420.129 1543.15,414.944 L1543.15,367.004 "/>
<path class="Lyrics" d="M2523.26,406.104 L2523.26,379.924 C2523.26,378.649 2523.43,373.124 2523.77,367.004 L2517.9,367.004 L2486.96,405.509 L2486.96,411.799 L2509.91,411.799 L2509.91,414.944 C2509.91,420.214 2509.91,420.554 2509.32,421.404 C2508.64,422.254 2506.85,422.594 2502.86,422.594 L2501.92,422.594 L2501.92,427.184 L2530.91,427.184 L2530.91,422.594 L2529.97,422.594 C2526.23,422.509 2524.45,422.169 2523.85,421.404 C2523.26,420.469 2523.26,420.214 2523.26,414.944 L2523.26,411.799 L2531.76,411.799 L2531.76,406.104 L2523.26,406.104 M2509.91,406.104 L2493.17,406.104 L2509.91,384.854 L2509.91,406.104 "/>
<path class="Lyrics" d="M1845.18,404.574 L1844.25,408.824 C1843.48,412.224 1842.97,413.329 1842.29,413.754 C1841.44,414.349 1841.27,414.349 1835.92,414.434 L1819.51,414.434 C1822.49,411.884 1824.7,410.269 1828.01,408.059 C1840,400.324 1842.46,398.454 1844.93,395.309 C1847.82,391.484 1849.52,386.979 1849.52,382.984 C1849.52,373.889 1840.59,367.004 1828.61,367.004 C1817.05,367.004 1808.12,374.484 1808.12,384.174 C1808.12,390.124 1811.44,393.949 1816.54,393.949 C1820.96,393.949 1823.76,391.144 1823.76,386.724 C1823.76,383.069 1822.15,380.944 1818.24,379.074 C1817.3,378.649 1816.88,378.139 1816.88,377.459 C1816.88,374.739 1821.47,371.849 1825.72,371.849 C1831.67,371.849 1835.07,375.504 1835.07,381.794 C1835.07,388.849 1832.35,393.864 1823.34,403.469 C1813.82,413.584 1810.5,417.409 1806.25,423.529 L1806.25,427.524 C1808.46,427.269 1809.4,427.184 1810.67,427.184 L1842.63,427.184 C1844.25,427.184 1845.27,427.269 1847.82,427.524 L1849.77,404.574 L1845.18,404.574 "/>
<path class="Lyrics" d="M234.536,367.004 L231.561,367.004 C226.206,370.999 220.171,372.699 210.056,372.869 L210.056,377.629 L213.626,377.629 C221.191,377.629 221.276,377.799 221.191,384.769 L221.191,414.944 C221.191,420.214 221.191,420.469 220.596,421.319 C219.831,422.254 218.131,422.594 213.541,422.594 L210.821,422.594 L210.821,427.184 L244.736,427.184 L244.736,422.594 L242.016,422.594 C237.511,422.594 235.896,422.254 235.131,421.319 C234.536,420.469 234.536,420.129 234.536,414.944 L234.536,367.004 "/>
<path class="Lyrics" d="M2126.31,395.904 C2133.53,394.034 2139.99,390.804 2139.99,382.049 C2139.99,373.039 2132,367.004 2119.93,367.004 C2113.73,367.004 2108.71,368.619 2105.14,371.764 C2102.34,374.229 2100.64,377.799 2100.64,381.029 C2100.64,385.449 2103.95,388.764 2108.29,388.764 C2112.37,388.764 2115.17,386.044 2115.17,382.049 C2115.17,379.754 2114.24,377.969 2111.86,375.674 C2111.43,375.249 2111.26,374.994 2111.26,374.654 C2111.26,373.039 2114.41,371.424 2117.72,371.424 C2123.08,371.424 2126.22,375.334 2126.22,381.964 C2126.22,389.359 2123.76,393.864 2119.59,393.864 C2118.91,393.864 2118.06,393.779 2116.7,393.439 C2114.83,393.014 2114.24,392.929 2113.3,392.929 C2111.18,392.929 2110.16,393.864 2110.16,395.734 C2110.16,397.689 2111.43,398.964 2113.22,398.964 C2113.81,398.964 2114.32,398.879 2115.77,398.709 C2117.72,398.539 2118.23,398.454 2118.83,398.454 C2124.1,398.454 2126.73,402.534 2126.73,410.524 C2126.73,419.109 2123.16,423.954 2116.87,423.954 C2113.3,423.954 2109.56,422.169 2109.56,420.384 C2109.56,419.874 2109.82,419.364 2110.33,418.854 C2112.88,416.474 2113.47,415.369 2113.47,412.904 C2113.47,408.909 2110.33,405.849 2106.16,405.849 C2101.57,405.849 2098.51,409.164 2098.51,413.924 C2098.51,422.509 2106.84,428.374 2119.08,428.374 C2130.3,428.374 2141.52,423.699 2141.52,410.779 C2141.52,405.424 2139.14,400.749 2135.23,398.454 C2132.77,397.094 2130.81,396.499 2126.31,395.904"/>
<path class="Lyrics" d="M2847.28,399.814 C2847.28,394.459 2846.35,391.739 2843.88,389.699 C2841.08,387.404 2836.91,386.299 2831.47,386.299 C2821.87,386.299 2814.9,390.804 2814.9,397.009 C2814.9,400.154 2816.85,402.194 2819.83,402.194 C2822.55,402.194 2824.42,400.409 2824.42,397.859 C2824.42,396.754 2823.99,395.564 2823.14,394.374 C2822.63,393.779 2822.55,393.609 2822.55,393.184 C2822.55,391.484 2825.95,389.954 2830.03,389.954 C2832.75,389.954 2835.72,390.804 2837.08,392.079 C2838.7,393.439 2839.29,395.479 2839.29,399.304 L2839.29,402.619 C2830.45,404.149 2827.65,404.829 2823.48,406.444 C2816.09,409.164 2812.6,413.074 2812.6,418.514 C2812.6,424.634 2817.36,428.459 2824.93,428.459 C2830.79,428.459 2836.06,426.079 2839.72,421.744 C2841.08,426.079 2843.2,427.779 2847.2,427.779 C2851.02,427.779 2855.02,425.314 2855.02,422.849 C2855.02,422.254 2854.68,421.829 2854.17,421.829 C2853.83,421.829 2853.49,421.914 2852.89,422.169 C2851.7,422.679 2851.19,422.764 2850.51,422.764 C2848.13,422.764 2847.28,421.234 2847.28,416.899 L2847.28,399.814 M2839.29,410.184 C2839.29,415.284 2839.04,416.474 2837.59,418.684 C2835.47,421.829 2831.64,423.954 2827.9,423.954 C2823.99,423.954 2821.19,421.149 2821.19,417.324 C2821.19,413.754 2822.97,411.204 2826.71,409.419 C2829.35,408.229 2832.66,407.379 2839.29,406.274 L2839.29,410.184 "/>
<path class="Lyrics" d="M536.57,404.574 L535.635,408.824 C534.87,412.224 534.36,413.329 533.68,413.754 C532.83,414.349 532.66,414.349 527.305,414.434 L510.9,414.434 C513.875,411.884 516.085,410.269 519.4,408.059 C531.385,400.324 533.85,398.454 536.315,395.309 C539.205,391.484 540.905,386.979 540.905,382.984 C540.905,373.889 531.98,367.004 519.995,367.004 C508.435,367.004 499.51,374.484 499.51,384.174 C499.51,390.124 502.825,393.949 507.925,393.949 C512.345,393.949 515.15,391.144 515.15,386.724 C515.15,383.069 513.535,380.944 509.625,379.074 C508.69,378.649 508.265,378.139 508.265,377.459 C508.265,374.739 512.855,371.849 517.105,371.849 C523.055,371.849 526.455,375.504 526.455,381.794 C526.455,388.849 523.735,393.864 514.725,403.469 C505.205,413.584 501.89,417.409 497.64,423.529 L497.64,427.524 C499.85,427.269 500.785,427.184 502.06,427.184 L534.02,427.184 C535.635,427.184 536.655,427.269 539.205,427.524 L541.16,404.574 L536.57,404.574 "/>
<path class="Lyrics" d="M1214.65,406.104 L1214.65,379.924 C1214.65,378.649 1214.82,373.124 1215.16,367.004 L1209.29,367.004 L1178.35,405.509 L1178.35,411.799 L1201.3,411.799 L1201.3,414.944 C1201.3,420.214 1201.3,420.554 1200.71,421.404 C1200.03,422.254 1198.24,422.594 1194.25,422.594 L1193.31,422.594 L1193.31,427.184 L1222.3,427.184 L1222.3,422.594 L1221.36,422.594 C1217.62,422.509 1215.84,422.169 1215.24,421.404 C1214.65,420.469 1214.65,420.214 1214.65,414.944 L1214.65,411.799 L1223.15,411.799 L1223.15,406.104 L1214.65,406.104 M1201.3,406.104 L1184.56,406.104 L1201.3,384.854 L1201.3,406.104 "/>
<path class="Lyrics" d="M2341.72,412.819 C2340.7,418.174 2337.89,421.404 2334.15,421.404 C2330.92,421.404 2328.12,419.874 2324.8,416.219 C2328.2,412.054 2328.63,411.459 2330.41,408.059 C2335.6,397.944 2336.62,396.924 2342.65,396.499 L2343.59,396.499 L2343.59,392.844 L2319.62,392.844 L2319.62,396.499 L2320.47,396.499 C2325.48,396.499 2328.12,397.859 2328.12,400.494 C2328.12,404.149 2325.82,409.164 2322.17,413.329 C2318.09,408.484 2313.24,401.174 2308.48,392.249 C2313.07,390.209 2314.52,389.444 2316.73,387.914 C2320.64,385.194 2323.19,380.519 2323.19,376.014 C2323.19,369.129 2317.83,364.539 2309.93,364.539 C2301,364.539 2295.05,370.574 2295.05,379.584 C2295.05,383.324 2295.99,386.639 2298.62,392.249 C2289.1,396.754 2283.92,403.469 2283.92,411.119 C2283.92,415.369 2285.79,420.044 2288.76,423.274 C2291.91,426.674 2296.41,428.459 2302.19,428.459 C2308.31,428.459 2312.99,426.759 2318.51,422.424 C2322.59,426.589 2325.91,428.119 2330.58,428.119 C2339.59,428.119 2344.44,421.574 2345.46,413.329 L2341.72,412.819 M2306.7,388.679 C2304.23,383.579 2303.04,379.754 2303.04,376.609 C2303.04,371.679 2305.76,368.194 2309.67,368.194 C2313.58,368.194 2316.39,371.509 2316.39,376.184 C2316.39,379.414 2314.94,382.814 2312.73,384.939 C2311.37,386.214 2310.1,386.979 2306.7,388.679 M2300.24,395.734 C2305.76,406.699 2308.65,411.119 2315.88,419.534 C2312.14,421.914 2310.18,422.679 2307.29,422.679 C2299.73,422.679 2293.01,415.029 2293.01,406.529 C2293.01,401.854 2295.14,398.709 2300.24,395.734"/>
<path class="Lyrics" d="M2731.06,412.819 C2730.04,418.174 2727.24,421.404 2723.5,421.404 C2720.27,421.404 2717.46,419.874 2714.15,416.219 C2717.55,412.054 2717.97,411.459 2719.76,408.059 C2724.94,397.944 2725.96,396.924 2732,396.499 L2732.93,396.499 L2732.93,392.844 L2708.96,392.844 L2708.96,396.499 L2709.81,396.499 C2714.83,396.499 2717.46,397.859 2717.46,400.494 C2717.46,404.149 2715.17,409.164 2711.51,413.329 C2707.43,408.484 2702.59,401.174 2697.83,392.249 C2702.42,390.209 2703.86,389.444 2706.07,387.914 C2709.98,385.194 2712.53,380.519 2712.53,376.014 C2712.53,369.129 2707.18,364.539 2699.27,364.539 C2690.35,364.539 2684.4,370.574 2684.4,379.584 C2684.4,383.324 2685.33,386.639 2687.97,392.249 C2678.45,396.754 2673.26,403.469 2673.26,411.119 C2673.26,415.369 2675.13,420.044 2678.11,423.274 C2681.25,426.674 2685.76,428.459 2691.54,428.459 C2697.66,428.459 2702.33,426.759 2707.86,422.424 C2711.94,426.589 2715.25,428.119 2719.93,428.119 C2728.94,428.119 2733.78,421.574 2734.8,413.329 L2731.06,412.819 M2696.04,388.679 C2693.58,383.579 2692.39,379.754 2692.39,376.609 C2692.39,371.679 2695.11,368.194 2699.02,368.194 C2702.93,368.194 2705.73,371.509 2705.73,376.184 C2705.73,379.414 2704.29,382.814 2702.08,384.939 C2700.72,386.214 2699.44,386.979 2696.04,388.679 M2689.58,395.734 C2695.11,406.699 2698,411.119 2705.22,419.534 C2701.48,421.914 2699.53,422.679 2696.64,422.679 C2689.07,422.679 2682.36,415.029 2682.36,406.529 C2682.36,401.854 2684.48,398.709 2689.58,395.734"/>
<path class="Lyrics" d="M817.696,395.904 C824.921,394.034 831.381,390.804 831.381,382.049 C831.381,373.039 823.391,367.004 811.321,367.004 C805.116,367.004 800.101,368.619 796.531,371.764 C793.726,374.229 792.026,377.799 792.026,381.029 C792.026,385.449 795.341,388.764 799.676,388.764 C803.756,388.764 806.561,386.044 806.561,382.049 C806.561,379.754 805.626,377.969 803.246,375.674 C802.821,375.249 802.651,374.994 802.651,374.654 C802.651,373.039 805.796,371.424 809.111,371.424 C814.466,371.424 817.611,375.334 817.611,381.964 C817.611,389.359 815.146,393.864 810.981,393.864 C810.301,393.864 809.451,393.779 808.091,393.439 C806.221,393.014 805.626,392.929 804.691,392.929 C802.566,392.929 801.546,393.864 801.546,395.734 C801.546,397.689 802.821,398.964 804.606,398.964 C805.201,398.964 805.711,398.879 807.156,398.709 C809.111,398.539 809.621,398.454 810.216,398.454 C815.486,398.454 818.121,402.534 818.121,410.524 C818.121,419.109 814.551,423.954 808.261,423.954 C804.691,423.954 800.951,422.169 800.951,420.384 C800.951,419.874 801.206,419.364 801.716,418.854 C804.266,416.474 804.861,415.369 804.861,412.904 C804.861,408.909 801.716,405.849 797.551,405.849 C792.961,405.849 789.901,409.164 789.901,413.924 C789.901,422.509 798.231,428.374 810.471,428.374 C821.691,428.374 832.911,423.699 832.911,410.779 C832.911,405.424 830.531,400.749 826.621,398.454 C824.156,397.094 822.201,396.499 817.696,395.904"/>
<path class="Lyrics" d="M1033.11,412.819 C1032.09,418.174 1029.28,421.404 1025.54,421.404 C1022.31,421.404 1019.51,419.874 1016.19,416.219 C1019.59,412.054 1020.02,411.459 1021.8,408.059 C1026.99,397.944 1028.01,396.924 1034.04,396.499 L1034.98,396.499 L1034.98,392.844 L1011.01,392.844 L1011.01,396.499 L1011.86,396.499 C1016.87,396.499 1019.51,397.859 1019.51,400.494 C1019.51,404.149 1017.21,409.164 1013.56,413.329 C1009.48,408.484 1004.63,401.174 999.871,392.249 C1004.46,390.209 1005.91,389.444 1008.12,387.914 C1012.03,385.194 1014.58,380.519 1014.58,376.014 C1014.58,369.129 1009.22,364.539 1001.32,364.539 C992.391,364.539 986.441,370.574 986.441,379.584 C986.441,383.324 987.376,386.639 990.011,392.249 C980.491,396.754 975.306,403.469 975.306,411.119 C975.306,415.369 977.176,420.044 980.151,423.274 C983.296,426.674 987.801,428.459 993.581,428.459 C999.701,428.459 1004.38,426.759 1009.9,422.424 C1013.98,426.589 1017.3,428.119 1021.97,428.119 C1030.98,428.119 1035.83,421.574 1036.85,413.329 L1033.11,412.819 M998.086,388.679 C995.621,383.579 994.431,379.754 994.431,376.609 C994.431,371.679 997.151,368.194 1001.06,368.194 C1004.97,368.194 1007.78,371.509 1007.78,376.184 C1007.78,379.414 1006.33,382.814 1004.12,384.939 C1002.76,386.214 1001.49,386.979 998.086,388.679 M991.626,395.734 C997.151,406.699 1000.04,411.119 1007.27,419.534 C1003.53,421.914 1001.57,422.679 998.681,422.679 C991.116,422.679 984.401,415.029 984.401,406.529 C984.401,401.854 986.526,398.709 991.626,395.734"/>
<path class="StaffText" d="M1845.02,142.32 L1842.38,142.32 C1840.4,153.12 1837.7,155.76 1828.4,155.94 L1825.88,155.94 C1822.28,155.82 1821.38,155.22 1821.56,153.06 L1821.56,122.82 C1821.56,119.82 1821.56,119.64 1821.92,119.1 C1822.4,118.5 1823.54,118.32 1826.96,118.26 L1828.04,118.26 L1828.04,115.44 L1808.36,115.44 L1808.36,118.26 L1809.44,118.26 C1812.86,118.32 1814,118.5 1814.48,119.1 C1814.84,119.64 1814.84,119.76 1814.84,122.82 L1814.84,151.38 C1814.84,154.44 1814.84,154.56 1814.48,155.1 C1814,155.7 1812.86,155.94 1809.44,155.94 L1808.36,155.94 L1808.36,158.76 L1843.76,158.76 L1845.02,142.32 "/>
<path class="StaffText" d="M804.959,160.44 L808.439,160.44 C814.499,160.68 816.899,163.14 817.559,169.74 L817.859,172.8 C818.579,179.58 820.799,182.34 825.539,182.34 C830.459,182.34 832.799,179.04 832.979,171.84 L830.459,171.84 C830.219,175.98 829.499,177.78 827.879,177.78 C826.499,177.78 825.899,176.76 824.879,172.62 L823.919,168.84 C822.599,163.32 820.259,160.8 815.579,159.6 C824.219,158.4 828.359,154.92 828.359,148.86 C828.359,142.02 822.599,138.12 812.519,138.12 L791.759,138.12 L791.759,140.94 L792.839,140.94 C796.259,141 797.399,141.18 797.879,141.78 C798.239,142.32 798.239,142.44 798.239,145.5 L798.239,174.12 C798.239,177.12 798.239,177.24 797.879,177.84 C797.399,178.44 796.259,178.62 792.839,178.62 L791.759,178.62 L791.759,181.44 L811.439,181.44 L811.439,178.62 L810.359,178.62 C806.939,178.62 805.799,178.44 805.319,177.84 C804.959,177.24 804.959,177.12 804.959,174.12 L804.959,160.44 M804.959,157.62 L804.959,144.42 C804.839,141.12 805.139,140.88 809.099,140.94 L812.339,140.94 C818.279,140.94 820.979,143.46 820.979,148.92 C820.979,155.22 817.619,157.62 811.559,157.62 L804.959,157.62 "/>
<path class="StaffText" d="M2502.91,121.749 L2506.39,121.749 C2512.45,121.989 2514.85,124.449 2515.51,131.049 L2515.81,134.109 C2516.53,140.889 2518.75,143.649 2523.49,143.649 C2528.41,143.649 2530.75,140.349 2530.93,133.149 L2528.41,133.149 C2528.17,137.289 2527.45,139.089 2525.83,139.089 C2524.45,139.089 2523.85,138.069 2522.83,133.929 L2521.87,130.149 C2520.55,124.629 2518.21,122.109 2513.53,120.909 C2522.17,119.709 2526.31,116.229 2526.31,110.169 C2526.31,103.329 2520.55,99.4294 2510.47,99.4294 L2489.71,99.4294 L2489.71,102.249 L2490.79,102.249 C2494.21,102.309 2495.35,102.489 2495.83,103.089 C2496.19,103.629 2496.19,103.749 2496.19,106.809 L2496.19,135.429 C2496.19,138.429 2496.19,138.549 2495.83,139.149 C2495.35,139.749 2494.21,139.929 2490.79,139.929 L2489.71,139.929 L2489.71,142.749 L2509.39,142.749 L2509.39,139.929 L2508.31,139.929 C2504.89,139.929 2503.75,139.749 2503.27,139.149 C2502.91,138.549 2502.91,138.429 2502.91,135.429 L2502.91,121.749 M2502.91,118.929 L2502.91,105.729 C2502.79,102.429 2503.09,102.189 2507.05,102.249 L2510.29,102.249 C2516.23,102.249 2518.93,104.769 2518.93,110.229 C2518.93,116.529 2515.57,118.929 2509.51,118.929 L2502.91,118.929 "/>
<path class="StaffText" d="M1023.08,165 L1020.44,165 C1018.46,175.8 1015.76,178.44 1006.46,178.62 L1003.94,178.62 C1000.34,178.5 999.444,177.9 999.624,175.74 L999.624,145.5 C999.624,142.5 999.624,142.32 999.984,141.78 C1000.46,141.18 1001.6,141 1005.02,140.94 L1006.1,140.94 L1006.1,138.12 L986.424,138.12 L986.424,140.94 L987.504,140.94 C990.924,141 992.064,141.18 992.544,141.78 C992.904,142.32 992.904,142.44 992.904,145.5 L992.904,174.06 C992.904,177.12 992.904,177.24 992.544,177.78 C992.064,178.38 990.924,178.62 987.504,178.62 L986.424,178.62 L986.424,181.44 L1021.82,181.44 L1023.08,165 "/>
<path class="StaffText" d="M512.951,136.869 L516.431,136.869 C522.491,137.109 524.891,139.569 525.551,146.169 L525.851,149.229 C526.571,156.009 528.791,158.769 533.531,158.769 C538.451,158.769 540.791,155.469 540.971,148.269 L538.451,148.269 C538.211,152.409 537.491,154.209 535.871,154.209 C534.491,154.209 533.891,153.189 532.871,149.049 L531.911,145.269 C530.591,139.749 528.251,137.229 523.571,136.029 C532.211,134.829 536.351,131.349 536.351,125.289 C536.351,118.449 530.591,114.549 520.511,114.549 L499.751,114.549 L499.751,117.369 L500.831,117.369 C504.251,117.429 505.391,117.609 505.871,118.209 C506.231,118.749 506.231,118.869 506.231,121.929 L506.231,150.549 C506.231,153.549 506.231,153.669 505.871,154.269 C505.391,154.869 504.251,155.049 500.831,155.049 L499.751,155.049 L499.751,157.869 L519.431,157.869 L519.431,155.049 L518.351,155.049 C514.931,155.049 513.791,154.869 513.311,154.269 C512.951,153.669 512.951,153.549 512.951,150.549 L512.951,136.869 M512.951,134.049 L512.951,120.849 C512.831,117.549 513.131,117.309 517.091,117.369 L520.331,117.369 C526.271,117.369 528.971,119.889 528.971,125.349 C528.971,131.649 525.611,134.049 519.551,134.049 L512.951,134.049 "/>
<path class="StaffText" d="M2331.7,165 L2329.06,165 C2327.08,175.8 2324.38,178.44 2315.08,178.62 L2312.56,178.62 C2308.96,178.5 2308.06,177.9 2308.24,175.74 L2308.24,145.5 C2308.24,142.5 2308.24,142.32 2308.6,141.78 C2309.08,141.18 2310.22,141 2313.64,140.94 L2314.72,140.94 L2314.72,138.12 L2295.04,138.12 L2295.04,140.94 L2296.12,140.94 C2299.54,141 2300.68,141.18 2301.16,141.78 C2301.52,142.32 2301.52,142.44 2301.52,145.5 L2301.52,174.06 C2301.52,177.12 2301.52,177.24 2301.16,177.78 C2300.68,178.38 2299.54,178.62 2296.12,178.62 L2295.04,178.62 L2295.04,181.44 L2330.44,181.44 L2331.7,165 "/>
<path class="StaffText" d="M2697.59,121.749 L2701.07,121.749 C2707.13,121.989 2709.53,124.449 2710.19,131.049 L2710.49,134.109 C2711.21,140.889 2713.43,143.649 2718.17,143.649 C2723.09,143.649 2725.43,140.349 2725.61,133.149 L2723.09,133.149 C2722.85,137.289 2722.13,139.089 2720.51,139.089 C2719.13,139.089 2718.53,138.069 2717.51,133.929 L2716.55,130.149 C2715.23,124.629 2712.89,122.109 2708.21,120.909 C2716.85,119.709 2720.99,116.229 2720.99,110.169 C2720.99,103.329 2715.23,99.4294 2705.15,99.4294 L2684.39,99.4294 L2684.39,102.249 L2685.47,102.249 C2688.89,102.309 2690.03,102.489 2690.51,103.089 C2690.87,103.629 2690.87,103.749 2690.87,106.809 L2690.87,135.429 C2690.87,138.429 2690.87,138.549 2690.51,139.149 C2690.03,139.749 2688.89,139.929 2685.47,139.929 L2684.39,139.929 L2684.39,142.749 L2704.07,142.749 L2704.07,139.929 L2702.99,139.929 C2699.57,139.929 2698.43,139.749 2697.95,139.149 C2697.59,138.549 2697.59,138.429 2697.59,135.429 L2697.59,121.749 M2697.59,118.929 L2697.59,105.729 C2697.47,102.429 2697.77,102.189 2701.73,102.249 L2704.97,102.249 C2710.91,102.249 2713.61,104.769 2713.61,110.229 C2713.61,116.529 2710.25,118.929 2704.19,118.929 L2697.59,118.929 "/>
<path class="StaffText" d="M1194.3,136.869 L1197.78,136.869 C1203.84,137.109 1206.24,139.569 1206.9,146.169 L1207.2,149.229 C1207.92,156.009 1210.14,158.769 1214.88,158.769 C1219.8,158.769 1222.14,155.469 1222.32,148.269 L1219.8,148.269 C1219.56,152.409 1218.84,154.209 1217.22,154.209 C1215.84,154.209 1215.24,153.189 1214.22,149.049 L1213.26,145.269 C1211.94,139.749 1209.6,137.229 1204.92,136.029 C1213.56,134.829 1217.7,131.349 1217.7,125.289 C1217.7,118.449 1211.94,114.549 1201.86,114.549 L1181.1,114.549 L1181.1,117.369 L1182.18,117.369 C1185.6,117.429 1186.74,117.609 1187.22,118.209 C1187.58,118.749 1187.58,118.869 1187.58,121.929 L1187.58,150.549 C1187.58,153.549 1187.58,153.669 1187.22,154.269 C1186.74,154.869 1185.6,155.049 1182.18,155.049 L1181.1,155.049 L1181.1,157.869 L1200.78,157.869 L1200.78,155.049 L1199.7,155.049 C1196.28,155.049 1195.14,154.869 1194.66,154.269 C1194.3,153.669 1194.3,153.549 1194.3,150.549 L1194.3,136.869 M1194.3,134.049 L1194.3,120.849 C1194.18,117.549 1194.48,117.309 1198.44,117.369 L1201.68,117.369 C1207.62,117.369 1210.32,119.889 1210.32,125.349 C1210.32,131.649 1206.96,134.049 1200.9,134.049 L1194.3,134.049 "/>
<path class="StaffText" d="M220.943,160.44 L224.423,160.44 C230.483,160.68 232.883,163.14 233.543,169.74 L233.843,172.8 C234.563,179.58 236.783,182.34 241.523,182.34 C246.443,182.34 248.783,179.04 248.963,171.84 L246.443,171.84 C246.203,175.98 245.483,177.78 243.863,177.78 C242.483,177.78 241.883,176.76 240.863,172.62 L239.903,168.84 C238.583,163.32 236.243,160.8 231.563,159.6 C240.203,158.4 244.343,154.92 244.343,148.86 C244.343,142.02 238.583,138.12 228.503,138.12 L207.743,138.12 L207.743,140.94 L208.823,140.94 C212.243,141 213.383,141.18 213.863,141.78 C214.223,142.32 214.223,142.44 214.223,145.5 L214.223,174.12 C214.223,177.12 214.223,177.24 213.863,177.84 C213.383,178.44 212.243,178.62 208.823,178.62 L207.743,178.62 L207.743,181.44 L227.423,181.44 L227.423,178.62 L226.343,178.62 C222.923,178.62 221.783,178.44 221.303,177.84 C220.943,177.24 220.943,177.12 220.943,174.12 L220.943,160.44 M220.943,157.62 L220.943,144.42 C220.823,141.12 221.123,140.88 225.083,140.94 L228.323,140.94 C234.263,140.94 236.963,143.46 236.963,148.92 C236.963,155.22 233.603,157.62 227.543,157.62 L220.943,157.62 "/>
<path class="StaffText" d="M2113.57,160.44 L2117.05,160.44 C2123.11,160.68 2125.51,163.14 2126.17,169.74 L2126.47,172.8 C2127.19,179.58 2129.41,182.34 2134.15,182.34 C2139.07,182.34 2141.41,179.04 2141.59,171.84 L2139.07,171.84 C2138.83,175.98 2138.11,177.78 2136.49,177.78 C2135.11,177.78 2134.51,176.76 2133.49,172.62 L2132.53,168.84 C2131.21,163.32 2128.87,160.8 2124.19,159.6 C2132.83,158.4 2136.97,154.92 2136.97,148.86 C2136.97,142.02 2131.21,138.12 2121.13,138.12 L2100.37,138.12 L2100.37,140.94 L2101.45,140.94 C2104.87,141 2106.01,141.18 2106.49,141.78 C2106.85,142.32 2106.85,142.44 2106.85,145.5 L2106.85,174.12 C2106.85,177.12 2106.85,177.24 2106.49,177.84 C2106.01,178.44 2104.87,178.62 2101.45,178.62 L2100.37,178.62 L2100.37,181.44 L2120.05,181.44 L2120.05,178.62 L2118.97,178.62 C2115.55,178.62 2114.41,178.44 2113.93,177.84 C2113.57,177.24 2113.57,177.12 2113.57,174.12 L2113.57,160.44 M2113.57,157.62 L2113.57,144.42 C2113.45,141.12 2113.75,140.88 2117.71,140.94 L2120.95,140.94 C2126.89,140.94 2129.59,143.46 2129.59,148.92 C2129.59,155.22 2126.23,157.62 2120.17,157.62 L2113.57,157.62 "/>
<path class="StaffText" d="M2850.82,127.2 L2848.18,127.2 C2846.2,138 2843.5,140.64 2834.2,140.82 L2831.68,140.82 C2828.08,140.7 2827.18,140.1 2827.36,137.94 L2827.36,107.7 C2827.36,104.7 2827.36,104.52 2827.72,103.98 C2828.2,103.38 2829.34,103.2 2832.76,103.14 L2833.84,103.14 L2833.84,100.32 L2814.16,100.32 L2814.16,103.14 L2815.24,103.14 C2818.66,103.2 2819.8,103.38 2820.28,103.98 C2820.64,104.52 2820.64,104.64 2820.64,107.7 L2820.64,136.26 C2820.64,139.32 2820.64,139.44 2820.28,139.98 C2819.8,140.58 2818.66,140.82 2815.24,140.82 L2814.16,140.82 L2814.16,143.64 L2849.56,143.64 L2850.82,127.2 "/>
<path class="StaffText" d="M1529.55,160.44 L1533.03,160.44 C1539.09,160.68 1541.49,163.14 1542.15,169.74 L1542.45,172.8 C1543.17,179.58 1545.39,182.34 1550.13,182.34 C1555.05,182.34 1557.39,179.04 1557.57,171.84 L1555.05,171.84 C1554.81,175.98 1554.09,177.78 1552.47,177.78 C1551.09,177.78 1550.49,176.76 1549.47,172.62 L1548.51,168.84 C1547.19,163.32 1544.85,160.8 1540.17,159.6 C1548.81,158.4 1552.95,154.92 1552.95,148.86 C1552.95,142.02 1547.19,138.12 1537.11,138.12 L1516.35,138.12 L1516.35,140.94 L1517.43,140.94 C1520.85,141 1521.99,141.18 1522.47,141.78 C1522.83,142.32 1522.83,142.44 1522.83,145.5 L1522.83,174.12 C1522.83,177.12 1522.83,177.24 1522.47,177.84 C1521.99,178.44 1520.85,178.62 1517.43,178.62 L1516.35,178.62 L1516.35,181.44 L1536.03,181.44 L1536.03,178.62 L1534.95,178.62 C1531.53,178.62 1530.39,178.44 1529.91,177.84 C1529.55,177.24 1529.55,177.12 1529.55,174.12 L1529.55,160.44 M1529.55,157.62 L1529.55,144.42 C1529.43,141.12 1529.73,140.88 1533.69,140.94 L1536.93,140.94 C1542.87,140.94 1545.57,143.46 1545.57,148.92 C1545.57,155.22 1542.21,157.62 1536.15,157.62 L1529.55,157.62 "/>
</svg>
