<?xml version="1.0" encoding="UTF-8" standalone="no"?>
<svg width="2977.2px" height="540px" viewBox="0 0 2977.2 540"
 xmlns="http://www.w3.org/2000/svg" xmlns:xlink="http://www.w3.org/1999/xlink" version="1.2" baseProfile="tiny">
<title>fills_2_4_selection</title>
<desc>Generated by MuseScore Studio 4.4.4</desc>
<path class="" fill="#ffffff" fill-rule="evenodd" d="M0,0 L2977.2,0 L2977.2,540 L0,540 L0,0 "/>
<polyline class="StaffLines" fill="none" stroke="#000000" stroke-width="3.33" stroke-linejoin="bevel" points="0,211.68 2977.2,211.68"/>
<polyline class="StaffLines" fill="none" stroke="#000000" stroke-width="3.33" stroke-linejoin="bevel" points="0,241.92 2977.2,241.92"/>
<polyline class="StaffLines" fill="none" stroke="#000000" stroke-width="3.33" stroke-linejoin="bevel" points="0,272.16 2977.2,272.16"/>
<polyline class="StaffLines" fill="none" stroke="#000000" stroke-width="3.33" stroke-linejoin="bevel" points="0,302.4 2977.2,302.4"/>
<polyline class="StaffLines" fill="none" stroke="#000000" stroke-width="3.33" stroke-linejoin="bevel" points="0,332.64 2977.2,332.64"/>
<polyline class="BarLine" fill="none" stroke="#000000" stroke-width="16.63" stroke-linejoin="bevel" points="626.758,210.017 626.758,334.303"/>
<polyline class="BarLine" fill="none" stroke="#000000" stroke-width="5.44" stroke-linejoin="bevel" points="2946.66,210.017 2946.66,334.303"/>
<polyline class="BarLine" fill="none" stroke="#000000" stroke-width="16.63" stroke-linejoin="bevel" points="2968.88,210.017 2968.88,334.303"/>
<polyline class="BarLine" fill="none" stroke="#000000" stroke-width="16.63" stroke-linejoin="bevel" points="2487.11,210.017 2487.11,334.303"/>
<polyline class="BarLine" fill="none" stroke="#000000" stroke-width="16.63" stroke-linejoin="bevel" points="2022.08,210.017 2022.08,334.303"/>
<polyline class="BarLine" fill="none" stroke="#000000" stroke-width="16.63" stroke-linejoin="bevel" points="1556.93,210.017 1556.93,334.303"/>
<polyline class="BarLine" fill="none" stroke="#000000" stroke-width="16.63" stroke-linejoin="bevel" points="1091.9,210.017 1091.9,334.303"/>
<polyline class="Stem" fill="none" stroke="#000000" stroke-width="3.02" stroke-linejoin="bevel" points="1483.72,252.202 1483.72,166.32"/>
<polyline class="Stem" fill="none" stroke="#000000" stroke-width="3.02" stroke-linejoin="bevel" points="710.655,252.202 710.655,166.32"/>
<polyline class="Stem" fill="none" stroke="#000000" stroke-width="3.02" stroke-linejoin="bevel" points="1381.04,252.202 1381.04,166.32"/>
<polyline class="Stem" fill="none" stroke="#000000" stroke-width="3.02" stroke-linejoin="bevel" points="450.867,252.202 450.867,158.881"/>
<polyline class="Stem" fill="none" stroke="#000000" stroke-width="3.02" stroke-linejoin="bevel" points="2208.54,252.202 2208.54,166.32"/>
<polyline class="Stem" fill="none" stroke="#000000" stroke-width="3.02" stroke-linejoin="bevel" points="2879.04,252.202 2879.04,158.881"/>
<polyline class="Stem" fill="none" stroke="#000000" stroke-width="3.02" stroke-linejoin="bevel" points="245.511,252.202 245.511,158.881"/>
<polyline class="Stem" fill="none" stroke="#000000" stroke-width="3.02" stroke-linejoin="bevel" points="1640.83,252.202 1640.83,158.881"/>
<polyline class="Stem" fill="none" stroke="#000000" stroke-width="3.02" stroke-linejoin="bevel" points="1948.86,252.202 1948.86,158.881"/>
<polyline class="Stem" fill="none" stroke="#000000" stroke-width="3.02" stroke-linejoin="bevel" points="813.333,252.202 813.333,166.32"/>
<polyline class="Stem" fill="none" stroke="#000000" stroke-width="3.02" stroke-linejoin="bevel" points="2673.68,252.202 2673.68,158.881"/>
<polyline class="Stem" fill="none" stroke="#000000" stroke-width="3.02" stroke-linejoin="bevel" points="2311.22,252.202 2311.22,166.32"/>
<path class="Hook" transform="matrix(1.2096,0,0,1.2096,2672.17,158.76)" d="M0,38.1 C0,38.4 0.8,38.8 1.5,39.1 C4.1,40 11.9,45 17.9,53.9 C21.3,59 22.1,62.6 22.1,66 C22.1,66.6 22.1,67.1 22,67.7 C22,70.1 21.3,75.2 19.8,79.2 C19.7,79.7 19.4,80.3 19.4,80.8 C19.4,81.2 19.6,81.6 20.1,81.9 C20.3,82 20.5,82 20.6,82 C21.3,82 21.7,81.2 22.1,80.6 C23.9,77.8 26.5,72.4 26.5,66.8 C26.5,63.9 26.3,61.5 26,59.4 C27.1,55.7 27.9,52 27.9,47.1 C27.9,41.9 26.5,37.2 23.1,32.7 C18.4,26.5 13.3,21.4 9.5,15.8 C5.7,10.3 2.9,0 2.9,0 C2.7,-0.7 2.6,-1.2 1.5,-1.2 C0.3,-1.2 0,-0.7 0,0 L0,38.1 M20.9,47.3 C18.2,43.8 15.2,40.6 10.3,35.7 C6.4,31.8 4.6,28.4 4,25.8 C3.8,25.3 3.7,24.6 3.6,23.8 C8.7,23.9 15.2,30.7 18.8,35.4 C22.7,40.5 23.6,44.6 23.6,48.3 C23.6,49.3 23.5,50.3 23.4,51.3 C22.6,49.7 21.7,48.4 20.9,47.3"/>
<path class="Hook" transform="matrix(1.2096,0,0,1.2096,1639.32,158.76)" d="M0,38.1 C0,38.4 0.8,38.8 1.5,39.1 C4.1,40 11.9,45 17.9,53.9 C21.3,59 22.1,62.6 22.1,66 C22.1,66.6 22.1,67.1 22,67.7 C22,70.1 21.3,75.2 19.8,79.2 C19.7,79.7 19.4,80.3 19.4,80.8 C19.4,81.2 19.6,81.6 20.1,81.9 C20.3,82 20.5,82 20.6,82 C21.3,82 21.7,81.2 22.1,80.6 C23.9,77.8 26.5,72.4 26.5,66.8 C26.5,63.9 26.3,61.5 26,59.4 C27.1,55.7 27.9,52 27.9,47.1 C27.9,41.9 26.5,37.2 23.1,32.7 C18.4,26.5 13.3,21.4 9.5,15.8 C5.7,10.3 2.9,0 2.9,0 C2.7,-0.7 2.6,-1.2 1.5,-1.2 C0.3,-1.2 0,-0.7 0,0 L0,38.1 M20.9,47.3 C18.2,43.8 15.2,40.6 10.3,35.7 C6.4,31.8 4.6,28.4 4,25.8 C3.8,25.3 3.7,24.6 3.6,23.8 C8.7,23.9 15.2,30.7 18.8,35.4 C22.7,40.5 23.6,44.6 23.6,48.3 C23.6,49.3 23.5,50.3 23.4,51.3 C22.6,49.7 21.7,48.4 20.9,47.3"/>
<path class="Hook" transform="matrix(1.2096,0,0,1.2096,1947.35,158.76)" d="M0,38.1 C0,38.4 0.8,38.8 1.5,39.1 C4.1,40 11.9,45 17.9,53.9 C21.3,59 22.1,62.6 22.1,66 C22.1,66.6 22.1,67.1 22,67.7 C22,70.1 21.3,75.2 19.8,79.2 C19.7,79.7 19.4,80.3 19.4,80.8 C19.4,81.2 19.6,81.6 20.1,81.9 C20.3,82 20.5,82 20.6,82 C21.3,82 21.7,81.2 22.1,80.6 C23.9,77.8 26.5,72.4 26.5,66.8 C26.5,63.9 26.3,61.5 26,59.4 C27.1,55.7 27.9,52 27.9,47.1 C27.9,41.9 26.5,37.2 23.1,32.7 C18.4,26.5 13.3,21.4 9.5,15.8 C5.7,10.3 2.9,0 2.9,0 C2.7,-0.7 2.6,-1.2 1.5,-1.2 C0.3,-1.2 0,-0.7 0,0 L0,38.1 M20.9,47.3 C18.2,43.8 15.2,40.6 10.3,35.7 C6.4,31.8 4.6,28.4 4,25.8 C3.8,25.3 3.7,24.6 3.6,23.8 C8.7,23.9 15.2,30.7 18.8,35.4 C22.7,40.5 23.6,44.6 23.6,48.3 C23.6,49.3 23.5,50.3 23.4,51.3 C22.6,49.7 21.7,48.4 20.9,47.3"/>
<path class="Hook" transform="matrix(1.2096,0,0,1.2096,2877.53,158.76)" d="M0,38.1 C0,38.4 0.8,38.8 1.5,39.1 C4.1,40 11.9,45 17.9,53.9 C21.3,59 22.1,62.6 22.1,66 C22.1,66.6 22.1,67.1 22,67.7 C22,70.1 21.3,75.2 19.8,79.2 C19.7,79.7 19.4,80.3 19.4,80.8 C19.4,81.2 19.6,81.6 20.1,81.9 C20.3,82 20.5,82 20.6,82 C21.3,82 21.7,81.2 22.1,80.6 C23.9,77.8 26.5,72.4 26.5,66.8 C26.5,63.9 26.3,61.5 26,59.4 C27.1,55.7 27.9,52 27.9,47.1 C27.9,41.9 26.5,37.2 23.1,32.7 C18.4,26.5 13.3,21.4 9.5,15.8 C5.7,10.3 2.9,0 2.9,0 C2.7,-0.7 2.6,-1.2 1.5,-1.2 C0.3,-1.2 0,-0.7 0,0 L0,38.1 M20.9,47.3 C18.2,43.8 15.2,40.6 10.3,35.7 C6.4,31.8 4.6,28.4 4,25.8 C3.8,25.3 3.7,24.6 3.6,23.8 C8.7,23.9 15.2,30.7 18.8,35.4 C22.7,40.5 23.6,44.6 23.6,48.3 C23.6,49.3 23.5,50.3 23.4,51.3 C22.6,49.7 21.7,48.4 20.9,47.3"/>
<path class="Hook" transform="matrix(1.2096,0,0,1.2096,243.999,158.76)" d="M0,38.1 C0,38.4 0.8,38.8 1.5,39.1 C4.1,40 11.9,45 17.9,53.9 C21.3,59 22.1,62.6 22.1,66 C22.1,66.6 22.1,67.1 22,67.7 C22,70.1 21.3,75.2 19.8,79.2 C19.7,79.7 19.4,80.3 19.4,80.8 C19.4,81.2 19.6,81.6 20.1,81.9 C20.3,82 20.5,82 20.6,82 C21.3,82 21.7,81.2 22.1,80.6 C23.9,77.8 26.5,72.4 26.5,66.8 C26.5,63.9 26.3,61.5 26,59.4 C27.1,55.7 27.9,52 27.9,47.1 C27.9,41.9 26.5,37.2 23.1,32.7 C18.4,26.5 13.3,21.4 9.5,15.8 C5.7,10.3 2.9,0 2.9,0 C2.7,-0.7 2.6,-1.2 1.5,-1.2 C0.3,-1.2 0,-0.7 0,0 L0,38.1 M20.9,47.3 C18.2,43.8 15.2,40.6 10.3,35.7 C6.4,31.8 4.6,28.4 4,25.8 C3.8,25.3 3.7,24.6 3.6,23.8 C8.7,23.9 15.2,30.7 18.8,35.4 C22.7,40.5 23.6,44.6 23.6,48.3 C23.6,49.3 23.5,50.3 23.4,51.3 C22.6,49.7 21.7,48.4 20.9,47.3"/>
<path class="Hook" transform="matrix(1.2096,0,0,1.2096,449.355,158.76)" d="M0,38.1 C0,38.4 0.8,38.8 1.5,39.1 C4.1,40 11.9,45 17.9,53.9 C21.3,59 22.1,62.6 22.1,66 C22.1,66.6 22.1,67.1 22,67.7 C22,70.1 21.3,75.2 19.8,79.2 C19.7,79.7 19.4,80.3 19.4,80.8 C19.4,81.2 19.6,81.6 20.1,81.9 C20.3,82 20.5,82 20.6,82 C21.3,82 21.7,81.2 22.1,80.6 C23.9,77.8 26.5,72.4 26.5,66.8 C26.5,63.9 26.3,61.5 26,59.4 C27.1,55.7 27.9,52 27.9,47.1 C27.9,41.9 26.5,37.2 23.1,32.7 C18.4,26.5 13.3,21.4 9.5,15.8 C5.7,10.3 2.9,0 2.9,0 C2.7,-0.7 2.6,-1.2 1.5,-1.2 C0.3,-1.2 0,-0.7 0,0 L0,38.1 M20.9,47.3 C18.2,43.8 15.2,40.6 10.3,35.7 C6.4,31.8 4.6,28.4 4,25.8 C3.8,25.3 3.7,24.6 3.6,23.8 C8.7,23.9 15.2,30.7 18.8,35.4 C22.7,40.5 23.6,44.6 23.6,48.3 C23.6,49.3 23.5,50.3 23.4,51.3 C22.6,49.7 21.7,48.4 20.9,47.3"/>
<path class="Note" transform="matrix(1.2096,0,0,1.2096,672.874,257.04)" d="M0,4.2 C0,8.5 3.1,13.3 11.2,13.3 C21.6,13.3 32.5,4.8 32.5,-4 C32.5,-9.9 27.5,-13.2 21.3,-13.2 C11.6,-13.2 0,-5 0,4.2"/>
<path class="Note" transform="matrix(1.2096,0,0,1.2096,1603.05,257.04)" d="M0,4.2 C0,8.5 3.1,13.3 11.2,13.3 C21.6,13.3 32.5,4.8 32.5,-4 C32.5,-9.9 27.5,-13.2 21.3,-13.2 C11.6,-13.2 0,-5 0,4.2"/>
<path class="Note" transform="matrix(1.2096,0,0,1.2096,2635.9,257.04)" d="M0,4.2 C0,8.5 3.1,13.3 11.2,13.3 C21.6,13.3 32.5,4.8 32.5,-4 C32.5,-9.9 27.5,-13.2 21.3,-13.2 C11.6,-13.2 0,-5 0,4.2"/>
<path class="Note" transform="matrix(1.2096,0,0,1.2096,2841.26,257.04)" d="M0,4.2 C0,8.5 3.1,13.3 11.2,13.3 C21.6,13.3 32.5,4.8 32.5,-4 C32.5,-9.9 27.5,-13.2 21.3,-13.2 C11.6,-13.2 0,-5 0,4.2"/>
<path class="Note" transform="matrix(1.2096,0,0,1.2096,207.73,257.04)" d="M0,4.2 C0,8.5 3.1,13.3 11.2,13.3 C21.6,13.3 32.5,4.8 32.5,-4 C32.5,-9.9 27.5,-13.2 21.3,-13.2 C11.6,-13.2 0,-5 0,4.2"/>
<path class="Note" transform="matrix(1.2096,0,0,1.2096,1911.08,257.04)" d="M0,4.2 C0,8.5 3.1,13.3 11.2,13.3 C21.6,13.3 32.5,4.8 32.5,-4 C32.5,-9.9 27.5,-13.2 21.3,-13.2 C11.6,-13.2 0,-5 0,4.2"/>
<path class="Note" transform="matrix(1.2096,0,0,1.2096,413.086,257.04)" d="M0,4.2 C0,8.5 3.1,13.3 11.2,13.3 C21.6,13.3 32.5,4.8 32.5,-4 C32.5,-9.9 27.5,-13.2 21.3,-13.2 C11.6,-13.2 0,-5 0,4.2"/>
<path class="Note" transform="matrix(1.2096,0,0,1.2096,2273.44,257.04)" d="M0,4.2 C0,8.5 3.1,13.3 11.2,13.3 C21.6,13.3 32.5,4.8 32.5,-4 C32.5,-9.9 27.5,-13.2 21.3,-13.2 C11.6,-13.2 0,-5 0,4.2"/>
<path class="Note" transform="matrix(1.2096,0,0,1.2096,2170.76,257.04)" d="M0,4.2 C0,8.5 3.1,13.3 11.2,13.3 C21.6,13.3 32.5,4.8 32.5,-4 C32.5,-9.9 27.5,-13.2 21.3,-13.2 C11.6,-13.2 0,-5 0,4.2"/>
<path class="Note" transform="matrix(1.2096,0,0,1.2096,1343.26,257.04)" d="M0,4.2 C0,8.5 3.1,13.3 11.2,13.3 C21.6,13.3 32.5,4.8 32.5,-4 C32.5,-9.9 27.5,-13.2 21.3,-13.2 C11.6,-13.2 0,-5 0,4.2"/>
<path class="Note" transform="matrix(1.2096,0,0,1.2096,1445.94,257.04)" d="M0,4.2 C0,8.5 3.1,13.3 11.2,13.3 C21.6,13.3 32.5,4.8 32.5,-4 C32.5,-9.9 27.5,-13.2 21.3,-13.2 C11.6,-13.2 0,-5 0,4.2"/>
<path class="Note" transform="matrix(1.2096,0,0,1.2096,775.552,257.04)" d="M0,4.2 C0,8.5 3.1,13.3 11.2,13.3 C21.6,13.3 32.5,4.8 32.5,-4 C32.5,-9.9 27.5,-13.2 21.3,-13.2 C11.6,-13.2 0,-5 0,4.2"/>
<path class="Clef" transform="matrix(1.2096,0,0,1.2096,22.68,272.16)" d="M1.3,-25.2 C0.6,-25.2 0,-24.6 0,-23.9 L0,23.9 C0,24.6 0.6,25.2 1.3,25.2 L12.3,25.2 C13,25.2 13.6,24.6 13.6,23.9 L13.6,-23.9 C13.6,-24.6 13,-25.2 12.3,-25.2 L1.3,-25.2 M22.9,-25.2 C22.2,-25.2 21.6,-24.6 21.6,-23.9 L21.6,23.9 C21.6,24.6 22.2,25.2 22.9,25.2 L33.9,25.2 C34.6,25.2 35.2,24.6 35.2,23.9 L35.2,-23.9 C35.2,-24.6 34.6,-25.2 33.9,-25.2 L22.9,-25.2 "/>
<path class="TimeSig" transform="matrix(1.2096,0,0,1.2096,100.246,242.525)" d="M24.9,19.7 L24.9,-23.3 C24.9,-24 24.4,-24.5 23.7,-24.5 L13.8,-24.5 C13.6,-24.5 13.4,-24.4 13.2,-24.3 C13.1,-24.2 12.9,-24 12.8,-23.9 L1.6,-4.5 C1.5,-4.3 1.5,-4.1 1.5,-3.9 C1.5,-3.5 1.8,-3.1 2.1,-2.9 L4,-1.8 C4.2,-1.7 4.4,-1.6 4.6,-1.6 C5,-1.6 5.4,-1.9 5.6,-2.2 L12.7,-14.4 L12.7,19.7 L5.1,19.7 C4.4,19.7 3.9,20.2 3.9,20.9 L3.9,23.1 C3.9,23.8 4.4,24.3 5.1,24.3 L32.5,24.3 C33.2,24.3 33.6,23.8 33.6,23.1 L33.6,20.9 C33.6,20.2 33.2,19.7 32.5,19.7 L24.9,19.7 "/>
<path class="TimeSig" transform="matrix(1.2096,0,0,1.2096,93.8007,302.4)" d="M20.8,12.7 L20.8,20.1 L12.5,20.1 C11.8,20.1 11.1,20.7 11.1,21.5 L11.1,23.4 C11.1,24.2 11.8,24.8 12.5,24.8 L42.8,24.8 C43.6,24.8 44.2,24.2 44.2,23.4 L44.2,21.5 C44.2,20.7 43.6,20.1 42.8,20.1 L33.9,20.1 L33.9,12.7 L42.8,12.7 C43.6,12.7 44.2,12 44.2,11.2 L44.2,9.3 C44.2,8.6 43.6,7.9 42.8,7.9 L33.9,7.9 L33.9,-8 C33.9,-8.6 33.6,-9.1 33.1,-9.3 L31.9,-9.9 C31.7,-10 31.4,-10.1 31.2,-10.1 C30.9,-10 30.5,-9.9 30.3,-9.7 L21.2,-1.4 C20.9,-1.1 20.8,-0.7 20.8,-0.3 L20.8,7.9 L9.3,7.9 C9.3,7.9 20.4,-4.1 32.2,-19.9 C32.6,-20.4 32.7,-20.9 32.7,-21.3 C32.7,-21.8 32.5,-22.2 32.4,-22.3 L30.2,-24.5 C30,-24.7 29.6,-24.9 29.2,-24.9 C28.6,-24.9 15.1,-24.9 14.4,-24.9 C13.6,-24.9 13.1,-24.3 13,-23.7 C13,-23.7 12.5,-16.3 9.9,-8.2 C7.3,-0.1 4.3,4.9 1.7,8.6 C1.7,8.6 1.4,9.1 1.4,9.7 C1.4,9.9 1.4,10.1 1.5,10.3 C1.9,11 2.5,12.1 2.5,12.1 C2.5,12.1 2.7,12.7 3.6,12.7 L20.8,12.7 "/>
<path class="Rest" transform="matrix(1.2096,0,0,1.2096,980.908,272.16)" d="M34.3,-18.6 C34.4,-18.8 34.4,-18.9 34.4,-19.1 C34.4,-19.6 34.1,-20.1 33.5,-20.3 C33.3,-20.4 33.1,-20.4 33,-20.4 C32.4,-20.4 32,-20.1 31.7,-19.6 C29.3,-14.8 25.3,-9.4 19.8,-8 C21,-9.4 21.5,-11 21.5,-12.8 C21.5,-16.7 18,-19.7 14.1,-19.7 C10.2,-19.5 7.2,-16.2 7.2,-12.3 C7.4,-6.7 12.8,-4.8 17.5,-4.8 C22.5,-5 26.4,-7.5 29.4,-11.4 L24.9,4.5 C23.5,9.3 17.8,15.7 12.7,17 C13.8,15.6 14.4,13.9 14.4,12.2 C14.4,8.2 11,5.3 7.1,5.3 C3.1,5.3 0.1,8.7 0.1,12.7 C0.1,15.7 2.2,18.2 4.8,19.1 C6.7,19.9 8.4,20.1 10.4,20.1 C15.4,20 19.3,17.4 22.3,13.5 L12.1,50 L14.8,50.7 L34.3,-18.6 "/>
<path class="Rest" transform="matrix(1.2096,0,0,1.2096,1240.58,272.16)" d="M34.3,-18.6 C34.4,-18.8 34.4,-18.9 34.4,-19.1 C34.4,-19.6 34.1,-20.1 33.5,-20.3 C33.3,-20.4 33.1,-20.4 33,-20.4 C32.4,-20.4 32,-20.1 31.7,-19.6 C29.3,-14.8 25.3,-9.4 19.8,-8 C21,-9.4 21.5,-11 21.5,-12.8 C21.5,-16.7 18,-19.7 14.1,-19.7 C10.2,-19.5 7.2,-16.2 7.2,-12.3 C7.4,-6.7 12.8,-4.8 17.5,-4.8 C22.5,-5 26.4,-7.5 29.4,-11.4 L24.9,4.5 C23.5,9.3 17.8,15.7 12.7,17 C13.8,15.6 14.4,13.9 14.4,12.2 C14.4,8.2 11,5.3 7.1,5.3 C3.1,5.3 0.1,8.7 0.1,12.7 C0.1,15.7 2.2,18.2 4.8,19.1 C6.7,19.9 8.4,20.1 10.4,20.1 C15.4,20 19.3,17.4 22.3,13.5 L12.1,50 L14.8,50.7 L34.3,-18.6 "/>
<path class="Rest" transform="matrix(1.2096,0,0,1.2096,1137.9,272.16)" d="M34.3,-18.6 C34.4,-18.8 34.4,-18.9 34.4,-19.1 C34.4,-19.6 34.1,-20.1 33.5,-20.3 C33.3,-20.4 33.1,-20.4 33,-20.4 C32.4,-20.4 32,-20.1 31.7,-19.6 C29.3,-14.8 25.3,-9.4 19.8,-8 C21,-9.4 21.5,-11 21.5,-12.8 C21.5,-16.7 18,-19.7 14.1,-19.7 C10.2,-19.5 7.2,-16.2 7.2,-12.3 C7.4,-6.7 12.8,-4.8 17.5,-4.8 C22.5,-5 26.4,-7.5 29.4,-11.4 L24.9,4.5 C23.5,9.3 17.8,15.7 12.7,17 C13.8,15.6 14.4,13.9 14.4,12.2 C14.4,8.2 11,5.3 7.1,5.3 C3.1,5.3 0.1,8.7 0.1,12.7 C0.1,15.7 2.2,18.2 4.8,19.1 C6.7,19.9 8.4,20.1 10.4,20.1 C15.4,20 19.3,17.4 22.3,13.5 L12.1,50 L14.8,50.7 L34.3,-18.6 "/>
<path class="Rest" transform="matrix(1.2096,0,0,1.2096,2376.11,272.16)" d="M34.3,-18.6 C34.4,-18.8 34.4,-18.9 34.4,-19.1 C34.4,-19.6 34.1,-20.1 33.5,-20.3 C33.3,-20.4 33.1,-20.4 33,-20.4 C32.4,-20.4 32,-20.1 31.7,-19.6 C29.3,-14.8 25.3,-9.4 19.8,-8 C21,-9.4 21.5,-11 21.5,-12.8 C21.5,-16.7 18,-19.7 14.1,-19.7 C10.2,-19.5 7.2,-16.2 7.2,-12.3 C7.4,-6.7 12.8,-4.8 17.5,-4.8 C22.5,-5 26.4,-7.5 29.4,-11.4 L24.9,4.5 C23.5,9.3 17.8,15.7 12.7,17 C13.8,15.6 14.4,13.9 14.4,12.2 C14.4,8.2 11,5.3 7.1,5.3 C3.1,5.3 0.1,8.7 0.1,12.7 C0.1,15.7 2.2,18.2 4.8,19.1 C6.7,19.9 8.4,20.1 10.4,20.1 C15.4,20 19.3,17.4 22.3,13.5 L12.1,50 L14.8,50.7 L34.3,-18.6 "/>
<path class="Rest" transform="matrix(1.2096,0,0,1.2096,878.23,272.16)" d="M34.3,-18.6 C34.4,-18.8 34.4,-18.9 34.4,-19.1 C34.4,-19.6 34.1,-20.1 33.5,-20.3 C33.3,-20.4 33.1,-20.4 33,-20.4 C32.4,-20.4 32,-20.1 31.7,-19.6 C29.3,-14.8 25.3,-9.4 19.8,-8 C21,-9.4 21.5,-11 21.5,-12.8 C21.5,-16.7 18,-19.7 14.1,-19.7 C10.2,-19.5 7.2,-16.2 7.2,-12.3 C7.4,-6.7 12.8,-4.8 17.5,-4.8 C22.5,-5 26.4,-7.5 29.4,-11.4 L24.9,4.5 C23.5,9.3 17.8,15.7 12.7,17 C13.8,15.6 14.4,13.9 14.4,12.2 C14.4,8.2 11,5.3 7.1,5.3 C3.1,5.3 0.1,8.7 0.1,12.7 C0.1,15.7 2.2,18.2 4.8,19.1 C6.7,19.9 8.4,20.1 10.4,20.1 C15.4,20 19.3,17.4 22.3,13.5 L12.1,50 L14.8,50.7 L34.3,-18.6 "/>
<path class="Rest" transform="matrix(1.2096,0,0,1.2096,2533.22,272.16)" d="M34.3,-18.6 C34.4,-18.8 34.4,-18.9 34.4,-19.1 C34.4,-19.6 34.1,-20.1 33.5,-20.3 C33.3,-20.4 33.1,-20.4 33,-20.4 C32.4,-20.4 32,-20.1 31.7,-19.6 C29.3,-14.8 25.3,-9.4 19.8,-8 C21,-9.4 21.5,-11 21.5,-12.8 C21.5,-16.7 18,-19.7 14.1,-19.7 C10.2,-19.5 7.2,-16.2 7.2,-12.3 C7.4,-6.7 12.8,-4.8 17.5,-4.8 C22.5,-5 26.4,-7.5 29.4,-11.4 L24.9,4.5 C23.5,9.3 17.8,15.7 12.7,17 C13.8,15.6 14.4,13.9 14.4,12.2 C14.4,8.2 11,5.3 7.1,5.3 C3.1,5.3 0.1,8.7 0.1,12.7 C0.1,15.7 2.2,18.2 4.8,19.1 C6.7,19.9 8.4,20.1 10.4,20.1 C15.4,20 19.3,17.4 22.3,13.5 L12.1,50 L14.8,50.7 L34.3,-18.6 "/>
<path class="Rest" transform="matrix(1.2096,0,0,1.2096,2068.08,272.16)" d="M34.3,-18.6 C34.4,-18.8 34.4,-18.9 34.4,-19.1 C34.4,-19.6 34.1,-20.1 33.5,-20.3 C33.3,-20.4 33.1,-20.4 33,-20.4 C32.4,-20.4 32,-20.1 31.7,-19.6 C29.3,-14.8 25.3,-9.4 19.8,-8 C21,-9.4 21.5,-11 21.5,-12.8 C21.5,-16.7 18,-19.7 14.1,-19.7 C10.2,-19.5 7.2,-16.2 7.2,-12.3 C7.4,-6.7 12.8,-4.8 17.5,-4.8 C22.5,-5 26.4,-7.5 29.4,-11.4 L24.9,4.5 C23.5,9.3 17.8,15.7 12.7,17 C13.8,15.6 14.4,13.9 14.4,12.2 C14.4,8.2 11,5.3 7.1,5.3 C3.1,5.3 0.1,8.7 0.1,12.7 C0.1,15.7 2.2,18.2 4.8,19.1 C6.7,19.9 8.4,20.1 10.4,20.1 C15.4,20 19.3,17.4 22.3,13.5 L12.1,50 L14.8,50.7 L34.3,-18.6 "/>
<path class="Rest" transform="matrix(1.2096,0,0,1.2096,515.764,272.16)" d="M34.3,-18.6 C34.4,-18.8 34.4,-18.9 34.4,-19.1 C34.4,-19.6 34.1,-20.1 33.5,-20.3 C33.3,-20.4 33.1,-20.4 33,-20.4 C32.4,-20.4 32,-20.1 31.7,-19.6 C29.3,-14.8 25.3,-9.4 19.8,-8 C21,-9.4 21.5,-11 21.5,-12.8 C21.5,-16.7 18,-19.7 14.1,-19.7 C10.2,-19.5 7.2,-16.2 7.2,-12.3 C7.4,-6.7 12.8,-4.8 17.5,-4.8 C22.5,-5 26.4,-7.5 29.4,-11.4 L24.9,4.5 C23.5,9.3 17.8,15.7 12.7,17 C13.8,15.6 14.4,13.9 14.4,12.2 C14.4,8.2 11,5.3 7.1,5.3 C3.1,5.3 0.1,8.7 0.1,12.7 C0.1,15.7 2.2,18.2 4.8,19.1 C6.7,19.9 8.4,20.1 10.4,20.1 C15.4,20 19.3,17.4 22.3,13.5 L12.1,50 L14.8,50.7 L34.3,-18.6 "/>
<path class="Rest" transform="matrix(1.2096,0,0,1.2096,2738.58,272.16)" d="M34.3,-18.6 C34.4,-18.8 34.4,-18.9 34.4,-19.1 C34.4,-19.6 34.1,-20.1 33.5,-20.3 C33.3,-20.4 33.1,-20.4 33,-20.4 C32.4,-20.4 32,-20.1 31.7,-19.6 C29.3,-14.8 25.3,-9.4 19.8,-8 C21,-9.4 21.5,-11 21.5,-12.8 C21.5,-16.7 18,-19.7 14.1,-19.7 C10.2,-19.5 7.2,-16.2 7.2,-12.3 C7.4,-6.7 12.8,-4.8 17.5,-4.8 C22.5,-5 26.4,-7.5 29.4,-11.4 L24.9,4.5 C23.5,9.3 17.8,15.7 12.7,17 C13.8,15.6 14.4,13.9 14.4,12.2 C14.4,8.2 11,5.3 7.1,5.3 C3.1,5.3 0.1,8.7 0.1,12.7 C0.1,15.7 2.2,18.2 4.8,19.1 C6.7,19.9 8.4,20.1 10.4,20.1 C15.4,20 19.3,17.4 22.3,13.5 L12.1,50 L14.8,50.7 L34.3,-18.6 "/>
<path class="Rest" transform="matrix(1.2096,0,0,1.2096,1705.73,272.16)" d="M34.3,-18.6 C34.4,-18.8 34.4,-18.9 34.4,-19.1 C34.4,-19.6 34.1,-20.1 33.5,-20.3 C33.3,-20.4 33.1,-20.4 33,-20.4 C32.4,-20.4 32,-20.1 31.7,-19.6 C29.3,-14.8 25.3,-9.4 19.8,-8 C21,-9.4 21.5,-11 21.5,-12.8 C21.5,-16.7 18,-19.7 14.1,-19.7 C10.2,-19.5 7.2,-16.2 7.2,-12.3 C7.4,-6.7 12.8,-4.8 17.5,-4.8 C22.5,-5 26.4,-7.5 29.4,-11.4 L24.9,4.5 C23.5,9.3 17.8,15.7 12.7,17 C13.8,15.6 14.4,13.9 14.4,12.2 C14.4,8.2 11,5.3 7.1,5.3 C3.1,5.3 0.1,8.7 0.1,12.7 C0.1,15.7 2.2,18.2 4.8,19.1 C6.7,19.9 8.4,20.1 10.4,20.1 C15.4,20 19.3,17.4 22.3,13.5 L12.1,50 L14.8,50.7 L34.3,-18.6 "/>
<path class="Rest" transform="matrix(1.2096,0,0,1.2096,310.408,272.16)" d="M34.3,-18.6 C34.4,-18.8 34.4,-18.9 34.4,-19.1 C34.4,-19.6 34.1,-20.1 33.5,-20.3 C33.3,-20.4 33.1,-20.4 33,-20.4 C32.4,-20.4 32,-20.1 31.7,-19.6 C29.3,-14.8 25.3,-9.4 19.8,-8 C21,-9.4 21.5,-11 21.5,-12.8 C21.5,-16.7 18,-19.7 14.1,-19.7 C10.2,-19.5 7.2,-16.2 7.2,-12.3 C7.4,-6.7 12.8,-4.8 17.5,-4.8 C22.5,-5 26.4,-7.5 29.4,-11.4 L24.9,4.5 C23.5,9.3 17.8,15.7 12.7,17 C13.8,15.6 14.4,13.9 14.4,12.2 C14.4,8.2 11,5.3 7.1,5.3 C3.1,5.3 0.1,8.7 0.1,12.7 C0.1,15.7 2.2,18.2 4.8,19.1 C6.7,19.9 8.4,20.1 10.4,20.1 C15.4,20 19.3,17.4 22.3,13.5 L12.1,50 L14.8,50.7 L34.3,-18.6 "/>
<path class="Rest" transform="matrix(1.2096,0,0,1.2096,1808.41,272.16)" d="M34.3,-18.6 C34.4,-18.8 34.4,-18.9 34.4,-19.1 C34.4,-19.6 34.1,-20.1 33.5,-20.3 C33.3,-20.4 33.1,-20.4 33,-20.4 C32.4,-20.4 32,-20.1 31.7,-19.6 C29.3,-14.8 25.3,-9.4 19.8,-8 C21,-9.4 21.5,-11 21.5,-12.8 C21.5,-16.7 18,-19.7 14.1,-19.7 C10.2,-19.5 7.2,-16.2 7.2,-12.3 C7.4,-6.7 12.8,-4.8 17.5,-4.8 C22.5,-5 26.4,-7.5 29.4,-11.4 L24.9,4.5 C23.5,9.3 17.8,15.7 12.7,17 C13.8,15.6 14.4,13.9 14.4,12.2 C14.4,8.2 11,5.3 7.1,5.3 C3.1,5.3 0.1,8.7 0.1,12.7 C0.1,15.7 2.2,18.2 4.8,19.1 C6.7,19.9 8.4,20.1 10.4,20.1 C15.4,20 19.3,17.4 22.3,13.5 L12.1,50 L14.8,50.7 L34.3,-18.6 "/>
<path class="Beam" fill-rule="evenodd" d="M2207.03,158.76 L2312.73,158.76 L2312.73,173.88 L2207.03,173.88 L2207.03,158.76 "/>
<path class="Beam" fill-rule="evenodd" d="M2207.03,181.44 L2312.73,181.44 L2312.73,196.56 L2207.03,196.56 L2207.03,181.44 "/>
<path class="Beam" fill-rule="evenodd" d="M1379.53,158.76 L1485.23,158.76 L1485.23,173.88 L1379.53,173.88 L1379.53,158.76 "/>
<path class="Beam" fill-rule="evenodd" d="M1379.53,181.44 L1485.23,181.44 L1485.23,196.56 L1379.53,196.56 L1379.53,181.44 "/>
<path class="Beam" fill-rule="evenodd" d="M709.143,158.76 L814.845,158.76 L814.845,173.88 L709.143,173.88 L709.143,158.76 "/>
<path class="Beam" fill-rule="evenodd" d="M709.143,181.44 L814.845,181.44 L814.845,196.56 L709.143,196.56 L709.143,181.44 "/>
<path class="Lyrics" d="M229.418,367.344 C226.528,370.829 218.708,373.464 210.888,373.634 L210.888,377.289 L218.368,377.289 C223.298,377.374 223.808,377.884 223.638,382.644 L223.638,416.729 C223.638,421.064 223.638,421.234 223.128,421.999 C222.448,422.849 220.833,423.189 216.073,423.189 L210.548,423.189 L210.548,427.184 L244.208,427.184 L244.208,423.189 L239.533,423.189 C234.773,423.189 233.158,422.849 232.478,421.999 C231.883,421.234 231.883,421.149 231.883,416.729 L231.883,381.624 C231.883,376.864 232.053,372.869 232.478,367.344 L229.418,367.344 "/>
<path class="Lyrics" d="M813.442,408.059 C813.527,395.309 806.302,386.299 795.932,386.299 C785.052,386.299 776.892,395.734 776.892,408.484 C776.892,420.469 784.627,428.459 796.102,428.459 C804.262,428.459 809.957,424.464 813.442,416.389 L810.467,414.774 C806.982,421.319 803.412,423.869 797.717,423.869 C793.382,423.869 790.237,422.084 788.027,418.259 C786.497,415.709 785.817,412.734 785.902,408.059 L813.442,408.059 M785.987,404.404 C785.987,398.454 788.707,389.954 795.847,389.954 C800.947,389.954 804.347,394.459 804.347,401.344 C804.347,403.724 803.582,404.404 800.862,404.404 L785.987,404.404 "/>
<path class="Lyrics" d="M1743.62,408.059 C1743.7,395.309 1736.48,386.299 1726.11,386.299 C1715.23,386.299 1707.07,395.734 1707.07,408.484 C1707.07,420.469 1714.8,428.459 1726.28,428.459 C1734.44,428.459 1740.13,424.464 1743.62,416.389 L1740.64,414.774 C1737.16,421.319 1733.59,423.869 1727.89,423.869 C1723.56,423.869 1720.41,422.084 1718.2,418.259 C1716.67,415.709 1715.99,412.734 1716.08,408.059 L1743.62,408.059 M1716.16,404.404 C1716.16,398.454 1718.88,389.954 1726.02,389.954 C1731.12,389.954 1734.52,394.459 1734.52,401.344 C1734.52,403.724 1733.76,404.404 1731.04,404.404 L1716.16,404.404 "/>
<path class="Lyrics" d="M1944.21,399.814 C1944.21,394.459 1943.28,391.739 1940.81,389.699 C1938.01,387.404 1933.84,386.299 1928.4,386.299 C1918.8,386.299 1911.83,390.804 1911.83,397.009 C1911.83,400.154 1913.78,402.194 1916.76,402.194 C1919.48,402.194 1921.35,400.409 1921.35,397.859 C1921.35,396.754 1920.92,395.564 1920.07,394.374 C1919.56,393.779 1919.48,393.609 1919.48,393.184 C1919.48,391.484 1922.88,389.954 1926.96,389.954 C1929.68,389.954 1932.65,390.804 1934.01,392.079 C1935.63,393.439 1936.22,395.479 1936.22,399.304 L1936.22,402.619 C1927.38,404.149 1924.58,404.829 1920.41,406.444 C1913.02,409.164 1909.53,413.074 1909.53,418.514 C1909.53,424.634 1914.29,428.459 1921.86,428.459 C1927.72,428.459 1932.99,426.079 1936.65,421.744 C1938.01,426.079 1940.13,427.779 1944.13,427.779 C1947.95,427.779 1951.95,425.314 1951.95,422.849 C1951.95,422.254 1951.61,421.829 1951.1,421.829 C1950.76,421.829 1950.42,421.914 1949.82,422.169 C1948.63,422.679 1948.12,422.764 1947.44,422.764 C1945.06,422.764 1944.21,421.234 1944.21,416.899 L1944.21,399.814 M1936.22,410.184 C1936.22,415.284 1935.97,416.474 1934.52,418.684 C1932.4,421.829 1928.57,423.954 1924.83,423.954 C1920.92,423.954 1918.12,421.149 1918.12,417.324 C1918.12,413.754 1919.9,411.204 1923.64,409.419 C1926.28,408.229 1929.59,407.379 1936.22,406.274 L1936.22,410.184 "/>
<path class="Lyrics" d="M2874.39,399.814 C2874.39,394.459 2873.45,391.739 2870.99,389.699 C2868.18,387.404 2864.02,386.299 2858.58,386.299 C2848.97,386.299 2842,390.804 2842,397.009 C2842,400.154 2843.96,402.194 2846.93,402.194 C2849.65,402.194 2851.52,400.409 2851.52,397.859 C2851.52,396.754 2851.1,395.564 2850.25,394.374 C2849.74,393.779 2849.65,393.609 2849.65,393.184 C2849.65,391.484 2853.05,389.954 2857.13,389.954 C2859.85,389.954 2862.83,390.804 2864.19,392.079 C2865.8,393.439 2866.4,395.479 2866.4,399.304 L2866.4,402.619 C2857.56,404.149 2854.75,404.829 2850.59,406.444 C2843.19,409.164 2839.71,413.074 2839.71,418.514 C2839.71,424.634 2844.47,428.459 2852.03,428.459 C2857.9,428.459 2863.17,426.079 2866.82,421.744 C2868.18,426.079 2870.31,427.779 2874.3,427.779 C2878.13,427.779 2882.12,425.314 2882.12,422.849 C2882.12,422.254 2881.78,421.829 2881.27,421.829 C2880.93,421.829 2880.59,421.914 2880,422.169 C2878.81,422.679 2878.3,422.764 2877.62,422.764 C2875.24,422.764 2874.39,421.234 2874.39,416.899 L2874.39,399.814 M2866.4,410.184 C2866.4,415.284 2866.14,416.474 2864.7,418.684 C2862.57,421.829 2858.75,423.954 2855.01,423.954 C2851.1,423.954 2848.29,421.149 2848.29,417.324 C2848.29,413.754 2850.08,411.204 2853.82,409.419 C2856.45,408.229 2859.77,407.379 2866.4,406.274 L2866.4,410.184 "/>
<path class="Lyrics" d="M348.298,408.059 C348.383,395.309 341.158,386.299 330.788,386.299 C319.908,386.299 311.748,395.734 311.748,408.484 C311.748,420.469 319.483,428.459 330.958,428.459 C339.118,428.459 344.813,424.464 348.298,416.389 L345.323,414.774 C341.838,421.319 338.268,423.869 332.573,423.869 C328.238,423.869 325.093,422.084 322.883,418.259 C321.353,415.709 320.673,412.734 320.758,408.059 L348.298,408.059 M320.843,404.404 C320.843,398.454 323.563,389.954 330.703,389.954 C335.803,389.954 339.203,394.459 339.203,401.344 C339.203,403.724 338.438,404.404 335.718,404.404 L320.843,404.404 "/>
<path class="Lyrics" d="M2089.77,367.344 C2086.88,370.829 2079.06,373.464 2071.24,373.634 L2071.24,377.289 L2078.72,377.289 C2083.65,377.374 2084.16,377.884 2083.99,382.644 L2083.99,416.729 C2083.99,421.064 2083.99,421.234 2083.48,421.999 C2082.8,422.849 2081.18,423.189 2076.42,423.189 L2070.9,423.189 L2070.9,427.184 L2104.56,427.184 L2104.56,423.189 L2099.88,423.189 C2095.12,423.189 2093.51,422.849 2092.83,421.999 C2092.23,421.234 2092.23,421.149 2092.23,416.729 L2092.23,381.624 C2092.23,376.864 2092.4,372.869 2092.83,367.344 L2089.77,367.344 "/>
<path class="Lyrics" d="M1624.74,367.344 C1621.85,370.829 1614.03,373.464 1606.21,373.634 L1606.21,377.289 L1613.69,377.289 C1618.62,377.374 1619.13,377.884 1618.96,382.644 L1618.96,416.729 C1618.96,421.064 1618.96,421.234 1618.45,421.999 C1617.77,422.849 1616.15,423.189 1611.39,423.189 L1605.87,423.189 L1605.87,427.184 L1639.53,427.184 L1639.53,423.189 L1634.85,423.189 C1630.09,423.189 1628.48,422.849 1627.8,421.999 C1627.2,421.234 1627.2,421.149 1627.2,416.729 L1627.2,381.624 C1627.2,376.864 1627.37,372.869 1627.8,367.344 L1624.74,367.344 "/>
<path class="Lyrics" d="M459.774,412.819 C458.754,418.174 455.949,421.404 452.209,421.404 C448.979,421.404 446.174,419.874 442.859,416.219 C446.259,412.054 446.684,411.459 448.469,408.059 C453.654,397.944 454.674,396.924 460.709,396.499 L461.644,396.499 L461.644,392.844 L437.674,392.844 L437.674,396.499 L438.524,396.499 C443.539,396.499 446.174,397.859 446.174,400.494 C446.174,404.149 443.879,409.164 440.224,413.329 C436.144,408.484 431.299,401.174 426.539,392.249 C431.129,390.209 432.574,389.444 434.784,387.914 C438.694,385.194 441.244,380.519 441.244,376.014 C441.244,369.129 435.889,364.539 427.984,364.539 C419.059,364.539 413.109,370.574 413.109,379.584 C413.109,383.324 414.044,386.639 416.679,392.249 C407.159,396.754 401.974,403.469 401.974,411.119 C401.974,415.369 403.844,420.044 406.819,423.274 C409.964,426.674 414.469,428.459 420.249,428.459 C426.369,428.459 431.044,426.759 436.569,422.424 C440.649,426.589 443.964,428.119 448.639,428.119 C457.649,428.119 462.494,421.574 463.514,413.329 L459.774,412.819 M424.754,388.679 C422.289,383.579 421.099,379.754 421.099,376.609 C421.099,371.679 423.819,368.194 427.729,368.194 C431.639,368.194 434.444,371.509 434.444,376.184 C434.444,379.414 432.999,382.814 430.789,384.939 C429.429,386.214 428.154,386.979 424.754,388.679 M418.294,395.734 C423.819,406.699 426.709,411.119 433.934,419.534 C430.194,421.914 428.239,422.679 425.349,422.679 C417.784,422.679 411.069,415.029 411.069,406.529 C411.069,401.854 413.194,398.709 418.294,395.734"/>
<path class="Lyrics" d="M1479.07,399.814 C1479.07,394.459 1478.13,391.739 1475.67,389.699 C1472.86,387.404 1468.7,386.299 1463.26,386.299 C1453.65,386.299 1446.68,390.804 1446.68,397.009 C1446.68,400.154 1448.64,402.194 1451.61,402.194 C1454.33,402.194 1456.2,400.409 1456.2,397.859 C1456.2,396.754 1455.78,395.564 1454.93,394.374 C1454.42,393.779 1454.33,393.609 1454.33,393.184 C1454.33,391.484 1457.73,389.954 1461.81,389.954 C1464.53,389.954 1467.51,390.804 1468.87,392.079 C1470.48,393.439 1471.08,395.479 1471.08,399.304 L1471.08,402.619 C1462.24,404.149 1459.43,404.829 1455.27,406.444 C1447.87,409.164 1444.39,413.074 1444.39,418.514 C1444.39,424.634 1449.15,428.459 1456.71,428.459 C1462.58,428.459 1467.85,426.079 1471.5,421.744 C1472.86,426.079 1474.99,427.779 1478.98,427.779 C1482.81,427.779 1486.8,425.314 1486.8,422.849 C1486.8,422.254 1486.46,421.829 1485.95,421.829 C1485.61,421.829 1485.27,421.914 1484.68,422.169 C1483.49,422.679 1482.98,422.764 1482.3,422.764 C1479.92,422.764 1479.07,421.234 1479.07,416.899 L1479.07,399.814 M1471.08,410.184 C1471.08,415.284 1470.82,416.474 1469.38,418.684 C1467.25,421.829 1463.43,423.954 1459.69,423.954 C1455.78,423.954 1452.97,421.149 1452.97,417.324 C1452.97,413.754 1454.76,411.204 1458.5,409.419 C1461.13,408.229 1464.45,407.379 1471.08,406.274 L1471.08,410.184 "/>
<path class="Lyrics" d="M548.893,399.814 C548.893,394.459 547.958,391.739 545.493,389.699 C542.688,387.404 538.523,386.299 533.083,386.299 C523.478,386.299 516.508,390.804 516.508,397.009 C516.508,400.154 518.463,402.194 521.438,402.194 C524.158,402.194 526.028,400.409 526.028,397.859 C526.028,396.754 525.603,395.564 524.753,394.374 C524.243,393.779 524.158,393.609 524.158,393.184 C524.158,391.484 527.558,389.954 531.638,389.954 C534.358,389.954 537.333,390.804 538.693,392.079 C540.308,393.439 540.903,395.479 540.903,399.304 L540.903,402.619 C532.063,404.149 529.258,404.829 525.093,406.444 C517.698,409.164 514.213,413.074 514.213,418.514 C514.213,424.634 518.973,428.459 526.538,428.459 C532.403,428.459 537.673,426.079 541.328,421.744 C542.688,426.079 544.813,427.779 548.808,427.779 C552.633,427.779 556.628,425.314 556.628,422.849 C556.628,422.254 556.288,421.829 555.778,421.829 C555.438,421.829 555.098,421.914 554.503,422.169 C553.313,422.679 552.803,422.764 552.123,422.764 C549.743,422.764 548.893,421.234 548.893,416.899 L548.893,399.814 M540.903,410.184 C540.903,415.284 540.648,416.474 539.203,418.684 C537.078,421.829 533.253,423.954 529.513,423.954 C525.603,423.954 522.798,421.149 522.798,417.324 C522.798,413.754 524.583,411.204 528.323,409.419 C530.958,408.229 534.273,407.379 540.903,406.274 L540.903,410.184 "/>
<path class="Lyrics" d="M2208.65,408.059 C2208.73,395.309 2201.51,386.299 2191.14,386.299 C2180.26,386.299 2172.1,395.734 2172.1,408.484 C2172.1,420.469 2179.83,428.459 2191.31,428.459 C2199.47,428.459 2205.16,424.464 2208.65,416.389 L2205.67,414.774 C2202.19,421.319 2198.62,423.869 2192.92,423.869 C2188.59,423.869 2185.44,422.084 2183.23,418.259 C2181.7,415.709 2181.02,412.734 2181.11,408.059 L2208.65,408.059 M2181.19,404.404 C2181.19,398.454 2183.91,389.954 2191.05,389.954 C2196.15,389.954 2199.55,394.459 2199.55,401.344 C2199.55,403.724 2198.79,404.404 2196.07,404.404 L2181.19,404.404 "/>
<path class="Lyrics" d="M2785.27,412.819 C2784.25,418.174 2781.44,421.404 2777.7,421.404 C2774.47,421.404 2771.67,419.874 2768.35,416.219 C2771.75,412.054 2772.18,411.459 2773.96,408.059 C2779.15,397.944 2780.17,396.924 2786.2,396.499 L2787.14,396.499 L2787.14,392.844 L2763.17,392.844 L2763.17,396.499 L2764.02,396.499 C2769.03,396.499 2771.67,397.859 2771.67,400.494 C2771.67,404.149 2769.37,409.164 2765.72,413.329 C2761.64,408.484 2756.79,401.174 2752.03,392.249 C2756.62,390.209 2758.07,389.444 2760.28,387.914 C2764.19,385.194 2766.74,380.519 2766.74,376.014 C2766.74,369.129 2761.38,364.539 2753.48,364.539 C2744.55,364.539 2738.6,370.574 2738.6,379.584 C2738.6,383.324 2739.54,386.639 2742.17,392.249 C2732.65,396.754 2727.47,403.469 2727.47,411.119 C2727.47,415.369 2729.34,420.044 2732.31,423.274 C2735.46,426.674 2739.96,428.459 2745.74,428.459 C2751.86,428.459 2756.54,426.759 2762.06,422.424 C2766.14,426.589 2769.46,428.119 2774.13,428.119 C2783.14,428.119 2787.99,421.574 2789.01,413.329 L2785.27,412.819 M2750.25,388.679 C2747.78,383.579 2746.59,379.754 2746.59,376.609 C2746.59,371.679 2749.31,368.194 2753.22,368.194 C2757.13,368.194 2759.94,371.509 2759.94,376.184 C2759.94,379.414 2758.49,382.814 2756.28,384.939 C2754.92,386.214 2753.65,386.979 2750.25,388.679 M2743.79,395.734 C2749.31,406.699 2752.2,411.119 2759.43,419.534 C2755.69,421.914 2753.73,422.679 2750.84,422.679 C2743.28,422.679 2736.56,415.029 2736.56,406.529 C2736.56,401.854 2738.69,398.709 2743.79,395.734"/>
<path class="Lyrics" d="M1389.95,412.819 C1388.93,418.174 1386.12,421.404 1382.38,421.404 C1379.15,421.404 1376.35,419.874 1373.03,416.219 C1376.43,412.054 1376.86,411.459 1378.64,408.059 C1383.83,397.944 1384.85,396.924 1390.88,396.499 L1391.82,396.499 L1391.82,392.844 L1367.85,392.844 L1367.85,396.499 L1368.7,396.499 C1373.71,396.499 1376.35,397.859 1376.35,400.494 C1376.35,404.149 1374.05,409.164 1370.4,413.329 C1366.32,408.484 1361.47,401.174 1356.71,392.249 C1361.3,390.209 1362.75,389.444 1364.96,387.914 C1368.87,385.194 1371.42,380.519 1371.42,376.014 C1371.42,369.129 1366.06,364.539 1358.16,364.539 C1349.23,364.539 1343.28,370.574 1343.28,379.584 C1343.28,383.324 1344.22,386.639 1346.85,392.249 C1337.33,396.754 1332.15,403.469 1332.15,411.119 C1332.15,415.369 1334.02,420.044 1336.99,423.274 C1340.14,426.674 1344.64,428.459 1350.42,428.459 C1356.54,428.459 1361.22,426.759 1366.74,422.424 C1370.82,426.589 1374.14,428.119 1378.81,428.119 C1387.82,428.119 1392.67,421.574 1393.69,413.329 L1389.95,412.819 M1354.93,388.679 C1352.46,383.579 1351.27,379.754 1351.27,376.609 C1351.27,371.679 1353.99,368.194 1357.9,368.194 C1361.81,368.194 1364.62,371.509 1364.62,376.184 C1364.62,379.414 1363.17,382.814 1360.96,384.939 C1359.6,386.214 1358.33,386.979 1354.93,388.679 M1348.47,395.734 C1353.99,406.699 1356.88,411.119 1364.11,419.534 C1360.37,421.914 1358.41,422.679 1355.52,422.679 C1347.96,422.679 1341.24,415.029 1341.24,406.529 C1341.24,401.854 1343.37,398.709 1348.47,395.734"/>
<path class="Lyrics" d="M1278.47,408.059 C1278.56,395.309 1271.33,386.299 1260.96,386.299 C1250.08,386.299 1241.92,395.734 1241.92,408.484 C1241.92,420.469 1249.66,428.459 1261.13,428.459 C1269.29,428.459 1274.99,424.464 1278.47,416.389 L1275.5,414.774 C1272.01,421.319 1268.44,423.869 1262.75,423.869 C1258.41,423.869 1255.27,422.084 1253.06,418.259 C1251.53,415.709 1250.85,412.734 1250.93,408.059 L1278.47,408.059 M1251.02,404.404 C1251.02,398.454 1253.74,389.954 1260.88,389.954 C1265.98,389.954 1269.38,394.459 1269.38,401.344 C1269.38,403.724 1268.61,404.404 1265.89,404.404 L1251.02,404.404 "/>
<path class="Lyrics" d="M2320.12,412.819 C2319.1,418.174 2316.3,421.404 2312.56,421.404 C2309.33,421.404 2306.52,419.874 2303.21,416.219 C2306.61,412.054 2307.03,411.459 2308.82,408.059 C2314,397.944 2315.02,396.924 2321.06,396.499 L2321.99,396.499 L2321.99,392.844 L2298.02,392.844 L2298.02,396.499 L2298.87,396.499 C2303.89,396.499 2306.52,397.859 2306.52,400.494 C2306.52,404.149 2304.23,409.164 2300.57,413.329 C2296.49,408.484 2291.65,401.174 2286.89,392.249 C2291.48,390.209 2292.92,389.444 2295.13,387.914 C2299.04,385.194 2301.59,380.519 2301.59,376.014 C2301.59,369.129 2296.24,364.539 2288.33,364.539 C2279.41,364.539 2273.46,370.574 2273.46,379.584 C2273.46,383.324 2274.39,386.639 2277.03,392.249 C2267.51,396.754 2262.32,403.469 2262.32,411.119 C2262.32,415.369 2264.19,420.044 2267.17,423.274 C2270.31,426.674 2274.82,428.459 2280.6,428.459 C2286.72,428.459 2291.39,426.759 2296.92,422.424 C2301,426.589 2304.31,428.119 2308.99,428.119 C2318,428.119 2322.84,421.574 2323.86,413.329 L2320.12,412.819 M2285.1,388.679 C2282.64,383.579 2281.45,379.754 2281.45,376.609 C2281.45,371.679 2284.17,368.194 2288.08,368.194 C2291.99,368.194 2294.79,371.509 2294.79,376.184 C2294.79,379.414 2293.35,382.814 2291.14,384.939 C2289.78,386.214 2288.5,386.979 2285.1,388.679 M2278.64,395.734 C2284.17,406.699 2287.06,411.119 2294.28,419.534 C2290.54,421.914 2288.59,422.679 2285.7,422.679 C2278.13,422.679 2271.42,415.029 2271.42,406.529 C2271.42,401.854 2273.54,398.709 2278.64,395.734"/>
<path class="Lyrics" d="M2673.79,408.059 C2673.88,395.309 2666.65,386.299 2656.28,386.299 C2645.4,386.299 2637.24,395.734 2637.24,408.484 C2637.24,420.469 2644.98,428.459 2656.45,428.459 C2664.61,428.459 2670.31,424.464 2673.79,416.389 L2670.82,414.774 C2667.33,421.319 2663.76,423.869 2658.07,423.869 C2653.73,423.869 2650.59,422.084 2648.38,418.259 C2646.85,415.709 2646.17,412.734 2646.25,408.059 L2673.79,408.059 M2646.34,404.404 C2646.34,398.454 2649.06,389.954 2656.2,389.954 C2661.3,389.954 2664.7,394.459 2664.7,401.344 C2664.7,403.724 2663.93,404.404 2661.21,404.404 L2646.34,404.404 "/>
<path class="Lyrics" d="M2409.24,399.814 C2409.24,394.459 2408.31,391.739 2405.84,389.699 C2403.04,387.404 2398.87,386.299 2393.43,386.299 C2383.83,386.299 2376.86,390.804 2376.86,397.009 C2376.86,400.154 2378.81,402.194 2381.79,402.194 C2384.51,402.194 2386.38,400.409 2386.38,397.859 C2386.38,396.754 2385.95,395.564 2385.1,394.374 C2384.59,393.779 2384.51,393.609 2384.51,393.184 C2384.51,391.484 2387.91,389.954 2391.99,389.954 C2394.71,389.954 2397.68,390.804 2399.04,392.079 C2400.66,393.439 2401.25,395.479 2401.25,399.304 L2401.25,402.619 C2392.41,404.149 2389.61,404.829 2385.44,406.444 C2378.05,409.164 2374.56,413.074 2374.56,418.514 C2374.56,424.634 2379.32,428.459 2386.89,428.459 C2392.75,428.459 2398.02,426.079 2401.68,421.744 C2403.04,426.079 2405.16,427.779 2409.16,427.779 C2412.98,427.779 2416.98,425.314 2416.98,422.849 C2416.98,422.254 2416.64,421.829 2416.13,421.829 C2415.79,421.829 2415.45,421.914 2414.85,422.169 C2413.66,422.679 2413.15,422.764 2412.47,422.764 C2410.09,422.764 2409.24,421.234 2409.24,416.899 L2409.24,399.814 M2401.25,410.184 C2401.25,415.284 2401,416.474 2399.55,418.684 C2397.43,421.829 2393.6,423.954 2389.86,423.954 C2385.95,423.954 2383.15,421.149 2383.15,417.324 C2383.15,413.754 2384.93,411.204 2388.67,409.419 C2391.31,408.229 2394.62,407.379 2401.25,406.274 L2401.25,410.184 "/>
<path class="Lyrics" d="M1159.59,367.344 C1156.7,370.829 1148.88,373.464 1141.06,373.634 L1141.06,377.289 L1148.54,377.289 C1153.47,377.374 1153.98,377.884 1153.81,382.644 L1153.81,416.729 C1153.81,421.064 1153.81,421.234 1153.3,421.999 C1152.62,422.849 1151.01,423.189 1146.25,423.189 L1140.72,423.189 L1140.72,427.184 L1174.38,427.184 L1174.38,423.189 L1169.71,423.189 C1164.95,423.189 1163.33,422.849 1162.65,421.999 C1162.06,421.234 1162.06,421.149 1162.06,416.729 L1162.06,381.624 C1162.06,376.864 1162.23,372.869 1162.65,367.344 L1159.59,367.344 "/>
<path class="Lyrics" d="M1014.04,399.814 C1014.04,394.459 1013.1,391.739 1010.64,389.699 C1007.83,387.404 1003.67,386.299 998.227,386.299 C988.622,386.299 981.652,390.804 981.652,397.009 C981.652,400.154 983.607,402.194 986.582,402.194 C989.302,402.194 991.172,400.409 991.172,397.859 C991.172,396.754 990.747,395.564 989.897,394.374 C989.387,393.779 989.302,393.609 989.302,393.184 C989.302,391.484 992.702,389.954 996.782,389.954 C999.502,389.954 1002.48,390.804 1003.84,392.079 C1005.45,393.439 1006.05,395.479 1006.05,399.304 L1006.05,402.619 C997.207,404.149 994.402,404.829 990.237,406.444 C982.842,409.164 979.357,413.074 979.357,418.514 C979.357,424.634 984.117,428.459 991.682,428.459 C997.547,428.459 1002.82,426.079 1006.47,421.744 C1007.83,426.079 1009.96,427.779 1013.95,427.779 C1017.78,427.779 1021.77,425.314 1021.77,422.849 C1021.77,422.254 1021.43,421.829 1020.92,421.829 C1020.58,421.829 1020.24,421.914 1019.65,422.169 C1018.46,422.679 1017.95,422.764 1017.27,422.764 C1014.89,422.764 1014.04,421.234 1014.04,416.899 L1014.04,399.814 M1006.05,410.184 C1006.05,415.284 1005.79,416.474 1004.35,418.684 C1002.22,421.829 998.397,423.954 994.657,423.954 C990.747,423.954 987.942,421.149 987.942,417.324 C987.942,413.754 989.727,411.204 993.467,409.419 C996.102,408.229 999.417,407.379 1006.05,406.274 L1006.05,410.184 "/>
<path class="Lyrics" d="M694.562,367.344 C691.672,370.829 683.852,373.464 676.032,373.634 L676.032,377.289 L683.512,377.289 C688.442,377.374 688.952,377.884 688.782,382.644 L688.782,416.729 C688.782,421.064 688.782,421.234 688.272,421.999 C687.592,422.849 685.977,423.189 681.217,423.189 L675.692,423.189 L675.692,427.184 L709.352,427.184 L709.352,423.189 L704.677,423.189 C699.917,423.189 698.302,422.849 697.622,421.999 C697.027,421.234 697.027,421.149 697.027,416.729 L697.027,381.624 C697.027,376.864 697.197,372.869 697.622,367.344 L694.562,367.344 "/>
<path class="Lyrics" d="M924.918,412.819 C923.898,418.174 921.093,421.404 917.353,421.404 C914.123,421.404 911.318,419.874 908.003,416.219 C911.403,412.054 911.828,411.459 913.613,408.059 C918.798,397.944 919.818,396.924 925.853,396.499 L926.788,396.499 L926.788,392.844 L902.818,392.844 L902.818,396.499 L903.668,396.499 C908.683,396.499 911.318,397.859 911.318,400.494 C911.318,404.149 909.023,409.164 905.368,413.329 C901.288,408.484 896.443,401.174 891.683,392.249 C896.273,390.209 897.718,389.444 899.928,387.914 C903.838,385.194 906.388,380.519 906.388,376.014 C906.388,369.129 901.033,364.539 893.128,364.539 C884.203,364.539 878.253,370.574 878.253,379.584 C878.253,383.324 879.188,386.639 881.823,392.249 C872.303,396.754 867.118,403.469 867.118,411.119 C867.118,415.369 868.988,420.044 871.963,423.274 C875.108,426.674 879.613,428.459 885.393,428.459 C891.513,428.459 896.188,426.759 901.713,422.424 C905.793,426.589 909.108,428.119 913.783,428.119 C922.793,428.119 927.638,421.574 928.658,413.329 L924.918,412.819 M889.898,388.679 C887.433,383.579 886.243,379.754 886.243,376.609 C886.243,371.679 888.963,368.194 892.873,368.194 C896.783,368.194 899.588,371.509 899.588,376.184 C899.588,379.414 898.143,382.814 895.933,384.939 C894.573,386.214 893.298,386.979 889.898,388.679 M883.438,395.734 C888.963,406.699 891.853,411.119 899.078,419.534 C895.338,421.914 893.383,422.679 890.493,422.679 C882.928,422.679 876.213,415.029 876.213,406.529 C876.213,401.854 878.338,398.709 883.438,395.734"/>
<path class="Lyrics" d="M2554.91,367.344 C2552.02,370.829 2544.2,373.464 2536.38,373.634 L2536.38,377.289 L2543.86,377.289 C2548.79,377.374 2549.3,377.884 2549.13,382.644 L2549.13,416.729 C2549.13,421.064 2549.13,421.234 2548.62,421.999 C2547.94,422.849 2546.33,423.189 2541.57,423.189 L2536.04,423.189 L2536.04,427.184 L2569.7,427.184 L2569.7,423.189 L2565.03,423.189 C2560.27,423.189 2558.65,422.849 2557.97,421.999 C2557.38,421.234 2557.38,421.149 2557.38,416.729 L2557.38,381.624 C2557.38,376.864 2557.55,372.869 2557.97,367.344 L2554.91,367.344 "/>
<path class="Lyrics" d="M1855.09,412.819 C1854.07,418.174 1851.27,421.404 1847.53,421.404 C1844.3,421.404 1841.49,419.874 1838.18,416.219 C1841.58,412.054 1842,411.459 1843.79,408.059 C1848.97,397.944 1849.99,396.924 1856.03,396.499 L1856.96,396.499 L1856.96,392.844 L1832.99,392.844 L1832.99,396.499 L1833.84,396.499 C1838.86,396.499 1841.49,397.859 1841.49,400.494 C1841.49,404.149 1839.2,409.164 1835.54,413.329 C1831.46,408.484 1826.62,401.174 1821.86,392.249 C1826.45,390.209 1827.89,389.444 1830.1,387.914 C1834.01,385.194 1836.56,380.519 1836.56,376.014 C1836.56,369.129 1831.21,364.539 1823.3,364.539 C1814.38,364.539 1808.43,370.574 1808.43,379.584 C1808.43,383.324 1809.36,386.639 1812,392.249 C1802.48,396.754 1797.29,403.469 1797.29,411.119 C1797.29,415.369 1799.16,420.044 1802.14,423.274 C1805.28,426.674 1809.79,428.459 1815.57,428.459 C1821.69,428.459 1826.36,426.759 1831.89,422.424 C1835.97,426.589 1839.28,428.119 1843.96,428.119 C1852.97,428.119 1857.81,421.574 1858.83,413.329 L1855.09,412.819 M1820.07,388.679 C1817.61,383.579 1816.42,379.754 1816.42,376.609 C1816.42,371.679 1819.14,368.194 1823.05,368.194 C1826.96,368.194 1829.76,371.509 1829.76,376.184 C1829.76,379.414 1828.32,382.814 1826.11,384.939 C1824.75,386.214 1823.47,386.979 1820.07,388.679 M1813.61,395.734 C1819.14,406.699 1822.03,411.119 1829.25,419.534 C1825.51,421.914 1823.56,422.679 1820.67,422.679 C1813.1,422.679 1806.39,415.029 1806.39,406.529 C1806.39,401.854 1808.51,398.709 1813.61,395.734"/>
<path class="StaffText" d="M812.218,127.2 L809.578,127.2 C807.598,138 804.898,140.64 795.598,140.82 L793.078,140.82 C789.478,140.7 788.578,140.1 788.758,137.94 L788.758,107.7 C788.758,104.7 788.758,104.52 789.118,103.98 C789.598,103.38 790.738,103.2 794.158,103.14 L795.238,103.14 L795.238,100.32 L775.558,100.32 L775.558,103.14 L776.638,103.14 C780.058,103.2 781.198,103.38 781.678,103.98 C782.038,104.52 782.038,104.64 782.038,107.7 L782.038,136.26 C782.038,139.32 782.038,139.44 781.678,139.98 C781.198,140.58 780.058,140.82 776.638,140.82 L775.558,140.82 L775.558,143.64 L810.958,143.64 L812.218,127.2 "/>
<path class="StaffText" d="M686.087,121.749 L689.567,121.749 C695.627,121.989 698.027,124.449 698.687,131.049 L698.987,134.109 C699.707,140.889 701.927,143.649 706.667,143.649 C711.587,143.649 713.927,140.349 714.107,133.149 L711.587,133.149 C711.347,137.289 710.627,139.089 709.007,139.089 C707.627,139.089 707.027,138.069 706.007,133.929 L705.047,130.149 C703.727,124.629 701.387,122.109 696.707,120.909 C705.347,119.709 709.487,116.229 709.487,110.169 C709.487,103.329 703.727,99.4294 693.647,99.4294 L672.887,99.4294 L672.887,102.249 L673.967,102.249 C677.387,102.309 678.527,102.489 679.007,103.089 C679.367,103.629 679.367,103.749 679.367,106.809 L679.367,135.429 C679.367,138.429 679.367,138.549 679.007,139.149 C678.527,139.749 677.387,139.929 673.967,139.929 L672.887,139.929 L672.887,142.749 L692.567,142.749 L692.567,139.929 L691.487,139.929 C688.067,139.929 686.927,139.749 686.447,139.149 C686.087,138.549 686.087,138.429 686.087,135.429 L686.087,121.749 M686.087,118.929 L686.087,105.729 C685.967,102.429 686.267,102.189 690.227,102.249 L693.467,102.249 C699.407,102.249 702.107,104.769 702.107,110.229 C702.107,116.529 698.747,118.929 692.687,118.929 L686.087,118.929 "/>
<path class="StaffText" d="M2286.65,121.749 L2290.13,121.749 C2296.19,121.989 2298.59,124.449 2299.25,131.049 L2299.55,134.109 C2300.27,140.889 2302.49,143.649 2307.23,143.649 C2312.15,143.649 2314.49,140.349 2314.67,133.149 L2312.15,133.149 C2311.91,137.289 2311.19,139.089 2309.57,139.089 C2308.19,139.089 2307.59,138.069 2306.57,133.929 L2305.61,130.149 C2304.29,124.629 2301.95,122.109 2297.27,120.909 C2305.91,119.709 2310.05,116.229 2310.05,110.169 C2310.05,103.329 2304.29,99.4294 2294.21,99.4294 L2273.45,99.4294 L2273.45,102.249 L2274.53,102.249 C2277.95,102.309 2279.09,102.489 2279.57,103.089 C2279.93,103.629 2279.93,103.749 2279.93,106.809 L2279.93,135.429 C2279.93,138.429 2279.93,138.549 2279.57,139.149 C2279.09,139.749 2277.95,139.929 2274.53,139.929 L2273.45,139.929 L2273.45,142.749 L2293.13,142.749 L2293.13,139.929 L2292.05,139.929 C2288.63,139.929 2287.49,139.749 2287.01,139.149 C2286.65,138.549 2286.65,138.429 2286.65,135.429 L2286.65,121.749 M2286.65,118.929 L2286.65,105.729 C2286.53,102.429 2286.83,102.189 2290.79,102.249 L2294.03,102.249 C2299.97,102.249 2302.67,104.769 2302.67,110.229 C2302.67,116.529 2299.31,118.929 2293.25,118.929 L2286.65,118.929 "/>
<path class="StaffText" d="M2672.57,125.764 L2669.93,125.764 C2667.95,136.564 2665.25,139.204 2655.95,139.384 L2653.43,139.384 C2649.83,139.264 2648.93,138.664 2649.11,136.504 L2649.11,106.264 C2649.11,103.264 2649.11,103.084 2649.47,102.544 C2649.95,101.944 2651.09,101.764 2654.51,101.704 L2655.59,101.704 L2655.59,98.8836 L2635.91,98.8836 L2635.91,101.704 L2636.99,101.704 C2640.41,101.764 2641.55,101.944 2642.03,102.544 C2642.39,103.084 2642.39,103.204 2642.39,106.264 L2642.39,134.824 C2642.39,137.884 2642.39,138.004 2642.03,138.544 C2641.55,139.144 2640.41,139.384 2636.99,139.384 L2635.91,139.384 L2635.91,142.204 L2671.31,142.204 L2672.57,125.764 "/>
<path class="StaffText" d="M2207.42,127.2 L2204.78,127.2 C2202.8,138 2200.1,140.64 2190.8,140.82 L2188.28,140.82 C2184.68,140.7 2183.78,140.1 2183.96,137.94 L2183.96,107.7 C2183.96,104.7 2183.96,104.52 2184.32,103.98 C2184.8,103.38 2185.94,103.2 2189.36,103.14 L2190.44,103.14 L2190.44,100.32 L2170.76,100.32 L2170.76,103.14 L2171.84,103.14 C2175.26,103.2 2176.4,103.38 2176.88,103.98 C2177.24,104.52 2177.24,104.64 2177.24,107.7 L2177.24,136.26 C2177.24,139.32 2177.24,139.44 2176.88,139.98 C2176.4,140.58 2175.26,140.82 2171.84,140.82 L2170.76,140.82 L2170.76,143.64 L2206.16,143.64 L2207.42,127.2 "/>
<path class="StaffText" d="M1356.47,121.749 L1359.95,121.749 C1366.01,121.989 1368.41,124.449 1369.07,131.049 L1369.37,134.109 C1370.09,140.889 1372.31,143.649 1377.05,143.649 C1381.97,143.649 1384.31,140.349 1384.49,133.149 L1381.97,133.149 C1381.73,137.289 1381.01,139.089 1379.39,139.089 C1378.01,139.089 1377.41,138.069 1376.39,133.929 L1375.43,130.149 C1374.11,124.629 1371.77,122.109 1367.09,120.909 C1375.73,119.709 1379.87,116.229 1379.87,110.169 C1379.87,103.329 1374.11,99.4294 1364.03,99.4294 L1343.27,99.4294 L1343.27,102.249 L1344.35,102.249 C1347.77,102.309 1348.91,102.489 1349.39,103.089 C1349.75,103.629 1349.75,103.749 1349.75,106.809 L1349.75,135.429 C1349.75,138.429 1349.75,138.549 1349.39,139.149 C1348.91,139.749 1347.77,139.929 1344.35,139.929 L1343.27,139.929 L1343.27,142.749 L1362.95,142.749 L1362.95,139.929 L1361.87,139.929 C1358.45,139.929 1357.31,139.749 1356.83,139.149 C1356.47,138.549 1356.47,138.429 1356.47,135.429 L1356.47,121.749 M1356.47,118.929 L1356.47,105.729 C1356.35,102.429 1356.65,102.189 1360.61,102.249 L1363.85,102.249 C1369.79,102.249 1372.49,104.769 1372.49,110.229 C1372.49,116.529 1369.13,118.929 1363.07,118.929 L1356.47,118.929 "/>
<path class="StaffText" d="M426.299,120.313 L429.779,120.313 C435.839,120.553 438.239,123.013 438.899,129.613 L439.199,132.673 C439.919,139.453 442.139,142.213 446.879,142.213 C451.799,142.213 454.139,138.913 454.319,131.713 L451.799,131.713 C451.559,135.853 450.839,137.653 449.219,137.653 C447.839,137.653 447.239,136.633 446.219,132.493 L445.259,128.713 C443.939,123.193 441.599,120.673 436.919,119.473 C445.559,118.273 449.699,114.793 449.699,108.733 C449.699,101.893 443.939,97.993 433.859,97.993 L413.099,97.993 L413.099,100.813 L414.179,100.813 C417.599,100.873 418.739,101.053 419.219,101.653 C419.579,102.193 419.579,102.313 419.579,105.373 L419.579,133.993 C419.579,136.993 419.579,137.113 419.219,137.713 C418.739,138.313 417.599,138.493 414.179,138.493 L413.099,138.493 L413.099,141.313 L432.779,141.313 L432.779,138.493 L431.699,138.493 C428.279,138.493 427.139,138.313 426.659,137.713 C426.299,137.113 426.299,136.993 426.299,133.993 L426.299,120.313 M426.299,117.493 L426.299,104.293 C426.179,100.993 426.479,100.753 430.439,100.813 L433.679,100.813 C439.619,100.813 442.319,103.333 442.319,108.793 C442.319,115.093 438.959,117.493 432.899,117.493 L426.299,117.493 "/>
<path class="StaffText" d="M1482.61,127.2 L1479.97,127.2 C1477.99,138 1475.29,140.64 1465.99,140.82 L1463.47,140.82 C1459.87,140.7 1458.97,140.1 1459.15,137.94 L1459.15,107.7 C1459.15,104.7 1459.15,104.52 1459.51,103.98 C1459.99,103.38 1461.13,103.2 1464.55,103.14 L1465.63,103.14 L1465.63,100.32 L1445.95,100.32 L1445.95,103.14 L1447.03,103.14 C1450.45,103.2 1451.59,103.38 1452.07,103.98 C1452.43,104.52 1452.43,104.64 1452.43,107.7 L1452.43,136.26 C1452.43,139.32 1452.43,139.44 1452.07,139.98 C1451.59,140.58 1450.45,140.82 1447.03,140.82 L1445.95,140.82 L1445.95,143.64 L1481.35,143.64 L1482.61,127.2 "/>
<path class="StaffText" d="M1616.26,120.313 L1619.74,120.313 C1625.8,120.553 1628.2,123.013 1628.86,129.613 L1629.16,132.673 C1629.88,139.453 1632.1,142.213 1636.84,142.213 C1641.76,142.213 1644.1,138.913 1644.28,131.713 L1641.76,131.713 C1641.52,135.853 1640.8,137.653 1639.18,137.653 C1637.8,137.653 1637.2,136.633 1636.18,132.493 L1635.22,128.713 C1633.9,123.193 1631.56,120.673 1626.88,119.473 C1635.52,118.273 1639.66,114.793 1639.66,108.733 C1639.66,101.893 1633.9,97.993 1623.82,97.993 L1603.06,97.993 L1603.06,100.813 L1604.14,100.813 C1607.56,100.873 1608.7,101.053 1609.18,101.653 C1609.54,102.193 1609.54,102.313 1609.54,105.373 L1609.54,133.993 C1609.54,136.993 1609.54,137.113 1609.18,137.713 C1608.7,138.313 1607.56,138.493 1604.14,138.493 L1603.06,138.493 L1603.06,141.313 L1622.74,141.313 L1622.74,138.493 L1621.66,138.493 C1618.24,138.493 1617.1,138.313 1616.62,137.713 C1616.26,137.113 1616.26,136.993 1616.26,133.993 L1616.26,120.313 M1616.26,117.493 L1616.26,104.293 C1616.14,100.993 1616.44,100.753 1620.4,100.813 L1623.64,100.813 C1629.58,100.813 1632.28,103.333 1632.28,108.793 C1632.28,115.093 1628.92,117.493 1622.86,117.493 L1616.26,117.493 "/>
<path class="StaffText" d="M1947.75,125.764 L1945.11,125.764 C1943.13,136.564 1940.43,139.204 1931.13,139.384 L1928.61,139.384 C1925.01,139.264 1924.11,138.664 1924.29,136.504 L1924.29,106.264 C1924.29,103.264 1924.29,103.084 1924.65,102.544 C1925.13,101.944 1926.27,101.764 1929.69,101.704 L1930.77,101.704 L1930.77,98.8836 L1911.09,98.8836 L1911.09,101.704 L1912.17,101.704 C1915.59,101.764 1916.73,101.944 1917.21,102.544 C1917.57,103.084 1917.57,103.204 1917.57,106.264 L1917.57,134.824 C1917.57,137.884 1917.57,138.004 1917.21,138.544 C1916.73,139.144 1915.59,139.384 1912.17,139.384 L1911.09,139.384 L1911.09,142.204 L1946.49,142.204 L1947.75,125.764 "/>
<path class="StaffText" d="M2877.92,125.764 L2875.28,125.764 C2873.3,136.564 2870.6,139.204 2861.3,139.384 L2858.78,139.384 C2855.18,139.264 2854.28,138.664 2854.46,136.504 L2854.46,106.264 C2854.46,103.264 2854.46,103.084 2854.82,102.544 C2855.3,101.944 2856.44,101.764 2859.86,101.704 L2860.94,101.704 L2860.94,98.8836 L2841.26,98.8836 L2841.26,101.704 L2842.34,101.704 C2845.76,101.764 2846.9,101.944 2847.38,102.544 C2847.74,103.084 2847.74,103.204 2847.74,106.264 L2847.74,134.824 C2847.74,137.884 2847.74,138.004 2847.38,138.544 C2846.9,139.144 2845.76,139.384 2842.34,139.384 L2841.26,139.384 L2841.26,142.204 L2876.66,142.204 L2877.92,125.764 "/>
<path class="StaffText" d="M220.943,120.313 L224.423,120.313 C230.483,120.553 232.883,123.013 233.543,129.613 L233.843,132.673 C234.563,139.453 236.783,142.213 241.523,142.213 C246.443,142.213 248.783,138.913 248.963,131.713 L246.443,131.713 C246.203,135.853 245.483,137.653 243.863,137.653 C242.483,137.653 241.883,136.633 240.863,132.493 L239.903,128.713 C238.583,123.193 236.243,120.673 231.563,119.473 C240.203,118.273 244.343,114.793 244.343,108.733 C244.343,101.893 238.583,97.993 228.503,97.993 L207.743,97.993 L207.743,100.813 L208.823,100.813 C212.243,100.873 213.383,101.053 213.863,101.653 C214.223,102.193 214.223,102.313 214.223,105.373 L214.223,133.993 C214.223,136.993 214.223,137.113 213.863,137.713 C213.383,138.313 212.243,138.493 208.823,138.493 L207.743,138.493 L207.743,141.313 L227.423,141.313 L227.423,138.493 L226.343,138.493 C222.923,138.493 221.783,138.313 221.303,137.713 C220.943,137.113 220.943,136.993 220.943,133.993 L220.943,120.313 M220.943,117.493 L220.943,104.293 C220.823,100.993 221.123,100.753 225.083,100.813 L228.323,100.813 C234.263,100.813 236.963,103.333 236.963,108.793 C236.963,115.093 233.603,117.493 227.543,117.493 L220.943,117.493 "/>
</svg>
