<?xml version="1.0" encoding="UTF-8" standalone="no"?>
<svg width="2977.2px" height="540px" viewBox="0 0 2977.2 540"
 xmlns="http://www.w3.org/2000/svg" xmlns:xlink="http://www.w3.org/1999/xlink" version="1.2" baseProfile="tiny">
<title>goodness_of_god</title>
<desc>Generated by MuseScore Studio 4.4.4</desc>
<path class="" fill="#ffffff" fill-rule="evenodd" d="M0,0 L2977.2,0 L2977.2,540 L0,540 L0,0 "/>
<polyline class="StaffLines" fill="none" stroke="#000000" stroke-width="3.33" stroke-linejoin="bevel" points="0,211.68 2977.2,211.68"/>
<polyline class="StaffLines" fill="none" stroke="#000000" stroke-width="3.33" stroke-linejoin="bevel" points="0,241.92 2977.2,241.92"/>
<polyline class="StaffLines" fill="none" stroke="#000000" stroke-width="3.33" stroke-linejoin="bevel" points="0,272.16 2977.2,272.16"/>
<polyline class="StaffLines" fill="none" stroke="#000000" stroke-width="3.33" stroke-linejoin="bevel" points="0,302.4 2977.2,302.4"/>
<polyline class="StaffLines" fill="none" stroke="#000000" stroke-width="3.33" stroke-linejoin="bevel" points="0,332.64 2977.2,332.64"/>
<polyline class="BarLine" fill="none" stroke="#000000" stroke-width="16.63" stroke-linejoin="bevel" points="2968.88,210.017 2968.88,334.303"/>
<polyline class="BarLine" fill="none" stroke="#000000" stroke-width="16.63" stroke-linejoin="bevel" points="1443.97,210.017 1443.97,334.303"/>
<polyline class="BarLine" fill="none" stroke="#000000" stroke-width="16.63" stroke-linejoin="bevel" points="802.792,210.017 802.792,334.303"/>
<polyline class="BarLine" fill="none" stroke="#000000" stroke-width="16.63" stroke-linejoin="bevel" points="2134.04,210.017 2134.04,334.303"/>
<polyline class="Stem" fill="none" stroke="#000000" stroke-width="3.02" stroke-linejoin="bevel" points="1326.75,252.202 1326.75,173.88"/>
<polyline class="Stem" fill="none" stroke="#000000" stroke-width="3.02" stroke-linejoin="bevel" points="2364.63,252.202 2364.63,158.881"/>
<polyline class="Stem" fill="none" stroke="#000000" stroke-width="3.02" stroke-linejoin="bevel" points="2217.94,312.682 2217.94,211.68"/>
<polyline class="Stem" fill="none" stroke="#000000" stroke-width="3.02" stroke-linejoin="bevel" points="392.197,252.202 392.197,173.88"/>
<polyline class="Stem" fill="none" stroke="#000000" stroke-width="3.02" stroke-linejoin="bevel" points="685.57,252.202 685.57,173.88"/>
<polyline class="Stem" fill="none" stroke="#000000" stroke-width="3.02" stroke-linejoin="bevel" points="2016.82,252.202 2016.82,173.88"/>
<polyline class="Stem" fill="none" stroke="#000000" stroke-width="3.02" stroke-linejoin="bevel" points="1919.03,312.682 1919.03,219.24"/>
<polyline class="Stem" fill="none" stroke="#000000" stroke-width="3.02" stroke-linejoin="bevel" points="2575.49,312.682 2575.49,211.801"/>
<polyline class="Stem" fill="none" stroke="#000000" stroke-width="3.02" stroke-linejoin="bevel" points="2656.08,312.682 2656.08,219.24"/>
<polyline class="Stem" fill="none" stroke="#000000" stroke-width="3.02" stroke-linejoin="bevel" points="886.689,312.682 886.689,211.68"/>
<polyline class="Stem" fill="none" stroke="#000000" stroke-width="3.02" stroke-linejoin="bevel" points="245.511,312.682 245.511,211.68"/>
<polyline class="Stem" fill="none" stroke="#000000" stroke-width="3.02" stroke-linejoin="bevel" points="1821.24,312.682 1821.24,219.24"/>
<polyline class="Stem" fill="none" stroke="#000000" stroke-width="3.02" stroke-linejoin="bevel" points="1674.55,252.202 1674.55,173.88"/>
<polyline class="Stem" fill="none" stroke="#000000" stroke-width="3.02" stroke-linejoin="bevel" points="1033.38,252.202 1033.38,173.88"/>
<polyline class="Stem" fill="none" stroke="#000000" stroke-width="3.02" stroke-linejoin="bevel" points="1527.87,312.682 1527.87,211.68"/>
<polyline class="Stem" fill="none" stroke="#000000" stroke-width="3.02" stroke-linejoin="bevel" points="2753.87,312.682 2753.87,219.24"/>
<polyline class="Stem" fill="none" stroke="#000000" stroke-width="3.02" stroke-linejoin="bevel" points="2851.66,252.202 2851.66,173.88"/>
<polyline class="Stem" fill="none" stroke="#000000" stroke-width="3.02" stroke-linejoin="bevel" points="1180.06,312.682 1180.06,211.68"/>
<path class="Hook" transform="matrix(1.2096,0,0,1.2096,2363.11,158.76)" d="M0,38.1 C0,38.4 0.8,38.8 1.5,39.1 C4.1,40 11.9,45 17.9,53.9 C21.3,59 22.1,62.6 22.1,66 C22.1,66.6 22.1,67.1 22,67.7 C22,70.1 21.3,75.2 19.8,79.2 C19.7,79.7 19.4,80.3 19.4,80.8 C19.4,81.2 19.6,81.6 20.1,81.9 C20.3,82 20.5,82 20.6,82 C21.3,82 21.7,81.2 22.1,80.6 C23.9,77.8 26.5,72.4 26.5,66.8 C26.5,63.9 26.3,61.5 26,59.4 C27.1,55.7 27.9,52 27.9,47.1 C27.9,41.9 26.5,37.2 23.1,32.7 C18.4,26.5 13.3,21.4 9.5,15.8 C5.7,10.3 2.9,0 2.9,0 C2.7,-0.7 2.6,-1.2 1.5,-1.2 C0.3,-1.2 0,-0.7 0,0 L0,38.1 M20.9,47.3 C18.2,43.8 15.2,40.6 10.3,35.7 C6.4,31.8 4.6,28.4 4,25.8 C3.8,25.3 3.7,24.6 3.6,23.8 C8.7,23.9 15.2,30.7 18.8,35.4 C22.7,40.5 23.6,44.6 23.6,48.3 C23.6,49.3 23.5,50.3 23.4,51.3 C22.6,49.7 21.7,48.4 20.9,47.3"/>
<path class="Hook" transform="matrix(1.2096,0,0,1.2096,2573.98,211.68)" d="M0,38.1 C0,38.4 0.8,38.8 1.5,39.1 C4.1,40 11.9,45 17.9,53.9 C21.3,59 22.1,62.6 22.1,66 C22.1,66.6 22.1,67.1 22,67.7 C22,70.1 21.3,75.2 19.8,79.2 C19.7,79.7 19.4,80.3 19.4,80.8 C19.4,81.2 19.6,81.6 20.1,81.9 C20.3,82 20.5,82 20.6,82 C21.3,82 21.7,81.2 22.1,80.6 C23.9,77.8 26.5,72.4 26.5,66.8 C26.5,63.9 26.3,61.5 26,59.4 C27.1,55.7 27.9,52 27.9,47.1 C27.9,41.9 26.5,37.2 23.1,32.7 C18.4,26.5 13.3,21.4 9.5,15.8 C5.7,10.3 2.9,0 2.9,0 C2.7,-0.7 2.6,-1.2 1.5,-1.2 C0.3,-1.2 0,-0.7 0,0 L0,38.1 M20.9,47.3 C18.2,43.8 15.2,40.6 10.3,35.7 C6.4,31.8 4.6,28.4 4,25.8 C3.8,25.3 3.7,24.6 3.6,23.8 C8.7,23.9 15.2,30.7 18.8,35.4 C22.7,40.5 23.6,44.6 23.6,48.3 C23.6,49.3 23.5,50.3 23.4,51.3 C22.6,49.7 21.7,48.4 20.9,47.3"/>
<path class="Note" transform="matrix(1.2096,0,0,1.2096,1783.46,317.52)" d="M0,4.2 C0,8.5 3.1,13.3 11.2,13.3 C21.6,13.3 32.5,4.8 32.5,-4 C32.5,-9.9 27.5,-13.2 21.3,-13.2 C11.6,-13.2 0,-5 0,4.2"/>
<path class="Note" transform="matrix(1.2096,0,0,1.2096,848.908,317.52)" d="M0,4.2 C0,8.5 3.1,13.3 11.2,13.3 C21.6,13.3 32.5,4.8 32.5,-4 C32.5,-9.9 27.5,-13.2 21.3,-13.2 C11.6,-13.2 0,-5 0,4.2"/>
<path class="Note" transform="matrix(1.2096,0,0,1.2096,647.789,257.04)" d="M0,4.2 C0,8.5 3.1,13.3 11.2,13.3 C21.6,13.3 32.5,4.8 32.5,-4 C32.5,-9.9 27.5,-13.2 21.3,-13.2 C11.6,-13.2 0,-5 0,4.2"/>
<path class="Note" transform="matrix(1.2096,0,0,1.2096,1142.28,317.52)" d="M0,4.2 C0,8.5 3.1,13.3 11.2,13.3 C21.6,13.3 32.5,4.8 32.5,-4 C32.5,-9.9 27.5,-13.2 21.3,-13.2 C11.6,-13.2 0,-5 0,4.2"/>
<path class="Note" transform="matrix(1.2096,0,0,1.2096,1288.97,257.04)" d="M0,4.2 C0,8.5 3.1,13.3 11.2,13.3 C21.6,13.3 32.5,4.8 32.5,-4 C32.5,-9.9 27.5,-13.2 21.3,-13.2 C11.6,-13.2 0,-5 0,4.2"/>
<path class="Note" transform="matrix(1.2096,0,0,1.2096,2813.88,257.04)" d="M0,4.2 C0,8.5 3.1,13.3 11.2,13.3 C21.6,13.3 32.5,4.8 32.5,-4 C32.5,-9.9 27.5,-13.2 21.3,-13.2 C11.6,-13.2 0,-5 0,4.2"/>
<path class="Note" transform="matrix(1.2096,0,0,1.2096,1881.25,317.52)" d="M0,4.2 C0,8.5 3.1,13.3 11.2,13.3 C21.6,13.3 32.5,4.8 32.5,-4 C32.5,-9.9 27.5,-13.2 21.3,-13.2 C11.6,-13.2 0,-5 0,4.2"/>
<path class="Note" transform="matrix(1.2096,0,0,1.2096,2716.09,317.52)" d="M0,4.2 C0,8.5 3.1,13.3 11.2,13.3 C21.6,13.3 32.5,4.8 32.5,-4 C32.5,-9.9 27.5,-13.2 21.3,-13.2 C11.6,-13.2 0,-5 0,4.2"/>
<path class="Note" transform="matrix(1.2096,0,0,1.2096,2180.16,317.52)" d="M0,4.2 C0,8.5 3.1,13.3 11.2,13.3 C21.6,13.3 32.5,4.8 32.5,-4 C32.5,-9.9 27.5,-13.2 21.3,-13.2 C11.6,-13.2 0,-5 0,4.2"/>
<path class="Note" transform="matrix(1.2096,0,0,1.2096,995.594,257.04)" d="M0,4.2 C0,8.5 3.1,13.3 11.2,13.3 C21.6,13.3 32.5,4.8 32.5,-4 C32.5,-9.9 27.5,-13.2 21.3,-13.2 C11.6,-13.2 0,-5 0,4.2"/>
<path class="Note" transform="matrix(1.2096,0,0,1.2096,1490.09,317.52)" d="M0,4.2 C0,8.5 3.1,13.3 11.2,13.3 C21.6,13.3 32.5,4.8 32.5,-4 C32.5,-9.9 27.5,-13.2 21.3,-13.2 C11.6,-13.2 0,-5 0,4.2"/>
<path class="Note" transform="matrix(1.2096,0,0,1.2096,354.416,257.04)" d="M0,4.2 C0,8.5 3.1,13.3 11.2,13.3 C21.6,13.3 32.5,4.8 32.5,-4 C32.5,-9.9 27.5,-13.2 21.3,-13.2 C11.6,-13.2 0,-5 0,4.2"/>
<path class="Note" transform="matrix(1.2096,0,0,1.2096,2618.3,317.52)" d="M0,4.2 C0,8.5 3.1,13.3 11.2,13.3 C21.6,13.3 32.5,4.8 32.5,-4 C32.5,-9.9 27.5,-13.2 21.3,-13.2 C11.6,-13.2 0,-5 0,4.2"/>
<path class="Note" transform="matrix(1.2096,0,0,1.2096,207.73,317.52)" d="M0,4.2 C0,8.5 3.1,13.3 11.2,13.3 C21.6,13.3 32.5,4.8 32.5,-4 C32.5,-9.9 27.5,-13.2 21.3,-13.2 C11.6,-13.2 0,-5 0,4.2"/>
<path class="Note" transform="matrix(1.2096,0,0,1.2096,1636.77,257.04)" d="M0,4.2 C0,8.5 3.1,13.3 11.2,13.3 C21.6,13.3 32.5,4.8 32.5,-4 C32.5,-9.9 27.5,-13.2 21.3,-13.2 C11.6,-13.2 0,-5 0,4.2"/>
<path class="Note" transform="matrix(1.2096,0,0,1.2096,2537.71,317.52)" d="M0,4.2 C0,8.5 3.1,13.3 11.2,13.3 C21.6,13.3 32.5,4.8 32.5,-4 C32.5,-9.9 27.5,-13.2 21.3,-13.2 C11.6,-13.2 0,-5 0,4.2"/>
<path class="Note" transform="matrix(1.2096,0,0,1.2096,2326.85,257.04)" d="M0,4.2 C0,8.5 3.1,13.3 11.2,13.3 C21.6,13.3 32.5,4.8 32.5,-4 C32.5,-9.9 27.5,-13.2 21.3,-13.2 C11.6,-13.2 0,-5 0,4.2"/>
<path class="Note" transform="matrix(1.2096,0,0,1.2096,1979.04,257.04)" d="M0,4.2 C0,8.5 3.1,13.3 11.2,13.3 C21.6,13.3 32.5,4.8 32.5,-4 C32.5,-9.9 27.5,-13.2 21.3,-13.2 C11.6,-13.2 0,-5 0,4.2"/>
<path class="Clef" transform="matrix(1.2096,0,0,1.2096,22.68,272.16)" d="M1.3,-25.2 C0.6,-25.2 0,-24.6 0,-23.9 L0,23.9 C0,24.6 0.6,25.2 1.3,25.2 L12.3,25.2 C13,25.2 13.6,24.6 13.6,23.9 L13.6,-23.9 C13.6,-24.6 13,-25.2 12.3,-25.2 L1.3,-25.2 M22.9,-25.2 C22.2,-25.2 21.6,-24.6 21.6,-23.9 L21.6,23.9 C21.6,24.6 22.2,25.2 22.9,25.2 L33.9,25.2 C34.6,25.2 35.2,24.6 35.2,23.9 L35.2,-23.9 C35.2,-24.6 34.6,-25.2 33.9,-25.2 L22.9,-25.2 "/>
<path class="TimeSig" transform="matrix(1.2096,0,0,1.2096,93.8007,241.92)" d="M20.8,12.7 L20.8,20.1 L12.5,20.1 C11.8,20.1 11.1,20.7 11.1,21.5 L11.1,23.4 C11.1,24.2 11.8,24.8 12.5,24.8 L42.8,24.8 C43.6,24.8 44.2,24.2 44.2,23.4 L44.2,21.5 C44.2,20.7 43.6,20.1 42.8,20.1 L33.9,20.1 L33.9,12.7 L42.8,12.7 C43.6,12.7 44.2,12 44.2,11.2 L44.2,9.3 C44.2,8.6 43.6,7.9 42.8,7.9 L33.9,7.9 L33.9,-8 C33.9,-8.6 33.6,-9.1 33.1,-9.3 L31.9,-9.9 C31.7,-10 31.4,-10.1 31.2,-10.1 C30.9,-10 30.5,-9.9 30.3,-9.7 L21.2,-1.4 C20.9,-1.1 20.8,-0.7 20.8,-0.3 L20.8,7.9 L9.3,7.9 C9.3,7.9 20.4,-4.1 32.2,-19.9 C32.6,-20.4 32.7,-20.9 32.7,-21.3 C32.7,-21.8 32.5,-22.2 32.4,-22.3 L30.2,-24.5 C30,-24.7 29.6,-24.9 29.2,-24.9 C28.6,-24.9 15.1,-24.9 14.4,-24.9 C13.6,-24.9 13.1,-24.3 13,-23.7 C13,-23.7 12.5,-16.3 9.9,-8.2 C7.3,-0.1 4.3,4.9 1.7,8.6 C1.7,8.6 1.4,9.1 1.4,9.7 C1.4,9.9 1.4,10.1 1.5,10.3 C1.9,11 2.5,12.1 2.5,12.1 C2.5,12.1 2.7,12.7 3.6,12.7 L20.8,12.7 "/>
<path class="TimeSig" transform="matrix(1.2096,0,0,1.2096,93.8007,302.4)" d="M20.8,12.7 L20.8,20.1 L12.5,20.1 C11.8,20.1 11.1,20.7 11.1,21.5 L11.1,23.4 C11.1,24.2 11.8,24.8 12.5,24.8 L42.8,24.8 C43.6,24.8 44.2,24.2 44.2,23.4 L44.2,21.5 C44.2,20.7 43.6,20.1 42.8,20.1 L33.9,20.1 L33.9,12.7 L42.8,12.7 C43.6,12.7 44.2,12 44.2,11.2 L44.2,9.3 C44.2,8.6 43.6,7.9 42.8,7.9 L33.9,7.9 L33.9,-8 C33.9,-8.6 33.6,-9.1 33.1,-9.3 L31.9,-9.9 C31.7,-10 31.4,-10.1 31.2,-10.1 C30.9,-10 30.5,-9.9 30.3,-9.7 L21.2,-1.4 C20.9,-1.1 20.8,-0.7 20.8,-0.3 L20.8,7.9 L9.3,7.9 C9.3,7.9 20.4,-4.1 32.2,-19.9 C32.6,-20.4 32.7,-20.9 32.7,-21.3 C32.7,-21.8 32.5,-22.2 32.4,-22.3 L30.2,-24.5 C30,-24.7 29.6,-24.9 29.2,-24.9 C28.6,-24.9 15.1,-24.9 14.4,-24.9 C13.6,-24.9 13.1,-24.3 13,-23.7 C13,-23.7 12.5,-16.3 9.9,-8.2 C7.3,-0.1 4.3,4.9 1.7,8.6 C1.7,8.6 1.4,9.1 1.4,9.7 C1.4,9.9 1.4,10.1 1.5,10.3 C1.9,11 2.5,12.1 2.5,12.1 C2.5,12.1 2.7,12.7 3.6,12.7 L20.8,12.7 "/>
<path class="Rest" transform="matrix(1.2096,0,0,1.2096,2407.32,272.16)" d="M34.3,-18.6 C34.4,-18.8 34.4,-18.9 34.4,-19.1 C34.4,-19.6 34.1,-20.1 33.5,-20.3 C33.3,-20.4 33.1,-20.4 33,-20.4 C32.4,-20.4 32,-20.1 31.7,-19.6 C29.3,-14.8 25.3,-9.4 19.8,-8 C21,-9.4 21.5,-11 21.5,-12.8 C21.5,-16.7 18,-19.7 14.1,-19.7 C10.2,-19.5 7.2,-16.2 7.2,-12.3 C7.4,-6.7 12.8,-4.8 17.5,-4.8 C22.5,-5 26.4,-7.5 29.4,-11.4 L24.9,4.5 C23.5,9.3 17.8,15.7 12.7,17 C13.8,15.6 14.4,13.9 14.4,12.2 C14.4,8.2 11,5.3 7.1,5.3 C3.1,5.3 0.1,8.7 0.1,12.7 C0.1,15.7 2.2,18.2 4.8,19.1 C6.7,19.9 8.4,20.1 10.4,20.1 C15.4,20 19.3,17.4 22.3,13.5 L12.1,50 L14.8,50.7 L34.3,-18.6 "/>
<path class="Rest" transform="matrix(1.2096,0,0,1.2096,2472.52,272.16)" d="M34.3,-18.6 C34.4,-18.8 34.4,-18.9 34.4,-19.1 C34.4,-19.6 34.1,-20.1 33.5,-20.3 C33.3,-20.4 33.1,-20.4 33,-20.4 C32.4,-20.4 32,-20.1 31.7,-19.6 C29.3,-14.8 25.3,-9.4 19.8,-8 C21,-9.4 21.5,-11 21.5,-12.8 C21.5,-16.7 18,-19.7 14.1,-19.7 C10.2,-19.5 7.2,-16.2 7.2,-12.3 C7.4,-6.7 12.8,-4.8 17.5,-4.8 C22.5,-5 26.4,-7.5 29.4,-11.4 L24.9,4.5 C23.5,9.3 17.8,15.7 12.7,17 C13.8,15.6 14.4,13.9 14.4,12.2 C14.4,8.2 11,5.3 7.1,5.3 C3.1,5.3 0.1,8.7 0.1,12.7 C0.1,15.7 2.2,18.2 4.8,19.1 C6.7,19.9 8.4,20.1 10.4,20.1 C15.4,20 19.3,17.4 22.3,13.5 L12.1,50 L14.8,50.7 L34.3,-18.6 "/>
<path class="Rest" transform="matrix(1.2096,0,0,1.2096,501.103,272.16)" d="M23,16.6 C22.9,16.5 22.7,16.3 22.4,15.9 L10.9,1.7 C10.8,1.6 10.7,1.3 10.7,1.1 C10.7,0.8 10.8,0.4 10.9,0.2 L21.1,-15.2 C21.2,-15.4 21.3,-15.7 21.3,-15.9 L21.3,-16.8 C21.3,-17.1 21.2,-17.4 21,-17.6 L4.8,-39.5 C4.8,-39.5 4.4,-40.1 3.8,-40.1 C3.5,-40.1 3.3,-40.1 3,-39.8 C2.6,-39.5 2.5,-39.1 2.5,-38.8 C2.5,-38.2 2.8,-37.7 2.8,-37.7 L10.4,-27.3 C10.6,-27 10.7,-26.6 10.7,-26.1 C10.7,-25.7 10.6,-25.2 10.4,-24.9 L0.3,-9.5 C0.2,-9.3 0.1,-8.9 0.1,-8.7 L0.1,-7.8 C0.1,-7.5 0.2,-7.2 0.4,-7 L11.6,6.9 C11.2,6.8 10.3,6.6 9.1,6.6 C4,6.6 0,10.8 0,15.9 C0,17.3 0.3,18.7 1.1,19.8 C3.2,23 10.7,32.5 10.7,32.5 C10.7,32.5 11.2,33.1 11.9,33.1 C12.1,33.1 12.3,33.1 12.5,32.9 C13,32.5 13.2,32.1 13.2,31.7 C13.2,31.3 13,31 12.9,30.8 C12.6,30.3 9.4,24.5 9.4,24.5 C9.4,24.5 8.7,23.1 8.7,21.3 C8.7,18.1 11.1,15.5 14.3,15.5 C15.6,15.5 16.7,15.9 17.5,16.4 L21.4,18.9 C21.4,18.9 21.8,19.1 22.2,19.1 C22.6,19.1 22.9,19 23.2,18.6 C23.4,18.3 23.5,18 23.5,17.7 C23.5,17.4 23.4,17.2 23.2,16.9 L23,16.6 "/>
<path class="Beam" fill-rule="evenodd" d="M1819.73,211.68 L1920.54,211.68 L1920.54,226.8 L1819.73,226.8 L1819.73,211.68 "/>
<path class="Beam" fill-rule="evenodd" d="M2654.57,211.68 L2755.38,211.68 L2755.38,226.8 L2654.57,226.8 L2654.57,211.68 "/>
<path class="Lyrics" d="M1168.23,395.904 C1175.46,394.034 1181.92,390.804 1181.92,382.049 C1181.92,373.039 1173.93,367.004 1161.86,367.004 C1155.65,367.004 1150.64,368.619 1147.07,371.764 C1144.26,374.229 1142.56,377.799 1142.56,381.029 C1142.56,385.449 1145.88,388.764 1150.21,388.764 C1154.29,388.764 1157.1,386.044 1157.1,382.049 C1157.1,379.754 1156.16,377.969 1153.78,375.674 C1153.36,375.249 1153.19,374.994 1153.19,374.654 C1153.19,373.039 1156.33,371.424 1159.65,371.424 C1165,371.424 1168.15,375.334 1168.15,381.964 C1168.15,389.359 1165.68,393.864 1161.52,393.864 C1160.84,393.864 1159.99,393.779 1158.63,393.439 C1156.76,393.014 1156.16,392.929 1155.23,392.929 C1153.1,392.929 1152.08,393.864 1152.08,395.734 C1152.08,397.689 1153.36,398.964 1155.14,398.964 C1155.74,398.964 1156.25,398.879 1157.69,398.709 C1159.65,398.539 1160.16,398.454 1160.75,398.454 C1166.02,398.454 1168.66,402.534 1168.66,410.524 C1168.66,419.109 1165.09,423.954 1158.8,423.954 C1155.23,423.954 1151.49,422.169 1151.49,420.384 C1151.49,419.874 1151.74,419.364 1152.25,418.854 C1154.8,416.474 1155.4,415.369 1155.4,412.904 C1155.4,408.909 1152.25,405.849 1148.09,405.849 C1143.5,405.849 1140.44,409.164 1140.44,413.924 C1140.44,422.509 1148.77,428.374 1161.01,428.374 C1172.23,428.374 1183.45,423.699 1183.45,410.779 C1183.45,405.424 1181.07,400.749 1177.16,398.454 C1174.69,397.094 1172.74,396.499 1168.23,395.904"/>
<path class="Lyrics" d="M234.536,367.004 L231.561,367.004 C226.206,370.999 220.171,372.699 210.056,372.869 L210.056,377.629 L213.626,377.629 C221.191,377.629 221.276,377.799 221.191,384.769 L221.191,414.944 C221.191,420.214 221.191,420.469 220.596,421.319 C219.831,422.254 218.131,422.594 213.541,422.594 L210.821,422.594 L210.821,427.184 L244.736,427.184 L244.736,422.594 L242.016,422.594 C237.511,422.594 235.896,422.254 235.131,421.319 C234.536,420.469 234.536,420.129 234.536,414.944 L234.536,367.004 "/>
<path class="Lyrics" d="M2012.6,406.104 L2012.6,379.924 C2012.6,378.649 2012.77,373.124 2013.11,367.004 L2007.24,367.004 L1976.3,405.509 L1976.3,411.799 L1999.25,411.799 L1999.25,414.944 C1999.25,420.214 1999.25,420.554 1998.66,421.404 C1997.98,422.254 1996.19,422.594 1992.2,422.594 L1991.26,422.594 L1991.26,427.184 L2020.25,427.184 L2020.25,422.594 L2019.31,422.594 C2015.57,422.509 2013.79,422.169 2013.19,421.404 C2012.6,420.469 2012.6,420.214 2012.6,414.944 L2012.6,411.799 L2021.1,411.799 L2021.1,406.104 L2012.6,406.104 M1999.25,406.104 L1982.51,406.104 L1999.25,384.854 L1999.25,406.104 "/>
<path class="Lyrics" d="M2847.44,406.104 L2847.44,379.924 C2847.44,378.649 2847.61,373.124 2847.95,367.004 L2842.08,367.004 L2811.14,405.509 L2811.14,411.799 L2834.09,411.799 L2834.09,414.944 C2834.09,420.214 2834.09,420.554 2833.5,421.404 C2832.82,422.254 2831.03,422.594 2827.04,422.594 L2826.1,422.594 L2826.1,427.184 L2855.09,427.184 L2855.09,422.594 L2854.15,422.594 C2850.41,422.509 2848.63,422.169 2848.03,421.404 C2847.44,420.469 2847.44,420.214 2847.44,414.944 L2847.44,411.799 L2855.94,411.799 L2855.94,406.104 L2847.44,406.104 M2834.09,406.104 L2817.35,406.104 L2834.09,384.854 L2834.09,406.104 "/>
<path class="Lyrics" d="M1322.52,406.104 L1322.52,379.924 C1322.52,378.649 1322.69,373.124 1323.03,367.004 L1317.17,367.004 L1286.23,405.509 L1286.23,411.799 L1309.18,411.799 L1309.18,414.944 C1309.18,420.214 1309.18,420.554 1308.58,421.404 C1307.9,422.254 1306.12,422.594 1302.12,422.594 L1301.19,422.594 L1301.19,427.184 L1330.17,427.184 L1330.17,422.594 L1329.24,422.594 C1325.5,422.509 1323.71,422.169 1323.12,421.404 C1322.52,420.469 1322.52,420.214 1322.52,414.944 L1322.52,411.799 L1331.02,411.799 L1331.02,406.104 L1322.52,406.104 M1309.18,406.104 L1292.43,406.104 L1309.18,384.854 L1309.18,406.104 "/>
<path class="Lyrics" d="M2762.78,412.819 C2761.76,418.174 2758.95,421.404 2755.21,421.404 C2751.98,421.404 2749.18,419.874 2745.86,416.219 C2749.26,412.054 2749.69,411.459 2751.47,408.059 C2756.66,397.944 2757.68,396.924 2763.71,396.499 L2764.65,396.499 L2764.65,392.844 L2740.68,392.844 L2740.68,396.499 L2741.53,396.499 C2746.54,396.499 2749.18,397.859 2749.18,400.494 C2749.18,404.149 2746.88,409.164 2743.23,413.329 C2739.15,408.484 2734.3,401.174 2729.54,392.249 C2734.13,390.209 2735.58,389.444 2737.79,387.914 C2741.7,385.194 2744.25,380.519 2744.25,376.014 C2744.25,369.129 2738.89,364.539 2730.99,364.539 C2722.06,364.539 2716.11,370.574 2716.11,379.584 C2716.11,383.324 2717.05,386.639 2719.68,392.249 C2710.16,396.754 2704.98,403.469 2704.98,411.119 C2704.98,415.369 2706.85,420.044 2709.82,423.274 C2712.97,426.674 2717.47,428.459 2723.25,428.459 C2729.37,428.459 2734.05,426.759 2739.57,422.424 C2743.65,426.589 2746.97,428.119 2751.64,428.119 C2760.65,428.119 2765.5,421.574 2766.52,413.329 L2762.78,412.819 M2727.76,388.679 C2725.29,383.579 2724.1,379.754 2724.1,376.609 C2724.1,371.679 2726.82,368.194 2730.73,368.194 C2734.64,368.194 2737.45,371.509 2737.45,376.184 C2737.45,379.414 2736,382.814 2733.79,384.939 C2732.43,386.214 2731.16,386.979 2727.76,388.679 M2721.3,395.734 C2726.82,406.699 2729.71,411.119 2736.94,419.534 C2733.2,421.914 2731.24,422.679 2728.35,422.679 C2720.79,422.679 2714.07,415.029 2714.07,406.529 C2714.07,401.854 2716.2,398.709 2721.3,395.734"/>
<path class="Lyrics" d="M1927.94,412.819 C1926.92,418.174 1924.11,421.404 1920.37,421.404 C1917.14,421.404 1914.34,419.874 1911.02,416.219 C1914.42,412.054 1914.85,411.459 1916.63,408.059 C1921.82,397.944 1922.84,396.924 1928.87,396.499 L1929.81,396.499 L1929.81,392.844 L1905.84,392.844 L1905.84,396.499 L1906.69,396.499 C1911.7,396.499 1914.34,397.859 1914.34,400.494 C1914.34,404.149 1912.04,409.164 1908.39,413.329 C1904.31,408.484 1899.46,401.174 1894.7,392.249 C1899.29,390.209 1900.74,389.444 1902.95,387.914 C1906.86,385.194 1909.41,380.519 1909.41,376.014 C1909.41,369.129 1904.05,364.539 1896.15,364.539 C1887.22,364.539 1881.27,370.574 1881.27,379.584 C1881.27,383.324 1882.21,386.639 1884.84,392.249 C1875.32,396.754 1870.14,403.469 1870.14,411.119 C1870.14,415.369 1872.01,420.044 1874.98,423.274 C1878.13,426.674 1882.63,428.459 1888.41,428.459 C1894.53,428.459 1899.21,426.759 1904.73,422.424 C1908.81,426.589 1912.13,428.119 1916.8,428.119 C1925.81,428.119 1930.66,421.574 1931.68,413.329 L1927.94,412.819 M1892.92,388.679 C1890.45,383.579 1889.26,379.754 1889.26,376.609 C1889.26,371.679 1891.98,368.194 1895.89,368.194 C1899.8,368.194 1902.61,371.509 1902.61,376.184 C1902.61,379.414 1901.16,382.814 1898.95,384.939 C1897.59,386.214 1896.32,386.979 1892.92,388.679 M1886.46,395.734 C1891.98,406.699 1894.87,411.119 1902.1,419.534 C1898.36,421.914 1896.4,422.679 1893.51,422.679 C1885.95,422.679 1879.23,415.029 1879.23,406.529 C1879.23,401.854 1881.36,398.709 1886.46,395.734"/>
<path class="Lyrics" d="M1032.43,404.574 L1031.49,408.824 C1030.73,412.224 1030.22,413.329 1029.54,413.754 C1028.69,414.349 1028.52,414.349 1023.16,414.434 L1006.76,414.434 C1009.73,411.884 1011.94,410.269 1015.26,408.059 C1027.24,400.324 1029.71,398.454 1032.17,395.309 C1035.06,391.484 1036.76,386.979 1036.76,382.984 C1036.76,373.889 1027.84,367.004 1015.85,367.004 C1004.29,367.004 995.367,374.484 995.367,384.174 C995.367,390.124 998.682,393.949 1003.78,393.949 C1008.2,393.949 1011.01,391.144 1011.01,386.724 C1011.01,383.069 1009.39,380.944 1005.48,379.074 C1004.55,378.649 1004.12,378.139 1004.12,377.459 C1004.12,374.739 1008.71,371.849 1012.96,371.849 C1018.91,371.849 1022.31,375.504 1022.31,381.794 C1022.31,388.849 1019.59,393.864 1010.58,403.469 C1001.06,413.584 997.747,417.409 993.497,423.529 L993.497,427.524 C995.707,427.269 996.642,427.184 997.917,427.184 L1029.88,427.184 C1031.49,427.184 1032.51,427.269 1035.06,427.524 L1037.02,404.574 L1032.43,404.574 "/>
<path class="Lyrics" d="M2644.25,395.904 C2651.47,394.034 2657.93,390.804 2657.93,382.049 C2657.93,373.039 2649.94,367.004 2637.87,367.004 C2631.67,367.004 2626.65,368.619 2623.08,371.764 C2620.28,374.229 2618.58,377.799 2618.58,381.029 C2618.58,385.449 2621.89,388.764 2626.23,388.764 C2630.31,388.764 2633.11,386.044 2633.11,382.049 C2633.11,379.754 2632.18,377.969 2629.8,375.674 C2629.37,375.249 2629.2,374.994 2629.2,374.654 C2629.2,373.039 2632.35,371.424 2635.66,371.424 C2641.02,371.424 2644.16,375.334 2644.16,381.964 C2644.16,389.359 2641.7,393.864 2637.53,393.864 C2636.85,393.864 2636,393.779 2634.64,393.439 C2632.77,393.014 2632.18,392.929 2631.24,392.929 C2629.12,392.929 2628.1,393.864 2628.1,395.734 C2628.1,397.689 2629.37,398.964 2631.16,398.964 C2631.75,398.964 2632.26,398.879 2633.71,398.709 C2635.66,398.539 2636.17,398.454 2636.77,398.454 C2642.04,398.454 2644.67,402.534 2644.67,410.524 C2644.67,419.109 2641.1,423.954 2634.81,423.954 C2631.24,423.954 2627.5,422.169 2627.5,420.384 C2627.5,419.874 2627.76,419.364 2628.27,418.854 C2630.82,416.474 2631.41,415.369 2631.41,412.904 C2631.41,408.909 2628.27,405.849 2624.1,405.849 C2619.51,405.849 2616.45,409.164 2616.45,413.924 C2616.45,422.509 2624.78,428.374 2637.02,428.374 C2648.24,428.374 2659.46,423.699 2659.46,410.779 C2659.46,405.424 2657.08,400.749 2653.17,398.454 C2650.71,397.094 2648.75,396.499 2644.25,395.904"/>
<path class="Lyrics" d="M2206.97,367.004 L2203.99,367.004 C2198.64,370.999 2192.6,372.699 2182.49,372.869 L2182.49,377.629 L2186.06,377.629 C2193.62,377.629 2193.71,377.799 2193.62,384.769 L2193.62,414.944 C2193.62,420.214 2193.62,420.469 2193.03,421.319 C2192.26,422.254 2190.56,422.594 2185.97,422.594 L2183.25,422.594 L2183.25,427.184 L2217.17,427.184 L2217.17,422.594 L2214.45,422.594 C2209.94,422.594 2208.33,422.254 2207.56,421.319 C2206.97,420.469 2206.97,420.129 2206.97,414.944 L2206.97,367.004 "/>
<path class="Lyrics" d="M1516.89,367.004 L1513.92,367.004 C1508.56,370.999 1502.53,372.699 1492.41,372.869 L1492.41,377.629 L1495.98,377.629 C1503.55,377.629 1503.63,377.799 1503.55,384.769 L1503.55,414.944 C1503.55,420.214 1503.55,420.469 1502.95,421.319 C1502.19,422.254 1500.49,422.594 1495.9,422.594 L1493.18,422.594 L1493.18,427.184 L1527.09,427.184 L1527.09,422.594 L1524.37,422.594 C1519.87,422.594 1518.25,422.254 1517.49,421.319 C1516.89,420.469 1516.89,420.129 1516.89,414.944 L1516.89,367.004 "/>
<path class="Lyrics" d="M391.249,404.574 L390.314,408.824 C389.549,412.224 389.039,413.329 388.359,413.754 C387.509,414.349 387.339,414.349 381.984,414.434 L365.579,414.434 C368.554,411.884 370.764,410.269 374.079,408.059 C386.064,400.324 388.529,398.454 390.994,395.309 C393.884,391.484 395.584,386.979 395.584,382.984 C395.584,373.889 386.659,367.004 374.674,367.004 C363.114,367.004 354.189,374.484 354.189,384.174 C354.189,390.124 357.504,393.949 362.604,393.949 C367.024,393.949 369.829,391.144 369.829,386.724 C369.829,383.069 368.214,380.944 364.304,379.074 C363.369,378.649 362.944,378.139 362.944,377.459 C362.944,374.739 367.534,371.849 371.784,371.849 C377.734,371.849 381.134,375.504 381.134,381.794 C381.134,388.849 378.414,393.864 369.404,403.469 C359.884,413.584 356.569,417.409 352.319,423.529 L352.319,427.524 C354.529,427.269 355.464,427.184 356.739,427.184 L388.699,427.184 C390.314,427.184 391.334,427.269 393.884,427.524 L395.839,404.574 L391.249,404.574 "/>
<path class="Lyrics" d="M2570.84,399.814 C2570.84,394.459 2569.9,391.739 2567.44,389.699 C2564.63,387.404 2560.47,386.299 2555.03,386.299 C2545.42,386.299 2538.45,390.804 2538.45,397.009 C2538.45,400.154 2540.41,402.194 2543.38,402.194 C2546.1,402.194 2547.97,400.409 2547.97,397.859 C2547.97,396.754 2547.55,395.564 2546.7,394.374 C2546.19,393.779 2546.1,393.609 2546.1,393.184 C2546.1,391.484 2549.5,389.954 2553.58,389.954 C2556.3,389.954 2559.28,390.804 2560.64,392.079 C2562.25,393.439 2562.85,395.479 2562.85,399.304 L2562.85,402.619 C2554.01,404.149 2551.2,404.829 2547.04,406.444 C2539.64,409.164 2536.16,413.074 2536.16,418.514 C2536.16,424.634 2540.92,428.459 2548.48,428.459 C2554.35,428.459 2559.62,426.079 2563.27,421.744 C2564.63,426.079 2566.76,427.779 2570.75,427.779 C2574.58,427.779 2578.57,425.314 2578.57,422.849 C2578.57,422.254 2578.23,421.829 2577.72,421.829 C2577.38,421.829 2577.04,421.914 2576.45,422.169 C2575.26,422.679 2574.75,422.764 2574.07,422.764 C2571.69,422.764 2570.84,421.234 2570.84,416.899 L2570.84,399.814 M2562.85,410.184 C2562.85,415.284 2562.59,416.474 2561.15,418.684 C2559.02,421.829 2555.2,423.954 2551.46,423.954 C2547.55,423.954 2544.74,421.149 2544.74,417.324 C2544.74,413.754 2546.53,411.204 2550.27,409.419 C2552.9,408.229 2556.22,407.379 2562.85,406.274 L2562.85,410.184 "/>
<path class="Lyrics" d="M1809.41,395.904 C1816.63,394.034 1823.09,390.804 1823.09,382.049 C1823.09,373.039 1815.1,367.004 1803.03,367.004 C1796.83,367.004 1791.81,368.619 1788.24,371.764 C1785.44,374.229 1783.74,377.799 1783.74,381.029 C1783.74,385.449 1787.05,388.764 1791.39,388.764 C1795.47,388.764 1798.27,386.044 1798.27,382.049 C1798.27,379.754 1797.34,377.969 1794.96,375.674 C1794.53,375.249 1794.36,374.994 1794.36,374.654 C1794.36,373.039 1797.51,371.424 1800.82,371.424 C1806.18,371.424 1809.32,375.334 1809.32,381.964 C1809.32,389.359 1806.86,393.864 1802.69,393.864 C1802.01,393.864 1801.16,393.779 1799.8,393.439 C1797.93,393.014 1797.34,392.929 1796.4,392.929 C1794.28,392.929 1793.26,393.864 1793.26,395.734 C1793.26,397.689 1794.53,398.964 1796.32,398.964 C1796.91,398.964 1797.42,398.879 1798.87,398.709 C1800.82,398.539 1801.33,398.454 1801.93,398.454 C1807.2,398.454 1809.83,402.534 1809.83,410.524 C1809.83,419.109 1806.26,423.954 1799.97,423.954 C1796.4,423.954 1792.66,422.169 1792.66,420.384 C1792.66,419.874 1792.92,419.364 1793.43,418.854 C1795.98,416.474 1796.57,415.369 1796.57,412.904 C1796.57,408.909 1793.43,405.849 1789.26,405.849 C1784.67,405.849 1781.61,409.164 1781.61,413.924 C1781.61,422.509 1789.94,428.374 1802.18,428.374 C1813.4,428.374 1824.62,423.699 1824.62,410.779 C1824.62,405.424 1822.24,400.749 1818.33,398.454 C1815.87,397.094 1813.91,396.499 1809.41,395.904"/>
<path class="Lyrics" d="M2363.68,404.574 L2362.74,408.824 C2361.98,412.224 2361.47,413.329 2360.79,413.754 C2359.94,414.349 2359.77,414.349 2354.41,414.434 L2338.01,414.434 C2340.98,411.884 2343.19,410.269 2346.51,408.059 C2358.49,400.324 2360.96,398.454 2363.42,395.309 C2366.31,391.484 2368.01,386.979 2368.01,382.984 C2368.01,373.889 2359.09,367.004 2347.1,367.004 C2335.54,367.004 2326.62,374.484 2326.62,384.174 C2326.62,390.124 2329.93,393.949 2335.03,393.949 C2339.45,393.949 2342.26,391.144 2342.26,386.724 C2342.26,383.069 2340.64,380.944 2336.73,379.074 C2335.8,378.649 2335.37,378.139 2335.37,377.459 C2335.37,374.739 2339.96,371.849 2344.21,371.849 C2350.16,371.849 2353.56,375.504 2353.56,381.794 C2353.56,388.849 2350.84,393.864 2341.83,403.469 C2332.31,413.584 2329,417.409 2324.75,423.529 L2324.75,427.524 C2326.96,427.269 2327.89,427.184 2329.17,427.184 L2361.13,427.184 C2362.74,427.184 2363.76,427.269 2366.31,427.524 L2368.27,404.574 L2363.68,404.574 "/>
<path class="Lyrics" d="M1673.6,404.574 L1672.67,408.824 C1671.9,412.224 1671.39,413.329 1670.71,413.754 C1669.86,414.349 1669.69,414.349 1664.34,414.434 L1647.93,414.434 C1650.91,411.884 1653.12,410.269 1656.43,408.059 C1668.42,400.324 1670.88,398.454 1673.35,395.309 C1676.24,391.484 1677.94,386.979 1677.94,382.984 C1677.94,373.889 1669.01,367.004 1657.03,367.004 C1645.47,367.004 1636.54,374.484 1636.54,384.174 C1636.54,390.124 1639.86,393.949 1644.96,393.949 C1649.38,393.949 1652.18,391.144 1652.18,386.724 C1652.18,383.069 1650.57,380.944 1646.66,379.074 C1645.72,378.649 1645.3,378.139 1645.3,377.459 C1645.3,374.739 1649.89,371.849 1654.14,371.849 C1660.09,371.849 1663.49,375.504 1663.49,381.794 C1663.49,388.849 1660.77,393.864 1651.76,403.469 C1642.24,413.584 1638.92,417.409 1634.67,423.529 L1634.67,427.524 C1636.88,427.269 1637.82,427.184 1639.09,427.184 L1671.05,427.184 C1672.67,427.184 1673.69,427.269 1676.24,427.524 L1678.19,404.574 L1673.6,404.574 "/>
<path class="Lyrics" d="M875.714,367.004 L872.739,367.004 C867.384,370.999 861.349,372.699 851.234,372.869 L851.234,377.629 L854.804,377.629 C862.369,377.629 862.454,377.799 862.369,384.769 L862.369,414.944 C862.369,420.214 862.369,420.469 861.774,421.319 C861.009,422.254 859.309,422.594 854.719,422.594 L851.999,422.594 L851.999,427.184 L885.914,427.184 L885.914,422.594 L883.194,422.594 C878.689,422.594 877.074,422.254 876.309,421.319 C875.714,420.469 875.714,420.129 875.714,414.944 L875.714,367.004 "/>
<path class="Lyrics" d="M681.346,406.104 L681.346,379.924 C681.346,378.649 681.516,373.124 681.856,367.004 L675.991,367.004 L645.051,405.509 L645.051,411.799 L668.001,411.799 L668.001,414.944 C668.001,420.214 668.001,420.554 667.406,421.404 C666.726,422.254 664.941,422.594 660.946,422.594 L660.011,422.594 L660.011,427.184 L688.996,427.184 L688.996,422.594 L688.061,422.594 C684.321,422.509 682.536,422.169 681.941,421.404 C681.346,420.469 681.346,420.214 681.346,414.944 L681.346,411.799 L689.846,411.799 L689.846,406.104 L681.346,406.104 M668.001,406.104 L651.256,406.104 L668.001,384.854 L668.001,406.104 "/>
<path class="StaffText" d="M220.943,160.44 L224.423,160.44 C230.483,160.68 232.883,163.14 233.543,169.74 L233.843,172.8 C234.563,179.58 236.783,182.34 241.523,182.34 C246.443,182.34 248.783,179.04 248.963,171.84 L246.443,171.84 C246.203,175.98 245.483,177.78 243.863,177.78 C242.483,177.78 241.883,176.76 240.863,172.62 L239.903,168.84 C238.583,163.32 236.243,160.8 231.563,159.6 C240.203,158.4 244.343,154.92 244.343,148.86 C244.343,142.02 238.583,138.12 228.503,138.12 L207.743,138.12 L207.743,140.94 L208.823,140.94 C212.243,141 213.383,141.18 213.863,141.78 C214.223,142.32 214.223,142.44 214.223,145.5 L214.223,174.12 C214.223,177.12 214.223,177.24 213.863,177.84 C213.383,178.44 212.243,178.62 208.823,178.62 L207.743,178.62 L207.743,181.44 L227.423,181.44 L227.423,178.62 L226.343,178.62 C222.923,178.62 221.783,178.44 221.303,177.84 C220.943,177.24 220.943,177.12 220.943,174.12 L220.943,160.44 M220.943,157.62 L220.943,144.42 C220.823,141.12 221.123,140.88 225.083,140.94 L228.323,140.94 C234.263,140.94 236.963,143.46 236.963,148.92 C236.963,155.22 233.603,157.62 227.543,157.62 L220.943,157.62 "/>
<path class="StaffText" d="M1649.99,129.309 L1653.47,129.309 C1659.53,129.549 1661.93,132.009 1662.59,138.609 L1662.89,141.669 C1663.61,148.449 1665.83,151.209 1670.57,151.209 C1675.49,151.209 1677.83,147.909 1678.01,140.709 L1675.49,140.709 C1675.25,144.849 1674.53,146.649 1672.91,146.649 C1671.53,146.649 1670.93,145.629 1669.91,141.489 L1668.95,137.709 C1667.63,132.189 1665.29,129.669 1660.61,128.469 C1669.25,127.269 1673.39,123.789 1673.39,117.729 C1673.39,110.889 1667.63,106.989 1657.55,106.989 L1636.79,106.989 L1636.79,109.809 L1637.87,109.809 C1641.29,109.869 1642.43,110.049 1642.91,110.649 C1643.27,111.189 1643.27,111.309 1643.27,114.369 L1643.27,142.989 C1643.27,145.989 1643.27,146.109 1642.91,146.709 C1642.43,147.309 1641.29,147.489 1637.87,147.489 L1636.79,147.489 L1636.79,150.309 L1656.47,150.309 L1656.47,147.489 L1655.39,147.489 C1651.97,147.489 1650.83,147.309 1650.35,146.709 C1649.99,146.109 1649.99,145.989 1649.99,142.989 L1649.99,129.309 M1649.99,126.489 L1649.99,113.289 C1649.87,109.989 1650.17,109.749 1654.13,109.809 L1657.37,109.809 C1663.31,109.809 1666.01,112.329 1666.01,117.789 C1666.01,124.089 1662.65,126.489 1656.59,126.489 L1649.99,126.489 "/>
<path class="StaffText" d="M2340.06,120.313 L2343.54,120.313 C2349.6,120.553 2352,123.013 2352.66,129.613 L2352.96,132.673 C2353.68,139.453 2355.9,142.213 2360.64,142.213 C2365.56,142.213 2367.9,138.913 2368.08,131.713 L2365.56,131.713 C2365.32,135.853 2364.6,137.653 2362.98,137.653 C2361.6,137.653 2361,136.633 2359.98,132.493 L2359.02,128.713 C2357.7,123.193 2355.36,120.673 2350.68,119.473 C2359.32,118.273 2363.46,114.793 2363.46,108.733 C2363.46,101.893 2357.7,97.993 2347.62,97.993 L2326.86,97.993 L2326.86,100.813 L2327.94,100.813 C2331.36,100.873 2332.5,101.053 2332.98,101.653 C2333.34,102.193 2333.34,102.313 2333.34,105.373 L2333.34,133.993 C2333.34,136.993 2333.34,137.113 2332.98,137.713 C2332.5,138.313 2331.36,138.493 2327.94,138.493 L2326.86,138.493 L2326.86,141.313 L2346.54,141.313 L2346.54,138.493 L2345.46,138.493 C2342.04,138.493 2340.9,138.313 2340.42,137.713 C2340.06,137.113 2340.06,136.993 2340.06,133.993 L2340.06,120.313 M2340.06,117.493 L2340.06,104.293 C2339.94,100.993 2340.24,100.753 2344.2,100.813 L2347.44,100.813 C2353.38,100.813 2356.08,103.333 2356.08,108.793 C2356.08,115.093 2352.72,117.493 2346.66,117.493 L2340.06,117.493 "/>
<path class="StaffText" d="M1796.67,160.44 L1800.15,160.44 C1806.21,160.68 1808.61,163.14 1809.27,169.74 L1809.57,172.8 C1810.29,179.58 1812.51,182.34 1817.25,182.34 C1822.17,182.34 1824.51,179.04 1824.69,171.84 L1822.17,171.84 C1821.93,175.98 1821.21,177.78 1819.59,177.78 C1818.21,177.78 1817.61,176.76 1816.59,172.62 L1815.63,168.84 C1814.31,163.32 1811.97,160.8 1807.29,159.6 C1815.93,158.4 1820.07,154.92 1820.07,148.86 C1820.07,142.02 1814.31,138.12 1804.23,138.12 L1783.47,138.12 L1783.47,140.94 L1784.55,140.94 C1787.97,141 1789.11,141.18 1789.59,141.78 C1789.95,142.32 1789.95,142.44 1789.95,145.5 L1789.95,174.12 C1789.95,177.12 1789.95,177.24 1789.59,177.84 C1789.11,178.44 1787.97,178.62 1784.55,178.62 L1783.47,178.62 L1783.47,181.44 L1803.15,181.44 L1803.15,178.62 L1802.07,178.62 C1798.65,178.62 1797.51,178.44 1797.03,177.84 C1796.67,177.24 1796.67,177.12 1796.67,174.12 L1796.67,160.44 M1796.67,157.62 L1796.67,144.42 C1796.55,141.12 1796.85,140.88 1800.81,140.94 L1804.05,140.94 C1809.99,140.94 1812.69,143.46 1812.69,148.92 C1812.69,155.22 1809.33,157.62 1803.27,157.62 L1796.67,157.62 "/>
<path class="StaffText" d="M2574.38,165 L2571.74,165 C2569.76,175.8 2567.06,178.44 2557.76,178.62 L2555.24,178.62 C2551.64,178.5 2550.74,177.9 2550.92,175.74 L2550.92,145.5 C2550.92,142.5 2550.92,142.32 2551.28,141.78 C2551.76,141.18 2552.9,141 2556.32,140.94 L2557.4,140.94 L2557.4,138.12 L2537.72,138.12 L2537.72,140.94 L2538.8,140.94 C2542.22,141 2543.36,141.18 2543.84,141.78 C2544.2,142.32 2544.2,142.44 2544.2,145.5 L2544.2,174.06 C2544.2,177.12 2544.2,177.24 2543.84,177.78 C2543.36,178.38 2542.22,178.62 2538.8,178.62 L2537.72,178.62 L2537.72,181.44 L2573.12,181.44 L2574.38,165 "/>
<path class="StaffText" d="M862.121,160.44 L865.601,160.44 C871.661,160.68 874.061,163.14 874.721,169.74 L875.021,172.8 C875.741,179.58 877.961,182.34 882.701,182.34 C887.621,182.34 889.961,179.04 890.141,171.84 L887.621,171.84 C887.381,175.98 886.661,177.78 885.041,177.78 C883.661,177.78 883.061,176.76 882.041,172.62 L881.081,168.84 C879.761,163.32 877.421,160.8 872.741,159.6 C881.381,158.4 885.521,154.92 885.521,148.86 C885.521,142.02 879.761,138.12 869.681,138.12 L848.921,138.12 L848.921,140.94 L850.001,140.94 C853.421,141 854.561,141.18 855.041,141.78 C855.401,142.32 855.401,142.44 855.401,145.5 L855.401,174.12 C855.401,177.12 855.401,177.24 855.041,177.84 C854.561,178.44 853.421,178.62 850.001,178.62 L848.921,178.62 L848.921,181.44 L868.601,181.44 L868.601,178.62 L867.521,178.62 C864.101,178.62 862.961,178.44 862.481,177.84 C862.121,177.24 862.121,177.12 862.121,174.12 L862.121,160.44 M862.121,157.62 L862.121,144.42 C862.001,141.12 862.301,140.88 866.261,140.94 L869.501,140.94 C875.441,140.94 878.141,143.46 878.141,148.92 C878.141,155.22 874.781,157.62 868.721,157.62 L862.121,157.62 "/>
<path class="StaffText" d="M1503.3,160.44 L1506.78,160.44 C1512.84,160.68 1515.24,163.14 1515.9,169.74 L1516.2,172.8 C1516.92,179.58 1519.14,182.34 1523.88,182.34 C1528.8,182.34 1531.14,179.04 1531.32,171.84 L1528.8,171.84 C1528.56,175.98 1527.84,177.78 1526.22,177.78 C1524.84,177.78 1524.24,176.76 1523.22,172.62 L1522.26,168.84 C1520.94,163.32 1518.6,160.8 1513.92,159.6 C1522.56,158.4 1526.7,154.92 1526.7,148.86 C1526.7,142.02 1520.94,138.12 1510.86,138.12 L1490.1,138.12 L1490.1,140.94 L1491.18,140.94 C1494.6,141 1495.74,141.18 1496.22,141.78 C1496.58,142.32 1496.58,142.44 1496.58,145.5 L1496.58,174.12 C1496.58,177.12 1496.58,177.24 1496.22,177.84 C1495.74,178.44 1494.6,178.62 1491.18,178.62 L1490.1,178.62 L1490.1,181.44 L1509.78,181.44 L1509.78,178.62 L1508.7,178.62 C1505.28,178.62 1504.14,178.44 1503.66,177.84 C1503.3,177.24 1503.3,177.12 1503.3,174.12 L1503.3,160.44 M1503.3,157.62 L1503.3,144.42 C1503.18,141.12 1503.48,140.88 1507.44,140.94 L1510.68,140.94 C1516.62,140.94 1519.32,143.46 1519.32,148.92 C1519.32,155.22 1515.96,157.62 1509.9,157.62 L1503.3,157.62 "/>
<path class="StaffText" d="M2193.37,160.44 L2196.85,160.44 C2202.91,160.68 2205.31,163.14 2205.97,169.74 L2206.27,172.8 C2206.99,179.58 2209.21,182.34 2213.95,182.34 C2218.87,182.34 2221.21,179.04 2221.39,171.84 L2218.87,171.84 C2218.63,175.98 2217.91,177.78 2216.29,177.78 C2214.91,177.78 2214.31,176.76 2213.29,172.62 L2212.33,168.84 C2211.01,163.32 2208.67,160.8 2203.99,159.6 C2212.63,158.4 2216.77,154.92 2216.77,148.86 C2216.77,142.02 2211.01,138.12 2200.93,138.12 L2180.17,138.12 L2180.17,140.94 L2181.25,140.94 C2184.67,141 2185.81,141.18 2186.29,141.78 C2186.65,142.32 2186.65,142.44 2186.65,145.5 L2186.65,174.12 C2186.65,177.12 2186.65,177.24 2186.29,177.84 C2185.81,178.44 2184.67,178.62 2181.25,178.62 L2180.17,178.62 L2180.17,181.44 L2199.85,181.44 L2199.85,178.62 L2198.77,178.62 C2195.35,178.62 2194.21,178.44 2193.73,177.84 C2193.37,177.24 2193.37,177.12 2193.37,174.12 L2193.37,160.44 M2193.37,157.62 L2193.37,144.42 C2193.25,141.12 2193.55,140.88 2197.51,140.94 L2200.75,140.94 C2206.69,140.94 2209.39,143.46 2209.39,148.92 C2209.39,155.22 2206.03,157.62 2199.97,157.62 L2193.37,157.62 "/>
<path class="StaffText" d="M661.002,136.869 L664.482,136.869 C670.542,137.109 672.942,139.569 673.602,146.169 L673.902,149.229 C674.622,156.009 676.842,158.769 681.582,158.769 C686.502,158.769 688.842,155.469 689.022,148.269 L686.502,148.269 C686.262,152.409 685.542,154.209 683.922,154.209 C682.542,154.209 681.942,153.189 680.922,149.049 L679.962,145.269 C678.642,139.749 676.302,137.229 671.622,136.029 C680.262,134.829 684.402,131.349 684.402,125.289 C684.402,118.449 678.642,114.549 668.562,114.549 L647.802,114.549 L647.802,117.369 L648.882,117.369 C652.302,117.429 653.442,117.609 653.922,118.209 C654.282,118.749 654.282,118.869 654.282,121.929 L654.282,150.549 C654.282,153.549 654.282,153.669 653.922,154.269 C653.442,154.869 652.302,155.049 648.882,155.049 L647.802,155.049 L647.802,157.869 L667.482,157.869 L667.482,155.049 L666.402,155.049 C662.982,155.049 661.842,154.869 661.362,154.269 C661.002,153.669 661.002,153.549 661.002,150.549 L661.002,136.869 M661.002,134.049 L661.002,120.849 C660.882,117.549 661.182,117.309 665.142,117.369 L668.382,117.369 C674.322,117.369 677.022,119.889 677.022,125.349 C677.022,131.649 673.662,134.049 667.602,134.049 L661.002,134.049 "/>
<path class="StaffText" d="M2631.51,160.44 L2634.99,160.44 C2641.05,160.68 2643.45,163.14 2644.11,169.74 L2644.41,172.8 C2645.13,179.58 2647.35,182.34 2652.09,182.34 C2657.01,182.34 2659.35,179.04 2659.53,171.84 L2657.01,171.84 C2656.77,175.98 2656.05,177.78 2654.43,177.78 C2653.05,177.78 2652.45,176.76 2651.43,172.62 L2650.47,168.84 C2649.15,163.32 2646.81,160.8 2642.13,159.6 C2650.77,158.4 2654.91,154.92 2654.91,148.86 C2654.91,142.02 2649.15,138.12 2639.07,138.12 L2618.31,138.12 L2618.31,140.94 L2619.39,140.94 C2622.81,141 2623.95,141.18 2624.43,141.78 C2624.79,142.32 2624.79,142.44 2624.79,145.5 L2624.79,174.12 C2624.79,177.12 2624.79,177.24 2624.43,177.84 C2623.95,178.44 2622.81,178.62 2619.39,178.62 L2618.31,178.62 L2618.31,181.44 L2637.99,181.44 L2637.99,178.62 L2636.91,178.62 C2633.49,178.62 2632.35,178.44 2631.87,177.84 C2631.51,177.24 2631.51,177.12 2631.51,174.12 L2631.51,160.44 M2631.51,157.62 L2631.51,144.42 C2631.39,141.12 2631.69,140.88 2635.65,140.94 L2638.89,140.94 C2644.83,140.94 2647.53,143.46 2647.53,148.92 C2647.53,155.22 2644.17,157.62 2638.11,157.62 L2631.51,157.62 "/>
<path class="StaffText" d="M367.63,136.869 L371.11,136.869 C377.17,137.109 379.57,139.569 380.23,146.169 L380.53,149.229 C381.25,156.009 383.47,158.769 388.21,158.769 C393.13,158.769 395.47,155.469 395.65,148.269 L393.13,148.269 C392.89,152.409 392.17,154.209 390.55,154.209 C389.17,154.209 388.57,153.189 387.55,149.049 L386.59,145.269 C385.27,139.749 382.93,137.229 378.25,136.029 C386.89,134.829 391.03,131.349 391.03,125.289 C391.03,118.449 385.27,114.549 375.19,114.549 L354.43,114.549 L354.43,117.369 L355.51,117.369 C358.93,117.429 360.07,117.609 360.55,118.209 C360.91,118.749 360.91,118.869 360.91,121.929 L360.91,150.549 C360.91,153.549 360.91,153.669 360.55,154.269 C360.07,154.869 358.93,155.049 355.51,155.049 L354.43,155.049 L354.43,157.869 L374.11,157.869 L374.11,155.049 L373.03,155.049 C369.61,155.049 368.47,154.869 367.99,154.269 C367.63,153.669 367.63,153.549 367.63,150.549 L367.63,136.869 M367.63,134.049 L367.63,120.849 C367.51,117.549 367.81,117.309 371.77,117.369 L375.01,117.369 C380.95,117.369 383.65,119.889 383.65,125.349 C383.65,131.649 380.29,134.049 374.23,134.049 L367.63,134.049 "/>
<path class="StaffText" d="M1008.81,136.869 L1012.29,136.869 C1018.35,137.109 1020.75,139.569 1021.41,146.169 L1021.71,149.229 C1022.43,156.009 1024.65,158.769 1029.39,158.769 C1034.31,158.769 1036.65,155.469 1036.83,148.269 L1034.31,148.269 C1034.07,152.409 1033.35,154.209 1031.73,154.209 C1030.35,154.209 1029.75,153.189 1028.73,149.049 L1027.77,145.269 C1026.45,139.749 1024.11,137.229 1019.43,136.029 C1028.07,134.829 1032.21,131.349 1032.21,125.289 C1032.21,118.449 1026.45,114.549 1016.37,114.549 L995.607,114.549 L995.607,117.369 L996.687,117.369 C1000.11,117.429 1001.25,117.609 1001.73,118.209 C1002.09,118.749 1002.09,118.869 1002.09,121.929 L1002.09,150.549 C1002.09,153.549 1002.09,153.669 1001.73,154.269 C1001.25,154.869 1000.11,155.049 996.687,155.049 L995.607,155.049 L995.607,157.869 L1015.29,157.869 L1015.29,155.049 L1014.21,155.049 C1010.79,155.049 1009.65,154.869 1009.17,154.269 C1008.81,153.669 1008.81,153.549 1008.81,150.549 L1008.81,136.869 M1008.81,134.049 L1008.81,120.849 C1008.69,117.549 1008.99,117.309 1012.95,117.369 L1016.19,117.369 C1022.13,117.369 1024.83,119.889 1024.83,125.349 C1024.83,131.649 1021.47,134.049 1015.41,134.049 L1008.81,134.049 "/>
<path class="StaffText" d="M2729.3,160.44 L2732.78,160.44 C2738.84,160.68 2741.24,163.14 2741.9,169.74 L2742.2,172.8 C2742.92,179.58 2745.14,182.34 2749.88,182.34 C2754.8,182.34 2757.14,179.04 2757.32,171.84 L2754.8,171.84 C2754.56,175.98 2753.84,177.78 2752.22,177.78 C2750.84,177.78 2750.24,176.76 2749.22,172.62 L2748.26,168.84 C2746.94,163.32 2744.6,160.8 2739.92,159.6 C2748.56,158.4 2752.7,154.92 2752.7,148.86 C2752.7,142.02 2746.94,138.12 2736.86,138.12 L2716.1,138.12 L2716.1,140.94 L2717.18,140.94 C2720.6,141 2721.74,141.18 2722.22,141.78 C2722.58,142.32 2722.58,142.44 2722.58,145.5 L2722.58,174.12 C2722.58,177.12 2722.58,177.24 2722.22,177.84 C2721.74,178.44 2720.6,178.62 2717.18,178.62 L2716.1,178.62 L2716.1,181.44 L2735.78,181.44 L2735.78,178.62 L2734.7,178.62 C2731.28,178.62 2730.14,178.44 2729.66,177.84 C2729.3,177.24 2729.3,177.12 2729.3,174.12 L2729.3,160.44 M2729.3,157.62 L2729.3,144.42 C2729.18,141.12 2729.48,140.88 2733.44,140.94 L2736.68,140.94 C2742.62,140.94 2745.32,143.46 2745.32,148.92 C2745.32,155.22 2741.96,157.62 2735.9,157.62 L2729.3,157.62 "/>
<path class="StaffText" d="M1302.18,136.869 L1305.66,136.869 C1311.72,137.109 1314.12,139.569 1314.78,146.169 L1315.08,149.229 C1315.8,156.009 1318.02,158.769 1322.76,158.769 C1327.68,158.769 1330.02,155.469 1330.2,148.269 L1327.68,148.269 C1327.44,152.409 1326.72,154.209 1325.1,154.209 C1323.72,154.209 1323.12,153.189 1322.1,149.049 L1321.14,145.269 C1319.82,139.749 1317.48,137.229 1312.8,136.029 C1321.44,134.829 1325.58,131.349 1325.58,125.289 C1325.58,118.449 1319.82,114.549 1309.74,114.549 L1288.98,114.549 L1288.98,117.369 L1290.06,117.369 C1293.48,117.429 1294.62,117.609 1295.1,118.209 C1295.46,118.749 1295.46,118.869 1295.46,121.929 L1295.46,150.549 C1295.46,153.549 1295.46,153.669 1295.1,154.269 C1294.62,154.869 1293.48,155.049 1290.06,155.049 L1288.98,155.049 L1288.98,157.869 L1308.66,157.869 L1308.66,155.049 L1307.58,155.049 C1304.16,155.049 1303.02,154.869 1302.54,154.269 C1302.18,153.669 1302.18,153.549 1302.18,150.549 L1302.18,136.869 M1302.18,134.049 L1302.18,120.849 C1302.06,117.549 1302.36,117.309 1306.32,117.369 L1309.56,117.369 C1315.5,117.369 1318.2,119.889 1318.2,125.349 C1318.2,131.649 1314.84,134.049 1308.78,134.049 L1302.18,134.049 "/>
<path class="StaffText" d="M1917.92,165 L1915.28,165 C1913.3,175.8 1910.6,178.44 1901.3,178.62 L1898.78,178.62 C1895.18,178.5 1894.28,177.9 1894.46,175.74 L1894.46,145.5 C1894.46,142.5 1894.46,142.32 1894.82,141.78 C1895.3,141.18 1896.44,141 1899.86,140.94 L1900.94,140.94 L1900.94,138.12 L1881.26,138.12 L1881.26,140.94 L1882.34,140.94 C1885.76,141 1886.9,141.18 1887.38,141.78 C1887.74,142.32 1887.74,142.44 1887.74,145.5 L1887.74,174.06 C1887.74,177.12 1887.74,177.24 1887.38,177.78 C1886.9,178.38 1885.76,178.62 1882.34,178.62 L1881.26,178.62 L1881.26,181.44 L1916.66,181.44 L1917.92,165 "/>
<path class="StaffText" d="M1992.25,136.869 L1995.73,136.869 C2001.79,137.109 2004.19,139.569 2004.85,146.169 L2005.15,149.229 C2005.87,156.009 2008.09,158.769 2012.83,158.769 C2017.75,158.769 2020.09,155.469 2020.27,148.269 L2017.75,148.269 C2017.51,152.409 2016.79,154.209 2015.17,154.209 C2013.79,154.209 2013.19,153.189 2012.17,149.049 L2011.21,145.269 C2009.89,139.749 2007.55,137.229 2002.87,136.029 C2011.51,134.829 2015.65,131.349 2015.65,125.289 C2015.65,118.449 2009.89,114.549 1999.81,114.549 L1979.05,114.549 L1979.05,117.369 L1980.13,117.369 C1983.55,117.429 1984.69,117.609 1985.17,118.209 C1985.53,118.749 1985.53,118.869 1985.53,121.929 L1985.53,150.549 C1985.53,153.549 1985.53,153.669 1985.17,154.269 C1984.69,154.869 1983.55,155.049 1980.13,155.049 L1979.05,155.049 L1979.05,157.869 L1998.73,157.869 L1998.73,155.049 L1997.65,155.049 C1994.23,155.049 1993.09,154.869 1992.61,154.269 C1992.25,153.669 1992.25,153.549 1992.25,150.549 L1992.25,136.869 M1992.25,134.049 L1992.25,120.849 C1992.13,117.549 1992.43,117.309 1996.39,117.369 L1999.63,117.369 C2005.57,117.369 2008.27,119.889 2008.27,125.349 C2008.27,131.649 2004.91,134.049 1998.85,134.049 L1992.25,134.049 "/>
<path class="StaffText" d="M2827.09,136.869 L2830.57,136.869 C2836.63,137.109 2839.03,139.569 2839.69,146.169 L2839.99,149.229 C2840.71,156.009 2842.93,158.769 2847.67,158.769 C2852.59,158.769 2854.93,155.469 2855.11,148.269 L2852.59,148.269 C2852.35,152.409 2851.63,154.209 2850.01,154.209 C2848.63,154.209 2848.03,153.189 2847.01,149.049 L2846.05,145.269 C2844.73,139.749 2842.39,137.229 2837.71,136.029 C2846.35,134.829 2850.49,131.349 2850.49,125.289 C2850.49,118.449 2844.73,114.549 2834.65,114.549 L2813.89,114.549 L2813.89,117.369 L2814.97,117.369 C2818.39,117.429 2819.53,117.609 2820.01,118.209 C2820.37,118.749 2820.37,118.869 2820.37,121.929 L2820.37,150.549 C2820.37,153.549 2820.37,153.669 2820.01,154.269 C2819.53,154.869 2818.39,155.049 2814.97,155.049 L2813.89,155.049 L2813.89,157.869 L2833.57,157.869 L2833.57,155.049 L2832.49,155.049 C2829.07,155.049 2827.93,154.869 2827.45,154.269 C2827.09,153.669 2827.09,153.549 2827.09,150.549 L2827.09,136.869 M2827.09,134.049 L2827.09,120.849 C2826.97,117.549 2827.27,117.309 2831.23,117.369 L2834.47,117.369 C2840.41,117.369 2843.11,119.889 2843.11,125.349 C2843.11,131.649 2839.75,134.049 2833.69,134.049 L2827.09,134.049 "/>
<path class="StaffText" d="M1155.49,160.44 L1158.97,160.44 C1165.03,160.68 1167.43,163.14 1168.09,169.74 L1168.39,172.8 C1169.11,179.58 1171.33,182.34 1176.07,182.34 C1180.99,182.34 1183.33,179.04 1183.51,171.84 L1180.99,171.84 C1180.75,175.98 1180.03,177.78 1178.41,177.78 C1177.03,177.78 1176.43,176.76 1175.41,172.62 L1174.45,168.84 C1173.13,163.32 1170.79,160.8 1166.11,159.6 C1174.75,158.4 1178.89,154.92 1178.89,148.86 C1178.89,142.02 1173.13,138.12 1163.05,138.12 L1142.29,138.12 L1142.29,140.94 L1143.37,140.94 C1146.79,141 1147.93,141.18 1148.41,141.78 C1148.77,142.32 1148.77,142.44 1148.77,145.5 L1148.77,174.12 C1148.77,177.12 1148.77,177.24 1148.41,177.84 C1147.93,178.44 1146.79,178.62 1143.37,178.62 L1142.29,178.62 L1142.29,181.44 L1161.97,181.44 L1161.97,178.62 L1160.89,178.62 C1157.47,178.62 1156.33,178.44 1155.85,177.84 C1155.49,177.24 1155.49,177.12 1155.49,174.12 L1155.49,160.44 M1155.49,157.62 L1155.49,144.42 C1155.37,141.12 1155.67,140.88 1159.63,140.94 L1162.87,140.94 C1168.81,140.94 1171.51,143.46 1171.51,148.92 C1171.51,155.22 1168.15,157.62 1162.09,157.62 L1155.49,157.62 "/>
</svg>
