<?xml version="1.0" encoding="UTF-8" standalone="no"?>
<svg width="2977.2px" height="540px" viewBox="0 0 2977.2 540"
 xmlns="http://www.w3.org/2000/svg" xmlns:xlink="http://www.w3.org/1999/xlink" version="1.2" baseProfile="tiny">
<title>jenny</title>
<desc>Generated by MuseScore Studio 4.4.4</desc>
<path class="" fill="#ffffff" fill-rule="evenodd" d="M0,0 L2977.2,0 L2977.2,540 L0,540 L0,0 "/>
<polyline class="StaffLines" fill="none" stroke="#000000" stroke-width="3.33" stroke-linejoin="bevel" points="0,211.68 2977.2,211.68"/>
<polyline class="StaffLines" fill="none" stroke="#000000" stroke-width="3.33" stroke-linejoin="bevel" points="0,241.92 2977.2,241.92"/>
<polyline class="StaffLines" fill="none" stroke="#000000" stroke-width="3.33" stroke-linejoin="bevel" points="0,272.16 2977.2,272.16"/>
<polyline class="StaffLines" fill="none" stroke="#000000" stroke-width="3.33" stroke-linejoin="bevel" points="0,302.4 2977.2,302.4"/>
<polyline class="StaffLines" fill="none" stroke="#000000" stroke-width="3.33" stroke-linejoin="bevel" points="0,332.64 2977.2,332.64"/>
<polyline class="BarLine" fill="none" stroke="#000000" stroke-width="16.63" stroke-linejoin="bevel" points="2968.88,210.017 2968.88,334.303"/>
<polyline class="BarLine" fill="none" stroke="#000000" stroke-width="16.63" stroke-linejoin="bevel" points="1932.4,210.017 1932.4,334.303"/>
<polyline class="BarLine" fill="none" stroke="#000000" stroke-width="16.63" stroke-linejoin="bevel" points="895.925,210.017 895.925,334.303"/>
<polyline class="Stem" fill="none" stroke="#000000" stroke-width="3.02" stroke-linejoin="bevel" points="245.511,312.682 245.511,211.68"/>
<polyline class="Stem" fill="none" stroke="#000000" stroke-width="3.02" stroke-linejoin="bevel" points="2205.16,252.202 2205.16,158.881"/>
<polyline class="Stem" fill="none" stroke="#000000" stroke-width="3.02" stroke-linejoin="bevel" points="415.481,312.682 415.481,211.68"/>
<polyline class="Stem" fill="none" stroke="#000000" stroke-width="3.02" stroke-linejoin="bevel" points="1848.56,252.202 1848.56,159.002"/>
<polyline class="Stem" fill="none" stroke="#000000" stroke-width="3.02" stroke-linejoin="bevel" points="2885.04,252.202 2885.04,174.077"/>
<polyline class="Stem" fill="none" stroke="#000000" stroke-width="3.02" stroke-linejoin="bevel" points="2394.01,252.202 2394.01,174.077"/>
<polyline class="Stem" fill="none" stroke="#000000" stroke-width="3.02" stroke-linejoin="bevel" points="585.451,312.682 585.451,211.68"/>
<polyline class="Stem" fill="none" stroke="#000000" stroke-width="3.02" stroke-linejoin="bevel" points="2280.7,312.682 2280.7,188.803"/>
<polyline class="Stem" fill="none" stroke="#000000" stroke-width="3.02" stroke-linejoin="bevel" points="2771.72,312.682 2771.72,188.803"/>
<polyline class="Stem" fill="none" stroke="#000000" stroke-width="3.02" stroke-linejoin="bevel" points="2016.3,312.682 2016.3,211.922"/>
<polyline class="Stem" fill="none" stroke="#000000" stroke-width="3.02" stroke-linejoin="bevel" points="755.42,312.682 755.42,211.68"/>
<polyline class="Stem" fill="none" stroke="#000000" stroke-width="3.02" stroke-linejoin="bevel" points="1659.7,312.682 1659.7,211.922"/>
<polyline class="Stem" fill="none" stroke="#000000" stroke-width="3.02" stroke-linejoin="bevel" points="2696.18,252.202 2696.18,158.881"/>
<polyline class="Stem" fill="none" stroke="#000000" stroke-width="3.02" stroke-linejoin="bevel" points="1168.68,312.682 1168.68,211.922"/>
<polyline class="Stem" fill="none" stroke="#000000" stroke-width="3.02" stroke-linejoin="bevel" points="1357.53,252.202 1357.53,159.002"/>
<polyline class="Stem" fill="none" stroke="#000000" stroke-width="3.02" stroke-linejoin="bevel" points="2507.33,312.682 2507.33,211.922"/>
<polyline class="Stem" fill="none" stroke="#000000" stroke-width="3.02" stroke-linejoin="bevel" points="1470.85,312.682 1470.85,211.922"/>
<polyline class="Stem" fill="none" stroke="#000000" stroke-width="3.02" stroke-linejoin="bevel" points="979.822,312.682 979.822,211.922"/>
<path class="Hook" transform="matrix(1.2096,0,0,1.2096,1658.19,211.68)" d="M0,22.7 C0,23 0.1,23.6 0.8,23.8 C5.1,25.2 13.7,30.6 20.2,41.7 C22,44.8 24.9,49.1 24.9,57.4 C24.9,64.6 23.1,72 20.4,79.2 C20.2,79.8 20.1,80.3 20.1,80.7 C20.1,81.4 20.5,81.7 21.2,81.7 C21.8,81.7 22.3,81.3 22.7,80.6 C27.2,72.6 28.9,63.3 28.9,54.2 C28.4,41.3 21,31.8 21,31.8 C21.3,31.8 11.8,19.5 9.1,15.3 C5.4,9.6 3.7,3.9 3.5,3.5 C3.4,3.2 2.5,-0.4 2.5,-0.4 C2.4,-0.8 1.9,-1.2 1.3,-1.2 C0.6,-1.2 0,-0.6 0,0.1 L0,22.7 "/>
<path class="Hook" transform="matrix(1.2096,0,0,1.2096,978.31,211.68)" d="M0,22.7 C0,23 0.1,23.6 0.8,23.8 C5.1,25.2 13.7,30.6 20.2,41.7 C22,44.8 24.9,49.1 24.9,57.4 C24.9,64.6 23.1,72 20.4,79.2 C20.2,79.8 20.1,80.3 20.1,80.7 C20.1,81.4 20.5,81.7 21.2,81.7 C21.8,81.7 22.3,81.3 22.7,80.6 C27.2,72.6 28.9,63.3 28.9,54.2 C28.4,41.3 21,31.8 21,31.8 C21.3,31.8 11.8,19.5 9.1,15.3 C5.4,9.6 3.7,3.9 3.5,3.5 C3.4,3.2 2.5,-0.4 2.5,-0.4 C2.4,-0.8 1.9,-1.2 1.3,-1.2 C0.6,-1.2 0,-0.6 0,0.1 L0,22.7 "/>
<path class="Hook" transform="matrix(1.2096,0,0,1.2096,2203.64,158.76)" d="M0,38.1 C0,38.4 0.8,38.8 1.5,39.1 C4.1,40 11.9,45 17.9,53.9 C21.3,59 22.1,62.6 22.1,66 C22.1,66.6 22.1,67.1 22,67.7 C22,70.1 21.3,75.2 19.8,79.2 C19.7,79.7 19.4,80.3 19.4,80.8 C19.4,81.2 19.6,81.6 20.1,81.9 C20.3,82 20.5,82 20.6,82 C21.3,82 21.7,81.2 22.1,80.6 C23.9,77.8 26.5,72.4 26.5,66.8 C26.5,63.9 26.3,61.5 26,59.4 C27.1,55.7 27.9,52 27.9,47.1 C27.9,41.9 26.5,37.2 23.1,32.7 C18.4,26.5 13.3,21.4 9.5,15.8 C5.7,10.3 2.9,0 2.9,0 C2.7,-0.7 2.6,-1.2 1.5,-1.2 C0.3,-1.2 0,-0.7 0,0 L0,38.1 M20.9,47.3 C18.2,43.8 15.2,40.6 10.3,35.7 C6.4,31.8 4.6,28.4 4,25.8 C3.8,25.3 3.7,24.6 3.6,23.8 C8.7,23.9 15.2,30.7 18.8,35.4 C22.7,40.5 23.6,44.6 23.6,48.3 C23.6,49.3 23.5,50.3 23.4,51.3 C22.6,49.7 21.7,48.4 20.9,47.3"/>
<path class="Hook" transform="matrix(1.2096,0,0,1.2096,1469.33,211.68)" d="M0,22.7 C0,23 0.1,23.6 0.8,23.8 C5.1,25.2 13.7,30.6 20.2,41.7 C22,44.8 24.9,49.1 24.9,57.4 C24.9,64.6 23.1,72 20.4,79.2 C20.2,79.8 20.1,80.3 20.1,80.7 C20.1,81.4 20.5,81.7 21.2,81.7 C21.8,81.7 22.3,81.3 22.7,80.6 C27.2,72.6 28.9,63.3 28.9,54.2 C28.4,41.3 21,31.8 21,31.8 C21.3,31.8 11.8,19.5 9.1,15.3 C5.4,9.6 3.7,3.9 3.5,3.5 C3.4,3.2 2.5,-0.4 2.5,-0.4 C2.4,-0.8 1.9,-1.2 1.3,-1.2 C0.6,-1.2 0,-0.6 0,0.1 L0,22.7 "/>
<path class="Hook" transform="matrix(1.2096,0,0,1.2096,1167.17,211.68)" d="M0,22.7 C0,23 0.1,23.6 0.8,23.8 C5.1,25.2 13.7,30.6 20.2,41.7 C22,44.8 24.9,49.1 24.9,57.4 C24.9,64.6 23.1,72 20.4,79.2 C20.2,79.8 20.1,80.3 20.1,80.7 C20.1,81.4 20.5,81.7 21.2,81.7 C21.8,81.7 22.3,81.3 22.7,80.6 C27.2,72.6 28.9,63.3 28.9,54.2 C28.4,41.3 21,31.8 21,31.8 C21.3,31.8 11.8,19.5 9.1,15.3 C5.4,9.6 3.7,3.9 3.5,3.5 C3.4,3.2 2.5,-0.4 2.5,-0.4 C2.4,-0.8 1.9,-1.2 1.3,-1.2 C0.6,-1.2 0,-0.6 0,0.1 L0,22.7 "/>
<path class="Hook" transform="matrix(1.2096,0,0,1.2096,2694.67,158.76)" d="M0,38.1 C0,38.4 0.8,38.8 1.5,39.1 C4.1,40 11.9,45 17.9,53.9 C21.3,59 22.1,62.6 22.1,66 C22.1,66.6 22.1,67.1 22,67.7 C22,70.1 21.3,75.2 19.8,79.2 C19.7,79.7 19.4,80.3 19.4,80.8 C19.4,81.2 19.6,81.6 20.1,81.9 C20.3,82 20.5,82 20.6,82 C21.3,82 21.7,81.2 22.1,80.6 C23.9,77.8 26.5,72.4 26.5,66.8 C26.5,63.9 26.3,61.5 26,59.4 C27.1,55.7 27.9,52 27.9,47.1 C27.9,41.9 26.5,37.2 23.1,32.7 C18.4,26.5 13.3,21.4 9.5,15.8 C5.7,10.3 2.9,0 2.9,0 C2.7,-0.7 2.6,-1.2 1.5,-1.2 C0.3,-1.2 0,-0.7 0,0 L0,38.1 M20.9,47.3 C18.2,43.8 15.2,40.6 10.3,35.7 C6.4,31.8 4.6,28.4 4,25.8 C3.8,25.3 3.7,24.6 3.6,23.8 C8.7,23.9 15.2,30.7 18.8,35.4 C22.7,40.5 23.6,44.6 23.6,48.3 C23.6,49.3 23.5,50.3 23.4,51.3 C22.6,49.7 21.7,48.4 20.9,47.3"/>
<path class="Hook" transform="matrix(1.2096,0,0,1.2096,2014.79,211.68)" d="M0,22.7 C0,23 0.1,23.6 0.8,23.8 C5.1,25.2 13.7,30.6 20.2,41.7 C22,44.8 24.9,49.1 24.9,57.4 C24.9,64.6 23.1,72 20.4,79.2 C20.2,79.8 20.1,80.3 20.1,80.7 C20.1,81.4 20.5,81.7 21.2,81.7 C21.8,81.7 22.3,81.3 22.7,80.6 C27.2,72.6 28.9,63.3 28.9,54.2 C28.4,41.3 21,31.8 21,31.8 C21.3,31.8 11.8,19.5 9.1,15.3 C5.4,9.6 3.7,3.9 3.5,3.5 C3.4,3.2 2.5,-0.4 2.5,-0.4 C2.4,-0.8 1.9,-1.2 1.3,-1.2 C0.6,-1.2 0,-0.6 0,0.1 L0,22.7 "/>
<path class="Hook" transform="matrix(1.2096,0,0,1.2096,2505.81,211.68)" d="M0,22.7 C0,23 0.1,23.6 0.8,23.8 C5.1,25.2 13.7,30.6 20.2,41.7 C22,44.8 24.9,49.1 24.9,57.4 C24.9,64.6 23.1,72 20.4,79.2 C20.2,79.8 20.1,80.3 20.1,80.7 C20.1,81.4 20.5,81.7 21.2,81.7 C21.8,81.7 22.3,81.3 22.7,80.6 C27.2,72.6 28.9,63.3 28.9,54.2 C28.4,41.3 21,31.8 21,31.8 C21.3,31.8 11.8,19.5 9.1,15.3 C5.4,9.6 3.7,3.9 3.5,3.5 C3.4,3.2 2.5,-0.4 2.5,-0.4 C2.4,-0.8 1.9,-1.2 1.3,-1.2 C0.6,-1.2 0,-0.6 0,0.1 L0,22.7 "/>
<path class="Hook" transform="matrix(1.2096,0,0,1.2096,1847.04,158.76)" d="M0,22.7 C0,23 0.1,23.6 0.8,23.8 C5.1,25.2 13.7,30.6 20.2,41.7 C22,44.8 24.9,49.1 24.9,57.4 C24.9,64.6 23.1,72 20.4,79.2 C20.2,79.8 20.1,80.3 20.1,80.7 C20.1,81.4 20.5,81.7 21.2,81.7 C21.8,81.7 22.3,81.3 22.7,80.6 C27.2,72.6 28.9,63.3 28.9,54.2 C28.4,41.3 21,31.8 21,31.8 C21.3,31.8 11.8,19.5 9.1,15.3 C5.4,9.6 3.7,3.9 3.5,3.5 C3.4,3.2 2.5,-0.4 2.5,-0.4 C2.4,-0.8 1.9,-1.2 1.3,-1.2 C0.6,-1.2 0,-0.6 0,0.1 L0,22.7 "/>
<path class="Hook" transform="matrix(1.2096,0,0,1.2096,1356.02,158.76)" d="M0,22.7 C0,23 0.1,23.6 0.8,23.8 C5.1,25.2 13.7,30.6 20.2,41.7 C22,44.8 24.9,49.1 24.9,57.4 C24.9,64.6 23.1,72 20.4,79.2 C20.2,79.8 20.1,80.3 20.1,80.7 C20.1,81.4 20.5,81.7 21.2,81.7 C21.8,81.7 22.3,81.3 22.7,80.6 C27.2,72.6 28.9,63.3 28.9,54.2 C28.4,41.3 21,31.8 21,31.8 C21.3,31.8 11.8,19.5 9.1,15.3 C5.4,9.6 3.7,3.9 3.5,3.5 C3.4,3.2 2.5,-0.4 2.5,-0.4 C2.4,-0.8 1.9,-1.2 1.3,-1.2 C0.6,-1.2 0,-0.6 0,0.1 L0,22.7 "/>
<path class="Note" transform="matrix(1.2096,0,0,1.2096,2356.23,257.04)" d="M0,4.2 C0,8.5 3.1,13.3 11.2,13.3 C21.6,13.3 32.5,4.8 32.5,-4 C32.5,-9.9 27.5,-13.2 21.3,-13.2 C11.6,-13.2 0,-5 0,4.2"/>
<path class="Note" transform="matrix(1.2096,0,0,1.2096,2242.92,317.52)" d="M0,4.2 C0,8.5 3.1,13.3 11.2,13.3 C21.6,13.3 32.5,4.8 32.5,-4 C32.5,-9.9 27.5,-13.2 21.3,-13.2 C11.6,-13.2 0,-5 0,4.2"/>
<path class="Note" transform="matrix(1.2096,0,0,1.2096,1319.75,257.04)" d="M0,4.2 C0,8.5 3.1,13.3 11.2,13.3 C21.6,13.3 32.5,4.8 32.5,-4 C32.5,-9.9 27.5,-13.2 21.3,-13.2 C11.6,-13.2 0,-5 0,4.2"/>
<path class="Note" transform="matrix(1.2096,0,0,1.2096,1130.9,317.52)" d="M0,4.2 C0,8.5 3.1,13.3 11.2,13.3 C21.6,13.3 32.5,4.8 32.5,-4 C32.5,-9.9 27.5,-13.2 21.3,-13.2 C11.6,-13.2 0,-5 0,4.2"/>
<path class="Note" transform="matrix(1.2096,0,0,1.2096,2167.38,257.04)" d="M0,4.2 C0,8.5 3.1,13.3 11.2,13.3 C21.6,13.3 32.5,4.8 32.5,-4 C32.5,-9.9 27.5,-13.2 21.3,-13.2 C11.6,-13.2 0,-5 0,4.2"/>
<path class="Note" transform="matrix(1.2096,0,0,1.2096,2469.54,317.52)" d="M0,4.2 C0,8.5 3.1,13.3 11.2,13.3 C21.6,13.3 32.5,4.8 32.5,-4 C32.5,-9.9 27.5,-13.2 21.3,-13.2 C11.6,-13.2 0,-5 0,4.2"/>
<path class="Note" transform="matrix(1.2096,0,0,1.2096,1433.06,317.52)" d="M0,4.2 C0,8.5 3.1,13.3 11.2,13.3 C21.6,13.3 32.5,4.8 32.5,-4 C32.5,-9.9 27.5,-13.2 21.3,-13.2 C11.6,-13.2 0,-5 0,4.2"/>
<path class="Note" transform="matrix(1.2096,0,0,1.2096,942.041,317.52)" d="M0,4.2 C0,8.5 3.1,13.3 11.2,13.3 C21.6,13.3 32.5,4.8 32.5,-4 C32.5,-9.9 27.5,-13.2 21.3,-13.2 C11.6,-13.2 0,-5 0,4.2"/>
<path class="Note" transform="matrix(1.2096,0,0,1.2096,1978.52,317.52)" d="M0,4.2 C0,8.5 3.1,13.3 11.2,13.3 C21.6,13.3 32.5,4.8 32.5,-4 C32.5,-9.9 27.5,-13.2 21.3,-13.2 C11.6,-13.2 0,-5 0,4.2"/>
<path class="Note" transform="matrix(1.2096,0,0,1.2096,717.639,317.52)" d="M0,4.2 C0,8.5 3.1,13.3 11.2,13.3 C21.6,13.3 32.5,4.8 32.5,-4 C32.5,-9.9 27.5,-13.2 21.3,-13.2 C11.6,-13.2 0,-5 0,4.2"/>
<path class="Note" transform="matrix(1.2096,0,0,1.2096,1621.92,317.52)" d="M0,4.2 C0,8.5 3.1,13.3 11.2,13.3 C21.6,13.3 32.5,4.8 32.5,-4 C32.5,-9.9 27.5,-13.2 21.3,-13.2 C11.6,-13.2 0,-5 0,4.2"/>
<path class="Note" transform="matrix(1.2096,0,0,1.2096,2658.4,257.04)" d="M0,4.2 C0,8.5 3.1,13.3 11.2,13.3 C21.6,13.3 32.5,4.8 32.5,-4 C32.5,-9.9 27.5,-13.2 21.3,-13.2 C11.6,-13.2 0,-5 0,4.2"/>
<path class="Note" transform="matrix(1.2096,0,0,1.2096,547.669,317.52)" d="M0,4.2 C0,8.5 3.1,13.3 11.2,13.3 C21.6,13.3 32.5,4.8 32.5,-4 C32.5,-9.9 27.5,-13.2 21.3,-13.2 C11.6,-13.2 0,-5 0,4.2"/>
<path class="Note" transform="matrix(1.2096,0,0,1.2096,207.73,317.52)" d="M0,4.2 C0,8.5 3.1,13.3 11.2,13.3 C21.6,13.3 32.5,4.8 32.5,-4 C32.5,-9.9 27.5,-13.2 21.3,-13.2 C11.6,-13.2 0,-5 0,4.2"/>
<path class="Note" transform="matrix(1.2096,0,0,1.2096,2733.94,317.52)" d="M0,4.2 C0,8.5 3.1,13.3 11.2,13.3 C21.6,13.3 32.5,4.8 32.5,-4 C32.5,-9.9 27.5,-13.2 21.3,-13.2 C11.6,-13.2 0,-5 0,4.2"/>
<path class="Note" transform="matrix(1.2096,0,0,1.2096,377.7,317.52)" d="M0,4.2 C0,8.5 3.1,13.3 11.2,13.3 C21.6,13.3 32.5,4.8 32.5,-4 C32.5,-9.9 27.5,-13.2 21.3,-13.2 C11.6,-13.2 0,-5 0,4.2"/>
<path class="Note" transform="matrix(1.2096,0,0,1.2096,1810.78,257.04)" d="M0,4.2 C0,8.5 3.1,13.3 11.2,13.3 C21.6,13.3 32.5,4.8 32.5,-4 C32.5,-9.9 27.5,-13.2 21.3,-13.2 C11.6,-13.2 0,-5 0,4.2"/>
<path class="Note" transform="matrix(1.2096,0,0,1.2096,2847.25,257.04)" d="M0,4.2 C0,8.5 3.1,13.3 11.2,13.3 C21.6,13.3 32.5,4.8 32.5,-4 C32.5,-9.9 27.5,-13.2 21.3,-13.2 C11.6,-13.2 0,-5 0,4.2"/>
<path class="Clef" transform="matrix(1.2096,0,0,1.2096,22.68,272.16)" d="M1.3,-25.2 C0.6,-25.2 0,-24.6 0,-23.9 L0,23.9 C0,24.6 0.6,25.2 1.3,25.2 L12.3,25.2 C13,25.2 13.6,24.6 13.6,23.9 L13.6,-23.9 C13.6,-24.6 13,-25.2 12.3,-25.2 L1.3,-25.2 M22.9,-25.2 C22.2,-25.2 21.6,-24.6 21.6,-23.9 L21.6,23.9 C21.6,24.6 22.2,25.2 22.9,25.2 L33.9,25.2 C34.6,25.2 35.2,24.6 35.2,23.9 L35.2,-23.9 C35.2,-24.6 34.6,-25.2 33.9,-25.2 L22.9,-25.2 "/>
<path class="TimeSig" transform="matrix(1.2096,0,0,1.2096,93.8007,241.92)" d="M20.8,12.7 L20.8,20.1 L12.5,20.1 C11.8,20.1 11.1,20.7 11.1,21.5 L11.1,23.4 C11.1,24.2 11.8,24.8 12.5,24.8 L42.8,24.8 C43.6,24.8 44.2,24.2 44.2,23.4 L44.2,21.5 C44.2,20.7 43.6,20.1 42.8,20.1 L33.9,20.1 L33.9,12.7 L42.8,12.7 C43.6,12.7 44.2,12 44.2,11.2 L44.2,9.3 C44.2,8.6 43.6,7.9 42.8,7.9 L33.9,7.9 L33.9,-8 C33.9,-8.6 33.6,-9.1 33.1,-9.3 L31.9,-9.9 C31.7,-10 31.4,-10.1 31.2,-10.1 C30.9,-10 30.5,-9.9 30.3,-9.7 L21.2,-1.4 C20.9,-1.1 20.8,-0.7 20.8,-0.3 L20.8,7.9 L9.3,7.9 C9.3,7.9 20.4,-4.1 32.2,-19.9 C32.6,-20.4 32.7,-20.9 32.7,-21.3 C32.7,-21.8 32.5,-22.2 32.4,-22.3 L30.2,-24.5 C30,-24.7 29.6,-24.9 29.2,-24.9 C28.6,-24.9 15.1,-24.9 14.4,-24.9 C13.6,-24.9 13.1,-24.3 13,-23.7 C13,-23.7 12.5,-16.3 9.9,-8.2 C7.3,-0.1 4.3,4.9 1.7,8.6 C1.7,8.6 1.4,9.1 1.4,9.7 C1.4,9.9 1.4,10.1 1.5,10.3 C1.9,11 2.5,12.1 2.5,12.1 C2.5,12.1 2.7,12.7 3.6,12.7 L20.8,12.7 "/>
<path class="TimeSig" transform="matrix(1.2096,0,0,1.2096,93.8007,302.4)" d="M20.8,12.7 L20.8,20.1 L12.5,20.1 C11.8,20.1 11.1,20.7 11.1,21.5 L11.1,23.4 C11.1,24.2 11.8,24.8 12.5,24.8 L42.8,24.8 C43.6,24.8 44.2,24.2 44.2,23.4 L44.2,21.5 C44.2,20.7 43.6,20.1 42.8,20.1 L33.9,20.1 L33.9,12.7 L42.8,12.7 C43.6,12.7 44.2,12 44.2,11.2 L44.2,9.3 C44.2,8.6 43.6,7.9 42.8,7.9 L33.9,7.9 L33.9,-8 C33.9,-8.6 33.6,-9.1 33.1,-9.3 L31.9,-9.9 C31.7,-10 31.4,-10.1 31.2,-10.1 C30.9,-10 30.5,-9.9 30.3,-9.7 L21.2,-1.4 C20.9,-1.1 20.8,-0.7 20.8,-0.3 L20.8,7.9 L9.3,7.9 C9.3,7.9 20.4,-4.1 32.2,-19.9 C32.6,-20.4 32.7,-20.9 32.7,-21.3 C32.7,-21.8 32.5,-22.2 32.4,-22.3 L30.2,-24.5 C30,-24.7 29.6,-24.9 29.2,-24.9 C28.6,-24.9 15.1,-24.9 14.4,-24.9 C13.6,-24.9 13.1,-24.3 13,-23.7 C13,-23.7 12.5,-16.3 9.9,-8.2 C7.3,-0.1 4.3,4.9 1.7,8.6 C1.7,8.6 1.4,9.1 1.4,9.7 C1.4,9.9 1.4,10.1 1.5,10.3 C1.9,11 2.5,12.1 2.5,12.1 C2.5,12.1 2.7,12.7 3.6,12.7 L20.8,12.7 "/>
<path class="Rest" transform="matrix(1.2096,0,0,1.2096,1735.23,272.16)" d="M34.3,-18.6 C34.4,-18.8 34.4,-18.9 34.4,-19.1 C34.4,-19.6 34.1,-20.1 33.5,-20.3 C33.3,-20.4 33.1,-20.4 33,-20.4 C32.4,-20.4 32,-20.1 31.7,-19.6 C29.3,-14.8 25.3,-9.4 19.8,-8 C21,-9.4 21.5,-11 21.5,-12.8 C21.5,-16.7 18,-19.7 14.1,-19.7 C10.2,-19.5 7.2,-16.2 7.2,-12.3 C7.4,-6.7 12.8,-4.8 17.5,-4.8 C22.5,-5 26.4,-7.5 29.4,-11.4 L24.9,4.5 C23.5,9.3 17.8,15.7 12.7,17 C13.8,15.6 14.4,13.9 14.4,12.2 C14.4,8.2 11,5.3 7.1,5.3 C3.1,5.3 0.1,8.7 0.1,12.7 C0.1,15.7 2.2,18.2 4.8,19.1 C6.7,19.9 8.4,20.1 10.4,20.1 C15.4,20 19.3,17.4 22.3,13.5 L12.1,50 L14.8,50.7 L34.3,-18.6 "/>
<path class="Rest" transform="matrix(1.2096,0,0,1.2096,2091.83,272.16)" d="M34.3,-18.6 C34.4,-18.8 34.4,-18.9 34.4,-19.1 C34.4,-19.6 34.1,-20.1 33.5,-20.3 C33.3,-20.4 33.1,-20.4 33,-20.4 C32.4,-20.4 32,-20.1 31.7,-19.6 C29.3,-14.8 25.3,-9.4 19.8,-8 C21,-9.4 21.5,-11 21.5,-12.8 C21.5,-16.7 18,-19.7 14.1,-19.7 C10.2,-19.5 7.2,-16.2 7.2,-12.3 C7.4,-6.7 12.8,-4.8 17.5,-4.8 C22.5,-5 26.4,-7.5 29.4,-11.4 L24.9,4.5 C23.5,9.3 17.8,15.7 12.7,17 C13.8,15.6 14.4,13.9 14.4,12.2 C14.4,8.2 11,5.3 7.1,5.3 C3.1,5.3 0.1,8.7 0.1,12.7 C0.1,15.7 2.2,18.2 4.8,19.1 C6.7,19.9 8.4,20.1 10.4,20.1 C15.4,20 19.3,17.4 22.3,13.5 L12.1,50 L14.8,50.7 L34.3,-18.6 "/>
<path class="Rest" transform="matrix(1.2096,0,0,1.2096,1055.35,272.16)" d="M34.3,-18.6 C34.4,-18.8 34.4,-18.9 34.4,-19.1 C34.4,-19.6 34.1,-20.1 33.5,-20.3 C33.3,-20.4 33.1,-20.4 33,-20.4 C32.4,-20.4 32,-20.1 31.7,-19.6 C29.3,-14.8 25.3,-9.4 19.8,-8 C21,-9.4 21.5,-11 21.5,-12.8 C21.5,-16.7 18,-19.7 14.1,-19.7 C10.2,-19.5 7.2,-16.2 7.2,-12.3 C7.4,-6.7 12.8,-4.8 17.5,-4.8 C22.5,-5 26.4,-7.5 29.4,-11.4 L24.9,4.5 C23.5,9.3 17.8,15.7 12.7,17 C13.8,15.6 14.4,13.9 14.4,12.2 C14.4,8.2 11,5.3 7.1,5.3 C3.1,5.3 0.1,8.7 0.1,12.7 C0.1,15.7 2.2,18.2 4.8,19.1 C6.7,19.9 8.4,20.1 10.4,20.1 C15.4,20 19.3,17.4 22.3,13.5 L12.1,50 L14.8,50.7 L34.3,-18.6 "/>
<path class="Rest" transform="matrix(1.2096,0,0,1.2096,2582.86,272.16)" d="M34.3,-18.6 C34.4,-18.8 34.4,-18.9 34.4,-19.1 C34.4,-19.6 34.1,-20.1 33.5,-20.3 C33.3,-20.4 33.1,-20.4 33,-20.4 C32.4,-20.4 32,-20.1 31.7,-19.6 C29.3,-14.8 25.3,-9.4 19.8,-8 C21,-9.4 21.5,-11 21.5,-12.8 C21.5,-16.7 18,-19.7 14.1,-19.7 C10.2,-19.5 7.2,-16.2 7.2,-12.3 C7.4,-6.7 12.8,-4.8 17.5,-4.8 C22.5,-5 26.4,-7.5 29.4,-11.4 L24.9,4.5 C23.5,9.3 17.8,15.7 12.7,17 C13.8,15.6 14.4,13.9 14.4,12.2 C14.4,8.2 11,5.3 7.1,5.3 C3.1,5.3 0.1,8.7 0.1,12.7 C0.1,15.7 2.2,18.2 4.8,19.1 C6.7,19.9 8.4,20.1 10.4,20.1 C15.4,20 19.3,17.4 22.3,13.5 L12.1,50 L14.8,50.7 L34.3,-18.6 "/>
<path class="Rest" transform="matrix(1.2096,0,0,1.2096,1244.21,272.16)" d="M34.3,-18.6 C34.4,-18.8 34.4,-18.9 34.4,-19.1 C34.4,-19.6 34.1,-20.1 33.5,-20.3 C33.3,-20.4 33.1,-20.4 33,-20.4 C32.4,-20.4 32,-20.1 31.7,-19.6 C29.3,-14.8 25.3,-9.4 19.8,-8 C21,-9.4 21.5,-11 21.5,-12.8 C21.5,-16.7 18,-19.7 14.1,-19.7 C10.2,-19.5 7.2,-16.2 7.2,-12.3 C7.4,-6.7 12.8,-4.8 17.5,-4.8 C22.5,-5 26.4,-7.5 29.4,-11.4 L24.9,4.5 C23.5,9.3 17.8,15.7 12.7,17 C13.8,15.6 14.4,13.9 14.4,12.2 C14.4,8.2 11,5.3 7.1,5.3 C3.1,5.3 0.1,8.7 0.1,12.7 C0.1,15.7 2.2,18.2 4.8,19.1 C6.7,19.9 8.4,20.1 10.4,20.1 C15.4,20 19.3,17.4 22.3,13.5 L12.1,50 L14.8,50.7 L34.3,-18.6 "/>
<path class="Rest" transform="matrix(1.2096,0,0,1.2096,1546.38,272.16)" d="M34.3,-18.6 C34.4,-18.8 34.4,-18.9 34.4,-19.1 C34.4,-19.6 34.1,-20.1 33.5,-20.3 C33.3,-20.4 33.1,-20.4 33,-20.4 C32.4,-20.4 32,-20.1 31.7,-19.6 C29.3,-14.8 25.3,-9.4 19.8,-8 C21,-9.4 21.5,-11 21.5,-12.8 C21.5,-16.7 18,-19.7 14.1,-19.7 C10.2,-19.5 7.2,-16.2 7.2,-12.3 C7.4,-6.7 12.8,-4.8 17.5,-4.8 C22.5,-5 26.4,-7.5 29.4,-11.4 L24.9,4.5 C23.5,9.3 17.8,15.7 12.7,17 C13.8,15.6 14.4,13.9 14.4,12.2 C14.4,8.2 11,5.3 7.1,5.3 C3.1,5.3 0.1,8.7 0.1,12.7 C0.1,15.7 2.2,18.2 4.8,19.1 C6.7,19.9 8.4,20.1 10.4,20.1 C15.4,20 19.3,17.4 22.3,13.5 L12.1,50 L14.8,50.7 L34.3,-18.6 "/>
<path class="Beam" fill-rule="evenodd" d="M2279.19,181.376 L2395.52,166.256 L2395.52,181.504 L2279.19,196.624 L2279.19,181.376 "/>
<path class="Beam" fill-rule="evenodd" d="M2770.21,181.376 L2886.55,166.256 L2886.55,181.504 L2770.21,196.624 L2770.21,181.376 "/>
<path class="Lyrics" d="M968.848,367.004 L965.873,367.004 C960.518,370.999 954.483,372.699 944.368,372.869 L944.368,377.629 L947.938,377.629 C955.503,377.629 955.588,377.799 955.503,384.769 L955.503,414.944 C955.503,420.214 955.503,420.469 954.908,421.319 C954.143,422.254 952.443,422.594 947.853,422.594 L945.133,422.594 L945.133,427.184 L979.048,427.184 L979.048,422.594 L976.328,422.594 C971.823,422.594 970.208,422.254 969.443,421.319 C968.848,420.469 968.848,420.129 968.848,414.944 L968.848,367.004 "/>
<path class="Lyrics" d="M414.532,404.574 L413.597,408.824 C412.832,412.224 412.322,413.329 411.642,413.754 C410.792,414.349 410.622,414.349 405.267,414.434 L388.862,414.434 C391.837,411.884 394.047,410.269 397.362,408.059 C409.347,400.324 411.812,398.454 414.277,395.309 C417.167,391.484 418.867,386.979 418.867,382.984 C418.867,373.889 409.942,367.004 397.957,367.004 C386.397,367.004 377.472,374.484 377.472,384.174 C377.472,390.124 380.787,393.949 385.887,393.949 C390.307,393.949 393.112,391.144 393.112,386.724 C393.112,383.069 391.497,380.944 387.587,379.074 C386.652,378.649 386.227,378.139 386.227,377.459 C386.227,374.739 390.817,371.849 395.067,371.849 C401.017,371.849 404.417,375.504 404.417,381.794 C404.417,388.849 401.697,393.864 392.687,403.469 C383.167,413.584 379.852,417.409 375.602,423.529 L375.602,427.524 C377.812,427.269 378.747,427.184 380.022,427.184 L411.982,427.184 C413.597,427.184 414.617,427.269 417.167,427.524 L419.122,404.574 L414.532,404.574 "/>
<path class="Lyrics" d="M2767.5,406.104 L2767.5,379.924 C2767.5,378.649 2767.67,373.124 2768.01,367.004 L2762.14,367.004 L2731.2,405.509 L2731.2,411.799 L2754.15,411.799 L2754.15,414.944 C2754.15,420.214 2754.15,420.554 2753.56,421.404 C2752.88,422.254 2751.09,422.594 2747.1,422.594 L2746.16,422.594 L2746.16,427.184 L2775.15,427.184 L2775.15,422.594 L2774.21,422.594 C2770.47,422.509 2768.69,422.169 2768.09,421.404 C2767.5,420.469 2767.5,420.214 2767.5,414.944 L2767.5,411.799 L2776,411.799 L2776,406.104 L2767.5,406.104 M2754.15,406.104 L2737.41,406.104 L2754.15,384.854 L2754.15,406.104 "/>
<path class="Lyrics" d="M1459.02,395.904 C1466.24,394.034 1472.7,390.804 1472.7,382.049 C1472.7,373.039 1464.71,367.004 1452.64,367.004 C1446.44,367.004 1441.42,368.619 1437.85,371.764 C1435.05,374.229 1433.35,377.799 1433.35,381.029 C1433.35,385.449 1436.66,388.764 1441,388.764 C1445.08,388.764 1447.88,386.044 1447.88,382.049 C1447.88,379.754 1446.95,377.969 1444.57,375.674 C1444.14,375.249 1443.97,374.994 1443.97,374.654 C1443.97,373.039 1447.12,371.424 1450.43,371.424 C1455.79,371.424 1458.93,375.334 1458.93,381.964 C1458.93,389.359 1456.47,393.864 1452.3,393.864 C1451.62,393.864 1450.77,393.779 1449.41,393.439 C1447.54,393.014 1446.95,392.929 1446.01,392.929 C1443.89,392.929 1442.87,393.864 1442.87,395.734 C1442.87,397.689 1444.14,398.964 1445.93,398.964 C1446.52,398.964 1447.03,398.879 1448.48,398.709 C1450.43,398.539 1450.94,398.454 1451.54,398.454 C1456.81,398.454 1459.44,402.534 1459.44,410.524 C1459.44,419.109 1455.87,423.954 1449.58,423.954 C1446.01,423.954 1442.27,422.169 1442.27,420.384 C1442.27,419.874 1442.53,419.364 1443.04,418.854 C1445.59,416.474 1446.18,415.369 1446.18,412.904 C1446.18,408.909 1443.04,405.849 1438.87,405.849 C1434.28,405.849 1431.22,409.164 1431.22,413.924 C1431.22,422.509 1439.55,428.374 1451.79,428.374 C1463.01,428.374 1474.23,423.699 1474.23,410.779 C1474.23,405.424 1471.85,400.749 1467.94,398.454 C1465.48,397.094 1463.52,396.499 1459.02,395.904"/>
<path class="Lyrics" d="M2005.33,367.004 L2002.35,367.004 C1997,370.999 1990.96,372.699 1980.85,372.869 L1980.85,377.629 L1984.42,377.629 C1991.98,377.629 1992.07,377.799 1991.98,384.769 L1991.98,414.944 C1991.98,420.214 1991.98,420.469 1991.39,421.319 C1990.62,422.254 1988.92,422.594 1984.33,422.594 L1981.61,422.594 L1981.61,427.184 L2015.53,427.184 L2015.53,422.594 L2012.81,422.594 C2008.3,422.594 2006.69,422.254 2005.92,421.319 C2005.33,420.469 2005.33,420.129 2005.33,414.944 L2005.33,367.004 "/>
<path class="Lyrics" d="M2200.5,399.814 C2200.5,394.459 2199.57,391.739 2197.1,389.699 C2194.3,387.404 2190.13,386.299 2184.69,386.299 C2175.09,386.299 2168.12,390.804 2168.12,397.009 C2168.12,400.154 2170.07,402.194 2173.05,402.194 C2175.77,402.194 2177.64,400.409 2177.64,397.859 C2177.64,396.754 2177.21,395.564 2176.36,394.374 C2175.85,393.779 2175.77,393.609 2175.77,393.184 C2175.77,391.484 2179.17,389.954 2183.25,389.954 C2185.97,389.954 2188.94,390.804 2190.3,392.079 C2191.92,393.439 2192.51,395.479 2192.51,399.304 L2192.51,402.619 C2183.67,404.149 2180.87,404.829 2176.7,406.444 C2169.31,409.164 2165.82,413.074 2165.82,418.514 C2165.82,424.634 2170.58,428.459 2178.15,428.459 C2184.01,428.459 2189.28,426.079 2192.94,421.744 C2194.3,426.079 2196.42,427.779 2200.42,427.779 C2204.24,427.779 2208.24,425.314 2208.24,422.849 C2208.24,422.254 2207.9,421.829 2207.39,421.829 C2207.05,421.829 2206.71,421.914 2206.11,422.169 C2204.92,422.679 2204.41,422.764 2203.73,422.764 C2201.35,422.764 2200.5,421.234 2200.5,416.899 L2200.5,399.814 M2192.51,410.184 C2192.51,415.284 2192.26,416.474 2190.81,418.684 C2188.69,421.829 2184.86,423.954 2181.12,423.954 C2177.21,423.954 2174.41,421.149 2174.41,417.324 C2174.41,413.754 2176.19,411.204 2179.93,409.419 C2182.57,408.229 2185.88,407.379 2192.51,406.274 L2192.51,410.184 "/>
<path class="Lyrics" d="M573.62,395.904 C580.845,394.034 587.305,390.804 587.305,382.049 C587.305,373.039 579.315,367.004 567.245,367.004 C561.04,367.004 556.025,368.619 552.455,371.764 C549.65,374.229 547.95,377.799 547.95,381.029 C547.95,385.449 551.265,388.764 555.6,388.764 C559.68,388.764 562.485,386.044 562.485,382.049 C562.485,379.754 561.55,377.969 559.17,375.674 C558.745,375.249 558.575,374.994 558.575,374.654 C558.575,373.039 561.72,371.424 565.035,371.424 C570.39,371.424 573.535,375.334 573.535,381.964 C573.535,389.359 571.07,393.864 566.905,393.864 C566.225,393.864 565.375,393.779 564.015,393.439 C562.145,393.014 561.55,392.929 560.615,392.929 C558.49,392.929 557.47,393.864 557.47,395.734 C557.47,397.689 558.745,398.964 560.53,398.964 C561.125,398.964 561.635,398.879 563.08,398.709 C565.035,398.539 565.545,398.454 566.14,398.454 C571.41,398.454 574.045,402.534 574.045,410.524 C574.045,419.109 570.475,423.954 564.185,423.954 C560.615,423.954 556.875,422.169 556.875,420.384 C556.875,419.874 557.13,419.364 557.64,418.854 C560.19,416.474 560.785,415.369 560.785,412.904 C560.785,408.909 557.64,405.849 553.475,405.849 C548.885,405.849 545.825,409.164 545.825,413.924 C545.825,422.509 554.155,428.374 566.395,428.374 C577.615,428.374 588.835,423.699 588.835,410.779 C588.835,405.424 586.455,400.749 582.545,398.454 C580.08,397.094 578.125,396.499 573.62,395.904"/>
<path class="Lyrics" d="M1366.44,412.819 C1365.42,418.174 1362.61,421.404 1358.87,421.404 C1355.64,421.404 1352.84,419.874 1349.52,416.219 C1352.92,412.054 1353.35,411.459 1355.13,408.059 C1360.32,397.944 1361.34,396.924 1367.37,396.499 L1368.31,396.499 L1368.31,392.844 L1344.34,392.844 L1344.34,396.499 L1345.19,396.499 C1350.2,396.499 1352.84,397.859 1352.84,400.494 C1352.84,404.149 1350.54,409.164 1346.89,413.329 C1342.81,408.484 1337.96,401.174 1333.2,392.249 C1337.79,390.209 1339.24,389.444 1341.45,387.914 C1345.36,385.194 1347.91,380.519 1347.91,376.014 C1347.91,369.129 1342.55,364.539 1334.65,364.539 C1325.72,364.539 1319.77,370.574 1319.77,379.584 C1319.77,383.324 1320.71,386.639 1323.34,392.249 C1313.82,396.754 1308.64,403.469 1308.64,411.119 C1308.64,415.369 1310.51,420.044 1313.48,423.274 C1316.63,426.674 1321.13,428.459 1326.91,428.459 C1333.03,428.459 1337.71,426.759 1343.23,422.424 C1347.31,426.589 1350.63,428.119 1355.3,428.119 C1364.31,428.119 1369.16,421.574 1370.18,413.329 L1366.44,412.819 M1331.42,388.679 C1328.95,383.579 1327.76,379.754 1327.76,376.609 C1327.76,371.679 1330.48,368.194 1334.39,368.194 C1338.3,368.194 1341.11,371.509 1341.11,376.184 C1341.11,379.414 1339.66,382.814 1337.45,384.939 C1336.09,386.214 1334.82,386.979 1331.42,388.679 M1324.96,395.734 C1330.48,406.699 1333.37,411.119 1340.6,419.534 C1336.86,421.914 1334.9,422.679 1332.01,422.679 C1324.45,422.679 1317.73,415.029 1317.73,406.529 C1317.73,401.854 1319.86,398.709 1324.96,395.734"/>
<path class="Lyrics" d="M1655.05,399.814 C1655.05,394.459 1654.11,391.739 1651.65,389.699 C1648.84,387.404 1644.68,386.299 1639.24,386.299 C1629.63,386.299 1622.66,390.804 1622.66,397.009 C1622.66,400.154 1624.62,402.194 1627.59,402.194 C1630.31,402.194 1632.18,400.409 1632.18,397.859 C1632.18,396.754 1631.76,395.564 1630.91,394.374 C1630.4,393.779 1630.31,393.609 1630.31,393.184 C1630.31,391.484 1633.71,389.954 1637.79,389.954 C1640.51,389.954 1643.49,390.804 1644.85,392.079 C1646.46,393.439 1647.06,395.479 1647.06,399.304 L1647.06,402.619 C1638.22,404.149 1635.41,404.829 1631.25,406.444 C1623.85,409.164 1620.37,413.074 1620.37,418.514 C1620.37,424.634 1625.13,428.459 1632.69,428.459 C1638.56,428.459 1643.83,426.079 1647.48,421.744 C1648.84,426.079 1650.97,427.779 1654.96,427.779 C1658.79,427.779 1662.78,425.314 1662.78,422.849 C1662.78,422.254 1662.44,421.829 1661.93,421.829 C1661.59,421.829 1661.25,421.914 1660.66,422.169 C1659.47,422.679 1658.96,422.764 1658.28,422.764 C1655.9,422.764 1655.05,421.234 1655.05,416.899 L1655.05,399.814 M1647.06,410.184 C1647.06,415.284 1646.8,416.474 1645.36,418.684 C1643.23,421.829 1639.41,423.954 1635.67,423.954 C1631.76,423.954 1628.95,421.149 1628.95,417.324 C1628.95,413.754 1630.74,411.204 1634.48,409.419 C1637.11,408.229 1640.43,407.379 1647.06,406.274 L1647.06,410.184 "/>
<path class="Lyrics" d="M2893.94,412.819 C2892.92,418.174 2890.12,421.404 2886.38,421.404 C2883.15,421.404 2880.34,419.874 2877.03,416.219 C2880.43,412.054 2880.85,411.459 2882.64,408.059 C2887.82,397.944 2888.84,396.924 2894.88,396.499 L2895.81,396.499 L2895.81,392.844 L2871.84,392.844 L2871.84,396.499 L2872.69,396.499 C2877.71,396.499 2880.34,397.859 2880.34,400.494 C2880.34,404.149 2878.05,409.164 2874.39,413.329 C2870.31,408.484 2865.47,401.174 2860.71,392.249 C2865.3,390.209 2866.74,389.444 2868.95,387.914 C2872.86,385.194 2875.41,380.519 2875.41,376.014 C2875.41,369.129 2870.06,364.539 2862.15,364.539 C2853.23,364.539 2847.28,370.574 2847.28,379.584 C2847.28,383.324 2848.21,386.639 2850.85,392.249 C2841.33,396.754 2836.14,403.469 2836.14,411.119 C2836.14,415.369 2838.01,420.044 2840.99,423.274 C2844.13,426.674 2848.64,428.459 2854.42,428.459 C2860.54,428.459 2865.21,426.759 2870.74,422.424 C2874.82,426.589 2878.13,428.119 2882.81,428.119 C2891.82,428.119 2896.66,421.574 2897.68,413.329 L2893.94,412.819 M2858.92,388.679 C2856.46,383.579 2855.27,379.754 2855.27,376.609 C2855.27,371.679 2857.99,368.194 2861.9,368.194 C2865.81,368.194 2868.61,371.509 2868.61,376.184 C2868.61,379.414 2867.17,382.814 2864.96,384.939 C2863.6,386.214 2862.32,386.979 2858.92,388.679 M2852.46,395.734 C2857.99,406.699 2860.88,411.119 2868.1,419.534 C2864.36,421.914 2862.41,422.679 2859.52,422.679 C2851.95,422.679 2845.24,415.029 2845.24,406.529 C2845.24,401.854 2847.36,398.709 2852.46,395.734"/>
<path class="Lyrics" d="M2279.75,404.574 L2278.82,408.824 C2278.05,412.224 2277.54,413.329 2276.86,413.754 C2276.01,414.349 2275.84,414.349 2270.49,414.434 L2254.08,414.434 C2257.06,411.884 2259.27,410.269 2262.58,408.059 C2274.57,400.324 2277.03,398.454 2279.5,395.309 C2282.39,391.484 2284.09,386.979 2284.09,382.984 C2284.09,373.889 2275.16,367.004 2263.18,367.004 C2251.62,367.004 2242.69,374.484 2242.69,384.174 C2242.69,390.124 2246.01,393.949 2251.11,393.949 C2255.53,393.949 2258.33,391.144 2258.33,386.724 C2258.33,383.069 2256.72,380.944 2252.81,379.074 C2251.87,378.649 2251.45,378.139 2251.45,377.459 C2251.45,374.739 2256.04,371.849 2260.29,371.849 C2266.24,371.849 2269.64,375.504 2269.64,381.794 C2269.64,388.849 2266.92,393.864 2257.91,403.469 C2248.39,413.584 2245.07,417.409 2240.82,423.529 L2240.82,427.524 C2243.03,427.269 2243.97,427.184 2245.24,427.184 L2277.2,427.184 C2278.82,427.184 2279.84,427.269 2282.39,427.524 L2284.34,404.574 L2279.75,404.574 "/>
<path class="Lyrics" d="M2691.53,399.814 C2691.53,394.459 2690.59,391.739 2688.13,389.699 C2685.32,387.404 2681.16,386.299 2675.72,386.299 C2666.11,386.299 2659.14,390.804 2659.14,397.009 C2659.14,400.154 2661.1,402.194 2664.07,402.194 C2666.79,402.194 2668.66,400.409 2668.66,397.859 C2668.66,396.754 2668.24,395.564 2667.39,394.374 C2666.88,393.779 2666.79,393.609 2666.79,393.184 C2666.79,391.484 2670.19,389.954 2674.27,389.954 C2676.99,389.954 2679.97,390.804 2681.33,392.079 C2682.94,393.439 2683.54,395.479 2683.54,399.304 L2683.54,402.619 C2674.7,404.149 2671.89,404.829 2667.73,406.444 C2660.33,409.164 2656.85,413.074 2656.85,418.514 C2656.85,424.634 2661.61,428.459 2669.17,428.459 C2675.04,428.459 2680.31,426.079 2683.96,421.744 C2685.32,426.079 2687.45,427.779 2691.44,427.779 C2695.27,427.779 2699.26,425.314 2699.26,422.849 C2699.26,422.254 2698.92,421.829 2698.41,421.829 C2698.07,421.829 2697.73,421.914 2697.14,422.169 C2695.95,422.679 2695.44,422.764 2694.76,422.764 C2692.38,422.764 2691.53,421.234 2691.53,416.899 L2691.53,399.814 M2683.54,410.184 C2683.54,415.284 2683.28,416.474 2681.84,418.684 C2679.71,421.829 2675.89,423.954 2672.15,423.954 C2668.24,423.954 2665.43,421.149 2665.43,417.324 C2665.43,413.754 2667.22,411.204 2670.96,409.419 C2673.59,408.229 2676.91,407.379 2683.54,406.274 L2683.54,410.184 "/>
<path class="Lyrics" d="M751.196,406.104 L751.196,379.924 C751.196,378.649 751.366,373.124 751.706,367.004 L745.841,367.004 L714.901,405.509 L714.901,411.799 L737.851,411.799 L737.851,414.944 C737.851,420.214 737.851,420.554 737.256,421.404 C736.576,422.254 734.791,422.594 730.796,422.594 L729.861,422.594 L729.861,427.184 L758.846,427.184 L758.846,422.594 L757.911,422.594 C754.171,422.509 752.386,422.169 751.791,421.404 C751.196,420.469 751.196,420.214 751.196,414.944 L751.196,411.799 L759.696,411.799 L759.696,406.104 L751.196,406.104 M737.851,406.104 L721.106,406.104 L737.851,384.854 L737.851,406.104 "/>
<path class="Lyrics" d="M1164.03,399.814 C1164.03,394.459 1163.09,391.739 1160.63,389.699 C1157.82,387.404 1153.66,386.299 1148.22,386.299 C1138.61,386.299 1131.64,390.804 1131.64,397.009 C1131.64,400.154 1133.6,402.194 1136.57,402.194 C1139.29,402.194 1141.16,400.409 1141.16,397.859 C1141.16,396.754 1140.74,395.564 1139.89,394.374 C1139.38,393.779 1139.29,393.609 1139.29,393.184 C1139.29,391.484 1142.69,389.954 1146.77,389.954 C1149.49,389.954 1152.47,390.804 1153.83,392.079 C1155.44,393.439 1156.04,395.479 1156.04,399.304 L1156.04,402.619 C1147.2,404.149 1144.39,404.829 1140.23,406.444 C1132.83,409.164 1129.35,413.074 1129.35,418.514 C1129.35,424.634 1134.11,428.459 1141.67,428.459 C1147.54,428.459 1152.81,426.079 1156.46,421.744 C1157.82,426.079 1159.95,427.779 1163.94,427.779 C1167.77,427.779 1171.76,425.314 1171.76,422.849 C1171.76,422.254 1171.42,421.829 1170.91,421.829 C1170.57,421.829 1170.23,421.914 1169.64,422.169 C1168.45,422.679 1167.94,422.764 1167.26,422.764 C1164.88,422.764 1164.03,421.234 1164.03,416.899 L1164.03,399.814 M1156.04,410.184 C1156.04,415.284 1155.78,416.474 1154.34,418.684 C1152.21,421.829 1148.39,423.954 1144.65,423.954 C1140.74,423.954 1137.93,421.149 1137.93,417.324 C1137.93,413.754 1139.72,411.204 1143.46,409.419 C1146.09,408.229 1149.41,407.379 1156.04,406.274 L1156.04,410.184 "/>
<path class="Lyrics" d="M2402.92,412.819 C2401.9,418.174 2399.09,421.404 2395.35,421.404 C2392.12,421.404 2389.32,419.874 2386,416.219 C2389.4,412.054 2389.83,411.459 2391.61,408.059 C2396.8,397.944 2397.82,396.924 2403.85,396.499 L2404.79,396.499 L2404.79,392.844 L2380.82,392.844 L2380.82,396.499 L2381.67,396.499 C2386.68,396.499 2389.32,397.859 2389.32,400.494 C2389.32,404.149 2387.02,409.164 2383.37,413.329 C2379.29,408.484 2374.44,401.174 2369.68,392.249 C2374.27,390.209 2375.72,389.444 2377.93,387.914 C2381.84,385.194 2384.39,380.519 2384.39,376.014 C2384.39,369.129 2379.03,364.539 2371.13,364.539 C2362.2,364.539 2356.25,370.574 2356.25,379.584 C2356.25,383.324 2357.19,386.639 2359.82,392.249 C2350.3,396.754 2345.12,403.469 2345.12,411.119 C2345.12,415.369 2346.99,420.044 2349.96,423.274 C2353.11,426.674 2357.61,428.459 2363.39,428.459 C2369.51,428.459 2374.19,426.759 2379.71,422.424 C2383.79,426.589 2387.11,428.119 2391.78,428.119 C2400.79,428.119 2405.64,421.574 2406.66,413.329 L2402.92,412.819 M2367.9,388.679 C2365.43,383.579 2364.24,379.754 2364.24,376.609 C2364.24,371.679 2366.96,368.194 2370.87,368.194 C2374.78,368.194 2377.59,371.509 2377.59,376.184 C2377.59,379.414 2376.14,382.814 2373.93,384.939 C2372.57,386.214 2371.3,386.979 2367.9,388.679 M2361.44,395.734 C2366.96,406.699 2369.85,411.119 2377.08,419.534 C2373.34,421.914 2371.38,422.679 2368.49,422.679 C2360.93,422.679 2354.21,415.029 2354.21,406.529 C2354.21,401.854 2356.34,398.709 2361.44,395.734"/>
<path class="Lyrics" d="M1857.46,412.819 C1856.44,418.174 1853.64,421.404 1849.9,421.404 C1846.67,421.404 1843.86,419.874 1840.55,416.219 C1843.95,412.054 1844.37,411.459 1846.16,408.059 C1851.34,397.944 1852.36,396.924 1858.4,396.499 L1859.33,396.499 L1859.33,392.844 L1835.36,392.844 L1835.36,396.499 L1836.21,396.499 C1841.23,396.499 1843.86,397.859 1843.86,400.494 C1843.86,404.149 1841.57,409.164 1837.91,413.329 C1833.83,408.484 1828.99,401.174 1824.23,392.249 C1828.82,390.209 1830.26,389.444 1832.47,387.914 C1836.38,385.194 1838.93,380.519 1838.93,376.014 C1838.93,369.129 1833.58,364.539 1825.67,364.539 C1816.75,364.539 1810.8,370.574 1810.8,379.584 C1810.8,383.324 1811.73,386.639 1814.37,392.249 C1804.85,396.754 1799.66,403.469 1799.66,411.119 C1799.66,415.369 1801.53,420.044 1804.51,423.274 C1807.65,426.674 1812.16,428.459 1817.94,428.459 C1824.06,428.459 1828.73,426.759 1834.26,422.424 C1838.34,426.589 1841.65,428.119 1846.33,428.119 C1855.34,428.119 1860.18,421.574 1861.2,413.329 L1857.46,412.819 M1822.44,388.679 C1819.98,383.579 1818.79,379.754 1818.79,376.609 C1818.79,371.679 1821.51,368.194 1825.42,368.194 C1829.33,368.194 1832.13,371.509 1832.13,376.184 C1832.13,379.414 1830.69,382.814 1828.48,384.939 C1827.12,386.214 1825.84,386.979 1822.44,388.679 M1815.98,395.734 C1821.51,406.699 1824.4,411.119 1831.62,419.534 C1827.88,421.914 1825.93,422.679 1823.04,422.679 C1815.47,422.679 1808.76,415.029 1808.76,406.529 C1808.76,401.854 1810.88,398.709 1815.98,395.734"/>
<path class="Lyrics" d="M234.536,367.004 L231.561,367.004 C226.206,370.999 220.171,372.699 210.056,372.869 L210.056,377.629 L213.626,377.629 C221.191,377.629 221.276,377.799 221.191,384.769 L221.191,414.944 C221.191,420.214 221.191,420.469 220.596,421.319 C219.831,422.254 218.131,422.594 213.541,422.594 L210.821,422.594 L210.821,427.184 L244.736,427.184 L244.736,422.594 L242.016,422.594 C237.511,422.594 235.896,422.254 235.131,421.319 C234.536,420.469 234.536,420.129 234.536,414.944 L234.536,367.004 "/>
<path class="Lyrics" d="M2495.49,395.904 C2502.72,394.034 2509.18,390.804 2509.18,382.049 C2509.18,373.039 2501.19,367.004 2489.12,367.004 C2482.91,367.004 2477.9,368.619 2474.33,371.764 C2471.52,374.229 2469.82,377.799 2469.82,381.029 C2469.82,385.449 2473.14,388.764 2477.47,388.764 C2481.55,388.764 2484.36,386.044 2484.36,382.049 C2484.36,379.754 2483.42,377.969 2481.04,375.674 C2480.62,375.249 2480.45,374.994 2480.45,374.654 C2480.45,373.039 2483.59,371.424 2486.91,371.424 C2492.26,371.424 2495.41,375.334 2495.41,381.964 C2495.41,389.359 2492.94,393.864 2488.78,393.864 C2488.1,393.864 2487.25,393.779 2485.89,393.439 C2484.02,393.014 2483.42,392.929 2482.49,392.929 C2480.36,392.929 2479.34,393.864 2479.34,395.734 C2479.34,397.689 2480.62,398.964 2482.4,398.964 C2483,398.964 2483.51,398.879 2484.95,398.709 C2486.91,398.539 2487.42,398.454 2488.01,398.454 C2493.28,398.454 2495.92,402.534 2495.92,410.524 C2495.92,419.109 2492.35,423.954 2486.06,423.954 C2482.49,423.954 2478.75,422.169 2478.75,420.384 C2478.75,419.874 2479,419.364 2479.51,418.854 C2482.06,416.474 2482.66,415.369 2482.66,412.904 C2482.66,408.909 2479.51,405.849 2475.35,405.849 C2470.76,405.849 2467.7,409.164 2467.7,413.924 C2467.7,422.509 2476.03,428.374 2488.27,428.374 C2499.49,428.374 2510.71,423.699 2510.71,410.779 C2510.71,405.424 2508.33,400.749 2504.42,398.454 C2501.95,397.094 2500,396.499 2495.49,395.904"/>
<path class="StaffText" d="M1823.99,120.181 L1827.47,120.181 C1833.53,120.421 1835.93,122.881 1836.59,129.481 L1836.89,132.541 C1837.61,139.321 1839.83,142.081 1844.57,142.081 C1849.49,142.081 1851.83,138.781 1852.01,131.581 L1849.49,131.581 C1849.25,135.721 1848.53,137.521 1846.91,137.521 C1845.53,137.521 1844.93,136.501 1843.91,132.361 L1842.95,128.581 C1841.63,123.061 1839.29,120.541 1834.61,119.341 C1843.25,118.141 1847.39,114.661 1847.39,108.601 C1847.39,101.761 1841.63,97.8607 1831.55,97.8607 L1810.79,97.8607 L1810.79,100.681 L1811.87,100.681 C1815.29,100.741 1816.43,100.921 1816.91,101.521 C1817.27,102.061 1817.27,102.181 1817.27,105.241 L1817.27,133.861 C1817.27,136.861 1817.27,136.981 1816.91,137.581 C1816.43,138.181 1815.29,138.361 1811.87,138.361 L1810.79,138.361 L1810.79,141.181 L1830.47,141.181 L1830.47,138.361 L1829.39,138.361 C1825.97,138.361 1824.83,138.181 1824.35,137.581 C1823.99,136.981 1823.99,136.861 1823.99,133.861 L1823.99,120.181 M1823.99,117.361 L1823.99,104.161 C1823.87,100.861 1824.17,100.621 1828.13,100.681 L1831.37,100.681 C1837.31,100.681 1840.01,103.201 1840.01,108.661 C1840.01,114.961 1836.65,117.361 1830.59,117.361 L1823.99,117.361 "/>
<path class="StaffText" d="M955.254,160.44 L958.734,160.44 C964.794,160.68 967.194,163.14 967.854,169.74 L968.154,172.8 C968.874,179.58 971.094,182.34 975.834,182.34 C980.754,182.34 983.094,179.04 983.274,171.84 L980.754,171.84 C980.514,175.98 979.794,177.78 978.174,177.78 C976.794,177.78 976.194,176.76 975.174,172.62 L974.214,168.84 C972.894,163.32 970.554,160.8 965.874,159.6 C974.514,158.4 978.654,154.92 978.654,148.86 C978.654,142.02 972.894,138.12 962.814,138.12 L942.054,138.12 L942.054,140.94 L943.134,140.94 C946.554,141 947.694,141.18 948.174,141.78 C948.534,142.32 948.534,142.44 948.534,145.5 L948.534,174.12 C948.534,177.12 948.534,177.24 948.174,177.84 C947.694,178.44 946.554,178.62 943.134,178.62 L942.054,178.62 L942.054,181.44 L961.734,181.44 L961.734,178.62 L960.654,178.62 C957.234,178.62 956.094,178.44 955.614,177.84 C955.254,177.24 955.254,177.12 955.254,174.12 L955.254,160.44 M955.254,157.62 L955.254,144.42 C955.134,141.12 955.434,140.88 959.394,140.94 L962.634,140.94 C968.574,140.94 971.274,143.46 971.274,148.92 C971.274,155.22 967.914,157.62 961.854,157.62 L955.254,157.62 "/>
<path class="StaffText" d="M2482.76,160.44 L2486.24,160.44 C2492.3,160.68 2494.7,163.14 2495.36,169.74 L2495.66,172.8 C2496.38,179.58 2498.6,182.34 2503.34,182.34 C2508.26,182.34 2510.6,179.04 2510.78,171.84 L2508.26,171.84 C2508.02,175.98 2507.3,177.78 2505.68,177.78 C2504.3,177.78 2503.7,176.76 2502.68,172.62 L2501.72,168.84 C2500.4,163.32 2498.06,160.8 2493.38,159.6 C2502.02,158.4 2506.16,154.92 2506.16,148.86 C2506.16,142.02 2500.4,138.12 2490.32,138.12 L2469.56,138.12 L2469.56,140.94 L2470.64,140.94 C2474.06,141 2475.2,141.18 2475.68,141.78 C2476.04,142.32 2476.04,142.44 2476.04,145.5 L2476.04,174.12 C2476.04,177.12 2476.04,177.24 2475.68,177.84 C2475.2,178.44 2474.06,178.62 2470.64,178.62 L2469.56,178.62 L2469.56,181.44 L2489.24,181.44 L2489.24,178.62 L2488.16,178.62 C2484.74,178.62 2483.6,178.44 2483.12,177.84 C2482.76,177.24 2482.76,177.12 2482.76,174.12 L2482.76,160.44 M2482.76,157.62 L2482.76,144.42 C2482.64,141.12 2482.94,140.88 2486.9,140.94 L2490.14,140.94 C2496.08,140.94 2498.78,143.46 2498.78,148.92 C2498.78,155.22 2495.42,157.62 2489.36,157.62 L2482.76,157.62 "/>
<path class="StaffText" d="M2369.44,129.506 L2372.92,129.506 C2378.98,129.746 2381.38,132.206 2382.04,138.806 L2382.34,141.866 C2383.06,148.646 2385.28,151.406 2390.02,151.406 C2394.94,151.406 2397.28,148.106 2397.46,140.906 L2394.94,140.906 C2394.7,145.046 2393.98,146.846 2392.36,146.846 C2390.98,146.846 2390.38,145.826 2389.36,141.686 L2388.4,137.906 C2387.08,132.386 2384.74,129.866 2380.06,128.666 C2388.7,127.466 2392.84,123.986 2392.84,117.926 C2392.84,111.086 2387.08,107.186 2377,107.186 L2356.24,107.186 L2356.24,110.006 L2357.32,110.006 C2360.74,110.066 2361.88,110.246 2362.36,110.846 C2362.72,111.386 2362.72,111.506 2362.72,114.566 L2362.72,143.186 C2362.72,146.186 2362.72,146.306 2362.36,146.906 C2361.88,147.506 2360.74,147.686 2357.32,147.686 L2356.24,147.686 L2356.24,150.506 L2375.92,150.506 L2375.92,147.686 L2374.84,147.686 C2371.42,147.686 2370.28,147.506 2369.8,146.906 C2369.44,146.306 2369.44,146.186 2369.44,143.186 L2369.44,129.506 M2369.44,126.686 L2369.44,113.486 C2369.32,110.186 2369.62,109.946 2373.58,110.006 L2376.82,110.006 C2382.76,110.006 2385.46,112.526 2385.46,117.986 C2385.46,124.286 2382.1,126.686 2376.04,126.686 L2369.44,126.686 "/>
<path class="StaffText" d="M730.852,160.44 L734.332,160.44 C740.392,160.68 742.792,163.14 743.452,169.74 L743.752,172.8 C744.472,179.58 746.692,182.34 751.432,182.34 C756.352,182.34 758.692,179.04 758.872,171.84 L756.352,171.84 C756.112,175.98 755.392,177.78 753.772,177.78 C752.392,177.78 751.792,176.76 750.772,172.62 L749.812,168.84 C748.492,163.32 746.152,160.8 741.472,159.6 C750.112,158.4 754.252,154.92 754.252,148.86 C754.252,142.02 748.492,138.12 738.412,138.12 L717.652,138.12 L717.652,140.94 L718.732,140.94 C722.152,141 723.292,141.18 723.772,141.78 C724.132,142.32 724.132,142.44 724.132,145.5 L724.132,174.12 C724.132,177.12 724.132,177.24 723.772,177.84 C723.292,178.44 722.152,178.62 718.732,178.62 L717.652,178.62 L717.652,181.44 L737.332,181.44 L737.332,178.62 L736.252,178.62 C732.832,178.62 731.692,178.44 731.212,177.84 C730.852,177.24 730.852,177.12 730.852,174.12 L730.852,160.44 M730.852,157.62 L730.852,144.42 C730.732,141.12 731.032,140.88 734.992,140.94 L738.232,140.94 C744.172,140.94 746.872,143.46 746.872,148.92 C746.872,155.22 743.512,157.62 737.452,157.62 L730.852,157.62 "/>
<path class="StaffText" d="M1167.56,165 L1164.92,165 C1162.94,175.8 1160.24,178.44 1150.94,178.62 L1148.42,178.62 C1144.82,178.5 1143.92,177.9 1144.1,175.74 L1144.1,145.5 C1144.1,142.5 1144.1,142.32 1144.46,141.78 C1144.94,141.18 1146.08,141 1149.5,140.94 L1150.58,140.94 L1150.58,138.12 L1130.9,138.12 L1130.9,140.94 L1131.98,140.94 C1135.4,141 1136.54,141.18 1137.02,141.78 C1137.38,142.32 1137.38,142.44 1137.38,145.5 L1137.38,174.06 C1137.38,177.12 1137.38,177.24 1137.02,177.78 C1136.54,178.38 1135.4,178.62 1131.98,178.62 L1130.9,178.62 L1130.9,181.44 L1166.3,181.44 L1167.56,165 "/>
<path class="StaffText" d="M560.883,160.44 L564.363,160.44 C570.423,160.68 572.823,163.14 573.483,169.74 L573.783,172.8 C574.503,179.58 576.723,182.34 581.463,182.34 C586.383,182.34 588.723,179.04 588.903,171.84 L586.383,171.84 C586.143,175.98 585.423,177.78 583.803,177.78 C582.423,177.78 581.823,176.76 580.803,172.62 L579.843,168.84 C578.523,163.32 576.183,160.8 571.503,159.6 C580.143,158.4 584.283,154.92 584.283,148.86 C584.283,142.02 578.523,138.12 568.443,138.12 L547.683,138.12 L547.683,140.94 L548.763,140.94 C552.183,141 553.323,141.18 553.803,141.78 C554.163,142.32 554.163,142.44 554.163,145.5 L554.163,174.12 C554.163,177.12 554.163,177.24 553.803,177.84 C553.323,178.44 552.183,178.62 548.763,178.62 L547.683,178.62 L547.683,181.44 L567.363,181.44 L567.363,178.62 L566.283,178.62 C562.863,178.62 561.723,178.44 561.243,177.84 C560.883,177.24 560.883,177.12 560.883,174.12 L560.883,160.44 M560.883,157.62 L560.883,144.42 C560.763,141.12 561.063,140.88 565.023,140.94 L568.263,140.94 C574.203,140.94 576.903,143.46 576.903,148.92 C576.903,155.22 573.543,157.62 567.483,157.62 L560.883,157.62 "/>
<path class="StaffText" d="M2273.04,120.313 L2276.52,120.313 C2282.58,120.553 2284.98,123.013 2285.64,129.613 L2285.94,132.673 C2286.66,139.453 2288.88,142.213 2293.62,142.213 C2298.54,142.213 2300.88,138.913 2301.06,131.713 L2298.54,131.713 C2298.3,135.853 2297.58,137.653 2295.96,137.653 C2294.58,137.653 2293.98,136.633 2292.96,132.493 L2292,128.713 C2290.68,123.193 2288.34,120.673 2283.66,119.473 C2292.3,118.273 2296.44,114.793 2296.44,108.733 C2296.44,101.893 2290.68,97.993 2280.6,97.993 L2259.84,97.993 L2259.84,100.813 L2260.92,100.813 C2264.34,100.873 2265.48,101.053 2265.96,101.653 C2266.32,102.193 2266.32,102.313 2266.32,105.373 L2266.32,133.993 C2266.32,136.993 2266.32,137.113 2265.96,137.713 C2265.48,138.313 2264.34,138.493 2260.92,138.493 L2259.84,138.493 L2259.84,141.313 L2279.52,141.313 L2279.52,138.493 L2278.44,138.493 C2275.02,138.493 2273.88,138.313 2273.4,137.713 C2273.04,137.113 2273.04,136.993 2273.04,133.993 L2273.04,120.313 M2273.04,117.493 L2273.04,104.293 C2272.92,100.993 2273.22,100.753 2277.18,100.813 L2280.42,100.813 C2286.36,100.813 2289.06,103.333 2289.06,108.793 C2289.06,115.093 2285.7,117.493 2279.64,117.493 L2273.04,117.493 "/>
<path class="StaffText" d="M2695.07,125.764 L2692.43,125.764 C2690.45,136.564 2687.75,139.204 2678.45,139.384 L2675.93,139.384 C2672.33,139.264 2671.43,138.664 2671.61,136.504 L2671.61,106.264 C2671.61,103.264 2671.61,103.084 2671.97,102.544 C2672.45,101.944 2673.59,101.764 2677.01,101.704 L2678.09,101.704 L2678.09,98.8836 L2658.41,98.8836 L2658.41,101.704 L2659.49,101.704 C2662.91,101.764 2664.05,101.944 2664.53,102.544 C2664.89,103.084 2664.89,103.204 2664.89,106.264 L2664.89,134.824 C2664.89,137.884 2664.89,138.004 2664.53,138.544 C2664.05,139.144 2662.91,139.384 2659.49,139.384 L2658.41,139.384 L2658.41,142.204 L2693.81,142.204 L2695.07,125.764 "/>
<path class="StaffText" d="M2204.04,125.764 L2201.4,125.764 C2199.42,136.564 2196.72,139.204 2187.42,139.384 L2184.9,139.384 C2181.3,139.264 2180.4,138.664 2180.58,136.504 L2180.58,106.264 C2180.58,103.264 2180.58,103.084 2180.94,102.544 C2181.42,101.944 2182.56,101.764 2185.98,101.704 L2187.06,101.704 L2187.06,98.8836 L2167.38,98.8836 L2167.38,101.704 L2168.46,101.704 C2171.88,101.764 2173.02,101.944 2173.5,102.544 C2173.86,103.084 2173.86,103.204 2173.86,106.264 L2173.86,134.824 C2173.86,137.884 2173.86,138.004 2173.5,138.544 C2173.02,139.144 2171.88,139.384 2168.46,139.384 L2167.38,139.384 L2167.38,142.204 L2202.78,142.204 L2204.04,125.764 "/>
<path class="StaffText" d="M390.913,160.44 L394.393,160.44 C400.453,160.68 402.853,163.14 403.513,169.74 L403.813,172.8 C404.533,179.58 406.753,182.34 411.493,182.34 C416.413,182.34 418.753,179.04 418.933,171.84 L416.413,171.84 C416.173,175.98 415.453,177.78 413.833,177.78 C412.453,177.78 411.853,176.76 410.833,172.62 L409.873,168.84 C408.553,163.32 406.213,160.8 401.533,159.6 C410.173,158.4 414.313,154.92 414.313,148.86 C414.313,142.02 408.553,138.12 398.473,138.12 L377.713,138.12 L377.713,140.94 L378.793,140.94 C382.213,141 383.353,141.18 383.833,141.78 C384.193,142.32 384.193,142.44 384.193,145.5 L384.193,174.12 C384.193,177.12 384.193,177.24 383.833,177.84 C383.353,178.44 382.213,178.62 378.793,178.62 L377.713,178.62 L377.713,181.44 L397.393,181.44 L397.393,178.62 L396.313,178.62 C392.893,178.62 391.753,178.44 391.273,177.84 C390.913,177.24 390.913,177.12 390.913,174.12 L390.913,160.44 M390.913,157.62 L390.913,144.42 C390.793,141.12 391.093,140.88 395.053,140.94 L398.293,140.94 C404.233,140.94 406.933,143.46 406.933,148.92 C406.933,155.22 403.573,157.62 397.513,157.62 L390.913,157.62 "/>
<path class="StaffText" d="M1332.96,120.181 L1336.44,120.181 C1342.5,120.421 1344.9,122.881 1345.56,129.481 L1345.86,132.541 C1346.58,139.321 1348.8,142.081 1353.54,142.081 C1358.46,142.081 1360.8,138.781 1360.98,131.581 L1358.46,131.581 C1358.22,135.721 1357.5,137.521 1355.88,137.521 C1354.5,137.521 1353.9,136.501 1352.88,132.361 L1351.92,128.581 C1350.6,123.061 1348.26,120.541 1343.58,119.341 C1352.22,118.141 1356.36,114.661 1356.36,108.601 C1356.36,101.761 1350.6,97.8607 1340.52,97.8607 L1319.76,97.8607 L1319.76,100.681 L1320.84,100.681 C1324.26,100.741 1325.4,100.921 1325.88,101.521 C1326.24,102.061 1326.24,102.181 1326.24,105.241 L1326.24,133.861 C1326.24,136.861 1326.24,136.981 1325.88,137.581 C1325.4,138.181 1324.26,138.361 1320.84,138.361 L1319.76,138.361 L1319.76,141.181 L1339.44,141.181 L1339.44,138.361 L1338.36,138.361 C1334.94,138.361 1333.8,138.181 1333.32,137.581 C1332.96,136.981 1332.96,136.861 1332.96,133.861 L1332.96,120.181 M1332.96,117.361 L1332.96,104.161 C1332.84,100.861 1333.14,100.621 1337.1,100.681 L1340.34,100.681 C1346.28,100.681 1348.98,103.201 1348.98,108.661 C1348.98,114.961 1345.62,117.361 1339.56,117.361 L1332.96,117.361 "/>
<path class="StaffText" d="M1446.28,160.44 L1449.76,160.44 C1455.82,160.68 1458.22,163.14 1458.88,169.74 L1459.18,172.8 C1459.9,179.58 1462.12,182.34 1466.86,182.34 C1471.78,182.34 1474.12,179.04 1474.3,171.84 L1471.78,171.84 C1471.54,175.98 1470.82,177.78 1469.2,177.78 C1467.82,177.78 1467.22,176.76 1466.2,172.62 L1465.24,168.84 C1463.92,163.32 1461.58,160.8 1456.9,159.6 C1465.54,158.4 1469.68,154.92 1469.68,148.86 C1469.68,142.02 1463.92,138.12 1453.84,138.12 L1433.08,138.12 L1433.08,140.94 L1434.16,140.94 C1437.58,141 1438.72,141.18 1439.2,141.78 C1439.56,142.32 1439.56,142.44 1439.56,145.5 L1439.56,174.12 C1439.56,177.12 1439.56,177.24 1439.2,177.84 C1438.72,178.44 1437.58,178.62 1434.16,178.62 L1433.08,178.62 L1433.08,181.44 L1452.76,181.44 L1452.76,178.62 L1451.68,178.62 C1448.26,178.62 1447.12,178.44 1446.64,177.84 C1446.28,177.24 1446.28,177.12 1446.28,174.12 L1446.28,160.44 M1446.28,157.62 L1446.28,144.42 C1446.16,141.12 1446.46,140.88 1450.42,140.94 L1453.66,140.94 C1459.6,140.94 1462.3,143.46 1462.3,148.92 C1462.3,155.22 1458.94,157.62 1452.88,157.62 L1446.28,157.62 "/>
<path class="StaffText" d="M2764.07,122.729 L2767.55,122.729 C2773.61,122.969 2776.01,125.429 2776.67,132.029 L2776.97,135.089 C2777.69,141.869 2779.91,144.629 2784.65,144.629 C2789.57,144.629 2791.91,141.329 2792.09,134.129 L2789.57,134.129 C2789.33,138.269 2788.61,140.069 2786.99,140.069 C2785.61,140.069 2785.01,139.049 2783.99,134.909 L2783.03,131.129 C2781.71,125.609 2779.37,123.089 2774.69,121.889 C2783.33,120.689 2787.47,117.209 2787.47,111.149 C2787.47,104.309 2781.71,100.409 2771.63,100.409 L2750.87,100.409 L2750.87,103.229 L2751.95,103.229 C2755.37,103.289 2756.51,103.469 2756.99,104.069 C2757.35,104.609 2757.35,104.729 2757.35,107.789 L2757.35,136.409 C2757.35,139.409 2757.35,139.529 2756.99,140.129 C2756.51,140.729 2755.37,140.909 2751.95,140.909 L2750.87,140.909 L2750.87,143.729 L2770.55,143.729 L2770.55,140.909 L2769.47,140.909 C2766.05,140.909 2764.91,140.729 2764.43,140.129 C2764.07,139.529 2764.07,139.409 2764.07,136.409 L2764.07,122.729 M2764.07,119.909 L2764.07,106.709 C2763.95,103.409 2764.25,103.169 2768.21,103.229 L2771.45,103.229 C2777.39,103.229 2780.09,105.749 2780.09,111.209 C2780.09,117.509 2776.73,119.909 2770.67,119.909 L2764.07,119.909 "/>
<path class="StaffText" d="M1991.73,160.44 L1995.21,160.44 C2001.27,160.68 2003.67,163.14 2004.33,169.74 L2004.63,172.8 C2005.35,179.58 2007.57,182.34 2012.31,182.34 C2017.23,182.34 2019.57,179.04 2019.75,171.84 L2017.23,171.84 C2016.99,175.98 2016.27,177.78 2014.65,177.78 C2013.27,177.78 2012.67,176.76 2011.65,172.62 L2010.69,168.84 C2009.37,163.32 2007.03,160.8 2002.35,159.6 C2010.99,158.4 2015.13,154.92 2015.13,148.86 C2015.13,142.02 2009.37,138.12 1999.29,138.12 L1978.53,138.12 L1978.53,140.94 L1979.61,140.94 C1983.03,141 1984.17,141.18 1984.65,141.78 C1985.01,142.32 1985.01,142.44 1985.01,145.5 L1985.01,174.12 C1985.01,177.12 1985.01,177.24 1984.65,177.84 C1984.17,178.44 1983.03,178.62 1979.61,178.62 L1978.53,178.62 L1978.53,181.44 L1998.21,181.44 L1998.21,178.62 L1997.13,178.62 C1993.71,178.62 1992.57,178.44 1992.09,177.84 C1991.73,177.24 1991.73,177.12 1991.73,174.12 L1991.73,160.44 M1991.73,157.62 L1991.73,144.42 C1991.61,141.12 1991.91,140.88 1995.87,140.94 L1999.11,140.94 C2005.05,140.94 2007.75,143.46 2007.75,148.92 C2007.75,155.22 2004.39,157.62 1998.33,157.62 L1991.73,157.62 "/>
<path class="StaffText" d="M220.943,160.44 L224.423,160.44 C230.483,160.68 232.883,163.14 233.543,169.74 L233.843,172.8 C234.563,179.58 236.783,182.34 241.523,182.34 C246.443,182.34 248.783,179.04 248.963,171.84 L246.443,171.84 C246.203,175.98 245.483,177.78 243.863,177.78 C242.483,177.78 241.883,176.76 240.863,172.62 L239.903,168.84 C238.583,163.32 236.243,160.8 231.563,159.6 C240.203,158.4 244.343,154.92 244.343,148.86 C244.343,142.02 238.583,138.12 228.503,138.12 L207.743,138.12 L207.743,140.94 L208.823,140.94 C212.243,141 213.383,141.18 213.863,141.78 C214.223,142.32 214.223,142.44 214.223,145.5 L214.223,174.12 C214.223,177.12 214.223,177.24 213.863,177.84 C213.383,178.44 212.243,178.62 208.823,178.62 L207.743,178.62 L207.743,181.44 L227.423,181.44 L227.423,178.62 L226.343,178.62 C222.923,178.62 221.783,178.44 221.303,177.84 C220.943,177.24 220.943,177.12 220.943,174.12 L220.943,160.44 M220.943,157.62 L220.943,144.42 C220.823,141.12 221.123,140.88 225.083,140.94 L228.323,140.94 C234.263,140.94 236.963,143.46 236.963,148.92 C236.963,155.22 233.603,157.62 227.543,157.62 L220.943,157.62 "/>
<path class="StaffText" d="M1658.59,165 L1655.95,165 C1653.97,175.8 1651.27,178.44 1641.97,178.62 L1639.45,178.62 C1635.85,178.5 1634.95,177.9 1635.13,175.74 L1635.13,145.5 C1635.13,142.5 1635.13,142.32 1635.49,141.78 C1635.97,141.18 1637.11,141 1640.53,140.94 L1641.61,140.94 L1641.61,138.12 L1621.93,138.12 L1621.93,140.94 L1623.01,140.94 C1626.43,141 1627.57,141.18 1628.05,141.78 C1628.41,142.32 1628.41,142.44 1628.41,145.5 L1628.41,174.06 C1628.41,177.12 1628.41,177.24 1628.05,177.78 C1627.57,178.38 1626.43,178.62 1623.01,178.62 L1621.93,178.62 L1621.93,181.44 L1657.33,181.44 L1658.59,165 "/>
<path class="StaffText" d="M2860.47,129.506 L2863.95,129.506 C2870.01,129.746 2872.41,132.206 2873.07,138.806 L2873.37,141.866 C2874.09,148.646 2876.31,151.406 2881.05,151.406 C2885.97,151.406 2888.31,148.106 2888.49,140.906 L2885.97,140.906 C2885.73,145.046 2885.01,146.846 2883.39,146.846 C2882.01,146.846 2881.41,145.826 2880.39,141.686 L2879.43,137.906 C2878.11,132.386 2875.77,129.866 2871.09,128.666 C2879.73,127.466 2883.87,123.986 2883.87,117.926 C2883.87,111.086 2878.11,107.186 2868.03,107.186 L2847.27,107.186 L2847.27,110.006 L2848.35,110.006 C2851.77,110.066 2852.91,110.246 2853.39,110.846 C2853.75,111.386 2853.75,111.506 2853.75,114.566 L2853.75,143.186 C2853.75,146.186 2853.75,146.306 2853.39,146.906 C2852.91,147.506 2851.77,147.686 2848.35,147.686 L2847.27,147.686 L2847.27,150.506 L2866.95,150.506 L2866.95,147.686 L2865.87,147.686 C2862.45,147.686 2861.31,147.506 2860.83,146.906 C2860.47,146.306 2860.47,146.186 2860.47,143.186 L2860.47,129.506 M2860.47,126.686 L2860.47,113.486 C2860.35,110.186 2860.65,109.946 2864.61,110.006 L2867.85,110.006 C2873.79,110.006 2876.49,112.526 2876.49,117.986 C2876.49,124.286 2873.13,126.686 2867.07,126.686 L2860.47,126.686 "/>
</svg>
