<?xml version="1.0" encoding="UTF-8" standalone="no"?>
<svg width="2977.2px" height="540px" viewBox="0 0 2977.2 540"
 xmlns="http://www.w3.org/2000/svg" xmlns:xlink="http://www.w3.org/1999/xlink" version="1.2" baseProfile="tiny">
<title>so_groß_ist_der_herr</title>
<desc>Generated by MuseScore Studio 4.4.4</desc>
<path class="" fill="#ffffff" fill-rule="evenodd" d="M0,0 L2977.2,0 L2977.2,540 L0,540 L0,0 "/>
<polyline class="StaffLines" fill="none" stroke="#000000" stroke-width="3.33" stroke-linejoin="bevel" points="0,211.68 2977.2,211.68"/>
<polyline class="StaffLines" fill="none" stroke="#000000" stroke-width="3.33" stroke-linejoin="bevel" points="0,241.92 2977.2,241.92"/>
<polyline class="StaffLines" fill="none" stroke="#000000" stroke-width="3.33" stroke-linejoin="bevel" points="0,272.16 2977.2,272.16"/>
<polyline class="StaffLines" fill="none" stroke="#000000" stroke-width="3.33" stroke-linejoin="bevel" points="0,302.4 2977.2,302.4"/>
<polyline class="StaffLines" fill="none" stroke="#000000" stroke-width="3.33" stroke-linejoin="bevel" points="0,332.64 2977.2,332.64"/>
<polyline class="BarLine" fill="none" stroke="#000000" stroke-width="16.63" stroke-linejoin="bevel" points="2968.88,210.017 2968.88,334.303"/>
<polyline class="BarLine" fill="none" stroke="#000000" stroke-width="16.63" stroke-linejoin="bevel" points="1418.48,210.017 1418.48,334.303"/>
<polyline class="BarLine" fill="none" stroke="#000000" stroke-width="16.63" stroke-linejoin="bevel" points="2091.07,210.017 2091.07,334.303"/>
<polyline class="BarLine" fill="none" stroke="#000000" stroke-width="16.63" stroke-linejoin="bevel" points="790.049,210.017 790.049,334.303"/>
<polyline class="Stem" fill="none" stroke="#000000" stroke-width="3.02" stroke-linejoin="bevel" points="2542.09,312.682 2542.09,181.315"/>
<polyline class="Stem" fill="none" stroke="#000000" stroke-width="3.02" stroke-linejoin="bevel" points="466.282,312.682 466.282,211.922"/>
<polyline class="Stem" fill="none" stroke="#000000" stroke-width="3.02" stroke-linejoin="bevel" points="1988.08,252.202 1988.08,173.88"/>
<polyline class="Stem" fill="none" stroke="#000000" stroke-width="3.02" stroke-linejoin="bevel" points="2865.89,252.202 2865.89,173.88"/>
<polyline class="Stem" fill="none" stroke="#000000" stroke-width="3.02" stroke-linejoin="bevel" points="1899.77,312.682 1899.77,211.922"/>
<polyline class="Stem" fill="none" stroke="#000000" stroke-width="3.02" stroke-linejoin="bevel" points="687.052,252.202 687.052,173.88"/>
<polyline class="Stem" fill="none" stroke="#000000" stroke-width="3.02" stroke-linejoin="bevel" points="2174.97,312.682 2174.97,211.801"/>
<polyline class="Stem" fill="none" stroke="#000000" stroke-width="3.02" stroke-linejoin="bevel" points="1723.15,312.682 1723.15,181.315"/>
<polyline class="Stem" fill="none" stroke="#000000" stroke-width="3.02" stroke-linejoin="bevel" points="2748.14,312.682 2748.14,219.24"/>
<polyline class="Stem" fill="none" stroke="#000000" stroke-width="3.02" stroke-linejoin="bevel" points="873.946,312.682 873.946,211.68"/>
<polyline class="Stem" fill="none" stroke="#000000" stroke-width="3.02" stroke-linejoin="bevel" points="2373.19,312.682 2373.19,211.801"/>
<polyline class="Stem" fill="none" stroke="#000000" stroke-width="3.02" stroke-linejoin="bevel" points="1634.84,252.202 1634.84,174.005"/>
<polyline class="Stem" fill="none" stroke="#000000" stroke-width="3.02" stroke-linejoin="bevel" points="2453.78,252.202 2453.78,174.005"/>
<polyline class="Stem" fill="none" stroke="#000000" stroke-width="3.02" stroke-linejoin="bevel" points="1006.41,252.202 1006.41,174.005"/>
<polyline class="Stem" fill="none" stroke="#000000" stroke-width="3.02" stroke-linejoin="bevel" points="1502.38,312.682 1502.38,211.68"/>
<polyline class="Stem" fill="none" stroke="#000000" stroke-width="3.02" stroke-linejoin="bevel" points="245.511,312.682 245.511,211.68"/>
<polyline class="Stem" fill="none" stroke="#000000" stroke-width="3.02" stroke-linejoin="bevel" points="2689.27,312.682 2689.27,219.24"/>
<polyline class="Stem" fill="none" stroke="#000000" stroke-width="3.02" stroke-linejoin="bevel" points="1315.49,252.202 1315.49,173.88"/>
<polyline class="Stem" fill="none" stroke="#000000" stroke-width="3.02" stroke-linejoin="bevel" points="1094.72,312.682 1094.72,181.315"/>
<path class="Hook" transform="matrix(1.2096,0,0,1.2096,464.77,211.68)" d="M0,22.7 C0,23 0.1,23.6 0.8,23.8 C5.1,25.2 13.7,30.6 20.2,41.7 C22,44.8 24.9,49.1 24.9,57.4 C24.9,64.6 23.1,72 20.4,79.2 C20.2,79.8 20.1,80.3 20.1,80.7 C20.1,81.4 20.5,81.7 21.2,81.7 C21.8,81.7 22.3,81.3 22.7,80.6 C27.2,72.6 28.9,63.3 28.9,54.2 C28.4,41.3 21,31.8 21,31.8 C21.3,31.8 11.8,19.5 9.1,15.3 C5.4,9.6 3.7,3.9 3.5,3.5 C3.4,3.2 2.5,-0.4 2.5,-0.4 C2.4,-0.8 1.9,-1.2 1.3,-1.2 C0.6,-1.2 0,-0.6 0,0.1 L0,22.7 "/>
<path class="Hook" transform="matrix(1.2096,0,0,1.2096,1898.26,211.68)" d="M0,22.7 C0,23 0.1,23.6 0.8,23.8 C5.1,25.2 13.7,30.6 20.2,41.7 C22,44.8 24.9,49.1 24.9,57.4 C24.9,64.6 23.1,72 20.4,79.2 C20.2,79.8 20.1,80.3 20.1,80.7 C20.1,81.4 20.5,81.7 21.2,81.7 C21.8,81.7 22.3,81.3 22.7,80.6 C27.2,72.6 28.9,63.3 28.9,54.2 C28.4,41.3 21,31.8 21,31.8 C21.3,31.8 11.8,19.5 9.1,15.3 C5.4,9.6 3.7,3.9 3.5,3.5 C3.4,3.2 2.5,-0.4 2.5,-0.4 C2.4,-0.8 1.9,-1.2 1.3,-1.2 C0.6,-1.2 0,-0.6 0,0.1 L0,22.7 "/>
<path class="Hook" transform="matrix(1.2096,0,0,1.2096,2371.68,211.68)" d="M0,38.1 C0,38.4 0.8,38.8 1.5,39.1 C4.1,40 11.9,45 17.9,53.9 C21.3,59 22.1,62.6 22.1,66 C22.1,66.6 22.1,67.1 22,67.7 C22,70.1 21.3,75.2 19.8,79.2 C19.7,79.7 19.4,80.3 19.4,80.8 C19.4,81.2 19.6,81.6 20.1,81.9 C20.3,82 20.5,82 20.6,82 C21.3,82 21.7,81.2 22.1,80.6 C23.9,77.8 26.5,72.4 26.5,66.8 C26.5,63.9 26.3,61.5 26,59.4 C27.1,55.7 27.9,52 27.9,47.1 C27.9,41.9 26.5,37.2 23.1,32.7 C18.4,26.5 13.3,21.4 9.5,15.8 C5.7,10.3 2.9,0 2.9,0 C2.7,-0.7 2.6,-1.2 1.5,-1.2 C0.3,-1.2 0,-0.7 0,0 L0,38.1 M20.9,47.3 C18.2,43.8 15.2,40.6 10.3,35.7 C6.4,31.8 4.6,28.4 4,25.8 C3.8,25.3 3.7,24.6 3.6,23.8 C8.7,23.9 15.2,30.7 18.8,35.4 C22.7,40.5 23.6,44.6 23.6,48.3 C23.6,49.3 23.5,50.3 23.4,51.3 C22.6,49.7 21.7,48.4 20.9,47.3"/>
<path class="Hook" transform="matrix(1.2096,0,0,1.2096,2173.46,211.68)" d="M0,38.1 C0,38.4 0.8,38.8 1.5,39.1 C4.1,40 11.9,45 17.9,53.9 C21.3,59 22.1,62.6 22.1,66 C22.1,66.6 22.1,67.1 22,67.7 C22,70.1 21.3,75.2 19.8,79.2 C19.7,79.7 19.4,80.3 19.4,80.8 C19.4,81.2 19.6,81.6 20.1,81.9 C20.3,82 20.5,82 20.6,82 C21.3,82 21.7,81.2 22.1,80.6 C23.9,77.8 26.5,72.4 26.5,66.8 C26.5,63.9 26.3,61.5 26,59.4 C27.1,55.7 27.9,52 27.9,47.1 C27.9,41.9 26.5,37.2 23.1,32.7 C18.4,26.5 13.3,21.4 9.5,15.8 C5.7,10.3 2.9,0 2.9,0 C2.7,-0.7 2.6,-1.2 1.5,-1.2 C0.3,-1.2 0,-0.7 0,0 L0,38.1 M20.9,47.3 C18.2,43.8 15.2,40.6 10.3,35.7 C6.4,31.8 4.6,28.4 4,25.8 C3.8,25.3 3.7,24.6 3.6,23.8 C8.7,23.9 15.2,30.7 18.8,35.4 C22.7,40.5 23.6,44.6 23.6,48.3 C23.6,49.3 23.5,50.3 23.4,51.3 C22.6,49.7 21.7,48.4 20.9,47.3"/>
<path class="Note" transform="matrix(1.2096,0,0,1.2096,207.73,317.52)" d="M0,4.2 C0,8.5 3.1,13.3 11.2,13.3 C21.6,13.3 32.5,4.8 32.5,-4 C32.5,-9.9 27.5,-13.2 21.3,-13.2 C11.6,-13.2 0,-5 0,4.2"/>
<path class="Note" transform="matrix(1.2096,0,0,1.2096,2710.36,317.52)" d="M0,4.2 C0,8.5 3.1,13.3 11.2,13.3 C21.6,13.3 32.5,4.8 32.5,-4 C32.5,-9.9 27.5,-13.2 21.3,-13.2 C11.6,-13.2 0,-5 0,4.2"/>
<path class="Note" transform="matrix(1.2096,0,0,1.2096,1056.94,317.52)" d="M0,4.2 C0,8.5 3.1,13.3 11.2,13.3 C21.6,13.3 32.5,4.8 32.5,-4 C32.5,-9.9 27.5,-13.2 21.3,-13.2 C11.6,-13.2 0,-5 0,4.2"/>
<path class="Note" transform="matrix(1.2096,0,0,1.2096,2828.11,257.04)" d="M0,4.2 C0,8.5 3.1,13.3 11.2,13.3 C21.6,13.3 32.5,4.8 32.5,-4 C32.5,-9.9 27.5,-13.2 21.3,-13.2 C11.6,-13.2 0,-5 0,4.2"/>
<path class="Note" transform="matrix(1.2096,0,0,1.2096,1950.3,257.04)" d="M0,4.2 C0,8.5 3.1,13.3 11.2,13.3 C21.6,13.3 32.5,4.8 32.5,-4 C32.5,-9.9 27.5,-13.2 21.3,-13.2 C11.6,-13.2 0,-5 0,4.2"/>
<path class="Note" transform="matrix(1.2096,0,0,1.2096,1277.71,257.04)" d="M0,4.2 C0,8.5 3.1,13.3 11.2,13.3 C21.6,13.3 32.5,4.8 32.5,-4 C32.5,-9.9 27.5,-13.2 21.3,-13.2 C11.6,-13.2 0,-5 0,4.2"/>
<path class="Note" transform="matrix(1.2096,0,0,1.2096,428.5,317.52)" d="M0,4.2 C0,8.5 3.1,13.3 11.2,13.3 C21.6,13.3 32.5,4.8 32.5,-4 C32.5,-9.9 27.5,-13.2 21.3,-13.2 C11.6,-13.2 0,-5 0,4.2"/>
<path class="Note" transform="matrix(1.2096,0,0,1.2096,2416,257.04)" d="M0,4.2 C0,8.5 3.1,13.3 11.2,13.3 C21.6,13.3 32.5,4.8 32.5,-4 C32.5,-9.9 27.5,-13.2 21.3,-13.2 C11.6,-13.2 0,-5 0,4.2"/>
<path class="Note" transform="matrix(1.2096,0,0,1.2096,2137.19,317.52)" d="M0,4.2 C0,8.5 3.1,13.3 11.2,13.3 C21.6,13.3 32.5,4.8 32.5,-4 C32.5,-9.9 27.5,-13.2 21.3,-13.2 C11.6,-13.2 0,-5 0,4.2"/>
<path class="Note" transform="matrix(1.2096,0,0,1.2096,1861.99,317.52)" d="M0,4.2 C0,8.5 3.1,13.3 11.2,13.3 C21.6,13.3 32.5,4.8 32.5,-4 C32.5,-9.9 27.5,-13.2 21.3,-13.2 C11.6,-13.2 0,-5 0,4.2"/>
<path class="Note" transform="matrix(1.2096,0,0,1.2096,968.628,257.04)" d="M0,4.2 C0,8.5 3.1,13.3 11.2,13.3 C21.6,13.3 32.5,4.8 32.5,-4 C32.5,-9.9 27.5,-13.2 21.3,-13.2 C11.6,-13.2 0,-5 0,4.2"/>
<path class="Note" transform="matrix(1.2096,0,0,1.2096,1464.6,317.52)" d="M0,4.2 C0,8.5 3.1,13.3 11.2,13.3 C21.6,13.3 32.5,4.8 32.5,-4 C32.5,-9.9 27.5,-13.2 21.3,-13.2 C11.6,-13.2 0,-5 0,4.2"/>
<path class="Note" transform="matrix(1.2096,0,0,1.2096,2651.49,317.52)" d="M0,4.2 C0,8.5 3.1,13.3 11.2,13.3 C21.6,13.3 32.5,4.8 32.5,-4 C32.5,-9.9 27.5,-13.2 21.3,-13.2 C11.6,-13.2 0,-5 0,4.2"/>
<path class="Note" transform="matrix(1.2096,0,0,1.2096,2335.41,317.52)" d="M0,4.2 C0,8.5 3.1,13.3 11.2,13.3 C21.6,13.3 32.5,4.8 32.5,-4 C32.5,-9.9 27.5,-13.2 21.3,-13.2 C11.6,-13.2 0,-5 0,4.2"/>
<path class="Note" transform="matrix(1.2096,0,0,1.2096,649.271,257.04)" d="M0,4.2 C0,8.5 3.1,13.3 11.2,13.3 C21.6,13.3 32.5,4.8 32.5,-4 C32.5,-9.9 27.5,-13.2 21.3,-13.2 C11.6,-13.2 0,-5 0,4.2"/>
<path class="Note" transform="matrix(1.2096,0,0,1.2096,1597.06,257.04)" d="M0,4.2 C0,8.5 3.1,13.3 11.2,13.3 C21.6,13.3 32.5,4.8 32.5,-4 C32.5,-9.9 27.5,-13.2 21.3,-13.2 C11.6,-13.2 0,-5 0,4.2"/>
<path class="Note" transform="matrix(1.2096,0,0,1.2096,1685.37,317.52)" d="M0,4.2 C0,8.5 3.1,13.3 11.2,13.3 C21.6,13.3 32.5,4.8 32.5,-4 C32.5,-9.9 27.5,-13.2 21.3,-13.2 C11.6,-13.2 0,-5 0,4.2"/>
<path class="Note" transform="matrix(1.2096,0,0,1.2096,836.165,317.52)" d="M0,4.2 C0,8.5 3.1,13.3 11.2,13.3 C21.6,13.3 32.5,4.8 32.5,-4 C32.5,-9.9 27.5,-13.2 21.3,-13.2 C11.6,-13.2 0,-5 0,4.2"/>
<path class="Note" transform="matrix(1.2096,0,0,1.2096,2504.31,317.52)" d="M0,4.2 C0,8.5 3.1,13.3 11.2,13.3 C21.6,13.3 32.5,4.8 32.5,-4 C32.5,-9.9 27.5,-13.2 21.3,-13.2 C11.6,-13.2 0,-5 0,4.2"/>
<path class="Clef" transform="matrix(1.2096,0,0,1.2096,22.68,272.16)" d="M1.3,-25.2 C0.6,-25.2 0,-24.6 0,-23.9 L0,23.9 C0,24.6 0.6,25.2 1.3,25.2 L12.3,25.2 C13,25.2 13.6,24.6 13.6,23.9 L13.6,-23.9 C13.6,-24.6 13,-25.2 12.3,-25.2 L1.3,-25.2 M22.9,-25.2 C22.2,-25.2 21.6,-24.6 21.6,-23.9 L21.6,23.9 C21.6,24.6 22.2,25.2 22.9,25.2 L33.9,25.2 C34.6,25.2 35.2,24.6 35.2,23.9 L35.2,-23.9 C35.2,-24.6 34.6,-25.2 33.9,-25.2 L22.9,-25.2 "/>
<path class="TimeSig" transform="matrix(1.2096,0,0,1.2096,93.8007,241.92)" d="M20.8,12.7 L20.8,20.1 L12.5,20.1 C11.8,20.1 11.1,20.7 11.1,21.5 L11.1,23.4 C11.1,24.2 11.8,24.8 12.5,24.8 L42.8,24.8 C43.6,24.8 44.2,24.2 44.2,23.4 L44.2,21.5 C44.2,20.7 43.6,20.1 42.8,20.1 L33.9,20.1 L33.9,12.7 L42.8,12.7 C43.6,12.7 44.2,12 44.2,11.2 L44.2,9.3 C44.2,8.6 43.6,7.9 42.8,7.9 L33.9,7.9 L33.9,-8 C33.9,-8.6 33.6,-9.1 33.1,-9.3 L31.9,-9.9 C31.7,-10 31.4,-10.1 31.2,-10.1 C30.9,-10 30.5,-9.9 30.3,-9.7 L21.2,-1.4 C20.9,-1.1 20.8,-0.7 20.8,-0.3 L20.8,7.9 L9.3,7.9 C9.3,7.9 20.4,-4.1 32.2,-19.9 C32.6,-20.4 32.7,-20.9 32.7,-21.3 C32.7,-21.8 32.5,-22.2 32.4,-22.3 L30.2,-24.5 C30,-24.7 29.6,-24.9 29.2,-24.9 C28.6,-24.9 15.1,-24.9 14.4,-24.9 C13.6,-24.9 13.1,-24.3 13,-23.7 C13,-23.7 12.5,-16.3 9.9,-8.2 C7.3,-0.1 4.3,4.9 1.7,8.6 C1.7,8.6 1.4,9.1 1.4,9.7 C1.4,9.9 1.4,10.1 1.5,10.3 C1.9,11 2.5,12.1 2.5,12.1 C2.5,12.1 2.7,12.7 3.6,12.7 L20.8,12.7 "/>
<path class="TimeSig" transform="matrix(1.2096,0,0,1.2096,93.8007,302.4)" d="M20.8,12.7 L20.8,20.1 L12.5,20.1 C11.8,20.1 11.1,20.7 11.1,21.5 L11.1,23.4 C11.1,24.2 11.8,24.8 12.5,24.8 L42.8,24.8 C43.6,24.8 44.2,24.2 44.2,23.4 L44.2,21.5 C44.2,20.7 43.6,20.1 42.8,20.1 L33.9,20.1 L33.9,12.7 L42.8,12.7 C43.6,12.7 44.2,12 44.2,11.2 L44.2,9.3 C44.2,8.6 43.6,7.9 42.8,7.9 L33.9,7.9 L33.9,-8 C33.9,-8.6 33.6,-9.1 33.1,-9.3 L31.9,-9.9 C31.7,-10 31.4,-10.1 31.2,-10.1 C30.9,-10 30.5,-9.9 30.3,-9.7 L21.2,-1.4 C20.9,-1.1 20.8,-0.7 20.8,-0.3 L20.8,7.9 L9.3,7.9 C9.3,7.9 20.4,-4.1 32.2,-19.9 C32.6,-20.4 32.7,-20.9 32.7,-21.3 C32.7,-21.8 32.5,-22.2 32.4,-22.3 L30.2,-24.5 C30,-24.7 29.6,-24.9 29.2,-24.9 C28.6,-24.9 15.1,-24.9 14.4,-24.9 C13.6,-24.9 13.1,-24.3 13,-23.7 C13,-23.7 12.5,-16.3 9.9,-8.2 C7.3,-0.1 4.3,4.9 1.7,8.6 C1.7,8.6 1.4,9.1 1.4,9.7 C1.4,9.9 1.4,10.1 1.5,10.3 C1.9,11 2.5,12.1 2.5,12.1 C2.5,12.1 2.7,12.7 3.6,12.7 L20.8,12.7 "/>
<path class="Rest" transform="matrix(1.2096,0,0,1.2096,2276.54,272.16)" d="M34.3,-18.6 C34.4,-18.8 34.4,-18.9 34.4,-19.1 C34.4,-19.6 34.1,-20.1 33.5,-20.3 C33.3,-20.4 33.1,-20.4 33,-20.4 C32.4,-20.4 32,-20.1 31.7,-19.6 C29.3,-14.8 25.3,-9.4 19.8,-8 C21,-9.4 21.5,-11 21.5,-12.8 C21.5,-16.7 18,-19.7 14.1,-19.7 C10.2,-19.5 7.2,-16.2 7.2,-12.3 C7.4,-6.7 12.8,-4.8 17.5,-4.8 C22.5,-5 26.4,-7.5 29.4,-11.4 L24.9,4.5 C23.5,9.3 17.8,15.7 12.7,17 C13.8,15.6 14.4,13.9 14.4,12.2 C14.4,8.2 11,5.3 7.1,5.3 C3.1,5.3 0.1,8.7 0.1,12.7 C0.1,15.7 2.2,18.2 4.8,19.1 C6.7,19.9 8.4,20.1 10.4,20.1 C15.4,20 19.3,17.4 22.3,13.5 L12.1,50 L14.8,50.7 L34.3,-18.6 "/>
<path class="Rest" transform="matrix(1.2096,0,0,1.2096,1773.68,272.16)" d="M26.7,-20.3 C26.6,-20.3 26.4,-20.4 26.3,-20.4 C25.7,-20.4 25.2,-20.1 25,-19.6 C22.7,-15 17.9,-8.8 12.5,-7.8 C13.6,-9.1 14.3,-10.7 14.3,-12.6 C14.3,-16.5 11.1,-19.7 7.2,-19.7 C3.2,-19.7 0,-16.5 0,-12.6 C0,-7.2 5.3,-4.7 10,-4.7 C15.3,-4.7 18.8,-7.2 22.2,-10.9 L10.8,24.7 L13.5,25.5 L27.5,-18.6 C27.6,-18.7 27.6,-18.9 27.6,-19.1 C27.6,-19.6 27.3,-20 26.7,-20.3"/>
<path class="Rest" transform="matrix(1.2096,0,0,1.2096,516.809,272.16)" d="M23,16.6 C22.9,16.5 22.7,16.3 22.4,15.9 L10.9,1.7 C10.8,1.6 10.7,1.3 10.7,1.1 C10.7,0.8 10.8,0.4 10.9,0.2 L21.1,-15.2 C21.2,-15.4 21.3,-15.7 21.3,-15.9 L21.3,-16.8 C21.3,-17.1 21.2,-17.4 21,-17.6 L4.8,-39.5 C4.8,-39.5 4.4,-40.1 3.8,-40.1 C3.5,-40.1 3.3,-40.1 3,-39.8 C2.6,-39.5 2.5,-39.1 2.5,-38.8 C2.5,-38.2 2.8,-37.7 2.8,-37.7 L10.4,-27.3 C10.6,-27 10.7,-26.6 10.7,-26.1 C10.7,-25.7 10.6,-25.2 10.4,-24.9 L0.3,-9.5 C0.2,-9.3 0.1,-8.9 0.1,-8.7 L0.1,-7.8 C0.1,-7.5 0.2,-7.2 0.4,-7 L11.6,6.9 C11.2,6.8 10.3,6.6 9.1,6.6 C4,6.6 0,10.8 0,15.9 C0,17.3 0.3,18.7 1.1,19.8 C3.2,23 10.7,32.5 10.7,32.5 C10.7,32.5 11.2,33.1 11.9,33.1 C12.1,33.1 12.3,33.1 12.5,32.9 C13,32.5 13.2,32.1 13.2,31.7 C13.2,31.3 13,31 12.9,30.8 C12.6,30.3 9.4,24.5 9.4,24.5 C9.4,24.5 8.7,23.1 8.7,21.3 C8.7,18.1 11.1,15.5 14.3,15.5 C15.6,15.5 16.7,15.9 17.5,16.4 L21.4,18.9 C21.4,18.9 21.8,19.1 22.2,19.1 C22.6,19.1 22.9,19 23.2,18.6 C23.4,18.3 23.5,18 23.5,17.7 C23.5,17.4 23.4,17.2 23.2,16.9 L23,16.6 "/>
<path class="Rest" transform="matrix(1.2096,0,0,1.2096,2769.23,272.16)" d="M34.3,-18.6 C34.4,-18.8 34.4,-18.9 34.4,-19.1 C34.4,-19.6 34.1,-20.1 33.5,-20.3 C33.3,-20.4 33.1,-20.4 33,-20.4 C32.4,-20.4 32,-20.1 31.7,-19.6 C29.3,-14.8 25.3,-9.4 19.8,-8 C21,-9.4 21.5,-11 21.5,-12.8 C21.5,-16.7 18,-19.7 14.1,-19.7 C10.2,-19.5 7.2,-16.2 7.2,-12.3 C7.4,-6.7 12.8,-4.8 17.5,-4.8 C22.5,-5 26.4,-7.5 29.4,-11.4 L24.9,4.5 C23.5,9.3 17.8,15.7 12.7,17 C13.8,15.6 14.4,13.9 14.4,12.2 C14.4,8.2 11,5.3 7.1,5.3 C3.1,5.3 0.1,8.7 0.1,12.7 C0.1,15.7 2.2,18.2 4.8,19.1 C6.7,19.9 8.4,20.1 10.4,20.1 C15.4,20 19.3,17.4 22.3,13.5 L12.1,50 L14.8,50.7 L34.3,-18.6 "/>
<path class="Rest" transform="matrix(1.2096,0,0,1.2096,2217.67,272.16)" d="M34.3,-18.6 C34.4,-18.8 34.4,-18.9 34.4,-19.1 C34.4,-19.6 34.1,-20.1 33.5,-20.3 C33.3,-20.4 33.1,-20.4 33,-20.4 C32.4,-20.4 32,-20.1 31.7,-19.6 C29.3,-14.8 25.3,-9.4 19.8,-8 C21,-9.4 21.5,-11 21.5,-12.8 C21.5,-16.7 18,-19.7 14.1,-19.7 C10.2,-19.5 7.2,-16.2 7.2,-12.3 C7.4,-6.7 12.8,-4.8 17.5,-4.8 C22.5,-5 26.4,-7.5 29.4,-11.4 L24.9,4.5 C23.5,9.3 17.8,15.7 12.7,17 C13.8,15.6 14.4,13.9 14.4,12.2 C14.4,8.2 11,5.3 7.1,5.3 C3.1,5.3 0.1,8.7 0.1,12.7 C0.1,15.7 2.2,18.2 4.8,19.1 C6.7,19.9 8.4,20.1 10.4,20.1 C15.4,20 19.3,17.4 22.3,13.5 L12.1,50 L14.8,50.7 L34.3,-18.6 "/>
<path class="Rest" transform="matrix(1.2096,0,0,1.2096,2592.62,272.16)" d="M34.3,-18.6 C34.4,-18.8 34.4,-18.9 34.4,-19.1 C34.4,-19.6 34.1,-20.1 33.5,-20.3 C33.3,-20.4 33.1,-20.4 33,-20.4 C32.4,-20.4 32,-20.1 31.7,-19.6 C29.3,-14.8 25.3,-9.4 19.8,-8 C21,-9.4 21.5,-11 21.5,-12.8 C21.5,-16.7 18,-19.7 14.1,-19.7 C10.2,-19.5 7.2,-16.2 7.2,-12.3 C7.4,-6.7 12.8,-4.8 17.5,-4.8 C22.5,-5 26.4,-7.5 29.4,-11.4 L24.9,4.5 C23.5,9.3 17.8,15.7 12.7,17 C13.8,15.6 14.4,13.9 14.4,12.2 C14.4,8.2 11,5.3 7.1,5.3 C3.1,5.3 0.1,8.7 0.1,12.7 C0.1,15.7 2.2,18.2 4.8,19.1 C6.7,19.9 8.4,20.1 10.4,20.1 C15.4,20 19.3,17.4 22.3,13.5 L12.1,50 L14.8,50.7 L34.3,-18.6 "/>
<path class="Rest" transform="matrix(1.2096,0,0,1.2096,340.192,272.16)" d="M26.7,-20.3 C26.6,-20.3 26.4,-20.4 26.3,-20.4 C25.7,-20.4 25.2,-20.1 25,-19.6 C22.7,-15 17.9,-8.8 12.5,-7.8 C13.6,-9.1 14.3,-10.7 14.3,-12.6 C14.3,-16.5 11.1,-19.7 7.2,-19.7 C3.2,-19.7 0,-16.5 0,-12.6 C0,-7.2 5.3,-4.7 10,-4.7 C15.3,-4.7 18.8,-7.2 22.2,-10.9 L10.8,24.7 L13.5,25.5 L27.5,-18.6 C27.6,-18.7 27.6,-18.9 27.6,-19.1 C27.6,-19.6 27.3,-20 26.7,-20.3"/>
<path class="Rest" transform="matrix(1.2096,0,0,1.2096,1145.24,272.16)" d="M23,16.6 C22.9,16.5 22.7,16.3 22.4,15.9 L10.9,1.7 C10.8,1.6 10.7,1.3 10.7,1.1 C10.7,0.8 10.8,0.4 10.9,0.2 L21.1,-15.2 C21.2,-15.4 21.3,-15.7 21.3,-15.9 L21.3,-16.8 C21.3,-17.1 21.2,-17.4 21,-17.6 L4.8,-39.5 C4.8,-39.5 4.4,-40.1 3.8,-40.1 C3.5,-40.1 3.3,-40.1 3,-39.8 C2.6,-39.5 2.5,-39.1 2.5,-38.8 C2.5,-38.2 2.8,-37.7 2.8,-37.7 L10.4,-27.3 C10.6,-27 10.7,-26.6 10.7,-26.1 C10.7,-25.7 10.6,-25.2 10.4,-24.9 L0.3,-9.5 C0.2,-9.3 0.1,-8.9 0.1,-8.7 L0.1,-7.8 C0.1,-7.5 0.2,-7.2 0.4,-7 L11.6,6.9 C11.2,6.8 10.3,6.6 9.1,6.6 C4,6.6 0,10.8 0,15.9 C0,17.3 0.3,18.7 1.1,19.8 C3.2,23 10.7,32.5 10.7,32.5 C10.7,32.5 11.2,33.1 11.9,33.1 C12.1,33.1 12.3,33.1 12.5,32.9 C13,32.5 13.2,32.1 13.2,31.7 C13.2,31.3 13,31 12.9,30.8 C12.6,30.3 9.4,24.5 9.4,24.5 C9.4,24.5 8.7,23.1 8.7,21.3 C8.7,18.1 11.1,15.5 14.3,15.5 C15.6,15.5 16.7,15.9 17.5,16.4 L21.4,18.9 C21.4,18.9 21.8,19.1 22.2,19.1 C22.6,19.1 22.9,19 23.2,18.6 C23.4,18.3 23.5,18 23.5,17.7 C23.5,17.4 23.4,17.2 23.2,16.9 L23,16.6 "/>
<path class="Beam" fill-rule="evenodd" d="M1633.33,166.294 L1724.66,173.854 L1724.66,189.026 L1633.33,181.466 L1633.33,166.294 "/>
<path class="Beam" fill-rule="evenodd" d="M2687.76,211.68 L2749.65,211.68 L2749.65,226.8 L2687.76,226.8 L2687.76,211.68 "/>
<path class="Beam" fill-rule="evenodd" d="M2687.76,234.36 L2749.65,234.36 L2749.65,249.48 L2687.76,249.48 L2687.76,234.36 "/>
<path class="Beam" fill-rule="evenodd" d="M1004.9,166.294 L1096.23,173.854 L1096.23,189.026 L1004.9,181.466 L1004.9,166.294 "/>
<path class="Beam" fill-rule="evenodd" d="M2452.27,166.294 L2543.6,173.854 L2543.6,189.026 L2452.27,181.466 L2452.27,166.294 "/>
<path class="Lyrics" d="M1732.06,412.819 C1731.04,418.174 1728.23,421.404 1724.49,421.404 C1721.26,421.404 1718.46,419.874 1715.14,416.219 C1718.54,412.054 1718.97,411.459 1720.75,408.059 C1725.94,397.944 1726.96,396.924 1732.99,396.499 L1733.93,396.499 L1733.93,392.844 L1709.96,392.844 L1709.96,396.499 L1710.81,396.499 C1715.82,396.499 1718.46,397.859 1718.46,400.494 C1718.46,404.149 1716.16,409.164 1712.51,413.329 C1708.43,408.484 1703.58,401.174 1698.82,392.249 C1703.41,390.209 1704.86,389.444 1707.07,387.914 C1710.98,385.194 1713.53,380.519 1713.53,376.014 C1713.53,369.129 1708.17,364.539 1700.27,364.539 C1691.34,364.539 1685.39,370.574 1685.39,379.584 C1685.39,383.324 1686.33,386.639 1688.96,392.249 C1679.44,396.754 1674.26,403.469 1674.26,411.119 C1674.26,415.369 1676.13,420.044 1679.1,423.274 C1682.25,426.674 1686.75,428.459 1692.53,428.459 C1698.65,428.459 1703.33,426.759 1708.85,422.424 C1712.93,426.589 1716.25,428.119 1720.92,428.119 C1729.93,428.119 1734.78,421.574 1735.8,413.329 L1732.06,412.819 M1697.04,388.679 C1694.57,383.579 1693.38,379.754 1693.38,376.609 C1693.38,371.679 1696.1,368.194 1700.01,368.194 C1703.92,368.194 1706.73,371.509 1706.73,376.184 C1706.73,379.414 1705.28,382.814 1703.07,384.939 C1701.71,386.214 1700.44,386.979 1697.04,388.679 M1690.58,395.734 C1696.1,406.699 1698.99,411.119 1706.22,419.534 C1702.48,421.914 1700.52,422.679 1697.63,422.679 C1690.07,422.679 1683.35,415.029 1683.35,406.529 C1683.35,401.854 1685.48,398.709 1690.58,395.734"/>
<path class="Lyrics" d="M234.536,367.004 L231.561,367.004 C226.206,370.999 220.171,372.699 210.056,372.869 L210.056,377.629 L213.626,377.629 C221.191,377.629 221.276,377.799 221.191,384.769 L221.191,414.944 C221.191,420.214 221.191,420.469 220.596,421.319 C219.831,422.254 218.131,422.594 213.541,422.594 L210.821,422.594 L210.821,427.184 L244.736,427.184 L244.736,422.594 L242.016,422.594 C237.511,422.594 235.896,422.254 235.131,421.319 C234.536,420.469 234.536,420.129 234.536,414.944 L234.536,367.004 "/>
<path class="Lyrics" d="M1983.85,406.104 L1983.85,379.924 C1983.85,378.649 1984.02,373.124 1984.36,367.004 L1978.5,367.004 L1947.56,405.509 L1947.56,411.799 L1970.51,411.799 L1970.51,414.944 C1970.51,420.214 1970.51,420.554 1969.91,421.404 C1969.23,422.254 1967.45,422.594 1963.45,422.594 L1962.52,422.594 L1962.52,427.184 L1991.5,427.184 L1991.5,422.594 L1990.57,422.594 C1986.83,422.509 1985.04,422.169 1984.45,421.404 C1983.85,420.469 1983.85,420.214 1983.85,414.944 L1983.85,411.799 L1992.35,411.799 L1992.35,406.104 L1983.85,406.104 M1970.51,406.104 L1953.76,406.104 L1970.51,384.854 L1970.51,406.104 "/>
<path class="Lyrics" d="M2164,367.004 L2161.02,367.004 C2155.67,370.999 2149.63,372.699 2139.52,372.869 L2139.52,377.629 L2143.09,377.629 C2150.65,377.629 2150.74,377.799 2150.65,384.769 L2150.65,414.944 C2150.65,420.214 2150.65,420.469 2150.06,421.319 C2149.29,422.254 2147.59,422.594 2143,422.594 L2140.28,422.594 L2140.28,427.184 L2174.2,427.184 L2174.2,422.594 L2171.48,422.594 C2166.97,422.594 2165.36,422.254 2164.59,421.319 C2164,420.469 2164,420.129 2164,414.944 L2164,367.004 "/>
<path class="Lyrics" d="M1908.68,412.819 C1907.66,418.174 1904.85,421.404 1901.11,421.404 C1897.88,421.404 1895.08,419.874 1891.76,416.219 C1895.16,412.054 1895.59,411.459 1897.37,408.059 C1902.56,397.944 1903.58,396.924 1909.61,396.499 L1910.55,396.499 L1910.55,392.844 L1886.58,392.844 L1886.58,396.499 L1887.43,396.499 C1892.44,396.499 1895.08,397.859 1895.08,400.494 C1895.08,404.149 1892.78,409.164 1889.13,413.329 C1885.05,408.484 1880.2,401.174 1875.44,392.249 C1880.03,390.209 1881.48,389.444 1883.69,387.914 C1887.6,385.194 1890.15,380.519 1890.15,376.014 C1890.15,369.129 1884.79,364.539 1876.89,364.539 C1867.96,364.539 1862.01,370.574 1862.01,379.584 C1862.01,383.324 1862.95,386.639 1865.58,392.249 C1856.06,396.754 1850.88,403.469 1850.88,411.119 C1850.88,415.369 1852.75,420.044 1855.72,423.274 C1858.87,426.674 1863.37,428.459 1869.15,428.459 C1875.27,428.459 1879.95,426.759 1885.47,422.424 C1889.55,426.589 1892.87,428.119 1897.54,428.119 C1906.55,428.119 1911.4,421.574 1912.42,413.329 L1908.68,412.819 M1873.66,388.679 C1871.19,383.579 1870,379.754 1870,376.609 C1870,371.679 1872.72,368.194 1876.63,368.194 C1880.54,368.194 1883.35,371.509 1883.35,376.184 C1883.35,379.414 1881.9,382.814 1879.69,384.939 C1878.33,386.214 1877.06,386.979 1873.66,388.679 M1867.2,395.734 C1872.72,406.699 1875.61,411.119 1882.84,419.534 C1879.1,421.914 1877.14,422.679 1874.25,422.679 C1866.69,422.679 1859.97,415.029 1859.97,406.529 C1859.97,401.854 1862.1,398.709 1867.2,395.734"/>
<path class="Lyrics" d="M1633.9,404.574 L1632.96,408.824 C1632.2,412.224 1631.69,413.329 1631.01,413.754 C1630.16,414.349 1629.99,414.349 1624.63,414.434 L1608.23,414.434 C1611.2,411.884 1613.41,410.269 1616.73,408.059 C1628.71,400.324 1631.18,398.454 1633.64,395.309 C1636.53,391.484 1638.23,386.979 1638.23,382.984 C1638.23,373.889 1629.31,367.004 1617.32,367.004 C1605.76,367.004 1596.84,374.484 1596.84,384.174 C1596.84,390.124 1600.15,393.949 1605.25,393.949 C1609.67,393.949 1612.48,391.144 1612.48,386.724 C1612.48,383.069 1610.86,380.944 1606.95,379.074 C1606.02,378.649 1605.59,378.139 1605.59,377.459 C1605.59,374.739 1610.18,371.849 1614.43,371.849 C1620.38,371.849 1623.78,375.504 1623.78,381.794 C1623.78,388.849 1621.06,393.864 1612.05,403.469 C1602.53,413.584 1599.22,417.409 1594.97,423.529 L1594.97,427.524 C1597.18,427.269 1598.11,427.184 1599.39,427.184 L1631.35,427.184 C1632.96,427.184 1633.98,427.269 1636.53,427.524 L1638.49,404.574 L1633.9,404.574 "/>
<path class="Lyrics" d="M2368.54,399.814 C2368.54,394.459 2367.61,391.739 2365.14,389.699 C2362.34,387.404 2358.17,386.299 2352.73,386.299 C2343.13,386.299 2336.16,390.804 2336.16,397.009 C2336.16,400.154 2338.11,402.194 2341.09,402.194 C2343.81,402.194 2345.68,400.409 2345.68,397.859 C2345.68,396.754 2345.25,395.564 2344.4,394.374 C2343.89,393.779 2343.81,393.609 2343.81,393.184 C2343.81,391.484 2347.21,389.954 2351.29,389.954 C2354.01,389.954 2356.98,390.804 2358.34,392.079 C2359.96,393.439 2360.55,395.479 2360.55,399.304 L2360.55,402.619 C2351.71,404.149 2348.91,404.829 2344.74,406.444 C2337.35,409.164 2333.86,413.074 2333.86,418.514 C2333.86,424.634 2338.62,428.459 2346.19,428.459 C2352.05,428.459 2357.32,426.079 2360.98,421.744 C2362.34,426.079 2364.46,427.779 2368.46,427.779 C2372.28,427.779 2376.28,425.314 2376.28,422.849 C2376.28,422.254 2375.94,421.829 2375.43,421.829 C2375.09,421.829 2374.75,421.914 2374.15,422.169 C2372.96,422.679 2372.45,422.764 2371.77,422.764 C2369.39,422.764 2368.54,421.234 2368.54,416.899 L2368.54,399.814 M2360.55,410.184 C2360.55,415.284 2360.3,416.474 2358.85,418.684 C2356.73,421.829 2352.9,423.954 2349.16,423.954 C2345.25,423.954 2342.45,421.149 2342.45,417.324 C2342.45,413.754 2344.23,411.204 2347.97,409.419 C2350.61,408.229 2353.92,407.379 2360.55,406.274 L2360.55,410.184 "/>
<path class="Lyrics" d="M1491.41,367.004 L1488.43,367.004 C1483.08,370.999 1477.04,372.699 1466.93,372.869 L1466.93,377.629 L1470.5,377.629 C1478.06,377.629 1478.15,377.799 1478.06,384.769 L1478.06,414.944 C1478.06,420.214 1478.06,420.469 1477.47,421.319 C1476.7,422.254 1475,422.594 1470.41,422.594 L1467.69,422.594 L1467.69,427.184 L1501.61,427.184 L1501.61,422.594 L1498.89,422.594 C1494.38,422.594 1492.77,422.254 1492,421.319 C1491.41,420.469 1491.41,420.129 1491.41,414.944 L1491.41,367.004 "/>
<path class="Lyrics" d="M1311.26,406.104 L1311.26,379.924 C1311.26,378.649 1311.43,373.124 1311.77,367.004 L1305.91,367.004 L1274.97,405.509 L1274.97,411.799 L1297.92,411.799 L1297.92,414.944 C1297.92,420.214 1297.92,420.554 1297.32,421.404 C1296.64,422.254 1294.86,422.594 1290.86,422.594 L1289.93,422.594 L1289.93,427.184 L1318.91,427.184 L1318.91,422.594 L1317.98,422.594 C1314.24,422.509 1312.45,422.169 1311.86,421.404 C1311.26,420.469 1311.26,420.214 1311.26,414.944 L1311.26,411.799 L1319.76,411.799 L1319.76,406.104 L1311.26,406.104 M1297.92,406.104 L1281.17,406.104 L1297.92,384.854 L1297.92,406.104 "/>
<path class="Lyrics" d="M2452.83,404.574 L2451.9,408.824 C2451.13,412.224 2450.62,413.329 2449.94,413.754 C2449.09,414.349 2448.92,414.349 2443.57,414.434 L2427.16,414.434 C2430.14,411.884 2432.35,410.269 2435.66,408.059 C2447.65,400.324 2450.11,398.454 2452.58,395.309 C2455.47,391.484 2457.17,386.979 2457.17,382.984 C2457.17,373.889 2448.24,367.004 2436.26,367.004 C2424.7,367.004 2415.77,374.484 2415.77,384.174 C2415.77,390.124 2419.09,393.949 2424.19,393.949 C2428.61,393.949 2431.41,391.144 2431.41,386.724 C2431.41,383.069 2429.8,380.944 2425.89,379.074 C2424.95,378.649 2424.53,378.139 2424.53,377.459 C2424.53,374.739 2429.12,371.849 2433.37,371.849 C2439.32,371.849 2442.72,375.504 2442.72,381.794 C2442.72,388.849 2440,393.864 2430.99,403.469 C2421.47,413.584 2418.15,417.409 2413.9,423.529 L2413.9,427.524 C2416.11,427.269 2417.05,427.184 2418.32,427.184 L2450.28,427.184 C2451.9,427.184 2452.92,427.269 2455.47,427.524 L2457.42,404.574 L2452.83,404.574 "/>
<path class="Lyrics" d="M1103.62,412.819 C1102.6,418.174 1099.8,421.404 1096.06,421.404 C1092.83,421.404 1090.02,419.874 1086.71,416.219 C1090.11,412.054 1090.53,411.459 1092.32,408.059 C1097.5,397.944 1098.52,396.924 1104.56,396.499 L1105.49,396.499 L1105.49,392.844 L1081.52,392.844 L1081.52,396.499 L1082.37,396.499 C1087.39,396.499 1090.02,397.859 1090.02,400.494 C1090.02,404.149 1087.73,409.164 1084.07,413.329 C1079.99,408.484 1075.15,401.174 1070.39,392.249 C1074.98,390.209 1076.42,389.444 1078.63,387.914 C1082.54,385.194 1085.09,380.519 1085.09,376.014 C1085.09,369.129 1079.74,364.539 1071.83,364.539 C1062.91,364.539 1056.96,370.574 1056.96,379.584 C1056.96,383.324 1057.89,386.639 1060.53,392.249 C1051.01,396.754 1045.82,403.469 1045.82,411.119 C1045.82,415.369 1047.69,420.044 1050.67,423.274 C1053.81,426.674 1058.32,428.459 1064.1,428.459 C1070.22,428.459 1074.89,426.759 1080.42,422.424 C1084.5,426.589 1087.81,428.119 1092.49,428.119 C1101.5,428.119 1106.34,421.574 1107.36,413.329 L1103.62,412.819 M1068.6,388.679 C1066.14,383.579 1064.95,379.754 1064.95,376.609 C1064.95,371.679 1067.67,368.194 1071.58,368.194 C1075.49,368.194 1078.29,371.509 1078.29,376.184 C1078.29,379.414 1076.85,382.814 1074.64,384.939 C1073.28,386.214 1072,386.979 1068.6,388.679 M1062.14,395.734 C1067.67,406.699 1070.56,411.119 1077.78,419.534 C1074.04,421.914 1072.09,422.679 1069.2,422.679 C1061.63,422.679 1054.92,415.029 1054.92,406.529 C1054.92,401.854 1057.04,398.709 1062.14,395.734"/>
<path class="Lyrics" d="M2861.66,406.104 L2861.66,379.924 C2861.66,378.649 2861.83,373.124 2862.17,367.004 L2856.31,367.004 L2825.37,405.509 L2825.37,411.799 L2848.32,411.799 L2848.32,414.944 C2848.32,420.214 2848.32,420.554 2847.72,421.404 C2847.04,422.254 2845.26,422.594 2841.26,422.594 L2840.33,422.594 L2840.33,427.184 L2869.31,427.184 L2869.31,422.594 L2868.38,422.594 C2864.64,422.509 2862.85,422.169 2862.26,421.404 C2861.66,420.469 2861.66,420.214 2861.66,414.944 L2861.66,411.799 L2870.16,411.799 L2870.16,406.104 L2861.66,406.104 M2848.32,406.104 L2831.57,406.104 L2848.32,384.854 L2848.32,406.104 "/>
<path class="Lyrics" d="M475.188,412.819 C474.168,418.174 471.363,421.404 467.623,421.404 C464.393,421.404 461.588,419.874 458.273,416.219 C461.673,412.054 462.098,411.459 463.883,408.059 C469.068,397.944 470.088,396.924 476.123,396.499 L477.058,396.499 L477.058,392.844 L453.088,392.844 L453.088,396.499 L453.938,396.499 C458.953,396.499 461.588,397.859 461.588,400.494 C461.588,404.149 459.293,409.164 455.638,413.329 C451.558,408.484 446.713,401.174 441.953,392.249 C446.543,390.209 447.988,389.444 450.198,387.914 C454.108,385.194 456.658,380.519 456.658,376.014 C456.658,369.129 451.303,364.539 443.398,364.539 C434.473,364.539 428.523,370.574 428.523,379.584 C428.523,383.324 429.458,386.639 432.093,392.249 C422.573,396.754 417.388,403.469 417.388,411.119 C417.388,415.369 419.258,420.044 422.233,423.274 C425.378,426.674 429.883,428.459 435.663,428.459 C441.783,428.459 446.458,426.759 451.983,422.424 C456.063,426.589 459.378,428.119 464.053,428.119 C473.063,428.119 477.908,421.574 478.928,413.329 L475.188,412.819 M440.168,388.679 C437.703,383.579 436.513,379.754 436.513,376.609 C436.513,371.679 439.233,368.194 443.143,368.194 C447.053,368.194 449.858,371.509 449.858,376.184 C449.858,379.414 448.413,382.814 446.203,384.939 C444.843,386.214 443.568,386.979 440.168,388.679 M433.708,395.734 C439.233,406.699 442.123,411.119 449.348,419.534 C445.608,421.914 443.653,422.679 440.763,422.679 C433.198,422.679 426.483,415.029 426.483,406.529 C426.483,401.854 428.608,398.709 433.708,395.734"/>
<path class="Lyrics" d="M2757.05,412.819 C2756.03,418.174 2753.22,421.404 2749.48,421.404 C2746.25,421.404 2743.45,419.874 2740.13,416.219 C2743.53,412.054 2743.96,411.459 2745.74,408.059 C2750.93,397.944 2751.95,396.924 2757.98,396.499 L2758.92,396.499 L2758.92,392.844 L2734.95,392.844 L2734.95,396.499 L2735.8,396.499 C2740.81,396.499 2743.45,397.859 2743.45,400.494 C2743.45,404.149 2741.15,409.164 2737.5,413.329 C2733.42,408.484 2728.57,401.174 2723.81,392.249 C2728.4,390.209 2729.85,389.444 2732.06,387.914 C2735.97,385.194 2738.52,380.519 2738.52,376.014 C2738.52,369.129 2733.16,364.539 2725.26,364.539 C2716.33,364.539 2710.38,370.574 2710.38,379.584 C2710.38,383.324 2711.32,386.639 2713.95,392.249 C2704.43,396.754 2699.25,403.469 2699.25,411.119 C2699.25,415.369 2701.12,420.044 2704.09,423.274 C2707.24,426.674 2711.74,428.459 2717.52,428.459 C2723.64,428.459 2728.32,426.759 2733.84,422.424 C2737.92,426.589 2741.24,428.119 2745.91,428.119 C2754.92,428.119 2759.77,421.574 2760.79,413.329 L2757.05,412.819 M2722.03,388.679 C2719.56,383.579 2718.37,379.754 2718.37,376.609 C2718.37,371.679 2721.09,368.194 2725,368.194 C2728.91,368.194 2731.72,371.509 2731.72,376.184 C2731.72,379.414 2730.27,382.814 2728.06,384.939 C2726.7,386.214 2725.43,386.979 2722.03,388.679 M2715.57,395.734 C2721.09,406.699 2723.98,411.119 2731.21,419.534 C2727.47,421.914 2725.51,422.679 2722.62,422.679 C2715.06,422.679 2708.34,415.029 2708.34,406.529 C2708.34,401.854 2710.47,398.709 2715.57,395.734"/>
<path class="Lyrics" d="M682.828,406.104 L682.828,379.924 C682.828,378.649 682.998,373.124 683.338,367.004 L677.473,367.004 L646.533,405.509 L646.533,411.799 L669.483,411.799 L669.483,414.944 C669.483,420.214 669.483,420.554 668.888,421.404 C668.208,422.254 666.423,422.594 662.428,422.594 L661.493,422.594 L661.493,427.184 L690.478,427.184 L690.478,422.594 L689.543,422.594 C685.803,422.509 684.018,422.169 683.423,421.404 C682.828,420.469 682.828,420.214 682.828,414.944 L682.828,411.799 L691.328,411.799 L691.328,406.104 L682.828,406.104 M669.483,406.104 L652.738,406.104 L669.483,384.854 L669.483,406.104 "/>
<path class="Lyrics" d="M2689.38,408.059 C2689.46,395.309 2682.24,386.299 2671.87,386.299 C2660.99,386.299 2652.83,395.734 2652.83,408.484 C2652.83,420.469 2660.56,428.459 2672.04,428.459 C2680.2,428.459 2685.89,424.464 2689.38,416.389 L2686.4,414.774 C2682.92,421.319 2679.35,423.869 2673.65,423.869 C2669.32,423.869 2666.17,422.084 2663.96,418.259 C2662.43,415.709 2661.75,412.734 2661.84,408.059 L2689.38,408.059 M2661.92,404.404 C2661.92,398.454 2664.64,389.954 2671.78,389.954 C2676.88,389.954 2680.28,394.459 2680.28,401.344 C2680.28,403.724 2679.52,404.404 2676.8,404.404 L2661.92,404.404 "/>
<path class="Lyrics" d="M862.972,367.004 L859.997,367.004 C854.642,370.999 848.607,372.699 838.492,372.869 L838.492,377.629 L842.062,377.629 C849.627,377.629 849.712,377.799 849.627,384.769 L849.627,414.944 C849.627,420.214 849.627,420.469 849.032,421.319 C848.267,422.254 846.567,422.594 841.977,422.594 L839.257,422.594 L839.257,427.184 L873.172,427.184 L873.172,422.594 L870.452,422.594 C865.947,422.594 864.332,422.254 863.567,421.319 C862.972,420.469 862.972,420.129 862.972,414.944 L862.972,367.004 "/>
<path class="Lyrics" d="M1005.46,404.574 L1004.52,408.824 C1003.76,412.224 1003.25,413.329 1002.57,413.754 C1001.72,414.349 1001.55,414.349 996.195,414.434 L979.79,414.434 C982.765,411.884 984.975,410.269 988.29,408.059 C1000.27,400.324 1002.74,398.454 1005.2,395.309 C1008.09,391.484 1009.79,386.979 1009.79,382.984 C1009.79,373.889 1000.87,367.004 988.885,367.004 C977.325,367.004 968.4,374.484 968.4,384.174 C968.4,390.124 971.715,393.949 976.815,393.949 C981.235,393.949 984.04,391.144 984.04,386.724 C984.04,383.069 982.425,380.944 978.515,379.074 C977.58,378.649 977.155,378.139 977.155,377.459 C977.155,374.739 981.745,371.849 985.995,371.849 C991.945,371.849 995.345,375.504 995.345,381.794 C995.345,388.849 992.625,393.864 983.615,403.469 C974.095,413.584 970.78,417.409 966.53,423.529 L966.53,427.524 C968.74,427.269 969.675,427.184 970.95,427.184 L1002.91,427.184 C1004.52,427.184 1005.54,427.269 1008.09,427.524 L1010.05,404.574 L1005.46,404.574 "/>
<path class="Lyrics" d="M2551,412.819 C2549.98,418.174 2547.17,421.404 2543.43,421.404 C2540.2,421.404 2537.4,419.874 2534.08,416.219 C2537.48,412.054 2537.91,411.459 2539.69,408.059 C2544.88,397.944 2545.9,396.924 2551.93,396.499 L2552.87,396.499 L2552.87,392.844 L2528.9,392.844 L2528.9,396.499 L2529.75,396.499 C2534.76,396.499 2537.4,397.859 2537.4,400.494 C2537.4,404.149 2535.1,409.164 2531.45,413.329 C2527.37,408.484 2522.52,401.174 2517.76,392.249 C2522.35,390.209 2523.8,389.444 2526.01,387.914 C2529.92,385.194 2532.47,380.519 2532.47,376.014 C2532.47,369.129 2527.11,364.539 2519.21,364.539 C2510.28,364.539 2504.33,370.574 2504.33,379.584 C2504.33,383.324 2505.27,386.639 2507.9,392.249 C2498.38,396.754 2493.2,403.469 2493.2,411.119 C2493.2,415.369 2495.07,420.044 2498.04,423.274 C2501.19,426.674 2505.69,428.459 2511.47,428.459 C2517.59,428.459 2522.27,426.759 2527.79,422.424 C2531.87,426.589 2535.19,428.119 2539.86,428.119 C2548.87,428.119 2553.72,421.574 2554.74,413.329 L2551,412.819 M2515.98,388.679 C2513.51,383.579 2512.32,379.754 2512.32,376.609 C2512.32,371.679 2515.04,368.194 2518.95,368.194 C2522.86,368.194 2525.67,371.509 2525.67,376.184 C2525.67,379.414 2524.22,382.814 2522.01,384.939 C2520.65,386.214 2519.38,386.979 2515.98,388.679 M2509.52,395.734 C2515.04,406.699 2517.93,411.119 2525.16,419.534 C2521.42,421.914 2519.46,422.679 2516.57,422.679 C2509.01,422.679 2502.29,415.029 2502.29,406.529 C2502.29,401.854 2504.42,398.709 2509.52,395.734"/>
<path class="StaffText" d="M2429.21,129.309 L2432.69,129.309 C2438.75,129.549 2441.15,132.009 2441.81,138.609 L2442.11,141.669 C2442.83,148.449 2445.05,151.209 2449.79,151.209 C2454.71,151.209 2457.05,147.909 2457.23,140.709 L2454.71,140.709 C2454.47,144.849 2453.75,146.649 2452.13,146.649 C2450.75,146.649 2450.15,145.629 2449.13,141.489 L2448.17,137.709 C2446.85,132.189 2444.51,129.669 2439.83,128.469 C2448.47,127.269 2452.61,123.789 2452.61,117.729 C2452.61,110.889 2446.85,106.989 2436.77,106.989 L2416.01,106.989 L2416.01,109.809 L2417.09,109.809 C2420.51,109.869 2421.65,110.049 2422.13,110.649 C2422.49,111.189 2422.49,111.309 2422.49,114.369 L2422.49,142.989 C2422.49,145.989 2422.49,146.109 2422.13,146.709 C2421.65,147.309 2420.51,147.489 2417.09,147.489 L2416.01,147.489 L2416.01,150.309 L2435.69,150.309 L2435.69,147.489 L2434.61,147.489 C2431.19,147.489 2430.05,147.309 2429.57,146.709 C2429.21,146.109 2429.21,145.989 2429.21,142.989 L2429.21,129.309 M2429.21,126.489 L2429.21,113.289 C2429.09,109.989 2429.39,109.749 2433.35,109.809 L2436.59,109.809 C2442.53,109.809 2445.23,112.329 2445.23,117.789 C2445.23,124.089 2441.87,126.489 2435.81,126.489 L2429.21,126.489 "/>
<path class="StaffText" d="M1093.6,137.28 L1090.96,137.28 C1088.98,148.08 1086.28,150.72 1076.98,150.9 L1074.46,150.9 C1070.86,150.78 1069.96,150.18 1070.14,148.02 L1070.14,117.78 C1070.14,114.78 1070.14,114.6 1070.5,114.06 C1070.98,113.46 1072.12,113.28 1075.54,113.22 L1076.62,113.22 L1076.62,110.4 L1056.94,110.4 L1056.94,113.22 L1058.02,113.22 C1061.44,113.28 1062.58,113.46 1063.06,114.06 C1063.42,114.6 1063.42,114.72 1063.42,117.78 L1063.42,146.34 C1063.42,149.4 1063.42,149.52 1063.06,150.06 C1062.58,150.66 1061.44,150.9 1058.02,150.9 L1056.94,150.9 L1056.94,153.72 L1092.34,153.72 L1093.6,137.28 "/>
<path class="StaffText" d="M1290.92,136.869 L1294.4,136.869 C1300.46,137.109 1302.86,139.569 1303.52,146.169 L1303.82,149.229 C1304.54,156.009 1306.76,158.769 1311.5,158.769 C1316.42,158.769 1318.76,155.469 1318.94,148.269 L1316.42,148.269 C1316.18,152.409 1315.46,154.209 1313.84,154.209 C1312.46,154.209 1311.86,153.189 1310.84,149.049 L1309.88,145.269 C1308.56,139.749 1306.22,137.229 1301.54,136.029 C1310.18,134.829 1314.32,131.349 1314.32,125.289 C1314.32,118.449 1308.56,114.549 1298.48,114.549 L1277.72,114.549 L1277.72,117.369 L1278.8,117.369 C1282.22,117.429 1283.36,117.609 1283.84,118.209 C1284.2,118.749 1284.2,118.869 1284.2,121.929 L1284.2,150.549 C1284.2,153.549 1284.2,153.669 1283.84,154.269 C1283.36,154.869 1282.22,155.049 1278.8,155.049 L1277.72,155.049 L1277.72,157.869 L1297.4,157.869 L1297.4,155.049 L1296.32,155.049 C1292.9,155.049 1291.76,154.869 1291.28,154.269 C1290.92,153.669 1290.92,153.549 1290.92,150.549 L1290.92,136.869 M1290.92,134.049 L1290.92,120.849 C1290.8,117.549 1291.1,117.309 1295.06,117.369 L1298.3,117.369 C1304.24,117.369 1306.94,119.889 1306.94,125.349 C1306.94,131.649 1303.58,134.049 1297.52,134.049 L1290.92,134.049 "/>
<path class="StaffText" d="M2517.52,131.829 L2521,131.829 C2527.06,132.069 2529.46,134.529 2530.12,141.129 L2530.42,144.189 C2531.14,150.969 2533.36,153.729 2538.1,153.729 C2543.02,153.729 2545.36,150.429 2545.54,143.229 L2543.02,143.229 C2542.78,147.369 2542.06,149.169 2540.44,149.169 C2539.06,149.169 2538.46,148.149 2537.44,144.009 L2536.48,140.229 C2535.16,134.709 2532.82,132.189 2528.14,130.989 C2536.78,129.789 2540.92,126.309 2540.92,120.249 C2540.92,113.409 2535.16,109.509 2525.08,109.509 L2504.32,109.509 L2504.32,112.329 L2505.4,112.329 C2508.82,112.389 2509.96,112.569 2510.44,113.169 C2510.8,113.709 2510.8,113.829 2510.8,116.889 L2510.8,145.509 C2510.8,148.509 2510.8,148.629 2510.44,149.229 C2509.96,149.829 2508.82,150.009 2505.4,150.009 L2504.32,150.009 L2504.32,152.829 L2524,152.829 L2524,150.009 L2522.92,150.009 C2519.5,150.009 2518.36,149.829 2517.88,149.229 C2517.52,148.629 2517.52,148.509 2517.52,145.509 L2517.52,131.829 M2517.52,129.009 L2517.52,115.809 C2517.4,112.509 2517.7,112.269 2521.66,112.329 L2524.9,112.329 C2530.84,112.329 2533.54,114.849 2533.54,120.309 C2533.54,126.609 2530.18,129.009 2524.12,129.009 L2517.52,129.009 "/>
<path class="StaffText" d="M981.841,129.309 L985.321,129.309 C991.381,129.549 993.781,132.009 994.441,138.609 L994.741,141.669 C995.461,148.449 997.681,151.209 1002.42,151.209 C1007.34,151.209 1009.68,147.909 1009.86,140.709 L1007.34,140.709 C1007.1,144.849 1006.38,146.649 1004.76,146.649 C1003.38,146.649 1002.78,145.629 1001.76,141.489 L1000.8,137.709 C999.481,132.189 997.141,129.669 992.461,128.469 C1001.1,127.269 1005.24,123.789 1005.24,117.729 C1005.24,110.889 999.481,106.989 989.401,106.989 L968.641,106.989 L968.641,109.809 L969.721,109.809 C973.141,109.869 974.281,110.049 974.761,110.649 C975.121,111.189 975.121,111.309 975.121,114.369 L975.121,142.989 C975.121,145.989 975.121,146.109 974.761,146.709 C974.281,147.309 973.141,147.489 969.721,147.489 L968.641,147.489 L968.641,150.309 L988.321,150.309 L988.321,147.489 L987.241,147.489 C983.821,147.489 982.681,147.309 982.201,146.709 C981.841,146.109 981.841,145.989 981.841,142.989 L981.841,129.309 M981.841,126.489 L981.841,113.289 C981.721,109.989 982.021,109.749 985.981,109.809 L989.221,109.809 C995.161,109.809 997.861,112.329 997.861,117.789 C997.861,124.089 994.501,126.489 988.441,126.489 L981.841,126.489 "/>
<path class="StaffText" d="M2372.08,165 L2369.44,165 C2367.46,175.8 2364.76,178.44 2355.46,178.62 L2352.94,178.62 C2349.34,178.5 2348.44,177.9 2348.62,175.74 L2348.62,145.5 C2348.62,142.5 2348.62,142.32 2348.98,141.78 C2349.46,141.18 2350.6,141 2354.02,140.94 L2355.1,140.94 L2355.1,138.12 L2335.42,138.12 L2335.42,140.94 L2336.5,140.94 C2339.92,141 2341.06,141.18 2341.54,141.78 C2341.9,142.32 2341.9,142.44 2341.9,145.5 L2341.9,174.06 C2341.9,177.12 2341.9,177.24 2341.54,177.78 C2341.06,178.38 2339.92,178.62 2336.5,178.62 L2335.42,178.62 L2335.42,181.44 L2370.82,181.44 L2372.08,165 "/>
<path class="StaffText" d="M849.379,160.44 L852.859,160.44 C858.919,160.68 861.319,163.14 861.979,169.74 L862.279,172.8 C862.999,179.58 865.219,182.34 869.959,182.34 C874.879,182.34 877.219,179.04 877.399,171.84 L874.879,171.84 C874.639,175.98 873.919,177.78 872.299,177.78 C870.919,177.78 870.319,176.76 869.299,172.62 L868.339,168.84 C867.019,163.32 864.679,160.8 859.999,159.6 C868.639,158.4 872.779,154.92 872.779,148.86 C872.779,142.02 867.019,138.12 856.939,138.12 L836.179,138.12 L836.179,140.94 L837.259,140.94 C840.679,141 841.819,141.18 842.299,141.78 C842.659,142.32 842.659,142.44 842.659,145.5 L842.659,174.12 C842.659,177.12 842.659,177.24 842.299,177.84 C841.819,178.44 840.679,178.62 837.259,178.62 L836.179,178.62 L836.179,181.44 L855.859,181.44 L855.859,178.62 L854.779,178.62 C851.359,178.62 850.219,178.44 849.739,177.84 C849.379,177.24 849.379,177.12 849.379,174.12 L849.379,160.44 M849.379,157.62 L849.379,144.42 C849.259,141.12 849.559,140.88 853.519,140.94 L856.759,140.94 C862.699,140.94 865.399,143.46 865.399,148.92 C865.399,155.22 862.039,157.62 855.979,157.62 L849.379,157.62 "/>
<path class="StaffText" d="M1477.81,160.44 L1481.29,160.44 C1487.35,160.68 1489.75,163.14 1490.41,169.74 L1490.71,172.8 C1491.43,179.58 1493.65,182.34 1498.39,182.34 C1503.31,182.34 1505.65,179.04 1505.83,171.84 L1503.31,171.84 C1503.07,175.98 1502.35,177.78 1500.73,177.78 C1499.35,177.78 1498.75,176.76 1497.73,172.62 L1496.77,168.84 C1495.45,163.32 1493.11,160.8 1488.43,159.6 C1497.07,158.4 1501.21,154.92 1501.21,148.86 C1501.21,142.02 1495.45,138.12 1485.37,138.12 L1464.61,138.12 L1464.61,140.94 L1465.69,140.94 C1469.11,141 1470.25,141.18 1470.73,141.78 C1471.09,142.32 1471.09,142.44 1471.09,145.5 L1471.09,174.12 C1471.09,177.12 1471.09,177.24 1470.73,177.84 C1470.25,178.44 1469.11,178.62 1465.69,178.62 L1464.61,178.62 L1464.61,181.44 L1484.29,181.44 L1484.29,178.62 L1483.21,178.62 C1479.79,178.62 1478.65,178.44 1478.17,177.84 C1477.81,177.24 1477.81,177.12 1477.81,174.12 L1477.81,160.44 M1477.81,157.62 L1477.81,144.42 C1477.69,141.12 1477.99,140.88 1481.95,140.94 L1485.19,140.94 C1491.13,140.94 1493.83,143.46 1493.83,148.92 C1493.83,155.22 1490.47,157.62 1484.41,157.62 L1477.81,157.62 "/>
<path class="StaffText" d="M1610.28,129.309 L1613.76,129.309 C1619.82,129.549 1622.22,132.009 1622.88,138.609 L1623.18,141.669 C1623.9,148.449 1626.12,151.209 1630.86,151.209 C1635.78,151.209 1638.12,147.909 1638.3,140.709 L1635.78,140.709 C1635.54,144.849 1634.82,146.649 1633.2,146.649 C1631.82,146.649 1631.22,145.629 1630.2,141.489 L1629.24,137.709 C1627.92,132.189 1625.58,129.669 1620.9,128.469 C1629.54,127.269 1633.68,123.789 1633.68,117.729 C1633.68,110.889 1627.92,106.989 1617.84,106.989 L1597.08,106.989 L1597.08,109.809 L1598.16,109.809 C1601.58,109.869 1602.72,110.049 1603.2,110.649 C1603.56,111.189 1603.56,111.309 1603.56,114.369 L1603.56,142.989 C1603.56,145.989 1603.56,146.109 1603.2,146.709 C1602.72,147.309 1601.58,147.489 1598.16,147.489 L1597.08,147.489 L1597.08,150.309 L1616.76,150.309 L1616.76,147.489 L1615.68,147.489 C1612.26,147.489 1611.12,147.309 1610.64,146.709 C1610.28,146.109 1610.28,145.989 1610.28,142.989 L1610.28,129.309 M1610.28,126.489 L1610.28,113.289 C1610.16,109.989 1610.46,109.749 1614.42,109.809 L1617.66,109.809 C1623.6,109.809 1626.3,112.329 1626.3,117.789 C1626.3,124.089 1622.94,126.489 1616.88,126.489 L1610.28,126.489 "/>
<path class="StaffText" d="M2688.16,165 L2685.52,165 C2683.54,175.8 2680.84,178.44 2671.54,178.62 L2669.02,178.62 C2665.42,178.5 2664.52,177.9 2664.7,175.74 L2664.7,145.5 C2664.7,142.5 2664.7,142.32 2665.06,141.78 C2665.54,141.18 2666.68,141 2670.1,140.94 L2671.18,140.94 L2671.18,138.12 L2651.5,138.12 L2651.5,140.94 L2652.58,140.94 C2656,141 2657.14,141.18 2657.62,141.78 C2657.98,142.32 2657.98,142.44 2657.98,145.5 L2657.98,174.06 C2657.98,177.12 2657.98,177.24 2657.62,177.78 C2657.14,178.38 2656,178.62 2652.58,178.62 L2651.5,178.62 L2651.5,181.44 L2686.9,181.44 L2688.16,165 "/>
<path class="StaffText" d="M662.484,136.869 L665.964,136.869 C672.024,137.109 674.424,139.569 675.084,146.169 L675.384,149.229 C676.104,156.009 678.324,158.769 683.064,158.769 C687.984,158.769 690.324,155.469 690.504,148.269 L687.984,148.269 C687.744,152.409 687.024,154.209 685.404,154.209 C684.024,154.209 683.424,153.189 682.404,149.049 L681.444,145.269 C680.124,139.749 677.784,137.229 673.104,136.029 C681.744,134.829 685.884,131.349 685.884,125.289 C685.884,118.449 680.124,114.549 670.044,114.549 L649.284,114.549 L649.284,117.369 L650.364,117.369 C653.784,117.429 654.924,117.609 655.404,118.209 C655.764,118.749 655.764,118.869 655.764,121.929 L655.764,150.549 C655.764,153.549 655.764,153.669 655.404,154.269 C654.924,154.869 653.784,155.049 650.364,155.049 L649.284,155.049 L649.284,157.869 L668.964,157.869 L668.964,155.049 L667.884,155.049 C664.464,155.049 663.324,154.869 662.844,154.269 C662.484,153.669 662.484,153.549 662.484,150.549 L662.484,136.869 M662.484,134.049 L662.484,120.849 C662.364,117.549 662.664,117.309 666.624,117.369 L669.864,117.369 C675.804,117.369 678.504,119.889 678.504,125.349 C678.504,131.649 675.144,134.049 669.084,134.049 L662.484,134.049 "/>
<path class="StaffText" d="M1722.04,137.28 L1719.4,137.28 C1717.42,148.08 1714.72,150.72 1705.42,150.9 L1702.9,150.9 C1699.3,150.78 1698.4,150.18 1698.58,148.02 L1698.58,117.78 C1698.58,114.78 1698.58,114.6 1698.94,114.06 C1699.42,113.46 1700.56,113.28 1703.98,113.22 L1705.06,113.22 L1705.06,110.4 L1685.38,110.4 L1685.38,113.22 L1686.46,113.22 C1689.88,113.28 1691.02,113.46 1691.5,114.06 C1691.86,114.6 1691.86,114.72 1691.86,117.78 L1691.86,146.34 C1691.86,149.4 1691.86,149.52 1691.5,150.06 C1691.02,150.66 1689.88,150.9 1686.46,150.9 L1685.38,150.9 L1685.38,153.72 L1720.78,153.72 L1722.04,137.28 "/>
<path class="StaffText" d="M2150.4,160.44 L2153.88,160.44 C2159.94,160.68 2162.34,163.14 2163,169.74 L2163.3,172.8 C2164.02,179.58 2166.24,182.34 2170.98,182.34 C2175.9,182.34 2178.24,179.04 2178.42,171.84 L2175.9,171.84 C2175.66,175.98 2174.94,177.78 2173.32,177.78 C2171.94,177.78 2171.34,176.76 2170.32,172.62 L2169.36,168.84 C2168.04,163.32 2165.7,160.8 2161.02,159.6 C2169.66,158.4 2173.8,154.92 2173.8,148.86 C2173.8,142.02 2168.04,138.12 2157.96,138.12 L2137.2,138.12 L2137.2,140.94 L2138.28,140.94 C2141.7,141 2142.84,141.18 2143.32,141.78 C2143.68,142.32 2143.68,142.44 2143.68,145.5 L2143.68,174.12 C2143.68,177.12 2143.68,177.24 2143.32,177.84 C2142.84,178.44 2141.7,178.62 2138.28,178.62 L2137.2,178.62 L2137.2,181.44 L2156.88,181.44 L2156.88,178.62 L2155.8,178.62 C2152.38,178.62 2151.24,178.44 2150.76,177.84 C2150.4,177.24 2150.4,177.12 2150.4,174.12 L2150.4,160.44 M2150.4,157.62 L2150.4,144.42 C2150.28,141.12 2150.58,140.88 2154.54,140.94 L2157.78,140.94 C2163.72,140.94 2166.42,143.46 2166.42,148.92 C2166.42,155.22 2163.06,157.62 2157,157.62 L2150.4,157.62 "/>
<path class="StaffText" d="M2723.57,160.44 L2727.05,160.44 C2733.11,160.68 2735.51,163.14 2736.17,169.74 L2736.47,172.8 C2737.19,179.58 2739.41,182.34 2744.15,182.34 C2749.07,182.34 2751.41,179.04 2751.59,171.84 L2749.07,171.84 C2748.83,175.98 2748.11,177.78 2746.49,177.78 C2745.11,177.78 2744.51,176.76 2743.49,172.62 L2742.53,168.84 C2741.21,163.32 2738.87,160.8 2734.19,159.6 C2742.83,158.4 2746.97,154.92 2746.97,148.86 C2746.97,142.02 2741.21,138.12 2731.13,138.12 L2710.37,138.12 L2710.37,140.94 L2711.45,140.94 C2714.87,141 2716.01,141.18 2716.49,141.78 C2716.85,142.32 2716.85,142.44 2716.85,145.5 L2716.85,174.12 C2716.85,177.12 2716.85,177.24 2716.49,177.84 C2716.01,178.44 2714.87,178.62 2711.45,178.62 L2710.37,178.62 L2710.37,181.44 L2730.05,181.44 L2730.05,178.62 L2728.97,178.62 C2725.55,178.62 2724.41,178.44 2723.93,177.84 C2723.57,177.24 2723.57,177.12 2723.57,174.12 L2723.57,160.44 M2723.57,157.62 L2723.57,144.42 C2723.45,141.12 2723.75,140.88 2727.71,140.94 L2730.95,140.94 C2736.89,140.94 2739.59,143.46 2739.59,148.92 C2739.59,155.22 2736.23,157.62 2730.17,157.62 L2723.57,157.62 "/>
<path class="StaffText" d="M441.714,160.44 L445.194,160.44 C451.254,160.68 453.654,163.14 454.314,169.74 L454.614,172.8 C455.334,179.58 457.554,182.34 462.294,182.34 C467.214,182.34 469.554,179.04 469.734,171.84 L467.214,171.84 C466.974,175.98 466.254,177.78 464.634,177.78 C463.254,177.78 462.654,176.76 461.634,172.62 L460.674,168.84 C459.354,163.32 457.014,160.8 452.334,159.6 C460.974,158.4 465.114,154.92 465.114,148.86 C465.114,142.02 459.354,138.12 449.274,138.12 L428.514,138.12 L428.514,140.94 L429.594,140.94 C433.014,141 434.154,141.18 434.634,141.78 C434.994,142.32 434.994,142.44 434.994,145.5 L434.994,174.12 C434.994,177.12 434.994,177.24 434.634,177.84 C434.154,178.44 433.014,178.62 429.594,178.62 L428.514,178.62 L428.514,181.44 L448.194,181.44 L448.194,178.62 L447.114,178.62 C443.694,178.62 442.554,178.44 442.074,177.84 C441.714,177.24 441.714,177.12 441.714,174.12 L441.714,160.44 M441.714,157.62 L441.714,144.42 C441.594,141.12 441.894,140.88 445.854,140.94 L449.094,140.94 C455.034,140.94 457.734,143.46 457.734,148.92 C457.734,155.22 454.374,157.62 448.314,157.62 L441.714,157.62 "/>
<path class="StaffText" d="M1898.65,165 L1896.01,165 C1894.03,175.8 1891.33,178.44 1882.03,178.62 L1879.51,178.62 C1875.91,178.5 1875.01,177.9 1875.19,175.74 L1875.19,145.5 C1875.19,142.5 1875.19,142.32 1875.55,141.78 C1876.03,141.18 1877.17,141 1880.59,140.94 L1881.67,140.94 L1881.67,138.12 L1861.99,138.12 L1861.99,140.94 L1863.07,140.94 C1866.49,141 1867.63,141.18 1868.11,141.78 C1868.47,142.32 1868.47,142.44 1868.47,145.5 L1868.47,174.06 C1868.47,177.12 1868.47,177.24 1868.11,177.78 C1867.63,178.38 1866.49,178.62 1863.07,178.62 L1861.99,178.62 L1861.99,181.44 L1897.39,181.44 L1898.65,165 "/>
<path class="StaffText" d="M220.943,160.44 L224.423,160.44 C230.483,160.68 232.883,163.14 233.543,169.74 L233.843,172.8 C234.563,179.58 236.783,182.34 241.523,182.34 C246.443,182.34 248.783,179.04 248.963,171.84 L246.443,171.84 C246.203,175.98 245.483,177.78 243.863,177.78 C242.483,177.78 241.883,176.76 240.863,172.62 L239.903,168.84 C238.583,163.32 236.243,160.8 231.563,159.6 C240.203,158.4 244.343,154.92 244.343,148.86 C244.343,142.02 238.583,138.12 228.503,138.12 L207.743,138.12 L207.743,140.94 L208.823,140.94 C212.243,141 213.383,141.18 213.863,141.78 C214.223,142.32 214.223,142.44 214.223,145.5 L214.223,174.12 C214.223,177.12 214.223,177.24 213.863,177.84 C213.383,178.44 212.243,178.62 208.823,178.62 L207.743,178.62 L207.743,181.44 L227.423,181.44 L227.423,178.62 L226.343,178.62 C222.923,178.62 221.783,178.44 221.303,177.84 C220.943,177.24 220.943,177.12 220.943,174.12 L220.943,160.44 M220.943,157.62 L220.943,144.42 C220.823,141.12 221.123,140.88 225.083,140.94 L228.323,140.94 C234.263,140.94 236.963,143.46 236.963,148.92 C236.963,155.22 233.603,157.62 227.543,157.62 L220.943,157.62 "/>
<path class="StaffText" d="M1963.51,136.869 L1966.99,136.869 C1973.05,137.109 1975.45,139.569 1976.11,146.169 L1976.41,149.229 C1977.13,156.009 1979.35,158.769 1984.09,158.769 C1989.01,158.769 1991.35,155.469 1991.53,148.269 L1989.01,148.269 C1988.77,152.409 1988.05,154.209 1986.43,154.209 C1985.05,154.209 1984.45,153.189 1983.43,149.049 L1982.47,145.269 C1981.15,139.749 1978.81,137.229 1974.13,136.029 C1982.77,134.829 1986.91,131.349 1986.91,125.289 C1986.91,118.449 1981.15,114.549 1971.07,114.549 L1950.31,114.549 L1950.31,117.369 L1951.39,117.369 C1954.81,117.429 1955.95,117.609 1956.43,118.209 C1956.79,118.749 1956.79,118.869 1956.79,121.929 L1956.79,150.549 C1956.79,153.549 1956.79,153.669 1956.43,154.269 C1955.95,154.869 1954.81,155.049 1951.39,155.049 L1950.31,155.049 L1950.31,157.869 L1969.99,157.869 L1969.99,155.049 L1968.91,155.049 C1965.49,155.049 1964.35,154.869 1963.87,154.269 C1963.51,153.669 1963.51,153.549 1963.51,150.549 L1963.51,136.869 M1963.51,134.049 L1963.51,120.849 C1963.39,117.549 1963.69,117.309 1967.65,117.369 L1970.89,117.369 C1976.83,117.369 1979.53,119.889 1979.53,125.349 C1979.53,131.649 1976.17,134.049 1970.11,134.049 L1963.51,134.049 "/>
<path class="StaffText" d="M2841.32,136.869 L2844.8,136.869 C2850.86,137.109 2853.26,139.569 2853.92,146.169 L2854.22,149.229 C2854.94,156.009 2857.16,158.769 2861.9,158.769 C2866.82,158.769 2869.16,155.469 2869.34,148.269 L2866.82,148.269 C2866.58,152.409 2865.86,154.209 2864.24,154.209 C2862.86,154.209 2862.26,153.189 2861.24,149.049 L2860.28,145.269 C2858.96,139.749 2856.62,137.229 2851.94,136.029 C2860.58,134.829 2864.72,131.349 2864.72,125.289 C2864.72,118.449 2858.96,114.549 2848.88,114.549 L2828.12,114.549 L2828.12,117.369 L2829.2,117.369 C2832.62,117.429 2833.76,117.609 2834.24,118.209 C2834.6,118.749 2834.6,118.869 2834.6,121.929 L2834.6,150.549 C2834.6,153.549 2834.6,153.669 2834.24,154.269 C2833.76,154.869 2832.62,155.049 2829.2,155.049 L2828.12,155.049 L2828.12,157.869 L2847.8,157.869 L2847.8,155.049 L2846.72,155.049 C2843.3,155.049 2842.16,154.869 2841.68,154.269 C2841.32,153.669 2841.32,153.549 2841.32,150.549 L2841.32,136.869 M2841.32,134.049 L2841.32,120.849 C2841.2,117.549 2841.5,117.309 2845.46,117.369 L2848.7,117.369 C2854.64,117.369 2857.34,119.889 2857.34,125.349 C2857.34,131.649 2853.98,134.049 2847.92,134.049 L2841.32,134.049 "/>
</svg>
