<?xml version="1.0" encoding="UTF-8" standalone="no"?>
<svg width="2977.2px" height="612px" viewBox="0 0 2977.2 612"
 xmlns="http://www.w3.org/2000/svg" xmlns:xlink="http://www.w3.org/1999/xlink" version="1.2" baseProfile="tiny">
<title>variable_line_fill</title>
<desc>Generated by MuseScore Studio 4.4.4</desc>
<path class="" fill="#ffffff" fill-rule="evenodd" d="M0,0 L2977.2,0 L2977.2,612 L0,612 L0,0 "/>
<polyline class="StaffLines" fill="none" stroke="#000000" stroke-width="3.33" stroke-linejoin="bevel" points="0,211.68 2977.2,211.68"/>
<polyline class="StaffLines" fill="none" stroke="#000000" stroke-width="3.33" stroke-linejoin="bevel" points="0,241.92 2977.2,241.92"/>
<polyline class="StaffLines" fill="none" stroke="#000000" stroke-width="3.33" stroke-linejoin="bevel" points="0,272.16 2977.2,272.16"/>
<polyline class="StaffLines" fill="none" stroke="#000000" stroke-width="3.33" stroke-linejoin="bevel" points="0,302.4 2977.2,302.4"/>
<polyline class="StaffLines" fill="none" stroke="#000000" stroke-width="3.33" stroke-linejoin="bevel" points="0,332.64 2977.2,332.64"/>
<polyline class="BarLine" fill="none" stroke="#000000" stroke-width="5.44" stroke-linejoin="bevel" points="2946.66,210.017 2946.66,334.303"/>
<polyline class="BarLine" fill="none" stroke="#000000" stroke-width="16.63" stroke-linejoin="bevel" points="2968.88,210.017 2968.88,334.303"/>
<polyline class="BarLine" fill="none" stroke="#000000" stroke-width="5.44" stroke-linejoin="bevel" points="2374.28,210.017 2374.28,334.303"/>
<polyline class="BarLine" fill="none" stroke="#000000" stroke-width="5.44" stroke-linejoin="bevel" points="1801.9,210.017 1801.9,334.303"/>
<polyline class="BarLine" fill="none" stroke="#000000" stroke-width="5.44" stroke-linejoin="bevel" points="1229.53,210.017 1229.53,334.303"/>
<polyline class="Stem" fill="none" stroke="#000000" stroke-width="3.02" stroke-linejoin="bevel" points="872.633,312.682 872.633,219.24"/>
<polyline class="Stem" fill="none" stroke="#000000" stroke-width="3.02" stroke-linejoin="bevel" points="245.511,312.682 245.511,211.68"/>
<polyline class="Stem" fill="none" stroke="#000000" stroke-width="3.02" stroke-linejoin="bevel" points="480.682,252.202 480.682,173.88"/>
<polyline class="Stem" fill="none" stroke="#000000" stroke-width="3.02" stroke-linejoin="bevel" points="1029.41,252.202 1029.41,173.88"/>
<polyline class="Stem" fill="none" stroke="#000000" stroke-width="3.02" stroke-linejoin="bevel" points="715.853,312.682 715.853,219.24"/>
<path class="Note" transform="matrix(1.2096,0,0,1.2096,834.852,317.52)" d="M0,4.2 C0,8.5 3.1,13.3 11.2,13.3 C21.6,13.3 32.5,4.8 32.5,-4 C32.5,-9.9 27.5,-13.2 21.3,-13.2 C11.6,-13.2 0,-5 0,4.2"/>
<path class="Note" transform="matrix(1.2096,0,0,1.2096,678.072,317.52)" d="M0,4.2 C0,8.5 3.1,13.3 11.2,13.3 C21.6,13.3 32.5,4.8 32.5,-4 C32.5,-9.9 27.5,-13.2 21.3,-13.2 C11.6,-13.2 0,-5 0,4.2"/>
<path class="Note" transform="matrix(1.2096,0,0,1.2096,991.633,257.04)" d="M0,4.2 C0,8.5 3.1,13.3 11.2,13.3 C21.6,13.3 32.5,4.8 32.5,-4 C32.5,-9.9 27.5,-13.2 21.3,-13.2 C11.6,-13.2 0,-5 0,4.2"/>
<path class="Note" transform="matrix(1.2096,0,0,1.2096,442.901,257.04)" d="M0,4.2 C0,8.5 3.1,13.3 11.2,13.3 C21.6,13.3 32.5,4.8 32.5,-4 C32.5,-9.9 27.5,-13.2 21.3,-13.2 C11.6,-13.2 0,-5 0,4.2"/>
<path class="Note" transform="matrix(1.2096,0,0,1.2096,207.73,317.52)" d="M0,4.2 C0,8.5 3.1,13.3 11.2,13.3 C21.6,13.3 32.5,4.8 32.5,-4 C32.5,-9.9 27.5,-13.2 21.3,-13.2 C11.6,-13.2 0,-5 0,4.2"/>
<path class="Clef" transform="matrix(1.2096,0,0,1.2096,22.68,272.16)" d="M1.3,-25.2 C0.6,-25.2 0,-24.6 0,-23.9 L0,23.9 C0,24.6 0.6,25.2 1.3,25.2 L12.3,25.2 C13,25.2 13.6,24.6 13.6,23.9 L13.6,-23.9 C13.6,-24.6 13,-25.2 12.3,-25.2 L1.3,-25.2 M22.9,-25.2 C22.2,-25.2 21.6,-24.6 21.6,-23.9 L21.6,23.9 C21.6,24.6 22.2,25.2 22.9,25.2 L33.9,25.2 C34.6,25.2 35.2,24.6 35.2,23.9 L35.2,-23.9 C35.2,-24.6 34.6,-25.2 33.9,-25.2 L22.9,-25.2 "/>
<path class="TimeSig" transform="matrix(1.2096,0,0,1.2096,93.8007,241.92)" d="M20.8,12.7 L20.8,20.1 L12.5,20.1 C11.8,20.1 11.1,20.7 11.1,21.5 L11.1,23.4 C11.1,24.2 11.8,24.8 12.5,24.8 L42.8,24.8 C43.6,24.8 44.2,24.2 44.2,23.4 L44.2,21.5 C44.2,20.7 43.6,20.1 42.8,20.1 L33.9,20.1 L33.9,12.7 L42.8,12.7 C43.6,12.7 44.2,12 44.2,11.2 L44.2,9.3 C44.2,8.6 43.6,7.9 42.8,7.9 L33.9,7.9 L33.9,-8 C33.9,-8.6 33.6,-9.1 33.1,-9.3 L31.9,-9.9 C31.7,-10 31.4,-10.1 31.2,-10.1 C30.9,-10 30.5,-9.9 30.3,-9.7 L21.2,-1.4 C20.9,-1.1 20.8,-0.7 20.8,-0.3 L20.8,7.9 L9.3,7.9 C9.3,7.9 20.4,-4.1 32.2,-19.9 C32.6,-20.4 32.7,-20.9 32.7,-21.3 C32.7,-21.8 32.5,-22.2 32.4,-22.3 L30.2,-24.5 C30,-24.7 29.6,-24.9 29.2,-24.9 C28.6,-24.9 15.1,-24.9 14.4,-24.9 C13.6,-24.9 13.1,-24.3 13,-23.7 C13,-23.7 12.5,-16.3 9.9,-8.2 C7.3,-0.1 4.3,4.9 1.7,8.6 C1.7,8.6 1.4,9.1 1.4,9.7 C1.4,9.9 1.4,10.1 1.5,10.3 C1.9,11 2.5,12.1 2.5,12.1 C2.5,12.1 2.7,12.7 3.6,12.7 L20.8,12.7 "/>
<path class="TimeSig" transform="matrix(1.2096,0,0,1.2096,93.8007,302.4)" d="M20.8,12.7 L20.8,20.1 L12.5,20.1 C11.8,20.1 11.1,20.7 11.1,21.5 L11.1,23.4 C11.1,24.2 11.8,24.8 12.5,24.8 L42.8,24.8 C43.6,24.8 44.2,24.2 44.2,23.4 L44.2,21.5 C44.2,20.7 43.6,20.1 42.8,20.1 L33.9,20.1 L33.9,12.7 L42.8,12.7 C43.6,12.7 44.2,12 44.2,11.2 L44.2,9.3 C44.2,8.6 43.6,7.9 42.8,7.9 L33.9,7.9 L33.9,-8 C33.9,-8.6 33.6,-9.1 33.1,-9.3 L31.9,-9.9 C31.7,-10 31.4,-10.1 31.2,-10.1 C30.9,-10 30.5,-9.9 30.3,-9.7 L21.2,-1.4 C20.9,-1.1 20.8,-0.7 20.8,-0.3 L20.8,7.9 L9.3,7.9 C9.3,7.9 20.4,-4.1 32.2,-19.9 C32.6,-20.4 32.7,-20.9 32.7,-21.3 C32.7,-21.8 32.5,-22.2 32.4,-22.3 L30.2,-24.5 C30,-24.7 29.6,-24.9 29.2,-24.9 C28.6,-24.9 15.1,-24.9 14.4,-24.9 C13.6,-24.9 13.1,-24.3 13,-23.7 C13,-23.7 12.5,-16.3 9.9,-8.2 C7.3,-0.1 4.3,4.9 1.7,8.6 C1.7,8.6 1.4,9.1 1.4,9.7 C1.4,9.9 1.4,10.1 1.5,10.3 C1.9,11 2.5,12.1 2.5,12.1 C2.5,12.1 2.7,12.7 3.6,12.7 L20.8,12.7 "/>
<path class="Rest" transform="matrix(1.2096,0,0,1.2096,2640.82,241.92)" d="M1.4,-0.5 C0.6,-0.5 0,0.1 0,0.9 L0,11.7 C0,12.5 0.6,13.1 1.4,13.1 L31.1,13.1 C31.9,13.1 32.5,12.5 32.5,11.7 L32.5,0.9 C32.5,0.1 31.9,-0.5 31.1,-0.5 L1.4,-0.5 "/>
<path class="MeasureRepeat" transform="matrix(1.2096,0,0,1.2096,1486.63,272.103)" d="M48.1,-25 L35.5,-25 L0,25 L12.6,25 L48.1,-25 M12.7,-12.5 C12.7,-16 9.8,-18.8 6.4,-18.8 C2.9,-18.8 0.1,-16 0.1,-12.5 C0.1,-9 2.9,-6.2 6.4,-6.2 C9.8,-6.2 12.7,-9 12.7,-12.5 M48.1,12.6 C48.1,9.1 45.2,6.3 41.8,6.3 C38.3,6.3 35.5,9.1 35.5,12.6 C35.5,16.1 38.3,18.9 41.8,18.9 C45.2,18.9 48.1,16.1 48.1,12.6"/>
<path class="MeasureRepeat" transform="matrix(1.2096,0,0,1.2096,2059,272.103)" d="M48.1,-25 L35.5,-25 L0,25 L12.6,25 L48.1,-25 M12.7,-12.5 C12.7,-16 9.8,-18.8 6.4,-18.8 C2.9,-18.8 0.1,-16 0.1,-12.5 C0.1,-9 2.9,-6.2 6.4,-6.2 C9.8,-6.2 12.7,-9 12.7,-12.5 M48.1,12.6 C48.1,9.1 45.2,6.3 41.8,6.3 C38.3,6.3 35.5,9.1 35.5,12.6 C35.5,16.1 38.3,18.9 41.8,18.9 C45.2,18.9 48.1,16.1 48.1,12.6"/>
<path class="Beam" fill-rule="evenodd" d="M714.341,211.68 L874.145,211.68 L874.145,226.8 L714.341,226.8 L714.341,211.68 "/>
<path class="Lyrics" d="M704.191,395.904 C711.926,393.099 715.496,388.764 715.496,381.964 C715.496,373.039 708.696,367.344 698.156,367.344 C688.211,367.344 680.646,373.209 680.646,380.944 C680.646,384.429 682.941,386.894 686.256,386.894 C689.231,386.894 691.271,384.854 691.271,381.794 C691.271,379.924 690.591,378.819 688.636,377.459 C687.786,376.864 687.531,376.524 687.531,375.929 C687.531,373.549 692.461,370.999 697.306,370.999 C703.426,370.999 706.656,374.824 706.656,382.049 C706.656,389.954 703.426,394.119 697.391,394.119 C696.626,394.119 695.181,394.034 693.906,393.949 C693.226,393.864 692.546,393.864 692.036,393.864 C690.251,393.864 689.316,394.629 689.316,396.159 C689.316,397.604 690.166,398.284 692.036,398.284 C692.546,398.284 693.226,398.284 693.991,398.199 C695.691,398.114 697.051,398.114 697.986,398.114 C704.276,398.114 707.676,402.619 707.676,411.034 C707.676,419.874 703.426,424.804 695.776,424.804 C690.421,424.804 684.641,421.914 684.641,419.279 C684.641,418.514 684.811,418.344 686.426,417.409 C688.806,415.964 689.741,414.519 689.741,412.394 C689.741,409.334 687.446,407.039 684.386,407.039 C680.731,407.039 678.351,410.014 678.351,414.519 C678.351,422.764 685.916,428.459 696.796,428.459 C709.121,428.459 717.111,421.659 717.111,411.204 C717.111,403.214 713.031,398.369 704.191,395.904"/>
<path class="Lyrics" d="M881.54,412.819 C880.52,418.174 877.715,421.404 873.975,421.404 C870.745,421.404 867.94,419.874 864.625,416.219 C868.025,412.054 868.45,411.459 870.235,408.059 C875.42,397.944 876.44,396.924 882.475,396.499 L883.41,396.499 L883.41,392.844 L859.44,392.844 L859.44,396.499 L860.29,396.499 C865.305,396.499 867.94,397.859 867.94,400.494 C867.94,404.149 865.645,409.164 861.99,413.329 C857.91,408.484 853.065,401.174 848.305,392.249 C852.895,390.209 854.34,389.444 856.55,387.914 C860.46,385.194 863.01,380.519 863.01,376.014 C863.01,369.129 857.655,364.539 849.75,364.539 C840.825,364.539 834.875,370.574 834.875,379.584 C834.875,383.324 835.81,386.639 838.445,392.249 C828.925,396.754 823.74,403.469 823.74,411.119 C823.74,415.369 825.61,420.044 828.585,423.274 C831.73,426.674 836.235,428.459 842.015,428.459 C848.135,428.459 852.81,426.759 858.335,422.424 C862.415,426.589 865.73,428.119 870.405,428.119 C879.415,428.119 884.26,421.574 885.28,413.329 L881.54,412.819 M846.52,388.679 C844.055,383.579 842.865,379.754 842.865,376.609 C842.865,371.679 845.585,368.194 849.495,368.194 C853.405,368.194 856.21,371.509 856.21,376.184 C856.21,379.414 854.765,382.814 852.555,384.939 C851.195,386.214 849.92,386.979 846.52,388.679 M840.06,395.734 C845.585,406.699 848.475,411.119 855.7,419.534 C851.96,421.914 850.005,422.679 847.115,422.679 C839.55,422.679 832.835,415.029 832.835,406.529 C832.835,401.854 834.96,398.709 840.06,395.734"/>
<path class="Lyrics" d="M482.535,408.824 L478.795,408.824 L477.945,413.159 C476.84,418.684 476.16,419.194 470.89,419.194 L451.85,419.194 C457.715,413.074 459.67,411.289 465.11,407.039 C472.845,401.089 476.16,398.114 478.115,395.564 C480.835,391.824 482.195,388.084 482.195,383.919 C482.195,374.229 474.205,367.344 463.07,367.344 C452.275,367.344 444.03,374.229 444.03,383.324 C444.03,388.679 446.75,392.334 450.745,392.334 C453.89,392.334 456.015,390.209 456.015,387.149 C456.015,385.024 454.825,383.069 453.04,382.304 C449.895,381.029 449.725,380.859 449.725,379.754 C449.725,378.479 450.575,376.524 451.765,375.079 C453.89,372.444 457.375,370.999 461.37,370.999 C468.425,370.999 472.59,375.334 472.59,382.474 C472.59,388.764 469.615,394.459 462.56,401.939 C456.27,408.569 452.36,412.734 450.915,414.349 C447.855,417.919 446.325,419.874 442.585,424.804 L442.585,427.184 L480.92,427.184 L482.535,408.824 "/>
<path class="Lyrics" d="M1018.98,367.344 L990.081,407.549 L990.081,412.309 L1013.97,412.309 L1013.97,416.729 C1013.97,421.064 1013.97,421.234 1013.46,421.999 C1012.78,422.934 1011.16,423.189 1006.32,423.189 L1005.38,423.189 L1005.38,427.184 L1030.2,427.184 L1030.2,423.189 L1029.86,423.189 C1025.02,423.189 1023.4,422.934 1022.72,421.999 C1022.21,421.234 1022.21,421.149 1022.21,416.729 L1022.21,412.309 L1032.5,412.309 L1032.5,407.549 L1022.21,407.549 L1022.21,384.344 C1022.21,373.719 1022.21,373.464 1022.64,367.344 L1018.98,367.344 M1013.97,407.549 L995.266,407.549 L1013.97,381.794 L1013.97,407.549 "/>
<path class="Lyrics" d="M229.418,367.344 C226.528,370.829 218.708,373.464 210.888,373.634 L210.888,377.289 L218.368,377.289 C223.298,377.374 223.808,377.884 223.638,382.644 L223.638,416.729 C223.638,421.064 223.638,421.234 223.128,421.999 C222.448,422.849 220.833,423.189 216.073,423.189 L210.548,423.189 L210.548,427.184 L244.208,427.184 L244.208,423.189 L239.533,423.189 C234.773,423.189 233.158,422.849 232.478,421.999 C231.883,421.234 231.883,421.149 231.883,416.729 L231.883,381.624 C231.883,376.864 232.053,372.869 232.478,367.344 L229.418,367.344 "/>
<path class="StaffText" d="M691.285,160.44 L694.765,160.44 C700.825,160.68 703.225,163.14 703.885,169.74 L704.185,172.8 C704.905,179.58 707.125,182.34 711.865,182.34 C716.785,182.34 719.125,179.04 719.305,171.84 L716.785,171.84 C716.545,175.98 715.825,177.78 714.205,177.78 C712.825,177.78 712.225,176.76 711.205,172.62 L710.245,168.84 C708.925,163.32 706.585,160.8 701.905,159.6 C710.545,158.4 714.685,154.92 714.685,148.86 C714.685,142.02 708.925,138.12 698.845,138.12 L678.085,138.12 L678.085,140.94 L679.165,140.94 C682.585,141 683.725,141.18 684.205,141.78 C684.565,142.32 684.565,142.44 684.565,145.5 L684.565,174.12 C684.565,177.12 684.565,177.24 684.205,177.84 C683.725,178.44 682.585,178.62 679.165,178.62 L678.085,178.62 L678.085,181.44 L697.765,181.44 L697.765,178.62 L696.685,178.62 C693.265,178.62 692.125,178.44 691.645,177.84 C691.285,177.24 691.285,177.12 691.285,174.12 L691.285,160.44 M691.285,157.62 L691.285,144.42 C691.165,141.12 691.465,140.88 695.425,140.94 L698.665,140.94 C704.605,140.94 707.305,143.46 707.305,148.92 C707.305,155.22 703.945,157.62 697.885,157.62 L691.285,157.62 "/>
<path class="StaffText" d="M456.114,136.869 L459.594,136.869 C465.654,137.109 468.054,139.569 468.714,146.169 L469.014,149.229 C469.734,156.009 471.954,158.769 476.694,158.769 C481.614,158.769 483.954,155.469 484.134,148.269 L481.614,148.269 C481.374,152.409 480.654,154.209 479.034,154.209 C477.654,154.209 477.054,153.189 476.034,149.049 L475.074,145.269 C473.754,139.749 471.414,137.229 466.734,136.029 C475.374,134.829 479.514,131.349 479.514,125.289 C479.514,118.449 473.754,114.549 463.674,114.549 L442.914,114.549 L442.914,117.369 L443.994,117.369 C447.414,117.429 448.554,117.609 449.034,118.209 C449.394,118.749 449.394,118.869 449.394,121.929 L449.394,150.549 C449.394,153.549 449.394,153.669 449.034,154.269 C448.554,154.869 447.414,155.049 443.994,155.049 L442.914,155.049 L442.914,157.869 L462.594,157.869 L462.594,155.049 L461.514,155.049 C458.094,155.049 456.954,154.869 456.474,154.269 C456.114,153.669 456.114,153.549 456.114,150.549 L456.114,136.869 M456.114,134.049 L456.114,120.849 C455.994,117.549 456.294,117.309 460.254,117.369 L463.494,117.369 C469.434,117.369 472.134,119.889 472.134,125.349 C472.134,131.649 468.774,134.049 462.714,134.049 L456.114,134.049 "/>
<path class="StaffText" d="M871.518,165 L868.878,165 C866.898,175.8 864.198,178.44 854.898,178.62 L852.378,178.62 C848.778,178.5 847.878,177.9 848.058,175.74 L848.058,145.5 C848.058,142.5 848.058,142.32 848.418,141.78 C848.898,141.18 850.038,141 853.458,140.94 L854.538,140.94 L854.538,138.12 L834.858,138.12 L834.858,140.94 L835.938,140.94 C839.358,141 840.498,141.18 840.978,141.78 C841.338,142.32 841.338,142.44 841.338,145.5 L841.338,174.06 C841.338,177.12 841.338,177.24 840.978,177.78 C840.498,178.38 839.358,178.62 835.938,178.62 L834.858,178.62 L834.858,181.44 L870.258,181.44 L871.518,165 "/>
<path class="StaffText" d="M1004.85,136.869 L1008.33,136.869 C1014.39,137.109 1016.79,139.569 1017.45,146.169 L1017.75,149.229 C1018.47,156.009 1020.69,158.769 1025.43,158.769 C1030.35,158.769 1032.69,155.469 1032.87,148.269 L1030.35,148.269 C1030.11,152.409 1029.39,154.209 1027.77,154.209 C1026.39,154.209 1025.79,153.189 1024.77,149.049 L1023.81,145.269 C1022.49,139.749 1020.15,137.229 1015.47,136.029 C1024.11,134.829 1028.25,131.349 1028.25,125.289 C1028.25,118.449 1022.49,114.549 1012.41,114.549 L991.646,114.549 L991.646,117.369 L992.726,117.369 C996.146,117.429 997.286,117.609 997.766,118.209 C998.126,118.749 998.126,118.869 998.126,121.929 L998.126,150.549 C998.126,153.549 998.126,153.669 997.766,154.269 C997.286,154.869 996.146,155.049 992.726,155.049 L991.646,155.049 L991.646,157.869 L1011.33,157.869 L1011.33,155.049 L1010.25,155.049 C1006.83,155.049 1005.69,154.869 1005.21,154.269 C1004.85,153.669 1004.85,153.549 1004.85,150.549 L1004.85,136.869 M1004.85,134.049 L1004.85,120.849 C1004.73,117.549 1005.03,117.309 1008.99,117.369 L1012.23,117.369 C1018.17,117.369 1020.87,119.889 1020.87,125.349 C1020.87,131.649 1017.51,134.049 1011.45,134.049 L1004.85,134.049 "/>
<path class="StaffText" d="M220.943,160.44 L224.423,160.44 C230.483,160.68 232.883,163.14 233.543,169.74 L233.843,172.8 C234.563,179.58 236.783,182.34 241.523,182.34 C246.443,182.34 248.783,179.04 248.963,171.84 L246.443,171.84 C246.203,175.98 245.483,177.78 243.863,177.78 C242.483,177.78 241.883,176.76 240.863,172.62 L239.903,168.84 C238.583,163.32 236.243,160.8 231.563,159.6 C240.203,158.4 244.343,154.92 244.343,148.86 C244.343,142.02 238.583,138.12 228.503,138.12 L207.743,138.12 L207.743,140.94 L208.823,140.94 C212.243,141 213.383,141.18 213.863,141.78 C214.223,142.32 214.223,142.44 214.223,145.5 L214.223,174.12 C214.223,177.12 214.223,177.24 213.863,177.84 C213.383,178.44 212.243,178.62 208.823,178.62 L207.743,178.62 L207.743,181.44 L227.423,181.44 L227.423,178.62 L226.343,178.62 C222.923,178.62 221.783,178.44 221.303,177.84 C220.943,177.24 220.943,177.12 220.943,174.12 L220.943,160.44 M220.943,157.62 L220.943,144.42 C220.823,141.12 221.123,140.88 225.083,140.94 L228.323,140.94 C234.263,140.94 236.963,143.46 236.963,148.92 C236.963,155.22 233.603,157.62 227.543,157.62 L220.943,157.62 "/>
<path class="StaffText" fill="#ffffff" stroke="#000000" stroke-width="3.02" stroke-linecap="square" stroke-linejoin="miter" stroke-miterlimit="2" fill-rule="evenodd" d="M2520.48,227.779 L2800.92,227.779 L2800.92,309.962 L2520.48,309.962 L2520.48,227.779 "/>
<path class="StaffText" d="M2582.2,236.7 L2528.06,236.7 L2528.06,240.977 L2529.69,240.977 C2534.88,241.068 2536.61,241.341 2537.34,242.251 C2537.88,243.07 2537.88,243.252 2537.88,247.893 L2537.88,291.209 C2537.88,295.85 2537.88,296.032 2537.34,296.851 C2536.61,297.761 2534.88,298.125 2529.69,298.125 L2528.06,298.125 L2528.06,302.402 L2559.27,302.402 L2559.27,298.125 L2556.27,298.125 C2551.08,298.125 2549.35,297.761 2548.62,296.851 C2548.08,296.032 2548.08,295.759 2548.08,291.209 L2548.08,270.552 L2549.9,270.552 C2559.27,270.188 2562.64,273.555 2563,283.656 L2567.28,283.656 L2567.28,253.808 L2563,253.808 C2562.45,262.726 2558.91,266.184 2550.26,266.275 L2548.08,266.275 L2548.08,245.527 C2547.99,241.705 2548.9,241.068 2553.81,240.977 L2558,240.977 C2572.92,240.886 2576.65,244.253 2579.47,259.905 L2583.48,259.905 L2582.2,236.7 M2601.93,237.337 C2599.02,237.337 2596.66,239.703 2596.66,242.615 C2596.66,245.527 2599.02,247.893 2601.84,247.893 C2604.85,247.893 2607.21,245.527 2607.21,242.615 C2607.21,239.703 2604.85,237.337 2601.93,237.337 M2606.21,259.996 L2589.1,260.997 L2589.1,264.91 L2593.74,264.91 C2597.2,265.001 2597.66,265.547 2597.66,269.46 L2597.66,295.486 C2597.57,296.851 2597.47,297.397 2597.11,297.852 C2596.47,298.671 2594.74,299.035 2590.83,299.126 L2590.19,299.126 L2590.19,302.402 L2613.76,302.402 L2613.76,299.126 L2613.13,299.126 C2607.03,298.944 2606.21,298.489 2606.21,295.213 L2606.21,259.996 M2634.68,235.335 L2617.85,236.336 L2617.85,240.249 L2622.31,240.249 C2625.68,240.34 2626.13,240.886 2626.13,244.799 L2626.13,295.486 C2626.04,296.851 2625.95,297.397 2625.58,297.852 C2624.95,298.671 2623.22,299.035 2619.31,299.126 L2618.67,299.126 L2618.67,302.402 L2642.24,302.402 L2642.24,299.126 L2641.6,299.126 C2635.5,298.944 2634.68,298.489 2634.68,295.213 L2634.68,235.335 M2663.34,235.335 L2646.51,236.336 L2646.51,240.249 L2650.97,240.249 C2654.33,240.34 2654.79,240.886 2654.79,244.799 L2654.79,295.486 C2654.7,296.851 2654.61,297.397 2654.24,297.852 C2653.6,298.671 2651.88,299.035 2647.96,299.126 L2647.33,299.126 L2647.33,302.402 L2670.89,302.402 L2670.89,299.126 L2670.26,299.126 C2664.16,298.944 2663.34,298.489 2663.34,295.213 L2663.34,235.335 M2677.26,277.104 L2677.26,284.657 L2699.91,284.657 L2699.91,277.104 L2677.26,277.104 M2707.19,240.977 L2709.01,240.977 C2714.2,241.068 2715.92,241.341 2716.65,242.251 C2717.2,243.07 2717.2,243.343 2717.2,247.893 L2717.2,291.209 C2717.2,295.759 2717.2,296.032 2716.65,296.851 C2715.92,297.761 2714.2,298.125 2709.01,298.125 L2707.19,298.125 L2707.19,302.402 L2737.31,302.402 L2737.31,298.125 L2735.49,298.125 C2730.39,298.125 2728.66,297.852 2727.94,296.851 C2727.39,296.032 2727.39,295.85 2727.39,291.209 L2727.39,247.893 C2727.39,243.252 2727.39,243.07 2727.94,242.251 C2728.66,241.341 2730.3,241.068 2735.49,240.977 L2737.31,240.977 L2737.31,236.7 L2707.19,236.7 L2707.19,240.977 M2758.96,259.996 L2743.22,260.997 L2743.22,264.91 L2746.49,264.91 C2749.95,265.001 2750.41,265.547 2750.41,269.46 L2750.41,295.486 C2750.32,296.851 2750.23,297.397 2749.86,297.852 C2749.22,298.671 2747.5,299.035 2743.58,299.126 L2743.22,299.126 L2743.22,302.402 L2766.24,302.402 L2766.24,299.126 L2765.88,299.126 C2759.78,298.944 2758.96,298.489 2758.96,295.213 L2758.96,281.745 C2758.96,277.286 2759.6,273.191 2760.6,271.098 C2762.51,267.003 2766.61,264.182 2770.52,264.182 C2772.88,264.182 2775.61,265.456 2776.98,267.367 C2778.34,269.369 2778.98,272.099 2778.98,276.467 L2778.98,295.486 C2778.89,296.851 2778.8,297.397 2778.44,297.852 C2777.8,298.671 2775.98,299.035 2772.07,299.126 L2771.7,299.126 L2771.7,302.402 L2794.72,302.402 L2794.72,299.126 L2794.36,299.126 C2788.35,298.944 2787.54,298.489 2787.54,295.213 L2787.54,276.922 C2787.54,270.37 2787.26,268.732 2785.62,265.638 C2783.35,261.27 2778.8,258.631 2773.34,258.631 C2767.42,258.631 2762.97,261.361 2758.96,267.367 L2758.96,259.996 "/>
</svg>
